<svg
  width="21"
  height="23"
  viewBox="0 0 21 23"
  fill="none"
  xmlns="http://www.w3.org/2000/svg"
>
  <path
    d="M14.2354 3.79043C14.2354 3.27923 14.2354 3.02363 14.1824 2.79024C14.0843 2.35887 13.8545 1.96867 13.5249 1.67369C13.3465 1.5141 13.123 1.39012 12.6759 1.14218L11.5335 0.508578C11.1112 0.274342 10.9 0.157224 10.6821 0.0913217C10.2795 -0.0304406 9.84994 -0.0304406 9.44735 0.0913218C9.22946 0.157224 9.01829 0.274342 8.59596 0.508578L8.12483 0.769879C7.553 1.08703 7.26708 1.2456 7.1361 1.43019C6.89111 1.77543 6.89133 2.23786 7.13665 2.58287C7.26781 2.76733 7.55388 2.92563 8.12601 3.24223L8.5074 3.45329C8.95515 3.70106 9.17902 3.82494 9.35767 3.98455C9.68787 4.27955 9.91806 4.67001 10.0163 5.10175C10.0694 5.33534 10.0694 5.59121 10.0694 6.10294V6.53965C10.0694 7.15975 10.0694 7.4698 10.1626 7.66969C10.3367 8.04326 10.7231 8.27085 11.1343 8.24203C11.3543 8.22661 11.6254 8.07629 12.1678 7.77566L12.6753 7.49434C13.1225 7.24644 13.3461 7.12249 13.5246 6.9629C13.8544 6.66791 14.0842 6.27765 14.1824 5.84618C14.2354 5.61274 14.2354 5.35708 14.2354 4.84574V3.79043Z"
    fill="currentColor"
  />
  <path
    d="M5.68991 3.90829C5.2472 3.65269 5.02584 3.52489 4.7972 3.45414C4.37459 3.32338 3.92177 3.32728 3.50147 3.46529C3.27408 3.53997 3.05495 3.67156 2.61671 3.93474L1.49679 4.60729C1.08277 4.85592 0.875755 4.98024 0.709735 5.13599C0.402994 5.42376 0.188193 5.7958 0.0923494 6.20533C0.0404756 6.42699 0.0363194 6.66842 0.028007 7.15129L0.0187342 7.68995C0.00747948 8.34375 0.00185211 8.67064 0.0962156 8.87638C0.272705 9.26116 0.673295 9.49219 1.09474 9.45224C1.32007 9.43088 1.60019 9.26229 2.16045 8.92511L2.53392 8.70034C2.97237 8.43646 3.19159 8.30452 3.41914 8.22961C3.83972 8.09115 4.29296 8.08703 4.71598 8.21783C4.94485 8.2886 5.16644 8.41653 5.60961 8.67239L5.98781 8.89075C6.52483 9.2008 6.79334 9.35582 7.01304 9.37508C7.42362 9.41108 7.81391 9.19026 7.99452 8.81979C8.09116 8.62155 8.09657 8.31155 8.1074 7.69154L8.11752 7.11137C8.12645 6.60011 8.13091 6.34449 8.08191 6.11016C7.99135 5.67704 7.76831 5.28283 7.4437 4.98213C7.26808 4.81944 7.04667 4.69161 6.60384 4.43595L5.68991 3.90829Z"
    fill="currentColor"
  />
  <path
    d="M1.51922 11.3679C1.07651 11.6235 0.85515 11.7513 0.679557 11.9139C0.355009 12.2145 0.131977 12.6086 0.0413546 13.0416C-0.00767554 13.2759 -0.00327613 13.5314 0.00552269 14.0426L0.0280076 15.3487C0.0363201 15.8316 0.0404763 16.073 0.0923502 16.2947C0.188194 16.7042 0.402994 17.0762 0.709736 17.364C0.875756 17.5198 1.08277 17.6441 1.49679 17.8927L1.95865 18.1701C2.51922 18.5067 2.79951 18.675 3.02486 18.6962C3.44634 18.7357 3.84671 18.5043 4.02283 18.1194C4.117 17.9135 4.11106 17.5867 4.09918 16.9329L4.09126 16.4971C4.08196 15.9854 4.07731 15.7296 4.12621 15.4951C4.21659 15.0616 4.43964 14.667 4.76443 14.3661C4.94015 14.2033 5.16173 14.0753 5.6049 13.8195L5.9831 13.6011C6.52012 13.2911 6.78864 13.136 6.91517 12.9554C7.15163 12.6178 7.15554 12.1694 6.92501 11.8278C6.80165 11.6449 6.53588 11.4853 6.00435 11.1659L5.50697 10.867C5.06867 10.6037 4.84952 10.472 4.62209 10.3973C4.20172 10.2591 3.7488 10.2552 3.32609 10.386C3.09739 10.4567 2.87597 10.5845 2.43315 10.8402L1.51922 11.3679Z"
    fill="currentColor"
  />
  <path
    d="M5.89405 18.7096C5.89405 19.2208 5.89405 19.4764 5.9471 19.7098C6.04517 20.1411 6.27495 20.5313 6.60462 20.8263C6.78299 20.9859 7.00651 21.1099 7.45356 21.3578L8.59596 21.9914C9.0183 22.2257 9.22946 22.3428 9.44736 22.4087C9.84994 22.5304 10.2795 22.5304 10.6821 22.4087C10.9 22.3428 11.1112 22.2257 11.5335 21.9914L12.0047 21.7301C12.5765 21.413 12.8624 21.2544 12.9934 21.0698C13.2384 20.7246 13.2382 20.2621 12.9928 19.9171C12.8617 19.7327 12.5756 19.5744 12.0035 19.2578L11.6221 19.0467C11.1743 18.7989 10.9505 18.6751 10.7718 18.5155C10.4416 18.2205 10.2114 17.83 10.1132 17.3982C10.06 17.1647 10.06 16.9088 10.06 16.3971V15.9604C10.06 15.3403 10.06 15.0302 9.96687 14.8303C9.79275 14.4567 9.40637 14.2291 8.99523 14.258C8.77522 14.2734 8.50405 14.4237 7.9617 14.7243L7.45419 15.0057C7.00697 15.2536 6.78336 15.3775 6.60492 15.5371C6.27512 15.8321 6.04523 16.2224 5.94713 16.6538C5.89405 16.8873 5.89405 17.1429 5.89405 17.6543V18.7096Z"
    fill="currentColor"
  />
  <path
    d="M14.4396 18.5917C14.8823 18.8473 15.1036 18.9751 15.3323 19.0459C15.7549 19.1766 16.2077 19.1727 16.628 19.0347C16.8554 18.96 17.0745 18.8284 17.5128 18.5653L18.6327 17.8927C19.0467 17.6441 19.2537 17.5198 19.4197 17.364C19.7265 17.0762 19.9413 16.7042 20.0371 16.2947C20.089 16.073 20.0932 15.8316 20.1015 15.3487L20.1107 14.81C20.122 14.1563 20.1276 13.8294 20.0333 13.6236C19.8568 13.2388 19.4562 13.0078 19.0347 13.0478C18.8094 13.0691 18.5293 13.2377 17.969 13.5749L17.5956 13.7997C17.1571 14.0635 16.9379 14.1955 16.7103 14.2704C16.2898 14.4088 15.8365 14.413 15.4135 14.2822C15.1846 14.2114 14.963 14.0835 14.5199 13.8276L14.1417 13.6093C13.6047 13.2992 13.3361 13.1442 13.1164 13.1249C12.7059 13.0889 12.3156 13.3097 12.135 13.6802C12.0383 13.8785 12.0329 14.1885 12.0221 14.8085L12.012 15.3886C12.003 15.8999 11.9986 16.1555 12.0476 16.3898C12.1381 16.823 12.3612 17.2172 12.6858 17.5179C12.8614 17.6806 13.0828 17.8084 13.5256 18.0641L14.4396 18.5917Z"
    fill="currentColor"
  />
  <path
    d="M18.6103 11.1321C19.053 10.8765 19.2743 10.7487 19.4499 10.5861C19.7745 10.2855 19.9975 9.89139 20.0881 9.4584C20.1372 9.22413 20.1328 8.96857 20.124 8.45744L20.1015 7.15129C20.0932 6.66842 20.089 6.42699 20.0371 6.20533C19.9413 5.7958 19.7265 5.42376 19.4197 5.13599C19.2537 4.98024 19.0467 4.85592 18.6327 4.60729L18.1708 4.32993C17.6103 3.99328 17.33 3.82496 17.1046 3.80382C16.6831 3.76427 16.2828 3.99568 16.1067 4.38063C16.0125 4.58645 16.0184 4.91334 16.0303 5.56713L16.0382 6.00295C16.0475 6.5146 16.0522 6.77042 16.0033 7.00493C15.9129 7.43839 15.6898 7.83297 15.3651 8.13392C15.1893 8.29675 14.9678 8.42468 14.5246 8.68054L14.1464 8.8989C13.6094 9.20895 13.3408 9.36397 13.2143 9.54461C12.9779 9.88219 12.9739 10.3306 13.2045 10.6722C13.3278 10.8551 13.5936 11.0147 14.1251 11.3341L14.6225 11.633C15.0608 11.8963 15.28 12.028 15.5074 12.1027C15.9278 12.2409 16.3807 12.2448 16.8034 12.114C17.0321 12.0433 17.2535 11.9155 17.6963 11.6598L18.6103 11.1321Z"
    fill="currentColor"
  />
</svg>
