<svg width="24" height="25" viewBox="0 0 24 25" fill="none" xmlns="http://www.w3.org/2000/svg">
<path d="M18.4485 18.922L18.0102 18.9786H17.3642C17.2141 18.9786 17.0937 18.9389 17.003 18.8596L18.4485 18.922ZM18.4485 18.922L18.5041 18.873L18.5371 18.9106L18.5435 18.9602L18.47 18.9696L17.9337 19.4418L16.51 20.8654L18.4485 18.922ZM15.5836 24.0517C15.0904 24.0517 14.7048 23.9202 14.4349 23.6503C14.1649 23.3832 14.0335 23.0003 14.0335 22.51V17.3679C14.0335 16.8776 14.1649 16.4947 14.435 16.2276M15.5836 24.0517L21.8573 16.2275C21.5873 15.9577 21.2018 15.8263 20.7087 15.8263H15.5836C15.0905 15.8263 14.7049 15.9577 14.435 16.2276M15.5836 24.0517H20.7087C21.2018 24.0517 21.5873 23.9203 21.8573 23.6505M15.5836 24.0517L21.8573 23.6505M14.435 16.2276C14.435 16.2275 14.435 16.2275 14.4351 16.2275L14.4702 16.263L14.4349 16.2277C14.4349 16.2276 14.4349 16.2276 14.435 16.2276ZM21.8573 23.6505C22.1274 23.3833 22.2588 23.0005 22.2588 22.51V17.3679C22.2588 16.8776 22.1275 16.4948 21.8575 16.2277L21.8573 23.6505ZM4.05918 1.81639L4.05895 1.81662C3.4957 2.39451 3.22637 3.24223 3.22637 4.33145V19.8866C3.22637 20.9822 3.49548 21.8307 4.05962 22.4021L4.05985 22.4024C4.63095 22.9735 5.47207 23.2461 6.55508 23.2461H11.6246C12.1357 23.2461 12.55 22.8318 12.55 22.3207C12.55 21.8095 12.1357 21.3952 11.6246 21.3952H6.63711C6.13606 21.3952 5.75931 21.2727 5.49912 21.0347L5.53365 21.001L5.56969 20.9659L5.53432 20.9301L5.53343 20.9292L5.49808 20.8934L5.4625 20.929L5.42838 20.9631C5.19637 20.7036 5.07725 20.3368 5.07725 19.8559V4.36221C5.07725 3.85797 5.20822 3.47918 5.46295 3.21791C5.72397 2.95037 6.11237 2.8126 6.63711 2.8126H17.3627C17.8875 2.8126 18.2721 2.95041 18.5262 3.21747L18.5262 3.21748L18.527 3.21836C18.7884 3.47967 18.9226 3.8583 18.9226 4.36221V13.6318C18.9226 14.1429 19.3369 14.5572 19.848 14.5572C20.3591 14.5572 20.7734 14.1429 20.7734 13.6318V4.33145C20.7734 3.24198 20.501 2.39456 19.9307 1.81673C19.3663 1.23787 18.5279 0.961719 17.4447 0.961719H6.55508C5.47158 0.961719 4.6302 1.23805 4.05918 1.81639ZM7.54319 6.96716L7.54369 6.96767L7.54568 6.96972L7.54567 6.96972L7.54618 6.97023C7.6992 7.12325 7.892 7.19873 8.11367 7.19873H15.8964C16.1123 7.19873 16.299 7.12239 16.4449 6.96872C16.5957 6.81713 16.6719 6.62883 16.6719 6.41299C16.6719 6.19779 16.596 6.01165 16.4434 5.86596C16.2977 5.71332 16.1116 5.6375 15.8964 5.6375H8.11367C7.892 5.6375 7.6992 5.71298 7.54618 5.866C7.3994 6.01278 7.32793 6.19906 7.32793 6.41299C7.32793 6.6269 7.39926 6.81476 7.54319 6.96715L7.54319 6.96716ZM7.54319 10.5458L7.54369 10.5463L7.54567 10.5483L7.54618 10.5488C7.6992 10.7019 7.892 10.7773 8.11367 10.7773H15.8964C16.1123 10.7773 16.299 10.701 16.4449 10.5473C16.5957 10.3957 16.6719 10.2074 16.6719 9.9916C16.6719 9.77641 16.596 9.59027 16.4434 9.44458C16.2977 9.29194 16.1116 9.21611 15.8964 9.21611H8.11367C7.892 9.21611 7.6992 9.2916 7.54618 9.44462C7.3994 9.5914 7.32793 9.77767 7.32793 9.9916C7.32793 10.2055 7.39926 10.3934 7.54319 10.5458ZM7.54319 14.1346L7.54419 14.1357L7.54823 14.1397L7.54822 14.1397L7.54925 14.1407C7.70279 14.2857 7.8946 14.356 8.11367 14.356H11.7948C12.0138 14.356 12.2041 14.2856 12.3521 14.1377C12.5027 13.9871 12.5806 13.8022 12.5806 13.5907C12.5806 13.3698 12.5056 13.1775 12.3535 13.0247C12.2065 12.8698 12.0157 12.7947 11.7948 12.7947H8.11367C7.89201 12.7947 7.69918 12.8702 7.54615 13.0232L7.54614 13.0232L7.54516 13.0242L7.54319 13.0263C7.39819 13.1798 7.32793 13.3716 7.32793 13.5907C7.32793 13.7995 7.4004 13.9834 7.54319 14.1346ZM19.8424 21.0407L19.8418 21.0414C19.7763 21.1191 19.685 21.1596 19.5613 21.1596C19.4373 21.1596 19.3441 21.1202 19.2757 21.0447C19.2063 20.9652 19.1693 20.8576 19.1693 20.7167V20.1159L19.2285 19.5661L19.2454 19.4093L19.1413 19.5277L18.6154 20.1258L17.2056 21.5355C17.1531 21.588 17.0979 21.6249 17.04 21.6475C16.981 21.6706 16.9178 21.6823 16.85 21.6823C16.7233 21.6823 16.6166 21.6414 16.527 21.5597C16.4425 21.48 16.3986 21.3723 16.3986 21.2309C16.3986 21.1067 16.4461 20.9975 16.5449 20.9012L16.5454 20.9008L17.9679 19.4783L18.5702 18.9481L18.6929 18.8401L18.5307 18.861L18.007 18.9286H17.3642C17.2233 18.9286 17.1157 18.8916 17.0363 18.8222C16.9605 18.7537 16.9213 18.6617 16.9213 18.5408C16.9213 18.4172 16.9618 18.324 17.0402 18.2555C17.1196 18.186 17.2273 18.1489 17.3685 18.1489H19.4083C19.5834 18.1489 19.7142 18.1958 19.8074 18.2839C19.8992 18.3708 19.949 18.5016 19.949 18.6853V20.7167C19.949 20.8547 19.9121 20.9611 19.8424 21.0407Z" fill="#3A3A3A" stroke="#3A3A3A" stroke-width="0.1"/>
</svg>
