<svg width="102" height="72" viewBox="0 0 102 72" fill="none" xmlns="http://www.w3.org/2000/svg">
<g filter="url(#filter0_d_12121_1714)">
<g clip-path="url(#clip0_12121_1714)">
<rect width="27.6" height="36.8" rx="4.08889" transform="matrix(0.967185 0.254075 -0.263639 0.964621 64.813 11.7747)" fill="white"/>
<path fill-rule="evenodd" clip-rule="evenodd" d="M65.4981 24.7822C65.6469 24.2376 66.2102 23.9124 66.7563 24.0559L83.501 28.4546C84.047 28.5981 84.369 29.1558 84.2202 29.7004C84.0714 30.245 83.5081 30.5702 82.962 30.4267L66.2173 26.028C65.6712 25.8845 65.3492 25.3268 65.4981 24.7822ZM64.6896 27.7404C64.8384 27.1958 65.4017 26.8706 65.9478 27.014L82.6925 31.4128C83.2386 31.5562 83.5605 32.114 83.4117 32.6586C83.2629 33.2032 82.6996 33.5284 82.1535 33.3849L65.4088 28.9862C64.8627 28.8427 64.5407 28.285 64.6896 27.7404ZM63.8811 30.6985C64.0299 30.154 64.5932 29.8288 65.1393 29.9722L81.884 34.371C82.4301 34.5144 82.7521 35.0722 82.6032 35.6168C82.4544 36.1613 81.8911 36.4865 81.345 36.3431L64.6003 31.9443C64.0542 31.8009 63.7323 31.2431 63.8811 30.6985ZM63.0726 33.6567C63.2214 33.1121 63.7847 32.7869 64.3308 32.9304L72.1774 34.9917C72.7235 35.1351 73.0455 35.6929 72.8966 36.2374C72.7478 36.782 72.1845 37.1072 71.6384 36.9638L63.7918 34.9025C63.2458 34.7591 62.9238 34.2013 63.0726 33.6567Z" fill="#6A6AF4"/>
<path fill-rule="evenodd" clip-rule="evenodd" d="M65.4981 24.7822C65.6469 24.2376 66.2102 23.9124 66.7563 24.0559L83.501 28.4546C84.047 28.5981 84.369 29.1558 84.2202 29.7004C84.0714 30.245 83.5081 30.5702 82.962 30.4267L66.2173 26.028C65.6712 25.8845 65.3492 25.3268 65.4981 24.7822ZM64.6896 27.7404C64.8384 27.1958 65.4017 26.8706 65.9478 27.014L82.6925 31.4128C83.2386 31.5562 83.5605 32.114 83.4117 32.6586C83.2629 33.2032 82.6996 33.5284 82.1535 33.3849L65.4088 28.9862C64.8627 28.8427 64.5407 28.285 64.6896 27.7404ZM63.8811 30.6985C64.0299 30.154 64.5932 29.8288 65.1393 29.9722L81.884 34.371C82.4301 34.5144 82.7521 35.0722 82.6032 35.6168C82.4544 36.1613 81.8911 36.4865 81.345 36.3431L64.6003 31.9443C64.0542 31.8009 63.7323 31.2431 63.8811 30.6985ZM63.0726 33.6567C63.2214 33.1121 63.7847 32.7869 64.3308 32.9304L72.1774 34.9917C72.7235 35.1351 73.0455 35.6929 72.8966 36.2374C72.7478 36.782 72.1845 37.1072 71.6384 36.9638L63.7918 34.9025C63.2458 34.7591 62.9238 34.2013 63.0726 33.6567Z" fill="white" fill-opacity="0.65"/>
<path fill-rule="evenodd" clip-rule="evenodd" d="M65.4981 24.7822C65.6469 24.2376 66.2102 23.9124 66.7563 24.0559L83.501 28.4546C84.047 28.5981 84.369 29.1558 84.2202 29.7004C84.0714 30.245 83.5081 30.5702 82.962 30.4267L66.2173 26.028C65.6712 25.8845 65.3492 25.3268 65.4981 24.7822ZM64.6896 27.7404C64.8384 27.1958 65.4017 26.8706 65.9478 27.014L82.6925 31.4128C83.2386 31.5562 83.5605 32.114 83.4117 32.6586C83.2629 33.2032 82.6996 33.5284 82.1535 33.3849L65.4088 28.9862C64.8627 28.8427 64.5407 28.285 64.6896 27.7404ZM63.8811 30.6985C64.0299 30.154 64.5932 29.8288 65.1393 29.9722L81.884 34.371C82.4301 34.5144 82.7521 35.0722 82.6032 35.6168C82.4544 36.1613 81.8911 36.4865 81.345 36.3431L64.6003 31.9443C64.0542 31.8009 63.7323 31.2431 63.8811 30.6985ZM63.0726 33.6567C63.2214 33.1121 63.7847 32.7869 64.3308 32.9304L72.1774 34.9917C72.7235 35.1351 73.0455 35.6929 72.8966 36.2374C72.7478 36.782 72.1845 37.1072 71.6384 36.9638L63.7918 34.9025C63.2458 34.7591 62.9238 34.2013 63.0726 33.6567Z" fill="#6D778C"/>
<path fill-rule="evenodd" clip-rule="evenodd" d="M65.4981 24.7822C65.6469 24.2376 66.2102 23.9124 66.7563 24.0559L83.501 28.4546C84.047 28.5981 84.369 29.1558 84.2202 29.7004C84.0714 30.245 83.5081 30.5702 82.962 30.4267L66.2173 26.028C65.6712 25.8845 65.3492 25.3268 65.4981 24.7822ZM64.6896 27.7404C64.8384 27.1958 65.4017 26.8706 65.9478 27.014L82.6925 31.4128C83.2386 31.5562 83.5605 32.114 83.4117 32.6586C83.2629 33.2032 82.6996 33.5284 82.1535 33.3849L65.4088 28.9862C64.8627 28.8427 64.5407 28.285 64.6896 27.7404ZM63.8811 30.6985C64.0299 30.154 64.5932 29.8288 65.1393 29.9722L81.884 34.371C82.4301 34.5144 82.7521 35.0722 82.6032 35.6168C82.4544 36.1613 81.8911 36.4865 81.345 36.3431L64.6003 31.9443C64.0542 31.8009 63.7323 31.2431 63.8811 30.6985ZM63.0726 33.6567C63.2214 33.1121 63.7847 32.7869 64.3308 32.9304L72.1774 34.9917C72.7235 35.1351 73.0455 35.6929 72.8966 36.2374C72.7478 36.782 72.1845 37.1072 71.6384 36.9638L63.7918 34.9025C63.2458 34.7591 62.9238 34.2013 63.0726 33.6567Z" fill="#F6F8F9" fill-opacity="0.8"/>
<path fill-rule="evenodd" clip-rule="evenodd" d="M65.4981 24.7822C65.6469 24.2376 66.2102 23.9124 66.7563 24.0559L83.501 28.4546C84.047 28.5981 84.369 29.1558 84.2202 29.7004C84.0714 30.245 83.5081 30.5702 82.962 30.4267L66.2173 26.028C65.6712 25.8845 65.3492 25.3268 65.4981 24.7822ZM64.6896 27.7404C64.8384 27.1958 65.4017 26.8706 65.9478 27.014L82.6925 31.4128C83.2386 31.5562 83.5605 32.114 83.4117 32.6586C83.2629 33.2032 82.6996 33.5284 82.1535 33.3849L65.4088 28.9862C64.8627 28.8427 64.5407 28.285 64.6896 27.7404ZM63.8811 30.6985C64.0299 30.154 64.5932 29.8288 65.1393 29.9722L81.884 34.371C82.4301 34.5144 82.7521 35.0722 82.6032 35.6168C82.4544 36.1613 81.8911 36.4865 81.345 36.3431L64.6003 31.9443C64.0542 31.8009 63.7323 31.2431 63.8811 30.6985ZM63.0726 33.6567C63.2214 33.1121 63.7847 32.7869 64.3308 32.9304L72.1774 34.9917C72.7235 35.1351 73.0455 35.6929 72.8966 36.2374C72.7478 36.782 72.1845 37.1072 71.6384 36.9638L63.7918 34.9025C63.2458 34.7591 62.9238 34.2013 63.0726 33.6567Z" fill="url(#paint0_linear_12121_1714)" fill-opacity="0.35"/>
<path d="M64.8135 11.7748L91.5073 18.7871L89.385 26.5523L62.6907 19.5399L64.8135 11.7748Z" fill="#6D778C"/>
<path d="M64.8135 11.7748L91.5073 18.7871L89.385 26.5523L62.6907 19.5399L64.8135 11.7748Z" fill="#F6F8F9" fill-opacity="0.975"/>
<path d="M64.8135 11.7748L91.5073 18.7871L89.385 26.5523L62.6907 19.5399L64.8135 11.7748Z" fill="url(#paint1_linear_12121_1714)" fill-opacity="0.4"/>
</g>
<rect x="0.283177" y="0.490525" width="26.795" height="35.995" rx="3.68639" transform="matrix(0.967185 0.254075 -0.263639 0.964621 64.9516 11.7201)" stroke="#6D778C" stroke-width="0.805"/>
<rect x="0.283177" y="0.490525" width="26.795" height="35.995" rx="3.68639" transform="matrix(0.967185 0.254075 -0.263639 0.964621 64.9516 11.7201)" stroke="#F6F8F9" stroke-opacity="0.8" stroke-width="0.805"/>
<rect x="0.283177" y="0.490525" width="26.795" height="35.995" rx="3.68639" transform="matrix(0.967185 0.254075 -0.263639 0.964621 64.9516 11.7201)" stroke="url(#paint2_linear_12121_1714)" stroke-opacity="0.2" stroke-width="0.805"/>
</g>
<g filter="url(#filter1_d_12121_1714)">
<g clip-path="url(#clip1_12121_1714)">
<rect width="27.6" height="36.8" rx="4.08889" transform="matrix(0.967185 -0.254075 0.263639 0.964621 10.1108 18.7874)" fill="white"/>
<path d="M10.1099 18.7875L37.1911 11.6734L40.0713 22.2118L12.9896 29.3261L10.1099 18.7875Z" fill="#6D778C"/>
<path d="M10.1099 18.7875L37.1911 11.6734L40.0713 22.2118L12.9896 29.3261L10.1099 18.7875Z" fill="#F6F8F9" fill-opacity="0.975"/>
<path d="M10.1099 18.7875L37.1911 11.6734L40.0713 22.2118L12.9896 29.3261L10.1099 18.7875Z" fill="url(#paint3_linear_12121_1714)" fill-opacity="0.4"/>
<path fill-rule="evenodd" clip-rule="evenodd" d="M16.436 28.4077C16.2872 27.8631 16.6091 27.3053 17.1552 27.1619L26.0533 24.8244C26.5993 24.681 27.1626 25.0062 27.3115 25.5508C27.4603 26.0953 27.1383 26.6531 26.5923 26.7965L17.6942 29.134C17.1481 29.2775 16.5848 28.9523 16.436 28.4077Z" fill="#6D778C"/>
<path fill-rule="evenodd" clip-rule="evenodd" d="M16.436 28.4077C16.2872 27.8631 16.6091 27.3053 17.1552 27.1619L26.0533 24.8244C26.5993 24.681 27.1626 25.0062 27.3115 25.5508C27.4603 26.0953 27.1383 26.6531 26.5923 26.7965L17.6942 29.134C17.1481 29.2775 16.5848 28.9523 16.436 28.4077Z" fill="#F6F8F9" fill-opacity="0.15"/>
<path fill-rule="evenodd" clip-rule="evenodd" d="M17.6006 32.6196C17.4517 32.075 17.7737 31.5173 18.3197 31.3738L36.1159 26.6988C36.662 26.5554 37.2253 26.8806 37.3741 27.4252C37.5229 27.9698 37.201 28.5275 36.6549 28.671L18.8587 33.3459C18.3127 33.4894 17.7494 33.1642 17.6006 32.6196Z" fill="#6D778C"/>
<path fill-rule="evenodd" clip-rule="evenodd" d="M17.6006 32.6196C17.4517 32.075 17.7737 31.5173 18.3197 31.3738L36.1159 26.6988C36.662 26.5554 37.2253 26.8806 37.3741 27.4252C37.5229 27.9698 37.201 28.5275 36.6549 28.671L18.8587 33.3459C18.3127 33.4894 17.7494 33.1642 17.6006 32.6196Z" fill="#F6F8F9" fill-opacity="0.8"/>
<path fill-rule="evenodd" clip-rule="evenodd" d="M17.6006 32.6196C17.4517 32.075 17.7737 31.5173 18.3197 31.3738L36.1159 26.6988C36.662 26.5554 37.2253 26.8806 37.3741 27.4252C37.5229 27.9698 37.201 28.5275 36.6549 28.671L18.8587 33.3459C18.3127 33.4894 17.7494 33.1642 17.6006 32.6196Z" fill="url(#paint4_linear_12121_1714)" fill-opacity="0.35"/>
<path fill-rule="evenodd" clip-rule="evenodd" d="M18.5101 35.9475C18.3613 35.403 18.6833 34.8452 19.2293 34.7018L37.0255 30.0268C37.5715 29.8834 38.1348 30.2085 38.2837 30.7531C38.4325 31.2977 38.1105 31.8555 37.5645 31.9989L19.7683 36.6739C19.2223 36.8173 18.6589 36.4921 18.5101 35.9475Z" fill="#6D778C"/>
<path fill-rule="evenodd" clip-rule="evenodd" d="M18.5101 35.9475C18.3613 35.403 18.6833 34.8452 19.2293 34.7018L37.0255 30.0268C37.5715 29.8834 38.1348 30.2085 38.2837 30.7531C38.4325 31.2977 38.1105 31.8555 37.5645 31.9989L19.7683 36.6739C19.2223 36.8173 18.6589 36.4921 18.5101 35.9475Z" fill="#F6F8F9" fill-opacity="0.8"/>
<path fill-rule="evenodd" clip-rule="evenodd" d="M18.5101 35.9475C18.3613 35.403 18.6833 34.8452 19.2293 34.7018L37.0255 30.0268C37.5715 29.8834 38.1348 30.2085 38.2837 30.7531C38.4325 31.2977 38.1105 31.8555 37.5645 31.9989L19.7683 36.6739C19.2223 36.8173 18.6589 36.4921 18.5101 35.9475Z" fill="url(#paint5_linear_12121_1714)" fill-opacity="0.35"/>
<path fill-rule="evenodd" clip-rule="evenodd" d="M19.4197 39.2755C19.2708 38.7309 19.5928 38.1732 20.1388 38.0297L37.935 33.3547C38.4811 33.2113 39.0444 33.5365 39.1932 34.0811C39.3421 34.6257 39.0201 35.1834 38.474 35.3268L20.6778 40.0018C20.1318 40.1453 19.5685 39.8201 19.4197 39.2755Z" fill="#6D778C"/>
<path fill-rule="evenodd" clip-rule="evenodd" d="M19.4197 39.2755C19.2708 38.7309 19.5928 38.1732 20.1388 38.0297L37.935 33.3547C38.4811 33.2113 39.0444 33.5365 39.1932 34.0811C39.3421 34.6257 39.0201 35.1834 38.474 35.3268L20.6778 40.0018C20.1318 40.1453 19.5685 39.8201 19.4197 39.2755Z" fill="#F6F8F9" fill-opacity="0.8"/>
<path fill-rule="evenodd" clip-rule="evenodd" d="M19.4197 39.2755C19.2708 38.7309 19.5928 38.1732 20.1388 38.0297L37.935 33.3547C38.4811 33.2113 39.0444 33.5365 39.1932 34.0811C39.3421 34.6257 39.0201 35.1834 38.474 35.3268L20.6778 40.0018C20.1318 40.1453 19.5685 39.8201 19.4197 39.2755Z" fill="url(#paint6_linear_12121_1714)" fill-opacity="0.35"/>
<path fill-rule="evenodd" clip-rule="evenodd" d="M20.3292 42.6034C20.1804 42.0589 20.5024 41.5011 21.0484 41.3577L38.8446 36.6827C39.3906 36.5392 39.9539 36.8644 40.1028 37.409C40.2516 37.9536 39.9296 38.5114 39.3836 38.6548L21.5874 43.3298C21.0414 43.4732 20.4781 43.148 20.3292 42.6034Z" fill="#6D778C"/>
<path fill-rule="evenodd" clip-rule="evenodd" d="M20.3292 42.6034C20.1804 42.0589 20.5024 41.5011 21.0484 41.3577L38.8446 36.6827C39.3906 36.5392 39.9539 36.8644 40.1028 37.409C40.2516 37.9536 39.9296 38.5114 39.3836 38.6548L21.5874 43.3298C21.0414 43.4732 20.4781 43.148 20.3292 42.6034Z" fill="#F6F8F9" fill-opacity="0.8"/>
<path fill-rule="evenodd" clip-rule="evenodd" d="M20.3292 42.6034C20.1804 42.0589 20.5024 41.5011 21.0484 41.3577L38.8446 36.6827C39.3906 36.5392 39.9539 36.8644 40.1028 37.409C40.2516 37.9536 39.9296 38.5114 39.3836 38.6548L21.5874 43.3298C21.0414 43.4732 20.4781 43.148 20.3292 42.6034Z" fill="url(#paint7_linear_12121_1714)" fill-opacity="0.35"/>
<path fill-rule="evenodd" clip-rule="evenodd" d="M21.2388 45.9314C21.0899 45.3868 21.4119 44.829 21.9579 44.6856L39.7541 40.0106C40.3002 39.8672 40.8635 40.1924 41.0123 40.737C41.1612 41.2815 40.8392 41.8393 40.2931 41.9827L22.4969 46.6577C21.9509 46.8012 21.3876 46.476 21.2388 45.9314Z" fill="#6D778C"/>
<path fill-rule="evenodd" clip-rule="evenodd" d="M21.2388 45.9314C21.0899 45.3868 21.4119 44.829 21.9579 44.6856L39.7541 40.0106C40.3002 39.8672 40.8635 40.1924 41.0123 40.737C41.1612 41.2815 40.8392 41.8393 40.2931 41.9827L22.4969 46.6577C21.9509 46.8012 21.3876 46.476 21.2388 45.9314Z" fill="#F6F8F9" fill-opacity="0.8"/>
<path fill-rule="evenodd" clip-rule="evenodd" d="M21.2388 45.9314C21.0899 45.3868 21.4119 44.829 21.9579 44.6856L39.7541 40.0106C40.3002 39.8672 40.8635 40.1924 41.0123 40.737C41.1612 41.2815 40.8392 41.8393 40.2931 41.9827L22.4969 46.6577C21.9509 46.8012 21.3876 46.476 21.2388 45.9314Z" fill="url(#paint8_linear_12121_1714)" fill-opacity="0.35"/>
<path fill-rule="evenodd" clip-rule="evenodd" d="M22.1483 49.2593C21.9995 48.7147 22.3215 48.157 22.8675 48.0135L40.6637 43.3386C41.2097 43.1951 41.773 43.5203 41.9219 44.0649C42.0707 44.6095 41.7487 45.1672 41.2027 45.3107L23.4065 49.9857C22.8605 50.1291 22.2972 49.8039 22.1483 49.2593Z" fill="#6D778C"/>
<path fill-rule="evenodd" clip-rule="evenodd" d="M22.1483 49.2593C21.9995 48.7147 22.3215 48.157 22.8675 48.0135L40.6637 43.3386C41.2097 43.1951 41.773 43.5203 41.9219 44.0649C42.0707 44.6095 41.7487 45.1672 41.2027 45.3107L23.4065 49.9857C22.8605 50.1291 22.2972 49.8039 22.1483 49.2593Z" fill="#F6F8F9" fill-opacity="0.8"/>
<path fill-rule="evenodd" clip-rule="evenodd" d="M22.1483 49.2593C21.9995 48.7147 22.3215 48.157 22.8675 48.0135L40.6637 43.3386C41.2097 43.1951 41.773 43.5203 41.9219 44.0649C42.0707 44.6095 41.7487 45.1672 41.2027 45.3107L23.4065 49.9857C22.8605 50.1291 22.2972 49.8039 22.1483 49.2593Z" fill="url(#paint9_linear_12121_1714)" fill-opacity="0.35"/>
</g>
<rect x="0.495406" y="0.285995" width="26.795" height="35.995" rx="3.68639" transform="matrix(0.967185 -0.254075 0.263639 0.964621 10.0517 18.9233)" stroke="#6D778C" stroke-width="0.805"/>
<rect x="0.495406" y="0.285995" width="26.795" height="35.995" rx="3.68639" transform="matrix(0.967185 -0.254075 0.263639 0.964621 10.0517 18.9233)" stroke="#F6F8F9" stroke-opacity="0.8" stroke-width="0.805"/>
<rect x="0.495406" y="0.285995" width="26.795" height="35.995" rx="3.68639" transform="matrix(0.967185 -0.254075 0.263639 0.964621 10.0517 18.9233)" stroke="url(#paint10_linear_12121_1714)" stroke-opacity="0.2" stroke-width="0.805"/>
</g>
<g filter="url(#filter2_d_12121_1714)">
<path d="M50.0938 10.1895C50.7984 10.1895 51.4697 10.3537 52.0967 10.6797L52.0957 10.6807C52.7838 11.0072 53.3219 11.5367 53.7158 12.2256H53.7168L77.5342 53.7754L77.543 53.791L77.5508 53.8066C77.9324 54.5461 78.1328 55.3179 78.1328 56.1143C78.1328 57.2505 77.7445 58.2575 76.9844 59.0996L76.9854 59.1006C76.1959 60.0216 75.1177 60.459 73.8496 60.459H26.3076C25.0395 60.459 23.9613 60.0216 23.1719 59.1006V59.0996C22.4298 58.2544 22.0547 57.247 22.0547 56.1143C22.0547 55.7708 22.0913 55.405 22.1592 55.0205L22.1631 54.998L22.168 54.9766C22.2647 54.5656 22.4093 54.1678 22.6006 53.7852L22.6113 53.7646L22.623 53.7441L46.4404 12.2256C46.8364 11.5331 47.3782 11.002 48.0713 10.6758V10.6738C48.7121 10.3534 49.3893 10.1895 50.0938 10.1895Z" fill="#CF202D"/>
<path d="M50.0938 10.1895C50.7984 10.1895 51.4697 10.3537 52.0967 10.6797L52.0957 10.6807C52.7838 11.0072 53.3219 11.5367 53.7158 12.2256H53.7168L77.5342 53.7754L77.543 53.791L77.5508 53.8066C77.9324 54.5461 78.1328 55.3179 78.1328 56.1143C78.1328 57.2505 77.7445 58.2575 76.9844 59.0996L76.9854 59.1006C76.1959 60.0216 75.1177 60.459 73.8496 60.459H26.3076C25.0395 60.459 23.9613 60.0216 23.1719 59.1006V59.0996C22.4298 58.2544 22.0547 57.247 22.0547 56.1143C22.0547 55.7708 22.0913 55.405 22.1592 55.0205L22.1631 54.998L22.168 54.9766C22.2647 54.5656 22.4093 54.1678 22.6006 53.7852L22.6113 53.7646L22.623 53.7441L46.4404 12.2256C46.8364 11.5331 47.3782 11.002 48.0713 10.6758V10.6738C48.7121 10.3534 49.3893 10.1895 50.0938 10.1895Z" fill="#F6F8F9" fill-opacity="0.25"/>
<path d="M50.0938 10.1895C50.7984 10.1895 51.4697 10.3537 52.0967 10.6797L52.0957 10.6807C52.7838 11.0072 53.3219 11.5367 53.7158 12.2256H53.7168L77.5342 53.7754L77.543 53.791L77.5508 53.8066C77.9324 54.5461 78.1328 55.3179 78.1328 56.1143C78.1328 57.2505 77.7445 58.2575 76.9844 59.0996L76.9854 59.1006C76.1959 60.0216 75.1177 60.459 73.8496 60.459H26.3076C25.0395 60.459 23.9613 60.0216 23.1719 59.1006V59.0996C22.4298 58.2544 22.0547 57.247 22.0547 56.1143C22.0547 55.7708 22.0913 55.405 22.1592 55.0205L22.1631 54.998L22.168 54.9766C22.2647 54.5656 22.4093 54.1678 22.6006 53.7852L22.6113 53.7646L22.623 53.7441L46.4404 12.2256C46.8364 11.5331 47.3782 11.002 48.0713 10.6758V10.6738C48.7121 10.3534 49.3893 10.1895 50.0938 10.1895Z" stroke="#CF202D" stroke-width="1.62162"/>
<path d="M50.0938 10.1895C50.7984 10.1895 51.4697 10.3537 52.0967 10.6797L52.0957 10.6807C52.7838 11.0072 53.3219 11.5367 53.7158 12.2256H53.7168L77.5342 53.7754L77.543 53.791L77.5508 53.8066C77.9324 54.5461 78.1328 55.3179 78.1328 56.1143C78.1328 57.2505 77.7445 58.2575 76.9844 59.0996L76.9854 59.1006C76.1959 60.0216 75.1177 60.459 73.8496 60.459H26.3076C25.0395 60.459 23.9613 60.0216 23.1719 59.1006V59.0996C22.4298 58.2544 22.0547 57.247 22.0547 56.1143C22.0547 55.7708 22.0913 55.405 22.1592 55.0205L22.1631 54.998L22.168 54.9766C22.2647 54.5656 22.4093 54.1678 22.6006 53.7852L22.6113 53.7646L22.623 53.7441L46.4404 12.2256C46.8364 11.5331 47.3782 11.002 48.0713 10.6758V10.6738C48.7121 10.3534 49.3893 10.1895 50.0938 10.1895Z" stroke="#F6F8F9" stroke-opacity="0.45" stroke-width="1.62162"/>
<g filter="url(#filter3_d_12121_1714)">
<path d="M48.0054 41.7676C48.027 43.1811 48.6973 43.8879 50.0162 43.8879C51.2919 43.8879 51.9405 43.1811 51.9622 41.7676L52.3514 24.316C52.373 23.6636 52.1568 23.1199 51.7027 22.685C51.2486 22.2283 50.6757 22 49.9838 22C49.2703 22 48.6973 22.2175 48.2649 22.6524C47.8324 23.0873 47.627 23.6419 47.6486 24.316L48.0054 41.7676Z" fill="#CF202D"/>
<path d="M48.0054 41.7676C48.027 43.1811 48.6973 43.8879 50.0162 43.8879C51.2919 43.8879 51.9405 43.1811 51.9622 41.7676L52.3514 24.316C52.373 23.6636 52.1568 23.1199 51.7027 22.685C51.2486 22.2283 50.6757 22 49.9838 22C49.2703 22 48.6973 22.2175 48.2649 22.6524C47.8324 23.0873 47.627 23.6419 47.6486 24.316L48.0054 41.7676Z" fill="#F6F8F9" fill-opacity="0.9"/>
<path d="M47.8757 53.1193C48.4595 53.7064 49.173 54 50.0162 54C50.8162 54 51.5081 53.7173 52.0919 53.1519C52.6973 52.5647 53 51.8688 53 51.0642C53 50.2379 52.7081 49.542 52.1243 48.9766C51.5405 48.4111 50.8378 48.1284 50.0162 48.1284C49.173 48.1284 48.4595 48.4111 47.8757 48.9766C47.2919 49.542 47 50.2379 47 51.0642C47 51.8471 47.2919 52.5321 47.8757 53.1193Z" fill="#CF202D"/>
<path d="M47.8757 53.1193C48.4595 53.7064 49.173 54 50.0162 54C50.8162 54 51.5081 53.7173 52.0919 53.1519C52.6973 52.5647 53 51.8688 53 51.0642C53 50.2379 52.7081 49.542 52.1243 48.9766C51.5405 48.4111 50.8378 48.1284 50.0162 48.1284C49.173 48.1284 48.4595 48.4111 47.8757 48.9766C47.2919 49.542 47 50.2379 47 51.0642C47 51.8471 47.2919 52.5321 47.8757 53.1193Z" fill="#F6F8F9" fill-opacity="0.9"/>
<path d="M48.0054 41.7676C48.027 43.1811 48.6973 43.8879 50.0162 43.8879C51.2919 43.8879 51.9405 43.1811 51.9622 41.7676L52.3514 24.316C52.373 23.6636 52.1568 23.1199 51.7027 22.685C51.2486 22.2283 50.6757 22 49.9838 22C49.2703 22 48.6973 22.2175 48.2649 22.6524C47.8324 23.0873 47.627 23.6419 47.6486 24.316L48.0054 41.7676Z" stroke="#CF202D" stroke-width="0.24"/>
<path d="M48.0054 41.7676C48.027 43.1811 48.6973 43.8879 50.0162 43.8879C51.2919 43.8879 51.9405 43.1811 51.9622 41.7676L52.3514 24.316C52.373 23.6636 52.1568 23.1199 51.7027 22.685C51.2486 22.2283 50.6757 22 49.9838 22C49.2703 22 48.6973 22.2175 48.2649 22.6524C47.8324 23.0873 47.627 23.6419 47.6486 24.316L48.0054 41.7676Z" stroke="#F6F8F9" stroke-opacity="0.8" stroke-width="0.24"/>
<path d="M47.8757 53.1193C48.4595 53.7064 49.173 54 50.0162 54C50.8162 54 51.5081 53.7173 52.0919 53.1519C52.6973 52.5647 53 51.8688 53 51.0642C53 50.2379 52.7081 49.542 52.1243 48.9766C51.5405 48.4111 50.8378 48.1284 50.0162 48.1284C49.173 48.1284 48.4595 48.4111 47.8757 48.9766C47.2919 49.542 47 50.2379 47 51.0642C47 51.8471 47.2919 52.5321 47.8757 53.1193Z" stroke="#CF202D" stroke-width="0.24"/>
<path d="M47.8757 53.1193C48.4595 53.7064 49.173 54 50.0162 54C50.8162 54 51.5081 53.7173 52.0919 53.1519C52.6973 52.5647 53 51.8688 53 51.0642C53 50.2379 52.7081 49.542 52.1243 48.9766C51.5405 48.4111 50.8378 48.1284 50.0162 48.1284C49.173 48.1284 48.4595 48.4111 47.8757 48.9766C47.2919 49.542 47 50.2379 47 51.0642C47 51.8471 47.2919 52.5321 47.8757 53.1193Z" stroke="#F6F8F9" stroke-opacity="0.8" stroke-width="0.24"/>
</g>
</g>
<defs>
<filter id="filter0_d_12121_1714" x="41.55" y="2.7" width="63.5182" height="62.9601" filterUnits="userSpaceOnUse" color-interpolation-filters="sRGB">
<feFlood flood-opacity="0" result="BackgroundImageFix"/>
<feColorMatrix in="SourceAlpha" type="matrix" values="0 0 0 0 0 0 0 0 0 0 0 0 0 0 0 0 0 0 127 0" result="hardAlpha"/>
<feOffset dy="1.15"/>
<feGaussianBlur stdDeviation="1.725"/>
<feComposite in2="hardAlpha" operator="out"/>
<feColorMatrix type="matrix" values="0 0 0 0 0.0941176 0 0 0 0 0.105882 0 0 0 0 0.141176 0 0 0 0.05 0"/>
<feBlend mode="normal" in2="BackgroundImageFix" result="effect1_dropShadow_12121_1714"/>
<feBlend mode="normal" in="SourceGraphic" in2="effect1_dropShadow_12121_1714" result="shape"/>
</filter>
<filter id="filter1_d_12121_1714" x="-3.45" y="2.7" width="63.5177" height="62.9601" filterUnits="userSpaceOnUse" color-interpolation-filters="sRGB">
<feFlood flood-opacity="0" result="BackgroundImageFix"/>
<feColorMatrix in="SourceAlpha" type="matrix" values="0 0 0 0 0 0 0 0 0 0 0 0 0 0 0 0 0 0 127 0" result="hardAlpha"/>
<feOffset dy="1.15"/>
<feGaussianBlur stdDeviation="1.725"/>
<feComposite in2="hardAlpha" operator="out"/>
<feColorMatrix type="matrix" values="0 0 0 0 0.0941176 0 0 0 0 0.105882 0 0 0 0 0.141176 0 0 0 0.05 0"/>
<feBlend mode="normal" in2="BackgroundImageFix" result="effect1_dropShadow_12121_1714"/>
<feBlend mode="normal" in="SourceGraphic" in2="effect1_dropShadow_12121_1714" result="shape"/>
</filter>
<filter id="filter2_d_12121_1714" x="14.9394" y="6.22631" width="70.3086" height="64.5003" filterUnits="userSpaceOnUse" color-interpolation-filters="sRGB">
<feFlood flood-opacity="0" result="BackgroundImageFix"/>
<feColorMatrix in="SourceAlpha" type="matrix" values="0 0 0 0 0 0 0 0 0 0 0 0 0 0 0 0 0 0 127 0" result="hardAlpha"/>
<feOffset dy="3.15211"/>
<feGaussianBlur stdDeviation="3.15211"/>
<feComposite in2="hardAlpha" operator="out"/>
<feColorMatrix type="matrix" values="0 0 0 0 0.0941176 0 0 0 0 0.105882 0 0 0 0 0.141176 0 0 0 0.05 0"/>
<feBlend mode="normal" in2="BackgroundImageFix" result="effect1_dropShadow_12121_1714"/>
<feBlend mode="normal" in="SourceGraphic" in2="effect1_dropShadow_12121_1714" result="shape"/>
</filter>
<filter id="filter3_d_12121_1714" x="38.3618" y="13.3618" width="23.2765" height="49.2765" filterUnits="userSpaceOnUse" color-interpolation-filters="sRGB">
<feFlood flood-opacity="0" result="BackgroundImageFix"/>
<feColorMatrix in="SourceAlpha" type="matrix" values="0 0 0 0 0 0 0 0 0 0 0 0 0 0 0 0 0 0 127 0" result="hardAlpha"/>
<feOffset/>
<feGaussianBlur stdDeviation="4.25907"/>
<feComposite in2="hardAlpha" operator="out"/>
<feColorMatrix type="matrix" values="0 0 0 0 1 0 0 0 0 1 0 0 0 0 1 0 0 0 0.3 0"/>
<feBlend mode="normal" in2="BackgroundImageFix" result="effect1_dropShadow_12121_1714"/>
<feBlend mode="normal" in="SourceGraphic" in2="effect1_dropShadow_12121_1714" result="shape"/>
</filter>
<linearGradient id="paint0_linear_12121_1714" x1="74.0673" y1="30.2568" x2="70.2691" y2="44.7155" gradientUnits="userSpaceOnUse">
<stop stop-color="white" stop-opacity="0"/>
<stop offset="1" stop-color="white"/>
</linearGradient>
<linearGradient id="paint1_linear_12121_1714" x1="80.5066" y1="6.69851" x2="76.117" y2="23.4316" gradientUnits="userSpaceOnUse">
<stop stop-color="white" stop-opacity="0"/>
<stop offset="1" stop-color="white"/>
</linearGradient>
<linearGradient id="paint2_linear_12121_1714" x1="13.8" y1="18.4" x2="13.7997" y2="36.8318" gradientUnits="userSpaceOnUse">
<stop stop-color="white" stop-opacity="0"/>
<stop offset="1" stop-color="white"/>
</linearGradient>
<linearGradient id="paint3_linear_12121_1714" x1="20.4676" y1="3.58246" x2="26.443" y2="26.2871" gradientUnits="userSpaceOnUse">
<stop stop-color="white" stop-opacity="0"/>
<stop offset="1" stop-color="white"/>
</linearGradient>
<linearGradient id="paint4_linear_12121_1714" x1="29.003" y1="35.5691" x2="32.1909" y2="47.7045" gradientUnits="userSpaceOnUse">
<stop stop-color="white" stop-opacity="0"/>
<stop offset="1" stop-color="white"/>
</linearGradient>
<linearGradient id="paint5_linear_12121_1714" x1="29.003" y1="35.5691" x2="32.1909" y2="47.7045" gradientUnits="userSpaceOnUse">
<stop stop-color="white" stop-opacity="0"/>
<stop offset="1" stop-color="white"/>
</linearGradient>
<linearGradient id="paint6_linear_12121_1714" x1="29.003" y1="35.5691" x2="32.1909" y2="47.7045" gradientUnits="userSpaceOnUse">
<stop stop-color="white" stop-opacity="0"/>
<stop offset="1" stop-color="white"/>
</linearGradient>
<linearGradient id="paint7_linear_12121_1714" x1="29.003" y1="35.5691" x2="32.1909" y2="47.7045" gradientUnits="userSpaceOnUse">
<stop stop-color="white" stop-opacity="0"/>
<stop offset="1" stop-color="white"/>
</linearGradient>
<linearGradient id="paint8_linear_12121_1714" x1="29.003" y1="35.5691" x2="32.1909" y2="47.7045" gradientUnits="userSpaceOnUse">
<stop stop-color="white" stop-opacity="0"/>
<stop offset="1" stop-color="white"/>
</linearGradient>
<linearGradient id="paint9_linear_12121_1714" x1="29.003" y1="35.5691" x2="32.1909" y2="47.7045" gradientUnits="userSpaceOnUse">
<stop stop-color="white" stop-opacity="0"/>
<stop offset="1" stop-color="white"/>
</linearGradient>
<linearGradient id="paint10_linear_12121_1714" x1="13.8" y1="18.4" x2="13.7997" y2="36.8318" gradientUnits="userSpaceOnUse">
<stop stop-color="white" stop-opacity="0"/>
<stop offset="1" stop-color="white"/>
</linearGradient>
<clipPath id="clip0_12121_1714">
<rect width="27.6" height="36.8" rx="4.08889" transform="matrix(0.967185 0.254075 -0.263639 0.964621 64.813 11.7747)" fill="white"/>
</clipPath>
<clipPath id="clip1_12121_1714">
<rect width="27.6" height="36.8" rx="4.08889" transform="matrix(0.967185 -0.254075 0.263639 0.964621 10.1108 18.7874)" fill="white"/>
</clipPath>
</defs>
</svg>
