<svg width="99" height="65" viewBox="0 0 99 65" fill="none" xmlns="http://www.w3.org/2000/svg">
<g filter="url(#filter0_d_15902_9075)">
<path d="M13.2355 29.098C11.8267 29.098 10.594 28.8137 9.53735 28.245C8.49001 27.6859 7.66975 26.9087 7.07656 25.9136C6.49264 24.9185 6.20068 23.7812 6.20068 22.5018C6.20068 21.4782 6.39532 20.54 6.7846 19.687C7.18315 18.8246 7.73926 18.0854 8.45294 17.4693C9.17588 16.8438 10.01 16.3889 10.9554 16.1046C11.0852 14.683 11.4513 13.3657 12.0538 12.1526C12.6655 10.9395 13.4487 9.88275 14.4033 8.98241C15.3673 8.08206 16.4609 7.38074 17.6844 6.87845C18.9171 6.37615 20.2193 6.125 21.5911 6.125C23.7043 6.125 25.5858 6.65573 27.2356 7.71719C28.8854 8.77864 30.1784 10.2618 31.1145 12.1668C32.3843 12.1573 33.5567 12.3658 34.6319 12.7923C35.7163 13.2093 36.6571 13.8016 37.4542 14.5693C38.2513 15.3369 38.8722 16.2325 39.3171 17.2561C39.762 18.2796 39.9845 19.398 39.9845 20.6111C39.9845 21.7957 39.7667 22.9046 39.331 23.9376C38.9047 24.9706 38.3022 25.871 37.5237 26.6386C36.7544 27.4063 35.8553 28.0081 34.8265 28.444C33.7977 28.88 32.6855 29.098 31.4899 29.098H13.2355Z" fill="black"/>
<path d="M13.2355 29.098C11.8267 29.098 10.594 28.8137 9.53735 28.245C8.49001 27.6859 7.66975 26.9087 7.07656 25.9136C6.49264 24.9185 6.20068 23.7812 6.20068 22.5018C6.20068 21.4782 6.39532 20.54 6.7846 19.687C7.18315 18.8246 7.73926 18.0854 8.45294 17.4693C9.17588 16.8438 10.01 16.3889 10.9554 16.1046C11.0852 14.683 11.4513 13.3657 12.0538 12.1526C12.6655 10.9395 13.4487 9.88275 14.4033 8.98241C15.3673 8.08206 16.4609 7.38074 17.6844 6.87845C18.9171 6.37615 20.2193 6.125 21.5911 6.125C23.7043 6.125 25.5858 6.65573 27.2356 7.71719C28.8854 8.77864 30.1784 10.2618 31.1145 12.1668C32.3843 12.1573 33.5567 12.3658 34.6319 12.7923C35.7163 13.2093 36.6571 13.8016 37.4542 14.5693C38.2513 15.3369 38.8722 16.2325 39.3171 17.2561C39.762 18.2796 39.9845 19.398 39.9845 20.6111C39.9845 21.7957 39.7667 22.9046 39.331 23.9376C38.9047 24.9706 38.3022 25.871 37.5237 26.6386C36.7544 27.4063 35.8553 28.0081 34.8265 28.444C33.7977 28.88 32.6855 29.098 31.4899 29.098H13.2355Z" fill="#6D778C"/>
<path d="M13.2355 29.098C11.8267 29.098 10.594 28.8137 9.53735 28.245C8.49001 27.6859 7.66975 26.9087 7.07656 25.9136C6.49264 24.9185 6.20068 23.7812 6.20068 22.5018C6.20068 21.4782 6.39532 20.54 6.7846 19.687C7.18315 18.8246 7.73926 18.0854 8.45294 17.4693C9.17588 16.8438 10.01 16.3889 10.9554 16.1046C11.0852 14.683 11.4513 13.3657 12.0538 12.1526C12.6655 10.9395 13.4487 9.88275 14.4033 8.98241C15.3673 8.08206 16.4609 7.38074 17.6844 6.87845C18.9171 6.37615 20.2193 6.125 21.5911 6.125C23.7043 6.125 25.5858 6.65573 27.2356 7.71719C28.8854 8.77864 30.1784 10.2618 31.1145 12.1668C32.3843 12.1573 33.5567 12.3658 34.6319 12.7923C35.7163 13.2093 36.6571 13.8016 37.4542 14.5693C38.2513 15.3369 38.8722 16.2325 39.3171 17.2561C39.762 18.2796 39.9845 19.398 39.9845 20.6111C39.9845 21.7957 39.7667 22.9046 39.331 23.9376C38.9047 24.9706 38.3022 25.871 37.5237 26.6386C36.7544 27.4063 35.8553 28.0081 34.8265 28.444C33.7977 28.88 32.6855 29.098 31.4899 29.098H13.2355Z" fill="#F6F8F9" fill-opacity="0.65"/>
<path d="M13.2355 29.098C11.8267 29.098 10.594 28.8137 9.53735 28.245C8.49001 27.6859 7.66975 26.9087 7.07656 25.9136C6.49264 24.9185 6.20068 23.7812 6.20068 22.5018C6.20068 21.4782 6.39532 20.54 6.7846 19.687C7.18315 18.8246 7.73926 18.0854 8.45294 17.4693C9.17588 16.8438 10.01 16.3889 10.9554 16.1046C11.0852 14.683 11.4513 13.3657 12.0538 12.1526C12.6655 10.9395 13.4487 9.88275 14.4033 8.98241C15.3673 8.08206 16.4609 7.38074 17.6844 6.87845C18.9171 6.37615 20.2193 6.125 21.5911 6.125C23.7043 6.125 25.5858 6.65573 27.2356 7.71719C28.8854 8.77864 30.1784 10.2618 31.1145 12.1668C32.3843 12.1573 33.5567 12.3658 34.6319 12.7923C35.7163 13.2093 36.6571 13.8016 37.4542 14.5693C38.2513 15.3369 38.8722 16.2325 39.3171 17.2561C39.762 18.2796 39.9845 19.398 39.9845 20.6111C39.9845 21.7957 39.7667 22.9046 39.331 23.9376C38.9047 24.9706 38.3022 25.871 37.5237 26.6386C36.7544 27.4063 35.8553 28.0081 34.8265 28.444C33.7977 28.88 32.6855 29.098 31.4899 29.098H13.2355Z" fill="url(#paint0_linear_15902_9075)" fill-opacity="0.2"/>
<path d="M21.5913 5.65234C23.7879 5.65238 25.7597 6.205 27.4917 7.31934C29.1427 8.3816 30.446 9.84587 31.4058 11.6973C32.6171 11.7195 33.7504 11.9345 34.8013 12.3506C35.9417 12.7891 36.9379 13.4148 37.7827 14.2285C38.6249 15.0397 39.281 15.9874 39.7505 17.0674C40.2234 18.1554 40.4575 19.3391 40.4575 20.6113C40.4575 21.8553 40.2285 23.0268 39.7671 24.1211C39.3175 25.2093 38.68 26.1606 37.8569 26.9727C37.0435 27.7844 36.0943 28.4209 35.0112 28.8799C33.92 29.3423 32.7443 29.5713 31.4897 29.5713H13.2358C11.7624 29.5713 10.4496 29.2728 9.31299 28.6611V28.6602C8.19281 28.0616 7.30841 27.2264 6.67041 26.1562L6.66846 26.1533C6.03746 25.078 5.72805 23.8561 5.72803 22.502C5.72803 21.4169 5.9341 20.4103 6.354 19.4902L6.35498 19.4883C6.78147 18.5654 7.37825 17.7716 8.14307 17.1113C8.84014 16.5082 9.63379 16.0547 10.519 15.749C10.6767 14.3907 11.0452 13.1206 11.6304 11.9424L11.6313 11.9395C12.2669 10.6792 13.0827 9.57796 14.0786 8.63867L14.0806 8.63672C15.0863 7.6973 16.2283 6.96437 17.5044 6.44043H17.5063C18.7974 5.91444 20.1604 5.65234 21.5913 5.65234Z" stroke="#6D778C" stroke-width="0.945946"/>
<path d="M21.5913 5.65234C23.7879 5.65238 25.7597 6.205 27.4917 7.31934C29.1427 8.3816 30.446 9.84587 31.4058 11.6973C32.6171 11.7195 33.7504 11.9345 34.8013 12.3506C35.9417 12.7891 36.9379 13.4148 37.7827 14.2285C38.6249 15.0397 39.281 15.9874 39.7505 17.0674C40.2234 18.1554 40.4575 19.3391 40.4575 20.6113C40.4575 21.8553 40.2285 23.0268 39.7671 24.1211C39.3175 25.2093 38.68 26.1606 37.8569 26.9727C37.0435 27.7844 36.0943 28.4209 35.0112 28.8799C33.92 29.3423 32.7443 29.5713 31.4897 29.5713H13.2358C11.7624 29.5713 10.4496 29.2728 9.31299 28.6611V28.6602C8.19281 28.0616 7.30841 27.2264 6.67041 26.1562L6.66846 26.1533C6.03746 25.078 5.72805 23.8561 5.72803 22.502C5.72803 21.4169 5.9341 20.4103 6.354 19.4902L6.35498 19.4883C6.78147 18.5654 7.37825 17.7716 8.14307 17.1113C8.84014 16.5082 9.63379 16.0547 10.519 15.749C10.6767 14.3907 11.0452 13.1206 11.6304 11.9424L11.6313 11.9395C12.2669 10.6792 13.0827 9.57796 14.0786 8.63867L14.0806 8.63672C15.0863 7.6973 16.2283 6.96437 17.5044 6.44043H17.5063C18.7974 5.91444 20.1604 5.65234 21.5913 5.65234Z" stroke="#F6F8F9" stroke-opacity="0.55" stroke-width="0.945946"/>
<path d="M21.5913 5.65234C23.7879 5.65238 25.7597 6.205 27.4917 7.31934C29.1427 8.3816 30.446 9.84587 31.4058 11.6973C32.6171 11.7195 33.7504 11.9345 34.8013 12.3506C35.9417 12.7891 36.9379 13.4148 37.7827 14.2285C38.6249 15.0397 39.281 15.9874 39.7505 17.0674C40.2234 18.1554 40.4575 19.3391 40.4575 20.6113C40.4575 21.8553 40.2285 23.0268 39.7671 24.1211C39.3175 25.2093 38.68 26.1606 37.8569 26.9727C37.0435 27.7844 36.0943 28.4209 35.0112 28.8799C33.92 29.3423 32.7443 29.5713 31.4897 29.5713H13.2358C11.7624 29.5713 10.4496 29.2728 9.31299 28.6611V28.6602C8.19281 28.0616 7.30841 27.2264 6.67041 26.1562L6.66846 26.1533C6.03746 25.078 5.72805 23.8561 5.72803 22.502C5.72803 21.4169 5.9341 20.4103 6.354 19.4902L6.35498 19.4883C6.78147 18.5654 7.37825 17.7716 8.14307 17.1113C8.84014 16.5082 9.63379 16.0547 10.519 15.749C10.6767 14.3907 11.0452 13.1206 11.6304 11.9424L11.6313 11.9395C12.2669 10.6792 13.0827 9.57796 14.0786 8.63867L14.0806 8.63672C15.0863 7.6973 16.2283 6.96437 17.5044 6.44043H17.5063C18.7974 5.91444 20.1604 5.65234 21.5913 5.65234Z" stroke="url(#paint1_linear_15902_9075)" stroke-opacity="0.2" stroke-width="0.945946"/>
</g>
<g filter="url(#filter1_d_15902_9075)">
<path d="M87.3406 45.3143C88.4113 45.3143 89.3481 45.0969 90.1511 44.662C90.9471 44.2344 91.5705 43.6401 92.0213 42.8792C92.4651 42.1182 92.687 41.2485 92.687 40.2701C92.687 39.4874 92.5391 38.7699 92.2432 38.1177C91.9403 37.4581 91.5177 36.8929 90.9753 36.4218C90.4259 35.9435 89.7919 35.5956 89.0734 35.3782C88.9748 34.2911 88.6965 33.2837 88.2387 32.356C87.7738 31.4284 87.1785 30.6203 86.453 29.9318C85.7204 29.2433 84.8892 28.707 83.9594 28.3229C83.0225 27.9388 82.0328 27.7467 80.9903 27.7467C79.3843 27.7467 77.9543 28.1526 76.7005 28.9643C75.4466 29.776 74.464 30.9102 73.7525 32.3669C72.7875 32.3596 71.8964 32.5191 71.0793 32.8452C70.2551 33.1641 69.5402 33.6171 68.9344 34.2041C68.3286 34.7911 67.8566 35.476 67.5185 36.2587C67.1804 37.0414 67.0113 37.8966 67.0113 38.8243C67.0113 39.7302 67.1769 40.5781 67.5079 41.3681C67.832 42.1581 68.2898 42.8465 68.8815 43.4336C69.4662 44.0206 70.1495 44.4808 70.9314 44.8142C71.7133 45.1476 72.5585 45.3143 73.4672 45.3143H87.3406Z" fill="black"/>
<path d="M87.3406 45.3143C88.4113 45.3143 89.3481 45.0969 90.1511 44.662C90.9471 44.2344 91.5705 43.6401 92.0213 42.8792C92.4651 42.1182 92.687 41.2485 92.687 40.2701C92.687 39.4874 92.5391 38.7699 92.2432 38.1177C91.9403 37.4581 91.5177 36.8929 90.9753 36.4218C90.4259 35.9435 89.7919 35.5956 89.0734 35.3782C88.9748 34.2911 88.6965 33.2837 88.2387 32.356C87.7738 31.4284 87.1785 30.6203 86.453 29.9318C85.7204 29.2433 84.8892 28.707 83.9594 28.3229C83.0225 27.9388 82.0328 27.7467 80.9903 27.7467C79.3843 27.7467 77.9543 28.1526 76.7005 28.9643C75.4466 29.776 74.464 30.9102 73.7525 32.3669C72.7875 32.3596 71.8964 32.5191 71.0793 32.8452C70.2551 33.1641 69.5402 33.6171 68.9344 34.2041C68.3286 34.7911 67.8566 35.476 67.5185 36.2587C67.1804 37.0414 67.0113 37.8966 67.0113 38.8243C67.0113 39.7302 67.1769 40.5781 67.5079 41.3681C67.832 42.1581 68.2898 42.8465 68.8815 43.4336C69.4662 44.0206 70.1495 44.4808 70.9314 44.8142C71.7133 45.1476 72.5585 45.3143 73.4672 45.3143H87.3406Z" fill="#6D778C"/>
<path d="M87.3406 45.3143C88.4113 45.3143 89.3481 45.0969 90.1511 44.662C90.9471 44.2344 91.5705 43.6401 92.0213 42.8792C92.4651 42.1182 92.687 41.2485 92.687 40.2701C92.687 39.4874 92.5391 38.7699 92.2432 38.1177C91.9403 37.4581 91.5177 36.8929 90.9753 36.4218C90.4259 35.9435 89.7919 35.5956 89.0734 35.3782C88.9748 34.2911 88.6965 33.2837 88.2387 32.356C87.7738 31.4284 87.1785 30.6203 86.453 29.9318C85.7204 29.2433 84.8892 28.707 83.9594 28.3229C83.0225 27.9388 82.0328 27.7467 80.9903 27.7467C79.3843 27.7467 77.9543 28.1526 76.7005 28.9643C75.4466 29.776 74.464 30.9102 73.7525 32.3669C72.7875 32.3596 71.8964 32.5191 71.0793 32.8452C70.2551 33.1641 69.5402 33.6171 68.9344 34.2041C68.3286 34.7911 67.8566 35.476 67.5185 36.2587C67.1804 37.0414 67.0113 37.8966 67.0113 38.8243C67.0113 39.7302 67.1769 40.5781 67.5079 41.3681C67.832 42.1581 68.2898 42.8465 68.8815 43.4336C69.4662 44.0206 70.1495 44.4808 70.9314 44.8142C71.7133 45.1476 72.5585 45.3143 73.4672 45.3143H87.3406Z" fill="#F6F8F9" fill-opacity="0.65"/>
<path d="M87.3406 45.3143C88.4113 45.3143 89.3481 45.0969 90.1511 44.662C90.9471 44.2344 91.5705 43.6401 92.0213 42.8792C92.4651 42.1182 92.687 41.2485 92.687 40.2701C92.687 39.4874 92.5391 38.7699 92.2432 38.1177C91.9403 37.4581 91.5177 36.8929 90.9753 36.4218C90.4259 35.9435 89.7919 35.5956 89.0734 35.3782C88.9748 34.2911 88.6965 33.2837 88.2387 32.356C87.7738 31.4284 87.1785 30.6203 86.453 29.9318C85.7204 29.2433 84.8892 28.707 83.9594 28.3229C83.0225 27.9388 82.0328 27.7467 80.9903 27.7467C79.3843 27.7467 77.9543 28.1526 76.7005 28.9643C75.4466 29.776 74.464 30.9102 73.7525 32.3669C72.7875 32.3596 71.8964 32.5191 71.0793 32.8452C70.2551 33.1641 69.5402 33.6171 68.9344 34.2041C68.3286 34.7911 67.8566 35.476 67.5185 36.2587C67.1804 37.0414 67.0113 37.8966 67.0113 38.8243C67.0113 39.7302 67.1769 40.5781 67.5079 41.3681C67.832 42.1581 68.2898 42.8465 68.8815 43.4336C69.4662 44.0206 70.1495 44.4808 70.9314 44.8142C71.7133 45.1476 72.5585 45.3143 73.4672 45.3143H87.3406Z" fill="url(#paint2_linear_15902_9075)" fill-opacity="0.2"/>
<path d="M80.9907 27.274C79.3008 27.274 77.78 27.7022 76.4438 28.567C75.189 29.3794 74.195 30.494 73.4604 31.8971C72.5531 31.9211 71.7011 32.0883 70.9087 32.4039C70.0283 32.7446 69.2584 33.2317 68.605 33.8649C67.9542 34.4955 67.4469 35.232 67.0845 36.0709C66.7186 36.9178 66.5386 37.8376 66.5386 38.8239C66.5386 39.7889 66.7151 40.7002 67.0718 41.5514L67.0728 41.5504C67.4197 42.3952 67.9115 43.1348 68.5474 43.7662L68.5464 43.7672C69.175 44.3984 69.9093 44.893 70.7456 45.2496C71.5901 45.6097 72.4993 45.7877 73.4673 45.7877H87.3403C88.4761 45.7877 89.4932 45.556 90.3765 45.0778V45.0768C91.2457 44.6094 91.9329 43.9559 92.4282 43.1198L92.4302 43.1178C92.9207 42.2767 93.1597 41.3227 93.1597 40.2701C93.1597 39.4265 93.0004 38.6415 92.6743 37.9225L92.6733 37.9205C92.3427 37.2007 91.8792 36.5807 91.2856 36.0651L91.0562 35.8756C90.5909 35.5122 90.0749 35.2288 89.5103 35.025C89.3847 34.0004 89.1033 33.0401 88.6626 32.1471L88.6616 32.1442C88.1731 31.1693 87.5456 30.3162 86.7788 29.5885L86.7769 29.5875C86.0025 28.8597 85.1229 28.2914 84.1401 27.8854H84.1392C83.1438 27.4773 82.0928 27.2741 80.9907 27.274Z" stroke="#6D778C" stroke-width="0.945946"/>
<path d="M80.9907 27.274C79.3008 27.274 77.78 27.7022 76.4438 28.567C75.189 29.3794 74.195 30.494 73.4604 31.8971C72.5531 31.9211 71.7011 32.0883 70.9087 32.4039C70.0283 32.7446 69.2584 33.2317 68.605 33.8649C67.9542 34.4955 67.4469 35.232 67.0845 36.0709C66.7186 36.9178 66.5386 37.8376 66.5386 38.8239C66.5386 39.7889 66.7151 40.7002 67.0718 41.5514L67.0728 41.5504C67.4197 42.3952 67.9115 43.1348 68.5474 43.7662L68.5464 43.7672C69.175 44.3984 69.9093 44.893 70.7456 45.2496C71.5901 45.6097 72.4993 45.7877 73.4673 45.7877H87.3403C88.4761 45.7877 89.4932 45.556 90.3765 45.0778V45.0768C91.2457 44.6094 91.9329 43.9559 92.4282 43.1198L92.4302 43.1178C92.9207 42.2767 93.1597 41.3227 93.1597 40.2701C93.1597 39.4265 93.0004 38.6415 92.6743 37.9225L92.6733 37.9205C92.3427 37.2007 91.8792 36.5807 91.2856 36.0651L91.0562 35.8756C90.5909 35.5122 90.0749 35.2288 89.5103 35.025C89.3847 34.0004 89.1033 33.0401 88.6626 32.1471L88.6616 32.1442C88.1731 31.1693 87.5456 30.3162 86.7788 29.5885L86.7769 29.5875C86.0025 28.8597 85.1229 28.2914 84.1401 27.8854H84.1392C83.1438 27.4773 82.0928 27.2741 80.9907 27.274Z" stroke="#F6F8F9" stroke-opacity="0.55" stroke-width="0.945946"/>
<path d="M80.9907 27.274C79.3008 27.274 77.78 27.7022 76.4438 28.567C75.189 29.3794 74.195 30.494 73.4604 31.8971C72.5531 31.9211 71.7011 32.0883 70.9087 32.4039C70.0283 32.7446 69.2584 33.2317 68.605 33.8649C67.9542 34.4955 67.4469 35.232 67.0845 36.0709C66.7186 36.9178 66.5386 37.8376 66.5386 38.8239C66.5386 39.7889 66.7151 40.7002 67.0718 41.5514L67.0728 41.5504C67.4197 42.3952 67.9115 43.1348 68.5474 43.7662L68.5464 43.7672C69.175 44.3984 69.9093 44.893 70.7456 45.2496C71.5901 45.6097 72.4993 45.7877 73.4673 45.7877H87.3403C88.4761 45.7877 89.4932 45.556 90.3765 45.0778V45.0768C91.2457 44.6094 91.9329 43.9559 92.4282 43.1198L92.4302 43.1178C92.9207 42.2767 93.1597 41.3227 93.1597 40.2701C93.1597 39.4265 93.0004 38.6415 92.6743 37.9225L92.6733 37.9205C92.3427 37.2007 91.8792 36.5807 91.2856 36.0651L91.0562 35.8756C90.5909 35.5122 90.0749 35.2288 89.5103 35.025C89.3847 34.0004 89.1033 33.0401 88.6626 32.1471L88.6616 32.1442C88.1731 31.1693 87.5456 30.3162 86.7788 29.5885L86.7769 29.5875C86.0025 28.8597 85.1229 28.2914 84.1401 27.8854H84.1392C83.1438 27.4773 82.0928 27.2741 80.9907 27.274Z" stroke="url(#paint3_linear_15902_9075)" stroke-opacity="0.2" stroke-width="0.945946"/>
</g>
<g filter="url(#filter2_d_15902_9075)">
<path d="M48.2944 3.96313C48.9991 3.96314 49.6704 4.12739 50.2974 4.45337L50.2964 4.45435C50.9845 4.78092 51.5225 5.31035 51.9165 5.99927H51.9175L75.7349 47.5491L75.7437 47.5647L75.7515 47.5803C76.1331 48.3198 76.3335 49.0916 76.3335 49.8879C76.3335 51.0242 75.9452 52.0311 75.1851 52.8733L75.186 52.8743C74.3966 53.7953 73.3184 54.2326 72.0503 54.2327H24.5083C23.2402 54.2327 22.162 53.7952 21.3726 52.8743V52.8733C20.6305 52.0281 20.2554 51.0207 20.2554 49.8879C20.2554 49.5445 20.292 49.1786 20.3599 48.7942L20.3638 48.7717L20.3687 48.7502C20.4653 48.3393 20.61 47.9415 20.8013 47.5588L20.812 47.5383L20.8237 47.5178L44.6411 5.99927C45.037 5.30683 45.5789 4.77565 46.272 4.44946V4.44751C46.9128 4.12709 47.59 3.96313 48.2944 3.96313Z" fill="#A75400"/>
<path d="M48.2944 3.96313C48.9991 3.96314 49.6704 4.12739 50.2974 4.45337L50.2964 4.45435C50.9845 4.78092 51.5225 5.31035 51.9165 5.99927H51.9175L75.7349 47.5491L75.7437 47.5647L75.7515 47.5803C76.1331 48.3198 76.3335 49.0916 76.3335 49.8879C76.3335 51.0242 75.9452 52.0311 75.1851 52.8733L75.186 52.8743C74.3966 53.7953 73.3184 54.2326 72.0503 54.2327H24.5083C23.2402 54.2327 22.162 53.7952 21.3726 52.8743V52.8733C20.6305 52.0281 20.2554 51.0207 20.2554 49.8879C20.2554 49.5445 20.292 49.1786 20.3599 48.7942L20.3638 48.7717L20.3687 48.7502C20.4653 48.3393 20.61 47.9415 20.8013 47.5588L20.812 47.5383L20.8237 47.5178L44.6411 5.99927C45.037 5.30683 45.5789 4.77565 46.272 4.44946V4.44751C46.9128 4.12709 47.59 3.96313 48.2944 3.96313Z" fill="#F6F8F9" fill-opacity="0.25"/>
<path d="M48.2944 3.96313C48.9991 3.96314 49.6704 4.12739 50.2974 4.45337L50.2964 4.45435C50.9845 4.78092 51.5225 5.31035 51.9165 5.99927H51.9175L75.7349 47.5491L75.7437 47.5647L75.7515 47.5803C76.1331 48.3198 76.3335 49.0916 76.3335 49.8879C76.3335 51.0242 75.9452 52.0311 75.1851 52.8733L75.186 52.8743C74.3966 53.7953 73.3184 54.2326 72.0503 54.2327H24.5083C23.2402 54.2327 22.162 53.7952 21.3726 52.8743V52.8733C20.6305 52.0281 20.2554 51.0207 20.2554 49.8879C20.2554 49.5445 20.292 49.1786 20.3599 48.7942L20.3638 48.7717L20.3687 48.7502C20.4653 48.3393 20.61 47.9415 20.8013 47.5588L20.812 47.5383L20.8237 47.5178L44.6411 5.99927C45.037 5.30683 45.5789 4.77565 46.272 4.44946V4.44751C46.9128 4.12709 47.59 3.96313 48.2944 3.96313Z" stroke="#A75400" stroke-width="1.62162"/>
<path d="M48.2944 3.96313C48.9991 3.96314 49.6704 4.12739 50.2974 4.45337L50.2964 4.45435C50.9845 4.78092 51.5225 5.31035 51.9165 5.99927H51.9175L75.7349 47.5491L75.7437 47.5647L75.7515 47.5803C76.1331 48.3198 76.3335 49.0916 76.3335 49.8879C76.3335 51.0242 75.9452 52.0311 75.1851 52.8733L75.186 52.8743C74.3966 53.7953 73.3184 54.2326 72.0503 54.2327H24.5083C23.2402 54.2327 22.162 53.7952 21.3726 52.8743V52.8733C20.6305 52.0281 20.2554 51.0207 20.2554 49.8879C20.2554 49.5445 20.292 49.1786 20.3599 48.7942L20.3638 48.7717L20.3687 48.7502C20.4653 48.3393 20.61 47.9415 20.8013 47.5588L20.812 47.5383L20.8237 47.5178L44.6411 5.99927C45.037 5.30683 45.5789 4.77565 46.272 4.44946V4.44751C46.9128 4.12709 47.59 3.96313 48.2944 3.96313Z" stroke="#F6F8F9" stroke-opacity="0.45" stroke-width="1.62162"/>
<g filter="url(#filter3_d_15902_9075)">
<path d="M54.5035 26.4369L53.7219 26.4481C53.4888 26.452 53.3083 26.4217 53.1805 26.3573C53.0573 26.2884 52.9365 26.1806 52.8182 26.0339L52.2786 25.3672L51.4765 25.3578L50.8083 26.3499C50.6476 26.5916 50.4688 26.7648 50.2719 26.8693C50.075 26.9738 49.8395 27.0256 49.5652 27.0248L47.1519 27.0172C46.8183 27.0116 46.5351 26.9376 46.3024 26.7952C46.0698 26.6436 45.8763 26.3939 45.722 26.046L44.8779 24.11C44.26 24.3686 43.7285 24.7783 43.2834 25.3391C42.8429 25.8954 42.4912 26.5319 42.2285 27.2487C42.1639 27.4313 42.0515 27.5658 41.8912 27.6521C41.7356 27.7339 41.5801 27.7654 41.4247 27.7467C41.2283 27.7232 41.0526 27.6381 40.8976 27.4913C40.7472 27.34 40.6679 27.1181 40.6597 26.8255C40.6298 26.1535 40.7782 25.4684 41.1049 24.7701C41.4317 24.0626 41.8771 23.4104 42.4411 22.8134C43.0098 22.2118 43.6466 21.7293 44.3517 21.3659C45.0567 20.9933 45.7727 20.8058 46.4994 20.8035L49.1733 20.7982C49.603 20.7995 49.9639 20.8692 50.2559 21.0072C50.5481 21.1361 50.7714 21.3288 50.926 21.5852L51.4854 22.5057L52.2876 22.5014L52.8381 21.8312C52.9483 21.6853 53.0652 21.5828 53.1888 21.5237C53.3078 21.4601 53.4839 21.431 53.717 21.4363L54.526 21.4388C54.7911 21.4396 55.0034 21.5157 55.1629 21.667C55.3224 21.8184 55.4063 22.0175 55.4147 22.2643L55.3975 25.5895C55.3966 25.8546 55.316 26.0623 55.1555 26.2126C54.9905 26.3584 54.7732 26.4331 54.5035 26.4369ZM47.4835 47.4426C46.8619 47.4407 46.3826 47.2472 46.0455 46.8622C45.7131 46.4818 45.573 45.9511 45.6254 45.2703L46.8574 28.4079C46.9122 28.4172 46.9693 28.4243 47.0287 28.429C47.0836 28.4292 47.1384 28.4294 47.1933 28.4295L49.3598 28.4363C49.4238 28.4365 49.4855 28.4344 49.5449 28.43C49.6044 28.4256 49.6638 28.4212 49.7232 28.4169L50.8429 45.2934C50.8911 45.9655 50.7432 46.4952 50.3991 46.8827C50.0551 47.2701 49.5723 47.4629 48.9507 47.4609L47.4835 47.4426Z" fill="#A75400"/>
<path d="M54.5035 26.4369L53.7219 26.4481C53.4888 26.452 53.3083 26.4217 53.1805 26.3573C53.0573 26.2884 52.9365 26.1806 52.8182 26.0339L52.2786 25.3672L51.4765 25.3578L50.8083 26.3499C50.6476 26.5916 50.4688 26.7648 50.2719 26.8693C50.075 26.9738 49.8395 27.0256 49.5652 27.0248L47.1519 27.0172C46.8183 27.0116 46.5351 26.9376 46.3024 26.7952C46.0698 26.6436 45.8763 26.3939 45.722 26.046L44.8779 24.11C44.26 24.3686 43.7285 24.7783 43.2834 25.3391C42.8429 25.8954 42.4912 26.5319 42.2285 27.2487C42.1639 27.4313 42.0515 27.5658 41.8912 27.6521C41.7356 27.7339 41.5801 27.7654 41.4247 27.7467C41.2283 27.7232 41.0526 27.6381 40.8976 27.4913C40.7472 27.34 40.6679 27.1181 40.6597 26.8255C40.6298 26.1535 40.7782 25.4684 41.1049 24.7701C41.4317 24.0626 41.8771 23.4104 42.4411 22.8134C43.0098 22.2118 43.6466 21.7293 44.3517 21.3659C45.0567 20.9933 45.7727 20.8058 46.4994 20.8035L49.1733 20.7982C49.603 20.7995 49.9639 20.8692 50.2559 21.0072C50.5481 21.1361 50.7714 21.3288 50.926 21.5852L51.4854 22.5057L52.2876 22.5014L52.8381 21.8312C52.9483 21.6853 53.0652 21.5828 53.1888 21.5237C53.3078 21.4601 53.4839 21.431 53.717 21.4363L54.526 21.4388C54.7911 21.4396 55.0034 21.5157 55.1629 21.667C55.3224 21.8184 55.4063 22.0175 55.4147 22.2643L55.3975 25.5895C55.3966 25.8546 55.316 26.0623 55.1555 26.2126C54.9905 26.3584 54.7732 26.4331 54.5035 26.4369ZM47.4835 47.4426C46.8619 47.4407 46.3826 47.2472 46.0455 46.8622C45.7131 46.4818 45.573 45.9511 45.6254 45.2703L46.8574 28.4079C46.9122 28.4172 46.9693 28.4243 47.0287 28.429C47.0836 28.4292 47.1384 28.4294 47.1933 28.4295L49.3598 28.4363C49.4238 28.4365 49.4855 28.4344 49.5449 28.43C49.6044 28.4256 49.6638 28.4212 49.7232 28.4169L50.8429 45.2934C50.8911 45.9655 50.7432 46.4952 50.3991 46.8827C50.0551 47.2701 49.5723 47.4629 48.9507 47.4609L47.4835 47.4426Z" fill="#F6F8F9" fill-opacity="0.9"/>
<path d="M54.5035 26.4369L53.7219 26.4481C53.4888 26.452 53.3083 26.4217 53.1805 26.3573C53.0573 26.2884 52.9365 26.1806 52.8182 26.0339L52.2786 25.3672L51.4765 25.3578L50.8083 26.3499C50.6476 26.5916 50.4688 26.7648 50.2719 26.8693C50.075 26.9738 49.8395 27.0256 49.5652 27.0248L47.1519 27.0172C46.8183 27.0116 46.5351 26.9376 46.3024 26.7952C46.0698 26.6436 45.8763 26.3939 45.722 26.046L44.8779 24.11C44.26 24.3686 43.7285 24.7783 43.2834 25.3391C42.8429 25.8954 42.4912 26.5319 42.2285 27.2487C42.1639 27.4313 42.0515 27.5658 41.8912 27.6521C41.7356 27.7339 41.5801 27.7654 41.4247 27.7467C41.2283 27.7232 41.0526 27.6381 40.8976 27.4913C40.7472 27.34 40.6679 27.1181 40.6597 26.8255C40.6298 26.1535 40.7782 25.4684 41.1049 24.7701C41.4317 24.0626 41.8771 23.4104 42.4411 22.8134C43.0098 22.2118 43.6466 21.7293 44.3517 21.3659C45.0567 20.9933 45.7727 20.8058 46.4994 20.8035L49.1733 20.7982C49.603 20.7995 49.9639 20.8692 50.2559 21.0072C50.5481 21.1361 50.7714 21.3288 50.926 21.5852L51.4854 22.5057L52.2876 22.5014L52.8381 21.8312C52.9483 21.6853 53.0652 21.5828 53.1888 21.5237C53.3078 21.4601 53.4839 21.431 53.717 21.4363L54.526 21.4388C54.7911 21.4396 55.0034 21.5157 55.1629 21.667C55.3224 21.8184 55.4063 22.0175 55.4147 22.2643L55.3975 25.5895C55.3966 25.8546 55.316 26.0623 55.1555 26.2126C54.9905 26.3584 54.7732 26.4331 54.5035 26.4369ZM47.4835 47.4426C46.8619 47.4407 46.3826 47.2472 46.0455 46.8622C45.7131 46.4818 45.573 45.9511 45.6254 45.2703L46.8574 28.4079C46.9122 28.4172 46.9693 28.4243 47.0287 28.429C47.0836 28.4292 47.1384 28.4294 47.1933 28.4295L49.3598 28.4363C49.4238 28.4365 49.4855 28.4344 49.5449 28.43C49.6044 28.4256 49.6638 28.4212 49.7232 28.4169L50.8429 45.2934C50.8911 45.9655 50.7432 46.4952 50.3991 46.8827C50.0551 47.2701 49.5723 47.4629 48.9507 47.4609L47.4835 47.4426Z" stroke="#A75400" stroke-width="0.243375"/>
<path d="M54.5035 26.4369L53.7219 26.4481C53.4888 26.452 53.3083 26.4217 53.1805 26.3573C53.0573 26.2884 52.9365 26.1806 52.8182 26.0339L52.2786 25.3672L51.4765 25.3578L50.8083 26.3499C50.6476 26.5916 50.4688 26.7648 50.2719 26.8693C50.075 26.9738 49.8395 27.0256 49.5652 27.0248L47.1519 27.0172C46.8183 27.0116 46.5351 26.9376 46.3024 26.7952C46.0698 26.6436 45.8763 26.3939 45.722 26.046L44.8779 24.11C44.26 24.3686 43.7285 24.7783 43.2834 25.3391C42.8429 25.8954 42.4912 26.5319 42.2285 27.2487C42.1639 27.4313 42.0515 27.5658 41.8912 27.6521C41.7356 27.7339 41.5801 27.7654 41.4247 27.7467C41.2283 27.7232 41.0526 27.6381 40.8976 27.4913C40.7472 27.34 40.6679 27.1181 40.6597 26.8255C40.6298 26.1535 40.7782 25.4684 41.1049 24.7701C41.4317 24.0626 41.8771 23.4104 42.4411 22.8134C43.0098 22.2118 43.6466 21.7293 44.3517 21.3659C45.0567 20.9933 45.7727 20.8058 46.4994 20.8035L49.1733 20.7982C49.603 20.7995 49.9639 20.8692 50.2559 21.0072C50.5481 21.1361 50.7714 21.3288 50.926 21.5852L51.4854 22.5057L52.2876 22.5014L52.8381 21.8312C52.9483 21.6853 53.0652 21.5828 53.1888 21.5237C53.3078 21.4601 53.4839 21.431 53.717 21.4363L54.526 21.4388C54.7911 21.4396 55.0034 21.5157 55.1629 21.667C55.3224 21.8184 55.4063 22.0175 55.4147 22.2643L55.3975 25.5895C55.3966 25.8546 55.316 26.0623 55.1555 26.2126C54.9905 26.3584 54.7732 26.4331 54.5035 26.4369ZM47.4835 47.4426C46.8619 47.4407 46.3826 47.2472 46.0455 46.8622C45.7131 46.4818 45.573 45.9511 45.6254 45.2703L46.8574 28.4079C46.9122 28.4172 46.9693 28.4243 47.0287 28.429C47.0836 28.4292 47.1384 28.4294 47.1933 28.4295L49.3598 28.4363C49.4238 28.4365 49.4855 28.4344 49.5449 28.43C49.6044 28.4256 49.6638 28.4212 49.7232 28.4169L50.8429 45.2934C50.8911 45.9655 50.7432 46.4952 50.3991 46.8827C50.0551 47.2701 49.5723 47.4629 48.9507 47.4609L47.4835 47.4426Z" stroke="#F6F8F9" stroke-opacity="0.8" stroke-width="0.243375"/>
</g>
</g>
<defs>
<filter id="filter0_d_15902_9075" x="1.90735e-06" y="2.55164" width="46.1851" height="35.3746" filterUnits="userSpaceOnUse" color-interpolation-filters="sRGB">
<feFlood flood-opacity="0" result="BackgroundImageFix"/>
<feColorMatrix in="SourceAlpha" type="matrix" values="0 0 0 0 0 0 0 0 0 0 0 0 0 0 0 0 0 0 127 0" result="hardAlpha"/>
<feOffset dy="2.62744"/>
<feGaussianBlur stdDeviation="2.62744"/>
<feComposite in2="hardAlpha" operator="out"/>
<feColorMatrix type="matrix" values="0 0 0 0 0.0941176 0 0 0 0 0.105882 0 0 0 0 0.141176 0 0 0 0.05 0"/>
<feBlend mode="normal" in2="BackgroundImageFix" result="effect1_dropShadow_15902_9075"/>
<feBlend mode="normal" in="SourceGraphic" in2="effect1_dropShadow_15902_9075" result="shape"/>
</filter>
<filter id="filter1_d_15902_9075" x="60.8105" y="24.1733" width="38.0771" height="29.9692" filterUnits="userSpaceOnUse" color-interpolation-filters="sRGB">
<feFlood flood-opacity="0" result="BackgroundImageFix"/>
<feColorMatrix in="SourceAlpha" type="matrix" values="0 0 0 0 0 0 0 0 0 0 0 0 0 0 0 0 0 0 127 0" result="hardAlpha"/>
<feOffset dy="2.62744"/>
<feGaussianBlur stdDeviation="2.62744"/>
<feComposite in2="hardAlpha" operator="out"/>
<feColorMatrix type="matrix" values="0 0 0 0 0.0941176 0 0 0 0 0.105882 0 0 0 0 0.141176 0 0 0 0.05 0"/>
<feBlend mode="normal" in2="BackgroundImageFix" result="effect1_dropShadow_15902_9075"/>
<feBlend mode="normal" in="SourceGraphic" in2="effect1_dropShadow_15902_9075" result="shape"/>
</filter>
<filter id="filter2_d_15902_9075" x="13.1401" y="-8.58307e-06" width="70.3086" height="64.5003" filterUnits="userSpaceOnUse" color-interpolation-filters="sRGB">
<feFlood flood-opacity="0" result="BackgroundImageFix"/>
<feColorMatrix in="SourceAlpha" type="matrix" values="0 0 0 0 0 0 0 0 0 0 0 0 0 0 0 0 0 0 127 0" result="hardAlpha"/>
<feOffset dy="3.15211"/>
<feGaussianBlur stdDeviation="3.15211"/>
<feComposite in2="hardAlpha" operator="out"/>
<feColorMatrix type="matrix" values="0 0 0 0 0.0941176 0 0 0 0 0.105882 0 0 0 0 0.141176 0 0 0 0.05 0"/>
<feBlend mode="normal" in2="BackgroundImageFix" result="effect1_dropShadow_15902_9075"/>
<feBlend mode="normal" in="SourceGraphic" in2="effect1_dropShadow_15902_9075" result="shape"/>
</filter>
<filter id="filter3_d_15902_9075" x="32.016" y="12.1584" width="32.0387" height="43.9424" filterUnits="userSpaceOnUse" color-interpolation-filters="sRGB">
<feFlood flood-opacity="0" result="BackgroundImageFix"/>
<feColorMatrix in="SourceAlpha" type="matrix" values="0 0 0 0 0 0 0 0 0 0 0 0 0 0 0 0 0 0 127 0" result="hardAlpha"/>
<feOffset/>
<feGaussianBlur stdDeviation="4.25907"/>
<feComposite in2="hardAlpha" operator="out"/>
<feColorMatrix type="matrix" values="0 0 0 0 1 0 0 0 0 1 0 0 0 0 1 0 0 0 0.3 0"/>
<feBlend mode="normal" in2="BackgroundImageFix" result="effect1_dropShadow_15902_9075"/>
<feBlend mode="normal" in="SourceGraphic" in2="effect1_dropShadow_15902_9075" result="shape"/>
</filter>
<linearGradient id="paint0_linear_15902_9075" x1="23.0926" y1="6.125" x2="23.0926" y2="29.098" gradientUnits="userSpaceOnUse">
<stop stop-color="#F6F8F9" stop-opacity="0.975"/>
<stop offset="1" stop-color="white" stop-opacity="0"/>
</linearGradient>
<linearGradient id="paint1_linear_15902_9075" x1="23.0926" y1="6.125" x2="23.0926" y2="29.098" gradientUnits="userSpaceOnUse">
<stop stop-color="#F6F8F9" stop-opacity="0.975"/>
<stop offset="1" stop-color="white" stop-opacity="0"/>
</linearGradient>
<linearGradient id="paint2_linear_15902_9075" x1="79.8492" y1="27.7467" x2="79.8492" y2="45.3143" gradientUnits="userSpaceOnUse">
<stop stop-color="#F6F8F9" stop-opacity="0.975"/>
<stop offset="1" stop-color="white" stop-opacity="0"/>
</linearGradient>
<linearGradient id="paint3_linear_15902_9075" x1="79.8492" y1="27.7467" x2="79.8492" y2="45.3143" gradientUnits="userSpaceOnUse">
<stop stop-color="#F6F8F9" stop-opacity="0.975"/>
<stop offset="1" stop-color="white" stop-opacity="0"/>
</linearGradient>
</defs>
</svg>
