<svg width="102" height="72" viewBox="0 0 102 72" fill="none" xmlns="http://www.w3.org/2000/svg">
<g filter="url(#filter0_d_13685_24648)">
<g clip-path="url(#clip0_13685_24648)">
<rect width="24.9208" height="32.6627" rx="4.44697" transform="matrix(0.967185 0.254075 -0.263639 0.964621 67.3433 13.6975)" fill="white"/>
<path fill-rule="evenodd" clip-rule="evenodd" d="M68.0118 25.2585C68.1439 24.7751 68.6507 24.4883 69.1437 24.6178L84.263 28.5896C84.756 28.7191 85.0486 29.2159 84.9165 29.6993C84.7844 30.1826 84.2776 30.4695 83.7846 30.34L68.6653 26.3682C68.1723 26.2387 67.8797 25.7419 68.0118 25.2585ZM67.2942 27.8841C67.4263 27.4007 67.9331 27.1139 68.4261 27.2434L83.5454 31.2152C84.0384 31.3447 84.331 31.8415 84.1989 32.3249C84.0668 32.8082 83.56 33.0951 83.067 32.9656L67.9477 28.9938C67.4547 28.8643 67.1621 28.3675 67.2942 27.8841ZM66.5766 30.5097C66.7087 30.0263 67.2155 29.7395 67.7085 29.869L82.8278 33.8408C83.3208 33.9703 83.6134 34.4671 83.4813 34.9505C83.3492 35.4338 82.8424 35.7207 82.3494 35.5912L67.2301 31.6194C66.7371 31.4899 66.4445 30.993 66.5766 30.5097ZM65.859 33.1353C65.9911 32.6519 66.4979 32.3651 66.9909 32.4946L74.0758 34.3558C74.5689 34.4853 74.8615 34.9821 74.7293 35.4655C74.5972 35.9488 74.0905 36.2357 73.5974 36.1062L66.5125 34.245C66.0195 34.1155 65.7269 33.6186 65.859 33.1353Z" fill="#6A6AF4"/>
<path fill-rule="evenodd" clip-rule="evenodd" d="M68.0118 25.2585C68.1439 24.7751 68.6507 24.4883 69.1437 24.6178L84.263 28.5896C84.756 28.7191 85.0486 29.2159 84.9165 29.6993C84.7844 30.1826 84.2776 30.4695 83.7846 30.34L68.6653 26.3682C68.1723 26.2387 67.8797 25.7419 68.0118 25.2585ZM67.2942 27.8841C67.4263 27.4007 67.9331 27.1139 68.4261 27.2434L83.5454 31.2152C84.0384 31.3447 84.331 31.8415 84.1989 32.3249C84.0668 32.8082 83.56 33.0951 83.067 32.9656L67.9477 28.9938C67.4547 28.8643 67.1621 28.3675 67.2942 27.8841ZM66.5766 30.5097C66.7087 30.0263 67.2155 29.7395 67.7085 29.869L82.8278 33.8408C83.3208 33.9703 83.6134 34.4671 83.4813 34.9505C83.3492 35.4338 82.8424 35.7207 82.3494 35.5912L67.2301 31.6194C66.7371 31.4899 66.4445 30.993 66.5766 30.5097ZM65.859 33.1353C65.9911 32.6519 66.4979 32.3651 66.9909 32.4946L74.0758 34.3558C74.5689 34.4853 74.8615 34.9821 74.7293 35.4655C74.5972 35.9488 74.0905 36.2357 73.5974 36.1062L66.5125 34.245C66.0195 34.1155 65.7269 33.6186 65.859 33.1353Z" fill="white" fill-opacity="0.65"/>
<path fill-rule="evenodd" clip-rule="evenodd" d="M68.0118 25.2585C68.1439 24.7751 68.6507 24.4883 69.1437 24.6178L84.263 28.5896C84.756 28.7191 85.0486 29.2159 84.9165 29.6993C84.7844 30.1826 84.2776 30.4695 83.7846 30.34L68.6653 26.3682C68.1723 26.2387 67.8797 25.7419 68.0118 25.2585ZM67.2942 27.8841C67.4263 27.4007 67.9331 27.1139 68.4261 27.2434L83.5454 31.2152C84.0384 31.3447 84.331 31.8415 84.1989 32.3249C84.0668 32.8082 83.56 33.0951 83.067 32.9656L67.9477 28.9938C67.4547 28.8643 67.1621 28.3675 67.2942 27.8841ZM66.5766 30.5097C66.7087 30.0263 67.2155 29.7395 67.7085 29.869L82.8278 33.8408C83.3208 33.9703 83.6134 34.4671 83.4813 34.9505C83.3492 35.4338 82.8424 35.7207 82.3494 35.5912L67.2301 31.6194C66.7371 31.4899 66.4445 30.993 66.5766 30.5097ZM65.859 33.1353C65.9911 32.6519 66.4979 32.3651 66.9909 32.4946L74.0758 34.3558C74.5689 34.4853 74.8615 34.9821 74.7293 35.4655C74.5972 35.9488 74.0905 36.2357 73.5974 36.1062L66.5125 34.245C66.0195 34.1155 65.7269 33.6186 65.859 33.1353Z" fill="#969EB0"/>
<path fill-rule="evenodd" clip-rule="evenodd" d="M68.0118 25.2585C68.1439 24.7751 68.6507 24.4883 69.1437 24.6178L84.263 28.5896C84.756 28.7191 85.0486 29.2159 84.9165 29.6993C84.7844 30.1826 84.2776 30.4695 83.7846 30.34L68.6653 26.3682C68.1723 26.2387 67.8797 25.7419 68.0118 25.2585ZM67.2942 27.8841C67.4263 27.4007 67.9331 27.1139 68.4261 27.2434L83.5454 31.2152C84.0384 31.3447 84.331 31.8415 84.1989 32.3249C84.0668 32.8082 83.56 33.0951 83.067 32.9656L67.9477 28.9938C67.4547 28.8643 67.1621 28.3675 67.2942 27.8841ZM66.5766 30.5097C66.7087 30.0263 67.2155 29.7395 67.7085 29.869L82.8278 33.8408C83.3208 33.9703 83.6134 34.4671 83.4813 34.9505C83.3492 35.4338 82.8424 35.7207 82.3494 35.5912L67.2301 31.6194C66.7371 31.4899 66.4445 30.993 66.5766 30.5097ZM65.859 33.1353C65.9911 32.6519 66.4979 32.3651 66.9909 32.4946L74.0758 34.3558C74.5689 34.4853 74.8615 34.9821 74.7293 35.4655C74.5972 35.9488 74.0905 36.2357 73.5974 36.1062L66.5125 34.245C66.0195 34.1155 65.7269 33.6186 65.859 33.1353Z" fill="#F6F8F9" fill-opacity="0.8"/>
<path d="M67.3437 13.6976L91.4462 20.0292L89.5625 26.9214L65.4596 20.5897L67.3437 13.6976Z" fill="#3677CC"/>
<path d="M67.3437 13.6976L91.4462 20.0292L89.5625 26.9214L65.4596 20.5897L67.3437 13.6976Z" fill="#F6F8F9" fill-opacity="0.975"/>
<path d="M67.3437 13.6976L91.4462 20.0292L89.5625 26.9214L65.4596 20.5897L67.3437 13.6976Z" fill="url(#paint0_linear_13685_24648)" fill-opacity="0.4"/>
</g>
<rect x="0.307976" y="0.533483" width="24.0453" height="31.7872" rx="4.00923" transform="matrix(0.967185 0.254075 -0.263639 0.964621 67.494 13.6381)" stroke="#969EB0" stroke-width="0.875498"/>
<rect x="0.307976" y="0.533483" width="24.0453" height="31.7872" rx="4.00923" transform="matrix(0.967185 0.254075 -0.263639 0.964621 67.494 13.6381)" stroke="#F6F8F9" stroke-opacity="0.8" stroke-width="0.875498"/>
</g>
<g filter="url(#filter1_d_13685_24648)">
<g clip-path="url(#clip1_13685_24648)">
<rect width="24.9208" height="32.6627" rx="4.44697" transform="matrix(0.967185 -0.254075 0.263639 0.964621 10.7925 20.0295)" fill="white"/>
<path d="M10.7915 20.0299L34.9712 13.678L38.1037 25.1394L13.9235 31.4914L10.7915 20.0299Z" fill="#6D778C"/>
<path d="M10.7915 20.0299L34.9712 13.678L38.1037 25.1394L13.9235 31.4914L10.7915 20.0299Z" fill="#F6F8F9" fill-opacity="0.975"/>
<path d="M10.7915 20.0299L34.9712 13.678L38.1037 25.1394L13.9235 31.4914L10.7915 20.0299Z" fill="url(#paint1_linear_13685_24648)" fill-opacity="0.5"/>
<path fill-rule="evenodd" clip-rule="evenodd" d="M16.4594 28.5544C16.3273 28.071 16.6199 27.5742 17.1129 27.4447L25.1472 25.3341C25.6403 25.2046 26.147 25.4914 26.2791 25.9748C26.4112 26.4582 26.1187 26.955 25.6256 27.0845L17.5913 29.1951C17.0983 29.3246 16.5915 29.0378 16.4594 28.5544Z" fill="#969EB0"/>
<path fill-rule="evenodd" clip-rule="evenodd" d="M16.4594 28.5544C16.3273 28.071 16.6199 27.5742 17.1129 27.4447L25.1472 25.3341C25.6403 25.2046 26.147 25.4914 26.2791 25.9748C26.4112 26.4582 26.1187 26.955 25.6256 27.0845L17.5913 29.1951C17.0983 29.3246 16.5915 29.0378 16.4594 28.5544Z" fill="#F6F8F9" fill-opacity="0.15"/>
<path fill-rule="evenodd" clip-rule="evenodd" d="M17.4931 32.2929C17.361 31.8096 17.6536 31.3127 18.1466 31.1832L34.2153 26.9621C34.7083 26.8325 35.215 27.1194 35.3472 27.6027C35.4793 28.0861 35.1867 28.5829 34.6937 28.7125L18.625 32.9336C18.132 33.0631 17.6252 32.7763 17.4931 32.2929Z" fill="#6D778C"/>
<path fill-rule="evenodd" clip-rule="evenodd" d="M17.4931 32.2929C17.361 31.8096 17.6536 31.3127 18.1466 31.1832L34.2153 26.9621C34.7083 26.8325 35.215 27.1194 35.3472 27.6027C35.4793 28.0861 35.1867 28.5829 34.6937 28.7125L18.625 32.9336C18.132 33.0631 17.6252 32.7763 17.4931 32.2929Z" fill="#F6F8F9" fill-opacity="0.8"/>
<path fill-rule="evenodd" clip-rule="evenodd" d="M17.4931 32.2929C17.361 31.8096 17.6536 31.3127 18.1466 31.1832L34.2153 26.9621C34.7083 26.8325 35.215 27.1194 35.3472 27.6027C35.4793 28.0861 35.1867 28.5829 34.6937 28.7125L18.625 32.9336C18.132 33.0631 17.6252 32.7763 17.4931 32.2929Z" fill="url(#paint2_linear_13685_24648)" fill-opacity="0.35"/>
<path fill-rule="evenodd" clip-rule="evenodd" d="M18.3004 35.2467C18.1683 34.7634 18.4609 34.2665 18.9539 34.137L35.0225 29.9159C35.5156 29.7863 36.0223 30.0732 36.1544 30.5565C36.2866 31.0399 35.994 31.5367 35.5009 31.6663L19.4323 35.8874C18.9393 36.0169 18.4325 35.7301 18.3004 35.2467Z" fill="#6D778C"/>
<path fill-rule="evenodd" clip-rule="evenodd" d="M18.3004 35.2467C18.1683 34.7634 18.4609 34.2665 18.9539 34.137L35.0225 29.9159C35.5156 29.7863 36.0223 30.0732 36.1544 30.5565C36.2866 31.0399 35.994 31.5367 35.5009 31.6663L19.4323 35.8874C18.9393 36.0169 18.4325 35.7301 18.3004 35.2467Z" fill="#F6F8F9" fill-opacity="0.8"/>
<path fill-rule="evenodd" clip-rule="evenodd" d="M18.3004 35.2467C18.1683 34.7634 18.4609 34.2665 18.9539 34.137L35.0225 29.9159C35.5156 29.7863 36.0223 30.0732 36.1544 30.5565C36.2866 31.0399 35.994 31.5367 35.5009 31.6663L19.4323 35.8874C18.9393 36.0169 18.4325 35.7301 18.3004 35.2467Z" fill="url(#paint3_linear_13685_24648)" fill-opacity="0.35"/>
<path fill-rule="evenodd" clip-rule="evenodd" d="M19.1077 38.2005C18.9756 37.7172 19.2682 37.2203 19.7612 37.0908L35.8298 32.8696C36.3229 32.7401 36.8296 33.027 36.9617 33.5103C37.0939 33.9937 36.8013 34.4905 36.3082 34.62L20.2396 38.8412C19.7466 38.9707 19.2398 38.6839 19.1077 38.2005Z" fill="#6D778C"/>
<path fill-rule="evenodd" clip-rule="evenodd" d="M19.1077 38.2005C18.9756 37.7172 19.2682 37.2203 19.7612 37.0908L35.8298 32.8696C36.3229 32.7401 36.8296 33.027 36.9617 33.5103C37.0939 33.9937 36.8013 34.4905 36.3082 34.62L20.2396 38.8412C19.7466 38.9707 19.2398 38.6839 19.1077 38.2005Z" fill="#F6F8F9" fill-opacity="0.8"/>
<path fill-rule="evenodd" clip-rule="evenodd" d="M19.1077 38.2005C18.9756 37.7172 19.2682 37.2203 19.7612 37.0908L35.8298 32.8696C36.3229 32.7401 36.8296 33.027 36.9617 33.5103C37.0939 33.9937 36.8013 34.4905 36.3082 34.62L20.2396 38.8412C19.7466 38.9707 19.2398 38.6839 19.1077 38.2005Z" fill="url(#paint4_linear_13685_24648)" fill-opacity="0.35"/>
<path fill-rule="evenodd" clip-rule="evenodd" d="M19.915 41.1543C19.7829 40.6709 20.0755 40.1741 20.5685 40.0446L36.6371 35.8234C37.1302 35.6939 37.6369 35.9808 37.769 36.4641C37.9011 36.9475 37.6086 37.4443 37.1155 37.5738L21.0469 41.795C20.5539 41.9245 20.0471 41.6377 19.915 41.1543Z" fill="#6D778C"/>
<path fill-rule="evenodd" clip-rule="evenodd" d="M19.915 41.1543C19.7829 40.6709 20.0755 40.1741 20.5685 40.0446L36.6371 35.8234C37.1302 35.6939 37.6369 35.9808 37.769 36.4641C37.9011 36.9475 37.6086 37.4443 37.1155 37.5738L21.0469 41.795C20.5539 41.9245 20.0471 41.6377 19.915 41.1543Z" fill="#F6F8F9" fill-opacity="0.8"/>
<path fill-rule="evenodd" clip-rule="evenodd" d="M19.915 41.1543C19.7829 40.6709 20.0755 40.1741 20.5685 40.0446L36.6371 35.8234C37.1302 35.6939 37.6369 35.9808 37.769 36.4641C37.9011 36.9475 37.6086 37.4443 37.1155 37.5738L21.0469 41.795C20.5539 41.9245 20.0471 41.6377 19.915 41.1543Z" fill="url(#paint5_linear_13685_24648)" fill-opacity="0.35"/>
<path fill-rule="evenodd" clip-rule="evenodd" d="M20.7223 44.1081C20.5902 43.6247 20.8828 43.1279 21.3758 42.9984L37.4444 38.7772C37.9375 38.6477 38.4442 38.9346 38.5763 39.4179C38.7084 39.9013 38.4159 40.3981 37.9228 40.5276L21.8542 44.7488C21.3612 44.8783 20.8544 44.5915 20.7223 44.1081Z" fill="#6D778C"/>
<path fill-rule="evenodd" clip-rule="evenodd" d="M20.7223 44.1081C20.5902 43.6247 20.8828 43.1279 21.3758 42.9984L37.4444 38.7772C37.9375 38.6477 38.4442 38.9346 38.5763 39.4179C38.7084 39.9013 38.4159 40.3981 37.9228 40.5276L21.8542 44.7488C21.3612 44.8783 20.8544 44.5915 20.7223 44.1081Z" fill="#F6F8F9" fill-opacity="0.8"/>
<path fill-rule="evenodd" clip-rule="evenodd" d="M20.7223 44.1081C20.5902 43.6247 20.8828 43.1279 21.3758 42.9984L37.4444 38.7772C37.9375 38.6477 38.4442 38.9346 38.5763 39.4179C38.7084 39.9013 38.4159 40.3981 37.9228 40.5276L21.8542 44.7488C21.3612 44.8783 20.8544 44.5915 20.7223 44.1081Z" fill="url(#paint6_linear_13685_24648)" fill-opacity="0.35"/>
<path fill-rule="evenodd" clip-rule="evenodd" d="M21.5296 47.0619C21.3975 46.5785 21.6901 46.0817 22.1831 45.9522L38.2517 41.731C38.7448 41.6015 39.2515 41.8884 39.3836 42.3717C39.5157 42.8551 39.2232 43.3519 38.7301 43.4814L22.6615 47.7026C22.1685 47.8321 21.6617 47.5453 21.5296 47.0619Z" fill="#6D778C"/>
<path fill-rule="evenodd" clip-rule="evenodd" d="M21.5296 47.0619C21.3975 46.5785 21.6901 46.0817 22.1831 45.9522L38.2517 41.731C38.7448 41.6015 39.2515 41.8884 39.3836 42.3717C39.5157 42.8551 39.2232 43.3519 38.7301 43.4814L22.6615 47.7026C22.1685 47.8321 21.6617 47.5453 21.5296 47.0619Z" fill="#F6F8F9" fill-opacity="0.8"/>
<path fill-rule="evenodd" clip-rule="evenodd" d="M21.5296 47.0619C21.3975 46.5785 21.6901 46.0817 22.1831 45.9522L38.2517 41.731C38.7448 41.6015 39.2515 41.8884 39.3836 42.3717C39.5157 42.8551 39.2232 43.3519 38.7301 43.4814L22.6615 47.7026C22.1685 47.8321 21.6617 47.5453 21.5296 47.0619Z" fill="url(#paint7_linear_13685_24648)" fill-opacity="0.35"/>
</g>
<rect x="0.538792" y="0.311041" width="24.0453" height="31.7872" rx="4.00923" transform="matrix(0.967185 -0.254075 0.263639 0.964621 10.7282 20.1774)" stroke="#969EB0" stroke-width="0.875498"/>
<rect x="0.538792" y="0.311041" width="24.0453" height="31.7872" rx="4.00923" transform="matrix(0.967185 -0.254075 0.263639 0.964621 10.7282 20.1774)" stroke="#F6F8F9" stroke-opacity="0.8" stroke-width="0.875498"/>
</g>
<g filter="url(#filter2_d_13685_24648)">
<path d="M50.0938 10.1895C50.7984 10.1895 51.4697 10.3537 52.0967 10.6797L52.0957 10.6807C52.7838 11.0072 53.3219 11.5367 53.7158 12.2256H53.7168L77.5342 53.7754L77.543 53.791L77.5508 53.8066C77.9324 54.5461 78.1328 55.3179 78.1328 56.1143C78.1328 57.2505 77.7445 58.2575 76.9844 59.0996L76.9854 59.1006C76.1959 60.0216 75.1177 60.459 73.8496 60.459H26.3076C25.0395 60.459 23.9613 60.0216 23.1719 59.1006V59.0996C22.4298 58.2544 22.0547 57.247 22.0547 56.1143C22.0547 55.7708 22.0913 55.405 22.1592 55.0205L22.1631 54.998L22.168 54.9766C22.2647 54.5656 22.4093 54.1678 22.6006 53.7852L22.6113 53.7646L22.623 53.7441L46.4404 12.2256C46.8364 11.5331 47.3782 11.002 48.0713 10.6758V10.6738C48.7121 10.3534 49.3893 10.1895 50.0938 10.1895Z" fill="#CF202D"/>
<path d="M50.0938 10.1895C50.7984 10.1895 51.4697 10.3537 52.0967 10.6797L52.0957 10.6807C52.7838 11.0072 53.3219 11.5367 53.7158 12.2256H53.7168L77.5342 53.7754L77.543 53.791L77.5508 53.8066C77.9324 54.5461 78.1328 55.3179 78.1328 56.1143C78.1328 57.2505 77.7445 58.2575 76.9844 59.0996L76.9854 59.1006C76.1959 60.0216 75.1177 60.459 73.8496 60.459H26.3076C25.0395 60.459 23.9613 60.0216 23.1719 59.1006V59.0996C22.4298 58.2544 22.0547 57.247 22.0547 56.1143C22.0547 55.7708 22.0913 55.405 22.1592 55.0205L22.1631 54.998L22.168 54.9766C22.2647 54.5656 22.4093 54.1678 22.6006 53.7852L22.6113 53.7646L22.623 53.7441L46.4404 12.2256C46.8364 11.5331 47.3782 11.002 48.0713 10.6758V10.6738C48.7121 10.3534 49.3893 10.1895 50.0938 10.1895Z" fill="#F6F8F9" fill-opacity="0.25"/>
<path d="M50.0938 10.1895C50.7984 10.1895 51.4697 10.3537 52.0967 10.6797L52.0957 10.6807C52.7838 11.0072 53.3219 11.5367 53.7158 12.2256H53.7168L77.5342 53.7754L77.543 53.791L77.5508 53.8066C77.9324 54.5461 78.1328 55.3179 78.1328 56.1143C78.1328 57.2505 77.7445 58.2575 76.9844 59.0996L76.9854 59.1006C76.1959 60.0216 75.1177 60.459 73.8496 60.459H26.3076C25.0395 60.459 23.9613 60.0216 23.1719 59.1006V59.0996C22.4298 58.2544 22.0547 57.247 22.0547 56.1143C22.0547 55.7708 22.0913 55.405 22.1592 55.0205L22.1631 54.998L22.168 54.9766C22.2647 54.5656 22.4093 54.1678 22.6006 53.7852L22.6113 53.7646L22.623 53.7441L46.4404 12.2256C46.8364 11.5331 47.3782 11.002 48.0713 10.6758V10.6738C48.7121 10.3534 49.3893 10.1895 50.0938 10.1895Z" stroke="#CF202D" stroke-width="1.62162"/>
<path d="M50.0938 10.1895C50.7984 10.1895 51.4697 10.3537 52.0967 10.6797L52.0957 10.6807C52.7838 11.0072 53.3219 11.5367 53.7158 12.2256H53.7168L77.5342 53.7754L77.543 53.791L77.5508 53.8066C77.9324 54.5461 78.1328 55.3179 78.1328 56.1143C78.1328 57.2505 77.7445 58.2575 76.9844 59.0996L76.9854 59.1006C76.1959 60.0216 75.1177 60.459 73.8496 60.459H26.3076C25.0395 60.459 23.9613 60.0216 23.1719 59.1006V59.0996C22.4298 58.2544 22.0547 57.247 22.0547 56.1143C22.0547 55.7708 22.0913 55.405 22.1592 55.0205L22.1631 54.998L22.168 54.9766C22.2647 54.5656 22.4093 54.1678 22.6006 53.7852L22.6113 53.7646L22.623 53.7441L46.4404 12.2256C46.8364 11.5331 47.3782 11.002 48.0713 10.6758V10.6738C48.7121 10.3534 49.3893 10.1895 50.0938 10.1895Z" stroke="#F6F8F9" stroke-opacity="0.45" stroke-width="1.62162"/>
<g filter="url(#filter3_d_13685_24648)">
<path d="M48.0054 41.7676C48.027 43.1811 48.6973 43.8879 50.0162 43.8879C51.2919 43.8879 51.9405 43.1811 51.9622 41.7676L52.3514 24.316C52.373 23.6636 52.1568 23.1199 51.7027 22.685C51.2486 22.2283 50.6757 22 49.9838 22C49.2703 22 48.6973 22.2175 48.2649 22.6524C47.8324 23.0873 47.627 23.6419 47.6486 24.316L48.0054 41.7676Z" fill="#CF202D"/>
<path d="M48.0054 41.7676C48.027 43.1811 48.6973 43.8879 50.0162 43.8879C51.2919 43.8879 51.9405 43.1811 51.9622 41.7676L52.3514 24.316C52.373 23.6636 52.1568 23.1199 51.7027 22.685C51.2486 22.2283 50.6757 22 49.9838 22C49.2703 22 48.6973 22.2175 48.2649 22.6524C47.8324 23.0873 47.627 23.6419 47.6486 24.316L48.0054 41.7676Z" fill="#F6F8F9" fill-opacity="0.9"/>
<path d="M47.8757 53.1193C48.4595 53.7064 49.173 54 50.0162 54C50.8162 54 51.5081 53.7173 52.0919 53.1519C52.6973 52.5647 53 51.8688 53 51.0642C53 50.2379 52.7081 49.542 52.1243 48.9766C51.5405 48.4111 50.8378 48.1284 50.0162 48.1284C49.173 48.1284 48.4595 48.4111 47.8757 48.9766C47.2919 49.542 47 50.2379 47 51.0642C47 51.8471 47.2919 52.5321 47.8757 53.1193Z" fill="#CF202D"/>
<path d="M47.8757 53.1193C48.4595 53.7064 49.173 54 50.0162 54C50.8162 54 51.5081 53.7173 52.0919 53.1519C52.6973 52.5647 53 51.8688 53 51.0642C53 50.2379 52.7081 49.542 52.1243 48.9766C51.5405 48.4111 50.8378 48.1284 50.0162 48.1284C49.173 48.1284 48.4595 48.4111 47.8757 48.9766C47.2919 49.542 47 50.2379 47 51.0642C47 51.8471 47.2919 52.5321 47.8757 53.1193Z" fill="#F6F8F9" fill-opacity="0.9"/>
<path d="M48.0054 41.7676C48.027 43.1811 48.6973 43.8879 50.0162 43.8879C51.2919 43.8879 51.9405 43.1811 51.9622 41.7676L52.3514 24.316C52.373 23.6636 52.1568 23.1199 51.7027 22.685C51.2486 22.2283 50.6757 22 49.9838 22C49.2703 22 48.6973 22.2175 48.2649 22.6524C47.8324 23.0873 47.627 23.6419 47.6486 24.316L48.0054 41.7676Z" stroke="#CF202D" stroke-width="0.24"/>
<path d="M48.0054 41.7676C48.027 43.1811 48.6973 43.8879 50.0162 43.8879C51.2919 43.8879 51.9405 43.1811 51.9622 41.7676L52.3514 24.316C52.373 23.6636 52.1568 23.1199 51.7027 22.685C51.2486 22.2283 50.6757 22 49.9838 22C49.2703 22 48.6973 22.2175 48.2649 22.6524C47.8324 23.0873 47.627 23.6419 47.6486 24.316L48.0054 41.7676Z" stroke="#F6F8F9" stroke-opacity="0.8" stroke-width="0.24"/>
<path d="M47.8757 53.1193C48.4595 53.7064 49.173 54 50.0162 54C50.8162 54 51.5081 53.7173 52.0919 53.1519C52.6973 52.5647 53 51.8688 53 51.0642C53 50.2379 52.7081 49.542 52.1243 48.9766C51.5405 48.4111 50.8378 48.1284 50.0162 48.1284C49.173 48.1284 48.4595 48.4111 47.8757 48.9766C47.2919 49.542 47 50.2379 47 51.0642C47 51.8471 47.2919 52.5321 47.8757 53.1193Z" stroke="#CF202D" stroke-width="0.24"/>
<path d="M47.8757 53.1193C48.4595 53.7064 49.173 54 50.0162 54C50.8162 54 51.5081 53.7173 52.0919 53.1519C52.6973 52.5647 53 51.8688 53 51.0642C53 50.2379 52.7081 49.542 52.1243 48.9766C51.5405 48.4111 50.8378 48.1284 50.0162 48.1284C49.173 48.1284 48.4595 48.4111 47.8757 48.9766C47.2919 49.542 47 50.2379 47 51.0642C47 51.8471 47.2919 52.5321 47.8757 53.1193Z" stroke="#F6F8F9" stroke-opacity="0.8" stroke-width="0.24"/>
</g>
</g>
<defs>
<filter id="filter0_d_13685_24648" x="44.6182" y="5.14701" width="60.9412" height="59.9425" filterUnits="userSpaceOnUse" color-interpolation-filters="sRGB">
<feFlood flood-opacity="0" result="BackgroundImageFix"/>
<feColorMatrix in="SourceAlpha" type="matrix" values="0 0 0 0 0 0 0 0 0 0 0 0 0 0 0 0 0 0 127 0" result="hardAlpha"/>
<feOffset dy="2.50142"/>
<feGaussianBlur stdDeviation="2.50142"/>
<feComposite in2="hardAlpha" operator="out"/>
<feColorMatrix type="matrix" values="0 0 0 0 0.0941176 0 0 0 0 0.105882 0 0 0 0 0.141176 0 0 0 0.05 0"/>
<feBlend mode="normal" in2="BackgroundImageFix" result="effect1_dropShadow_13685_24648"/>
<feBlend mode="normal" in="SourceGraphic" in2="effect1_dropShadow_13685_24648" result="shape"/>
</filter>
<filter id="filter1_d_13685_24648" x="-3.32121" y="5.14726" width="60.9412" height="59.9427" filterUnits="userSpaceOnUse" color-interpolation-filters="sRGB">
<feFlood flood-opacity="0" result="BackgroundImageFix"/>
<feColorMatrix in="SourceAlpha" type="matrix" values="0 0 0 0 0 0 0 0 0 0 0 0 0 0 0 0 0 0 127 0" result="hardAlpha"/>
<feOffset dy="2.50142"/>
<feGaussianBlur stdDeviation="2.50142"/>
<feComposite in2="hardAlpha" operator="out"/>
<feColorMatrix type="matrix" values="0 0 0 0 0.0941176 0 0 0 0 0.105882 0 0 0 0 0.141176 0 0 0 0.05 0"/>
<feBlend mode="normal" in2="BackgroundImageFix" result="effect1_dropShadow_13685_24648"/>
<feBlend mode="normal" in="SourceGraphic" in2="effect1_dropShadow_13685_24648" result="shape"/>
</filter>
<filter id="filter2_d_13685_24648" x="14.9394" y="6.22631" width="70.3086" height="64.5003" filterUnits="userSpaceOnUse" color-interpolation-filters="sRGB">
<feFlood flood-opacity="0" result="BackgroundImageFix"/>
<feColorMatrix in="SourceAlpha" type="matrix" values="0 0 0 0 0 0 0 0 0 0 0 0 0 0 0 0 0 0 127 0" result="hardAlpha"/>
<feOffset dy="3.15211"/>
<feGaussianBlur stdDeviation="3.15211"/>
<feComposite in2="hardAlpha" operator="out"/>
<feColorMatrix type="matrix" values="0 0 0 0 0.0941176 0 0 0 0 0.105882 0 0 0 0 0.141176 0 0 0 0.05 0"/>
<feBlend mode="normal" in2="BackgroundImageFix" result="effect1_dropShadow_13685_24648"/>
<feBlend mode="normal" in="SourceGraphic" in2="effect1_dropShadow_13685_24648" result="shape"/>
</filter>
<filter id="filter3_d_13685_24648" x="38.3618" y="13.3618" width="23.2765" height="49.2765" filterUnits="userSpaceOnUse" color-interpolation-filters="sRGB">
<feFlood flood-opacity="0" result="BackgroundImageFix"/>
<feColorMatrix in="SourceAlpha" type="matrix" values="0 0 0 0 0 0 0 0 0 0 0 0 0 0 0 0 0 0 127 0" result="hardAlpha"/>
<feOffset/>
<feGaussianBlur stdDeviation="4.25907"/>
<feComposite in2="hardAlpha" operator="out"/>
<feColorMatrix type="matrix" values="0 0 0 0 1 0 0 0 0 1 0 0 0 0 1 0 0 0 0.3 0"/>
<feBlend mode="normal" in2="BackgroundImageFix" result="effect1_dropShadow_13685_24648"/>
<feBlend mode="normal" in="SourceGraphic" in2="effect1_dropShadow_13685_24648" result="shape"/>
</filter>
<linearGradient id="paint0_linear_13685_24648" x1="81.4775" y1="9.24589" x2="77.5812" y2="24.0977" gradientUnits="userSpaceOnUse">
<stop stop-color="white" stop-opacity="0"/>
<stop offset="1" stop-color="white"/>
</linearGradient>
<linearGradient id="paint1_linear_13685_24648" x1="19.4196" y1="4.18596" x2="25.9208" y2="28.8783" gradientUnits="userSpaceOnUse">
<stop stop-color="white" stop-opacity="0"/>
<stop offset="1" stop-color="white"/>
</linearGradient>
<linearGradient id="paint2_linear_13685_24648" x1="27.7654" y1="34.8709" x2="30.5949" y2="45.642" gradientUnits="userSpaceOnUse">
<stop stop-color="white" stop-opacity="0"/>
<stop offset="1" stop-color="white"/>
</linearGradient>
<linearGradient id="paint3_linear_13685_24648" x1="27.7654" y1="34.8709" x2="30.5949" y2="45.642" gradientUnits="userSpaceOnUse">
<stop stop-color="white" stop-opacity="0"/>
<stop offset="1" stop-color="white"/>
</linearGradient>
<linearGradient id="paint4_linear_13685_24648" x1="27.7654" y1="34.8709" x2="30.5949" y2="45.642" gradientUnits="userSpaceOnUse">
<stop stop-color="white" stop-opacity="0"/>
<stop offset="1" stop-color="white"/>
</linearGradient>
<linearGradient id="paint5_linear_13685_24648" x1="27.7654" y1="34.8709" x2="30.5949" y2="45.642" gradientUnits="userSpaceOnUse">
<stop stop-color="white" stop-opacity="0"/>
<stop offset="1" stop-color="white"/>
</linearGradient>
<linearGradient id="paint6_linear_13685_24648" x1="27.7654" y1="34.8709" x2="30.5949" y2="45.642" gradientUnits="userSpaceOnUse">
<stop stop-color="white" stop-opacity="0"/>
<stop offset="1" stop-color="white"/>
</linearGradient>
<linearGradient id="paint7_linear_13685_24648" x1="27.7654" y1="34.8709" x2="30.5949" y2="45.642" gradientUnits="userSpaceOnUse">
<stop stop-color="white" stop-opacity="0"/>
<stop offset="1" stop-color="white"/>
</linearGradient>
<clipPath id="clip0_13685_24648">
<rect width="24.9208" height="32.6627" rx="4.44697" transform="matrix(0.967185 0.254075 -0.263639 0.964621 67.3433 13.6975)" fill="white"/>
</clipPath>
<clipPath id="clip1_13685_24648">
<rect width="24.9208" height="32.6627" rx="4.44697" transform="matrix(0.967185 -0.254075 0.263639 0.964621 10.7925 20.0295)" fill="white"/>
</clipPath>
</defs>
</svg>
