<svg width="102" height="72" viewBox="0 0 102 72" fill="none" xmlns="http://www.w3.org/2000/svg">
<g clip-path="url(#clip0_12121_1715)">
<g filter="url(#filter0_d_12121_1715)">
<g clip-path="url(#clip1_12121_1715)">
<rect x="24.0029" y="12.1978" width="55.9751" height="38.9919" rx="7.16721" fill="white"/>
<rect x="24.0029" y="12.1978" width="55.9751" height="38.9919" rx="7.16721" fill="url(#paint0_linear_12121_1715)" fill-opacity="0.2"/>
<mask id="path-3-inside-1_12121_1715" fill="white">
<path d="M79.9785 15.3345L63.2822 31.0122L79.6055 48.0522L76.625 51.1899L60.1436 33.9585L56.7588 37.1382C55.9972 37.8641 55.2185 38.3908 54.4238 38.7192C53.6458 39.0476 52.8345 39.2124 51.9902 39.2124C51.146 39.2124 50.3268 39.0476 49.5322 38.7192C48.7542 38.3909 47.9842 37.864 47.2227 37.1382L43.8379 33.9595L27.4053 51.1636L24.4248 48.0269L40.7109 31.0239L24.0029 15.3345L26.9834 12.1978L49.7559 33.6382C50.4676 34.312 51.2123 34.6489 51.9902 34.6489C52.7684 34.6489 53.5137 34.3122 54.2256 33.6382L76.998 12.1978L79.9785 15.3345Z"/>
</mask>
<path d="M79.9785 15.3345L63.2822 31.0122L79.6055 48.0522L76.625 51.1899L60.1436 33.9585L56.7588 37.1382C55.9972 37.8641 55.2185 38.3908 54.4238 38.7192C53.6458 39.0476 52.8345 39.2124 51.9902 39.2124C51.146 39.2124 50.3268 39.0476 49.5322 38.7192C48.7542 38.3909 47.9842 37.864 47.2227 37.1382L43.8379 33.9595L27.4053 51.1636L24.4248 48.0269L40.7109 31.0239L24.0029 15.3345L26.9834 12.1978L49.7559 33.6382C50.4676 34.312 51.2123 34.6489 51.9902 34.6489C52.7684 34.6489 53.5137 34.3122 54.2256 33.6382L76.998 12.1978L79.9785 15.3345Z" fill="#6D778C"/>
<path d="M79.9785 15.3345L63.2822 31.0122L79.6055 48.0522L76.625 51.1899L60.1436 33.9585L56.7588 37.1382C55.9972 37.8641 55.2185 38.3908 54.4238 38.7192C53.6458 39.0476 52.8345 39.2124 51.9902 39.2124C51.146 39.2124 50.3268 39.0476 49.5322 38.7192C48.7542 38.3909 47.9842 37.864 47.2227 37.1382L43.8379 33.9595L27.4053 51.1636L24.4248 48.0269L40.7109 31.0239L24.0029 15.3345L26.9834 12.1978L49.7559 33.6382C50.4676 34.312 51.2123 34.6489 51.9902 34.6489C52.7684 34.6489 53.5137 34.3122 54.2256 33.6382L76.998 12.1978L79.9785 15.3345Z" fill="#F6F8F9" fill-opacity="0.8"/>
<path d="M79.9785 15.3345L63.2822 31.0122L79.6055 48.0522L76.625 51.1899L60.1436 33.9585L56.7588 37.1382C55.9972 37.8641 55.2185 38.3908 54.4238 38.7192C53.6458 39.0476 52.8345 39.2124 51.9902 39.2124C51.146 39.2124 50.3268 39.0476 49.5322 38.7192C48.7542 38.3909 47.9842 37.864 47.2227 37.1382L43.8379 33.9595L27.4053 51.1636L24.4248 48.0269L40.7109 31.0239L24.0029 15.3345L26.9834 12.1978L49.7559 33.6382C50.4676 34.312 51.2123 34.6489 51.9902 34.6489C52.7684 34.6489 53.5137 34.3122 54.2256 33.6382L76.998 12.1978L79.9785 15.3345Z" fill="url(#paint1_linear_12121_1715)" fill-opacity="0.2"/>
<path d="M79.9785 15.3345L80.9671 16.3872L82.0261 15.3928L81.0254 14.3397L79.9785 15.3345ZM63.2822 31.0122L62.2937 29.9594L61.2304 30.9579L62.2394 32.0112L63.2822 31.0122ZM79.6055 48.0522L80.6525 49.0468L81.6013 48.048L80.6483 47.0532L79.6055 48.0522ZM76.625 51.1899L75.5814 52.1881L76.6286 53.283L77.6721 52.1845L76.625 51.1899ZM60.1436 33.9585L61.1872 32.9603L60.1979 31.926L59.1548 32.9059L60.1436 33.9585ZM56.7588 37.1382L55.77 36.0856L55.7624 36.0928L56.7588 37.1382ZM54.4238 38.7192L53.8723 37.3845L53.8624 37.3887L54.4238 38.7192ZM51.9902 39.2124L51.9902 40.6565H51.9902V39.2124ZM49.5322 38.7192L48.9707 40.0498L48.9807 40.0539L49.5322 38.7192ZM47.2227 37.1382L48.2191 36.0928L48.2113 36.0855L47.2227 37.1382ZM43.8379 33.9595L44.8265 32.9068L43.7827 31.9265L42.7936 32.962L43.8379 33.9595ZM27.4053 51.1636L26.3584 52.1583L27.4025 53.2573L28.4496 52.1611L27.4053 51.1636ZM24.4248 48.0269L23.3819 47.0279L22.4289 48.0229L23.3779 49.0216L24.4248 48.0269ZM40.7109 31.0239L41.7538 32.0229L42.7627 30.9696L41.6995 29.9712L40.7109 31.0239ZM24.0029 15.3345L22.956 14.3397L21.9554 15.3928L23.0144 16.3872L24.0029 15.3345ZM26.9834 12.1978L27.9733 11.1463L26.9267 10.1609L25.9365 11.203L26.9834 12.1978ZM49.7559 33.6382L50.7487 32.5895L50.7458 32.5867L49.7559 33.6382ZM51.9902 34.6489L51.9901 36.0931H51.9902V34.6489ZM54.2256 33.6382L53.2356 32.5867L53.2327 32.5895L54.2256 33.6382ZM76.998 12.1978L78.045 11.203L77.0547 10.1609L76.0081 11.1463L76.998 12.1978ZM79.9785 15.3345L78.99 14.2817L62.2937 29.9594L63.2822 31.0122L64.2708 32.065L80.9671 16.3872L79.9785 15.3345ZM63.2822 31.0122L62.2394 32.0112L78.5626 49.0512L79.6055 48.0522L80.6483 47.0532L64.3251 30.0132L63.2822 31.0122ZM79.6055 48.0522L78.5584 47.0577L75.5779 50.1953L76.625 51.1899L77.6721 52.1845L80.6525 49.0468L79.6055 48.0522ZM76.625 51.1899L77.6686 50.1917L61.1872 32.9603L60.1436 33.9585L59.0999 34.9567L75.5814 52.1881L76.625 51.1899ZM60.1436 33.9585L59.1548 32.9059L55.77 36.0856L56.7588 37.1382L57.7476 38.1907L61.1323 35.011L60.1436 33.9585ZM56.7588 37.1382L55.7624 36.0928C55.1025 36.7218 54.4703 37.1374 53.8723 37.3846L54.4238 38.7192L54.9754 40.0539C55.9667 39.6443 56.8919 39.0064 57.7552 38.1835L56.7588 37.1382ZM54.4238 38.7192L53.8624 37.3887C53.2612 37.6424 52.6408 37.7683 51.9902 37.7683V39.2124V40.6565C53.0282 40.6565 54.0303 40.4528 54.9853 40.0498L54.4238 38.7192ZM51.9902 39.2124L51.9903 37.7683C51.3396 37.7682 50.7074 37.6423 50.0837 37.3846L49.5322 38.7192L48.9807 40.0539C49.9461 40.4529 50.9525 40.6565 51.9902 40.6565L51.9902 39.2124ZM49.5322 38.7192L50.0937 37.3887C49.5106 37.1426 48.8837 36.7263 48.219 36.0928L47.2227 37.1382L46.2263 38.1835C47.0846 39.0017 47.9978 39.6391 48.9707 40.0497L49.5322 38.7192ZM47.2227 37.1382L48.2113 36.0855L44.8265 32.9068L43.8379 33.9595L42.8493 35.0122L46.234 38.1909L47.2227 37.1382ZM43.8379 33.9595L42.7936 32.962L26.361 50.1661L27.4053 51.1636L28.4496 52.1611L44.8822 34.957L43.8379 33.9595ZM27.4053 51.1636L28.4522 50.1688L25.4717 47.0321L24.4248 48.0269L23.3779 49.0216L26.3584 52.1583L27.4053 51.1636ZM24.4248 48.0269L25.4677 49.0258L41.7538 32.0229L40.7109 31.0239L39.668 30.025L23.3819 47.0279L24.4248 48.0269ZM40.7109 31.0239L41.6995 29.9712L24.9915 14.2817L24.0029 15.3345L23.0144 16.3872L39.7224 32.0767L40.7109 31.0239ZM24.0029 15.3345L25.0498 16.3292L28.0303 13.1925L26.9834 12.1978L25.9365 11.203L22.956 14.3397L24.0029 15.3345ZM26.9834 12.1978L25.9934 13.2492L48.7659 34.6896L49.7559 33.6382L50.7458 32.5867L27.9733 11.1463L26.9834 12.1978ZM49.7559 33.6382L48.763 34.6869C49.6702 35.5457 50.7535 36.093 51.9901 36.0931L51.9902 34.6489L51.9904 33.2048C51.671 33.2048 51.2651 33.0783 50.7487 32.5895L49.7559 33.6382ZM51.9902 34.6489V36.0931C53.2266 36.0931 54.3108 35.5463 55.2185 34.6868L54.2256 33.6382L53.2327 32.5895C52.7166 33.0782 52.3101 33.2048 51.9902 33.2048V34.6489ZM54.2256 33.6382L55.2155 34.6896L77.988 13.2492L76.998 12.1978L76.0081 11.1463L53.2356 32.5867L54.2256 33.6382ZM76.998 12.1978L75.9511 13.1925L78.9316 16.3292L79.9785 15.3345L81.0254 14.3397L78.045 11.203L76.998 12.1978Z" fill="white" mask="url(#path-3-inside-1_12121_1715)"/>
<path d="M79.9785 15.3345L80.9671 16.3872L82.0261 15.3928L81.0254 14.3397L79.9785 15.3345ZM63.2822 31.0122L62.2937 29.9594L61.2304 30.9579L62.2394 32.0112L63.2822 31.0122ZM79.6055 48.0522L80.6525 49.0468L81.6013 48.048L80.6483 47.0532L79.6055 48.0522ZM76.625 51.1899L75.5814 52.1881L76.6286 53.283L77.6721 52.1845L76.625 51.1899ZM60.1436 33.9585L61.1872 32.9603L60.1979 31.926L59.1548 32.9059L60.1436 33.9585ZM56.7588 37.1382L55.77 36.0856L55.7624 36.0928L56.7588 37.1382ZM54.4238 38.7192L53.8723 37.3845L53.8624 37.3887L54.4238 38.7192ZM51.9902 39.2124L51.9902 40.6565H51.9902V39.2124ZM49.5322 38.7192L48.9707 40.0498L48.9807 40.0539L49.5322 38.7192ZM47.2227 37.1382L48.2191 36.0928L48.2113 36.0855L47.2227 37.1382ZM43.8379 33.9595L44.8265 32.9068L43.7827 31.9265L42.7936 32.962L43.8379 33.9595ZM27.4053 51.1636L26.3584 52.1583L27.4025 53.2573L28.4496 52.1611L27.4053 51.1636ZM24.4248 48.0269L23.3819 47.0279L22.4289 48.0229L23.3779 49.0216L24.4248 48.0269ZM40.7109 31.0239L41.7538 32.0229L42.7627 30.9696L41.6995 29.9712L40.7109 31.0239ZM24.0029 15.3345L22.956 14.3397L21.9554 15.3928L23.0144 16.3872L24.0029 15.3345ZM26.9834 12.1978L27.9733 11.1463L26.9267 10.1609L25.9365 11.203L26.9834 12.1978ZM49.7559 33.6382L50.7487 32.5895L50.7458 32.5867L49.7559 33.6382ZM51.9902 34.6489L51.9901 36.0931H51.9902V34.6489ZM54.2256 33.6382L53.2356 32.5867L53.2327 32.5895L54.2256 33.6382ZM76.998 12.1978L78.045 11.203L77.0547 10.1609L76.0081 11.1463L76.998 12.1978ZM79.9785 15.3345L78.99 14.2817L62.2937 29.9594L63.2822 31.0122L64.2708 32.065L80.9671 16.3872L79.9785 15.3345ZM63.2822 31.0122L62.2394 32.0112L78.5626 49.0512L79.6055 48.0522L80.6483 47.0532L64.3251 30.0132L63.2822 31.0122ZM79.6055 48.0522L78.5584 47.0577L75.5779 50.1953L76.625 51.1899L77.6721 52.1845L80.6525 49.0468L79.6055 48.0522ZM76.625 51.1899L77.6686 50.1917L61.1872 32.9603L60.1436 33.9585L59.0999 34.9567L75.5814 52.1881L76.625 51.1899ZM60.1436 33.9585L59.1548 32.9059L55.77 36.0856L56.7588 37.1382L57.7476 38.1907L61.1323 35.011L60.1436 33.9585ZM56.7588 37.1382L55.7624 36.0928C55.1025 36.7218 54.4703 37.1374 53.8723 37.3846L54.4238 38.7192L54.9754 40.0539C55.9667 39.6443 56.8919 39.0064 57.7552 38.1835L56.7588 37.1382ZM54.4238 38.7192L53.8624 37.3887C53.2612 37.6424 52.6408 37.7683 51.9902 37.7683V39.2124V40.6565C53.0282 40.6565 54.0303 40.4528 54.9853 40.0498L54.4238 38.7192ZM51.9902 39.2124L51.9903 37.7683C51.3396 37.7682 50.7074 37.6423 50.0837 37.3846L49.5322 38.7192L48.9807 40.0539C49.9461 40.4529 50.9525 40.6565 51.9902 40.6565L51.9902 39.2124ZM49.5322 38.7192L50.0937 37.3887C49.5106 37.1426 48.8837 36.7263 48.219 36.0928L47.2227 37.1382L46.2263 38.1835C47.0846 39.0017 47.9978 39.6391 48.9707 40.0497L49.5322 38.7192ZM47.2227 37.1382L48.2113 36.0855L44.8265 32.9068L43.8379 33.9595L42.8493 35.0122L46.234 38.1909L47.2227 37.1382ZM43.8379 33.9595L42.7936 32.962L26.361 50.1661L27.4053 51.1636L28.4496 52.1611L44.8822 34.957L43.8379 33.9595ZM27.4053 51.1636L28.4522 50.1688L25.4717 47.0321L24.4248 48.0269L23.3779 49.0216L26.3584 52.1583L27.4053 51.1636ZM24.4248 48.0269L25.4677 49.0258L41.7538 32.0229L40.7109 31.0239L39.668 30.025L23.3819 47.0279L24.4248 48.0269ZM40.7109 31.0239L41.6995 29.9712L24.9915 14.2817L24.0029 15.3345L23.0144 16.3872L39.7224 32.0767L40.7109 31.0239ZM24.0029 15.3345L25.0498 16.3292L28.0303 13.1925L26.9834 12.1978L25.9365 11.203L22.956 14.3397L24.0029 15.3345ZM26.9834 12.1978L25.9934 13.2492L48.7659 34.6896L49.7559 33.6382L50.7458 32.5867L27.9733 11.1463L26.9834 12.1978ZM49.7559 33.6382L48.763 34.6869C49.6702 35.5457 50.7535 36.093 51.9901 36.0931L51.9902 34.6489L51.9904 33.2048C51.671 33.2048 51.2651 33.0783 50.7487 32.5895L49.7559 33.6382ZM51.9902 34.6489V36.0931C53.2266 36.0931 54.3108 35.5463 55.2185 34.6868L54.2256 33.6382L53.2327 32.5895C52.7166 33.0782 52.3101 33.2048 51.9902 33.2048V34.6489ZM54.2256 33.6382L55.2155 34.6896L77.988 13.2492L76.998 12.1978L76.0081 11.1463L53.2356 32.5867L54.2256 33.6382ZM76.998 12.1978L75.9511 13.1925L78.9316 16.3292L79.9785 15.3345L81.0254 14.3397L78.045 11.203L76.998 12.1978Z" fill="url(#paint2_linear_12121_1715)" fill-opacity="0.2" mask="url(#path-3-inside-1_12121_1715)"/>
</g>
<rect x="24.667" y="12.8618" width="54.647" height="37.6639" rx="6.50319" stroke="#6D778C" stroke-width="1.32804"/>
<rect x="24.667" y="12.8618" width="54.647" height="37.6639" rx="6.50319" stroke="#F6F8F9" stroke-opacity="0.8" stroke-width="1.32804"/>
<rect x="24.667" y="12.8618" width="54.647" height="37.6639" rx="6.50319" stroke="url(#paint3_linear_12121_1715)" stroke-opacity="0.2" stroke-width="1.32804"/>
</g>
<g filter="url(#filter1_d_12121_1715)">
<path d="M74.6406 32.501C75.5586 32.4934 76.4246 32.9638 77.2324 33.7705L79.0186 35.5098L79.0195 35.5107C79.0695 35.5598 79.1259 35.5869 79.2217 35.5869H81.7363C82.8925 35.587 83.849 35.8591 84.4971 36.5039C85.1432 37.1469 85.4199 38.0822 85.4199 39.208V41.6846C85.4199 41.7322 85.4295 41.7697 85.459 41.8086L85.4951 41.8486L85.501 41.8535L85.5059 41.8584L87.2803 43.6094V43.6104C88.0894 44.4118 88.5684 45.2689 88.5684 46.1768C88.5683 47.0848 88.0887 47.9375 87.2793 48.7314L85.5059 50.4834L85.501 50.4883L85.4951 50.4932C85.4408 50.5439 85.4199 50.5922 85.4199 50.6689V53.1338C85.4198 54.2735 85.1402 55.2173 84.4805 55.8545L84.4795 55.8535C83.8319 56.4866 82.8827 56.7548 81.7363 56.7549H79.2217C79.1259 56.7549 79.0695 56.782 79.0195 56.8311L79.0186 56.8301L77.2344 58.5811C76.4241 59.3755 75.5586 59.8393 74.6445 59.8408H74.6416L74.6406 59.8418V59.8408C73.7228 59.8488 72.8556 59.3826 72.0459 58.5811L70.2607 56.8301C70.2108 56.7811 70.1544 56.7549 70.0586 56.7549H67.5322C66.3896 56.7548 65.4417 56.4812 64.7881 55.8418C64.1294 55.2052 63.8487 54.2667 63.8486 53.1338V50.6689C63.8486 50.575 63.8225 50.5213 63.7773 50.4746H63.7764L62.0029 48.7344C61.1854 47.9409 60.7003 47.0869 60.7002 46.1768C60.7002 45.267 61.1851 44.4092 62.002 43.6084L63.7773 41.8652C63.8256 41.8151 63.8486 41.765 63.8486 41.6846V39.208C63.8487 38.0701 64.1241 37.1278 64.7744 36.4902L64.7764 36.4873C65.4308 35.8553 66.3836 35.587 67.5322 35.5869H70.0586C70.1544 35.5869 70.2107 35.5598 70.2607 35.5107L70.2617 35.5098L72.0439 33.7734C72.8534 32.9717 73.7192 32.5028 74.6348 32.501H74.6377L74.6406 32.5V32.501Z" fill="#6D778C"/>
<path d="M74.6406 32.501C75.5586 32.4934 76.4246 32.9638 77.2324 33.7705L79.0186 35.5098L79.0195 35.5107C79.0695 35.5598 79.1259 35.5869 79.2217 35.5869H81.7363C82.8925 35.587 83.849 35.8591 84.4971 36.5039C85.1432 37.1469 85.4199 38.0822 85.4199 39.208V41.6846C85.4199 41.7322 85.4295 41.7697 85.459 41.8086L85.4951 41.8486L85.501 41.8535L85.5059 41.8584L87.2803 43.6094V43.6104C88.0894 44.4118 88.5684 45.2689 88.5684 46.1768C88.5683 47.0848 88.0887 47.9375 87.2793 48.7314L85.5059 50.4834L85.501 50.4883L85.4951 50.4932C85.4408 50.5439 85.4199 50.5922 85.4199 50.6689V53.1338C85.4198 54.2735 85.1402 55.2173 84.4805 55.8545L84.4795 55.8535C83.8319 56.4866 82.8827 56.7548 81.7363 56.7549H79.2217C79.1259 56.7549 79.0695 56.782 79.0195 56.8311L79.0186 56.8301L77.2344 58.5811C76.4241 59.3755 75.5586 59.8393 74.6445 59.8408H74.6416L74.6406 59.8418V59.8408C73.7228 59.8488 72.8556 59.3826 72.0459 58.5811L70.2607 56.8301C70.2108 56.7811 70.1544 56.7549 70.0586 56.7549H67.5322C66.3896 56.7548 65.4417 56.4812 64.7881 55.8418C64.1294 55.2052 63.8487 54.2667 63.8486 53.1338V50.6689C63.8486 50.575 63.8225 50.5213 63.7773 50.4746H63.7764L62.0029 48.7344C61.1854 47.9409 60.7003 47.0869 60.7002 46.1768C60.7002 45.267 61.1851 44.4092 62.002 43.6084L63.7773 41.8652C63.8256 41.8151 63.8486 41.765 63.8486 41.6846V39.208C63.8487 38.0701 64.1241 37.1278 64.7744 36.4902L64.7764 36.4873C65.4308 35.8553 66.3836 35.587 67.5322 35.5869H70.0586C70.1544 35.5869 70.2107 35.5598 70.2607 35.5107L70.2617 35.5098L72.0439 33.7734C72.8534 32.9717 73.7192 32.5028 74.6348 32.501H74.6377L74.6406 32.5V32.501Z" fill="#367664"/>
<path d="M74.6406 32.501C75.5586 32.4934 76.4246 32.9638 77.2324 33.7705L79.0186 35.5098L79.0195 35.5107C79.0695 35.5598 79.1259 35.5869 79.2217 35.5869H81.7363C82.8925 35.587 83.849 35.8591 84.4971 36.5039C85.1432 37.1469 85.4199 38.0822 85.4199 39.208V41.6846C85.4199 41.7322 85.4295 41.7697 85.459 41.8086L85.4951 41.8486L85.501 41.8535L85.5059 41.8584L87.2803 43.6094V43.6104C88.0894 44.4118 88.5684 45.2689 88.5684 46.1768C88.5683 47.0848 88.0887 47.9375 87.2793 48.7314L85.5059 50.4834L85.501 50.4883L85.4951 50.4932C85.4408 50.5439 85.4199 50.5922 85.4199 50.6689V53.1338C85.4198 54.2735 85.1402 55.2173 84.4805 55.8545L84.4795 55.8535C83.8319 56.4866 82.8827 56.7548 81.7363 56.7549H79.2217C79.1259 56.7549 79.0695 56.782 79.0195 56.8311L79.0186 56.8301L77.2344 58.5811C76.4241 59.3755 75.5586 59.8393 74.6445 59.8408H74.6416L74.6406 59.8418V59.8408C73.7228 59.8488 72.8556 59.3826 72.0459 58.5811L70.2607 56.8301C70.2108 56.7811 70.1544 56.7549 70.0586 56.7549H67.5322C66.3896 56.7548 65.4417 56.4812 64.7881 55.8418C64.1294 55.2052 63.8487 54.2667 63.8486 53.1338V50.6689C63.8486 50.575 63.8225 50.5213 63.7773 50.4746H63.7764L62.0029 48.7344C61.1854 47.9409 60.7003 47.0869 60.7002 46.1768C60.7002 45.267 61.1851 44.4092 62.002 43.6084L63.7773 41.8652C63.8256 41.8151 63.8486 41.765 63.8486 41.6846V39.208C63.8487 38.0701 64.1241 37.1278 64.7744 36.4902L64.7764 36.4873C65.4308 35.8553 66.3836 35.587 67.5322 35.5869H70.0586C70.1544 35.5869 70.2107 35.5598 70.2607 35.5107L70.2617 35.5098L72.0439 33.7734C72.8534 32.9717 73.7192 32.5028 74.6348 32.501H74.6377L74.6406 32.5V32.501Z" stroke="#367664"/>
<path d="M74.6406 32.501C75.5586 32.4934 76.4246 32.9638 77.2324 33.7705L79.0186 35.5098L79.0195 35.5107C79.0695 35.5598 79.1259 35.5869 79.2217 35.5869H81.7363C82.8925 35.587 83.849 35.8591 84.4971 36.5039C85.1432 37.1469 85.4199 38.0822 85.4199 39.208V41.6846C85.4199 41.7322 85.4295 41.7697 85.459 41.8086L85.4951 41.8486L85.501 41.8535L85.5059 41.8584L87.2803 43.6094V43.6104C88.0894 44.4118 88.5684 45.2689 88.5684 46.1768C88.5683 47.0848 88.0887 47.9375 87.2793 48.7314L85.5059 50.4834L85.501 50.4883L85.4951 50.4932C85.4408 50.5439 85.4199 50.5922 85.4199 50.6689V53.1338C85.4198 54.2735 85.1402 55.2173 84.4805 55.8545L84.4795 55.8535C83.8319 56.4866 82.8827 56.7548 81.7363 56.7549H79.2217C79.1259 56.7549 79.0695 56.782 79.0195 56.8311L79.0186 56.8301L77.2344 58.5811C76.4241 59.3755 75.5586 59.8393 74.6445 59.8408H74.6416L74.6406 59.8418V59.8408C73.7228 59.8488 72.8556 59.3826 72.0459 58.5811L70.2607 56.8301C70.2108 56.7811 70.1544 56.7549 70.0586 56.7549H67.5322C66.3896 56.7548 65.4417 56.4812 64.7881 55.8418C64.1294 55.2052 63.8487 54.2667 63.8486 53.1338V50.6689C63.8486 50.575 63.8225 50.5213 63.7773 50.4746H63.7764L62.0029 48.7344C61.1854 47.9409 60.7003 47.0869 60.7002 46.1768C60.7002 45.267 61.1851 44.4092 62.002 43.6084L63.7773 41.8652C63.8256 41.8151 63.8486 41.765 63.8486 41.6846V39.208C63.8487 38.0701 64.1241 37.1278 64.7744 36.4902L64.7764 36.4873C65.4308 35.8553 66.3836 35.587 67.5322 35.5869H70.0586C70.1544 35.5869 70.2107 35.5598 70.2607 35.5107L70.2617 35.5098L72.0439 33.7734C72.8534 32.9717 73.7192 32.5028 74.6348 32.501H74.6377L74.6406 32.5V32.501Z" stroke="#F6F8F9" stroke-opacity="0.25"/>
<g filter="url(#filter2_d_12121_1715)">
<path d="M73.9347 51.6936C73.7546 51.7934 73.5549 51.8434 73.3356 51.8434C73.1084 51.8434 72.9048 51.7973 72.7247 51.7051C72.5445 51.613 72.3683 51.4633 72.196 51.2559L69.3177 47.8236C69.2159 47.6931 69.1376 47.5587 69.0827 47.4205C69.0279 47.2823 69.0005 47.1402 69.0005 46.9943C69.0005 46.7025 69.1023 46.453 69.3059 46.2457C69.5174 46.0307 69.772 45.9232 70.0696 45.9232C70.2575 45.9232 70.4259 45.9616 70.5747 46.0383C70.7236 46.1151 70.8763 46.2495 71.0329 46.4415L73.2886 49.2518L78.1524 41.627C78.403 41.2277 78.7202 41.0281 79.104 41.0281C79.3938 41.0281 79.6522 41.1202 79.8793 41.3045C80.1143 41.4888 80.2318 41.7307 80.2318 42.0301C80.2318 42.1607 80.2005 42.2989 80.1378 42.4448C80.0751 42.583 80.0047 42.7135 79.9263 42.8364L74.4282 51.2444C74.2872 51.4441 74.1227 51.5938 73.9347 51.6936Z" fill="#367664"/>
<path d="M73.9347 51.6936C73.7546 51.7934 73.5549 51.8434 73.3356 51.8434C73.1084 51.8434 72.9048 51.7973 72.7247 51.7051C72.5445 51.613 72.3683 51.4633 72.196 51.2559L69.3177 47.8236C69.2159 47.6931 69.1376 47.5587 69.0827 47.4205C69.0279 47.2823 69.0005 47.1402 69.0005 46.9943C69.0005 46.7025 69.1023 46.453 69.3059 46.2457C69.5174 46.0307 69.772 45.9232 70.0696 45.9232C70.2575 45.9232 70.4259 45.9616 70.5747 46.0383C70.7236 46.1151 70.8763 46.2495 71.0329 46.4415L73.2886 49.2518L78.1524 41.627C78.403 41.2277 78.7202 41.0281 79.104 41.0281C79.3938 41.0281 79.6522 41.1202 79.8793 41.3045C80.1143 41.4888 80.2318 41.7307 80.2318 42.0301C80.2318 42.1607 80.2005 42.2989 80.1378 42.4448C80.0751 42.583 80.0047 42.7135 79.9263 42.8364L74.4282 51.2444C74.2872 51.4441 74.1227 51.5938 73.9347 51.6936Z" fill="#F6F8F9" fill-opacity="0.9"/>
</g>
</g>
</g>
<defs>
<filter id="filter0_d_12121_1715" x="10.771" y="-5.79441" width="81.4721" height="80.172" filterUnits="userSpaceOnUse" color-interpolation-filters="sRGB">
<feFlood flood-opacity="0" result="BackgroundImageFix"/>
<feColorMatrix in="SourceAlpha" type="matrix" values="0 0 0 0 0 0 0 0 0 0 0 0 0 0 0 0 0 0 127 0" result="hardAlpha"/>
<feOffset dy="3.79441"/>
<feGaussianBlur stdDeviation="3.79441"/>
<feComposite in2="hardAlpha" operator="out"/>
<feColorMatrix type="matrix" values="0 0 0 0 0.0941176 0 0 0 0 0.105882 0 0 0 0 0.141176 0 0 0 0.05 0"/>
<feBlend mode="normal" in2="BackgroundImageFix" result="effect1_dropShadow_12121_1715"/>
<feBlend mode="normal" in="SourceGraphic" in2="effect1_dropShadow_12121_1715" result="shape"/>
</filter>
<filter id="filter1_d_12121_1715" x="53.896" y="28.8479" width="41.4766" height="40.95" filterUnits="userSpaceOnUse" color-interpolation-filters="sRGB">
<feFlood flood-opacity="0" result="BackgroundImageFix"/>
<feColorMatrix in="SourceAlpha" type="matrix" values="0 0 0 0 0 0 0 0 0 0 0 0 0 0 0 0 0 0 127 0" result="hardAlpha"/>
<feOffset dy="3.15211"/>
<feGaussianBlur stdDeviation="3.15211"/>
<feComposite in2="hardAlpha" operator="out"/>
<feColorMatrix type="matrix" values="0 0 0 0 0.247059 0 0 0 0 0.486275 0 0 0 0 0.419608 0 0 0 0.17 0"/>
<feBlend mode="normal" in2="BackgroundImageFix" result="effect1_dropShadow_12121_1715"/>
<feBlend mode="normal" in="SourceGraphic" in2="effect1_dropShadow_12121_1715" result="shape"/>
</filter>
<filter id="filter2_d_12121_1715" x="60.4824" y="32.5099" width="28.2677" height="27.8514" filterUnits="userSpaceOnUse" color-interpolation-filters="sRGB">
<feFlood flood-opacity="0" result="BackgroundImageFix"/>
<feColorMatrix in="SourceAlpha" type="matrix" values="0 0 0 0 0 0 0 0 0 0 0 0 0 0 0 0 0 0 127 0" result="hardAlpha"/>
<feOffset/>
<feGaussianBlur stdDeviation="4.25907"/>
<feComposite in2="hardAlpha" operator="out"/>
<feColorMatrix type="matrix" values="0 0 0 0 1 0 0 0 0 1 0 0 0 0 1 0 0 0 0.3 0"/>
<feBlend mode="normal" in2="BackgroundImageFix" result="effect1_dropShadow_12121_1715"/>
<feBlend mode="normal" in="SourceGraphic" in2="effect1_dropShadow_12121_1715" result="shape"/>
</filter>
<linearGradient id="paint0_linear_12121_1715" x1="51.9905" y1="12.1978" x2="51.9905" y2="51.1897" gradientUnits="userSpaceOnUse">
<stop stop-color="#181B24" stop-opacity="0"/>
<stop offset="1" stop-color="#181B24" stop-opacity="0.2"/>
</linearGradient>
<linearGradient id="paint1_linear_12121_1715" x1="51.9907" y1="12.1978" x2="51.9907" y2="51.1899" gradientUnits="userSpaceOnUse">
<stop stop-color="#181B24" stop-opacity="0"/>
<stop offset="1" stop-color="#181B24" stop-opacity="0.2"/>
</linearGradient>
<linearGradient id="paint2_linear_12121_1715" x1="51.9907" y1="12.1978" x2="51.9907" y2="51.1899" gradientUnits="userSpaceOnUse">
<stop stop-color="#181B24" stop-opacity="0"/>
<stop offset="1" stop-color="#181B24" stop-opacity="0.2"/>
</linearGradient>
<linearGradient id="paint3_linear_12121_1715" x1="51.9905" y1="12.1978" x2="51.9905" y2="51.1897" gradientUnits="userSpaceOnUse">
<stop stop-color="#181B24" stop-opacity="0"/>
<stop offset="1" stop-color="#181B24" stop-opacity="0.2"/>
</linearGradient>
<clipPath id="clip0_12121_1715">
<rect width="102" height="72" fill="white"/>
</clipPath>
<clipPath id="clip1_12121_1715">
<rect x="24.0029" y="12.1978" width="55.9751" height="38.9919" rx="7.16721" fill="white"/>
</clipPath>
</defs>
</svg>
