<svg width="16" height="16" viewBox="0 0 16 16" fill="none" xmlns="http://www.w3.org/2000/svg">
<path d="M8.00016 1.33337C9.3187 1.33337 10.6076 1.72453 11.7039 2.45707C12.8002 3.1896 13.6551 4.23049 14.1597 5.44861C14.6643 6.66678 14.7958 8.00762 14.5386 9.30082C14.2813 10.594 13.6467 11.7819 12.7144 12.7142C11.7821 13.6465 10.5941 14.2812 9.30094 14.5385C8.00774 14.7957 6.6669 14.6641 5.44873 14.1595C4.23061 13.655 3.18972 12.8001 2.45719 11.7038C1.72465 10.6075 1.3335 9.31858 1.3335 8.00004C1.3335 7.63185 1.63197 7.33337 2.00016 7.33337C2.36835 7.33337 2.66683 7.63185 2.66683 8.00004C2.66683 9.05487 2.97988 10.0859 3.56592 10.9629C4.15193 11.8399 4.98467 12.5235 5.95915 12.9271C6.93364 13.3308 8.00601 13.4369 9.04053 13.2312C10.0751 13.0254 11.0258 12.5174 11.7716 11.7715C12.5175 11.0256 13.0255 10.075 13.2313 9.04041C13.437 8.00589 13.3309 6.93351 12.9272 5.95903C12.5236 4.98455 11.8401 4.1518 10.9631 3.5658C10.0864 2.98 9.05585 2.66696 8.00146 2.66671C6.49657 2.67268 5.05221 3.26004 3.97021 4.30603L3.60954 4.66671H5.3335C5.70169 4.66671 6.00016 4.96518 6.00016 5.33337C6.00016 5.70156 5.70169 6.00004 5.3335 6.00004H2.00016C1.96239 6.00004 1.92555 5.99566 1.88949 5.98962C1.88255 5.98846 1.87555 5.98775 1.86865 5.98637C1.86098 5.98483 1.85344 5.98296 1.84587 5.98116C1.83215 5.97791 1.81837 5.97488 1.80485 5.97074C1.77242 5.96082 1.74122 5.94817 1.7111 5.93363C1.69654 5.92662 1.68226 5.91898 1.66813 5.91085C1.56094 5.84908 1.47249 5.75878 1.41357 5.64978C1.40862 5.64061 1.40439 5.63113 1.3999 5.62179C1.38536 5.59158 1.37205 5.56056 1.36214 5.52804C1.35202 5.49476 1.34546 5.46068 1.34066 5.42647C1.3364 5.39602 1.3335 5.365 1.3335 5.33337V2.00004C1.3335 1.63185 1.63197 1.33337 2.00016 1.33337C2.36835 1.33337 2.66683 1.63185 2.66683 2.00004V3.724L3.03532 3.35551L3.29769 3.11332C4.59511 1.97473 6.26366 1.33992 7.99756 1.33337H8.00016Z" fill="#626A80"/>
</svg>
