<svg width="24" height="24" viewBox="0 0 24 24" fill="none" xmlns="http://www.w3.org/2000/svg">
<path fill-rule="evenodd" clip-rule="evenodd" d="M12 2C17.5228 2 22 6.47715 22 12C22 17.5228 17.5228 22 12 22C6.47715 22 2 17.5228 2 12C2 6.47715 6.47715 2 12 2ZM11.751 7.14453C11.7159 7.14453 11.6808 7.15341 11.6504 7.1709L8.87988 8.7666C8.77836 8.82519 8.74931 8.95855 8.81641 9.05469L9.5166 10.0576C9.57558 10.1417 9.68874 10.1675 9.77832 10.1172L11.3301 9.24512C11.4633 9.17057 11.6279 9.26713 11.6279 9.41992V16.6553C11.6279 16.7657 11.7177 16.8555 11.8281 16.8555H13.2988C13.4093 16.8555 13.499 16.7657 13.499 16.6553V7.34473C13.499 7.23427 13.4093 7.14453 13.2988 7.14453H11.751Z" fill="#222631"/>
</svg>
