<svg width="24" height="24" viewBox="0 0 24 24" fill="none" xmlns="http://www.w3.org/2000/svg">
<path d="M14.7373 8.7207C15.1389 8.72072 15.465 8.85912 15.7148 9.13574C15.9735 9.4034 16.1651 9.78292 16.29 10.2734C16.4238 10.764 16.4912 11.34 16.4912 12C16.4912 12.4995 16.4552 12.9511 16.3838 13.3525C16.3124 13.7447 16.2013 14.0886 16.0498 14.3828C15.9071 14.6682 15.7239 14.8922 15.501 15.0527C15.2869 15.2043 15.0317 15.2803 14.7373 15.2803C14.3449 15.2802 14.0147 15.1454 13.7471 14.8779C13.4885 14.6015 13.292 14.2178 13.1582 13.7275C13.0333 13.2368 12.9707 12.6602 12.9707 12C12.9707 11.5007 13.0068 11.0545 13.0781 10.6621C13.1495 10.2607 13.2567 9.91636 13.3994 9.63086C13.551 9.33673 13.7381 9.11355 13.9609 8.96191C14.184 8.80134 14.4429 8.72076 14.7373 8.7207Z" fill="#222631"/>
<path fill-rule="evenodd" clip-rule="evenodd" d="M12 2C17.5228 2 22 6.47715 22 12C22 17.5228 17.5228 22 12 22C6.47715 22 2 17.5228 2 12C2 6.47715 6.47715 2 12 2ZM14.7373 7.04785C14.1217 7.04789 13.5859 7.17302 13.1309 7.42285C12.685 7.67265 12.3101 8.02473 12.0068 8.47949C11.7124 8.92563 11.4896 9.45288 11.3379 10.0596C11.1952 10.6572 11.1231 11.3043 11.123 12C11.1231 12.9278 11.253 13.7672 11.5117 14.5166C11.7794 15.266 12.1768 15.8597 12.7031 16.2969C13.2385 16.7339 13.9166 16.9531 14.7373 16.9531C15.353 16.9531 15.8887 16.8279 16.3438 16.5781C16.7988 16.3283 17.1743 15.9802 17.4688 15.5342C17.763 15.0793 17.9813 14.5525 18.124 13.9551C18.2757 13.3484 18.3515 12.6959 18.3516 12C18.3515 11.0633 18.2225 10.2239 17.9639 9.4834C17.7051 8.73407 17.3077 8.14031 16.7725 7.70312C16.237 7.2659 15.5582 7.04786 14.7373 7.04785ZM8.05957 7.30176C8.02452 7.30176 7.98935 7.31063 7.95898 7.32812L5.29004 8.86621C5.18837 8.92479 5.15837 9.05812 5.22559 9.1543L5.89453 10.1104C5.95344 10.1946 6.06657 10.2212 6.15625 10.1709L7.64062 9.33789C7.77387 9.26312 7.93829 9.35899 7.93848 9.51172V16.4854C7.93863 16.5957 8.02831 16.6855 8.13867 16.6855H9.5459C9.65626 16.6855 9.74594 16.5957 9.74609 16.4854V7.50098C9.74594 7.39065 9.65626 7.30176 9.5459 7.30176H8.05957Z" fill="#222631"/>
</svg>
