<svg width="24" height="24" viewBox="0 0 24 24" fill="none" xmlns="http://www.w3.org/2000/svg">
<path fill-rule="evenodd" clip-rule="evenodd" d="M12 2C17.5228 2 22 6.47715 22 12C22 17.5228 17.5228 22 12 22C6.47715 22 2 17.5228 2 12C2 6.47715 6.47715 2 12 2ZM9.14453 7.30859C9.10959 7.30859 9.07522 7.31757 9.04492 7.33496L6.375 8.87305C6.27335 8.93161 6.24338 9.06495 6.31055 9.16113L6.97949 10.1182C7.03838 10.2025 7.15152 10.229 7.24121 10.1787L8.72559 9.34473C8.85879 9.26992 9.02315 9.36588 9.02344 9.51855V16.4922C9.0236 16.6025 9.11327 16.6924 9.22363 16.6924H10.6309C10.7412 16.6924 10.8309 16.6025 10.8311 16.4922V7.50781C10.8309 7.39749 10.7412 7.30859 10.6309 7.30859H9.14453ZM14.4648 7.30859C14.4299 7.30859 14.3955 7.31756 14.3652 7.33496L11.6953 8.87305C11.594 8.93169 11.5648 9.06507 11.6318 9.16113L12.2998 10.1182C12.3587 10.2025 12.4718 10.229 12.5615 10.1787L14.0469 9.34473C14.1801 9.26994 14.3445 9.36585 14.3447 9.51855V16.4922C14.3449 16.6025 14.4346 16.6924 14.5449 16.6924H15.9512C16.0615 16.6924 16.1512 16.6025 16.1514 16.4922V7.50781C16.1512 7.39749 16.0615 7.30859 15.9512 7.30859H14.4648Z" fill="#222631"/>
</svg>
