<svg width="24" height="24" viewBox="0 0 24 24" fill="none" xmlns="http://www.w3.org/2000/svg">
<path fill-rule="evenodd" clip-rule="evenodd" d="M12 2C17.5228 2 22 6.47715 22 12C22 17.5228 17.5228 22 12 22C6.47715 22 2 17.5228 2 12C2 6.47715 6.47715 2 12 2ZM8.02539 7.43555C7.99046 7.4356 7.95605 7.44447 7.92578 7.46191L5.25586 9C5.15434 9.05863 5.12521 9.19197 5.19238 9.28809L5.86035 10.2441C5.91917 10.3283 6.03246 10.3547 6.12207 10.3047L7.60742 9.47168C7.74063 9.39712 7.90509 9.49286 7.90527 9.64551V16.6191C7.90543 16.7293 7.99429 16.8191 8.10449 16.8193H9.5127C9.62295 16.8192 9.71273 16.7294 9.71289 16.6191V7.63477C9.71273 7.52452 9.62295 7.43567 9.5127 7.43555H8.02539ZM14.6924 7.18164C13.8714 7.18165 13.1661 7.3684 12.5771 7.74316C12.0492 8.0843 11.5948 8.53661 11.2148 9.09961C11.153 9.19172 11.1827 9.31604 11.2773 9.37402L12.4043 10.0605C12.4993 10.1183 12.6232 10.0875 12.6836 9.99414C12.9037 9.65412 13.1405 9.37686 13.3936 9.16211C13.697 8.91225 14.0724 8.78809 14.5186 8.78809C14.7682 8.78816 14.9875 8.83648 15.1748 8.93457C15.3708 9.0327 15.5229 9.17138 15.6299 9.34961C15.7457 9.52799 15.8037 9.74732 15.8037 10.0059C15.8037 10.202 15.7724 10.3853 15.71 10.5547C15.6564 10.7151 15.5757 10.8757 15.4688 11.0361C15.3706 11.1878 15.2454 11.3443 15.0938 11.5049C14.951 11.6655 14.7907 11.84 14.6123 12.0273L11.4717 15.127C11.4337 15.1645 11.4131 15.2161 11.4131 15.2695V16.6191C11.4132 16.7293 11.5021 16.8191 11.6123 16.8193H17.6777C17.788 16.8192 17.8778 16.7294 17.8779 16.6191V15.3857C17.8778 15.2755 17.788 15.1867 17.6777 15.1865H14.1045C13.9246 15.1865 13.8354 14.9667 13.9648 14.8418L15.8701 13.0039C16.1824 12.7005 16.4688 12.3886 16.7275 12.0674C16.9951 11.7374 17.2133 11.3891 17.3828 11.0234C17.5523 10.6578 17.6376 10.2601 17.6377 9.83203C17.6377 9.29683 17.5028 8.832 17.2354 8.43945C16.9767 8.03826 16.6244 7.72972 16.1787 7.51562C15.7415 7.29258 15.2455 7.1817 14.6924 7.18164Z" fill="#222631"/>
</svg>
