<svg width="24" height="24" viewBox="0 0 24 24" fill="none" xmlns="http://www.w3.org/2000/svg">
<path fill-rule="evenodd" clip-rule="evenodd" d="M12 2C17.5228 2 22 6.47715 22 12C22 17.5228 17.5228 22 12 22C6.47715 22 2 17.5228 2 12C2 6.47715 6.47715 2 12 2ZM14.5801 7.04785C13.8216 7.04786 13.1741 7.20427 12.6387 7.5166C12.1678 7.79609 11.7676 8.16773 11.4395 8.63281C11.3754 8.72359 11.404 8.84816 11.498 8.90723L12.624 9.61426C12.7199 9.67443 12.8464 9.64211 12.9092 9.54785C13.0792 9.29246 13.2705 9.08809 13.4824 8.93457C13.7501 8.74725 14.0716 8.6543 14.4463 8.6543C14.6961 8.65431 14.9152 8.69886 15.1025 8.78809C15.2895 8.86836 15.437 8.99292 15.5439 9.16211C15.6597 9.32261 15.7177 9.52402 15.7178 9.76465C15.7177 10.1214 15.5888 10.408 15.3301 10.6221C15.0713 10.8272 14.7451 10.9297 14.3525 10.9297H13.1338C13.0234 10.9297 12.9338 11.0186 12.9336 11.1289V12.3359C12.9338 12.4463 13.0234 12.5361 13.1338 12.5361H14.4727C14.8116 12.5361 15.1019 12.594 15.3428 12.71C15.5925 12.817 15.7851 12.9774 15.9189 13.1914C16.0616 13.3966 16.1328 13.6471 16.1328 13.9414C16.1327 14.2178 16.0616 14.4637 15.9189 14.6777C15.7851 14.8918 15.5973 15.0569 15.3564 15.1729C15.1245 15.2888 14.8522 15.3467 14.54 15.3467C14.0761 15.3467 13.6788 15.2262 13.3486 14.9854C13.0683 14.7751 12.808 14.4628 12.5684 14.0488C12.5103 13.9485 12.3808 13.9127 12.2822 13.9736L11.0498 14.7354C10.9582 14.7921 10.9284 14.9124 10.9854 15.0039C11.3525 15.5939 11.8055 16.0612 12.3447 16.4043C12.9337 16.7701 13.6704 16.9531 14.5537 16.9531C15.2049 16.9531 15.7854 16.8326 16.2939 16.5918C16.8111 16.351 17.2173 16.0073 17.5117 15.5615C17.815 15.1156 17.9666 14.5974 17.9668 14.0088C17.9668 13.5718 17.8727 13.1742 17.6855 12.8174C17.5071 12.4516 17.2434 12.1434 16.8955 11.8936C16.8457 11.8565 16.7944 11.8201 16.7412 11.7861C16.635 11.7183 16.6252 11.5596 16.7217 11.4785C16.9981 11.2378 17.2078 10.9519 17.3506 10.6221C17.4933 10.292 17.5654 9.93433 17.5654 9.55078C17.5654 9.04228 17.4354 8.60031 17.1768 8.22559C16.9181 7.85097 16.5613 7.56069 16.1064 7.35547C15.6603 7.15022 15.1512 7.04786 14.5801 7.04785ZM8.19043 7.30176C8.15538 7.30176 8.12021 7.31063 8.08984 7.32812L5.4209 8.86621C5.31923 8.92479 5.28923 9.05812 5.35645 9.1543L6.02539 10.1104C6.0843 10.1946 6.19743 10.2212 6.28711 10.1709L7.77148 9.33789C7.90473 9.26312 8.06915 9.35899 8.06934 9.51172V16.4854C8.06949 16.5957 8.15917 16.6855 8.26953 16.6855H9.67676C9.78712 16.6855 9.8768 16.5957 9.87695 16.4854V7.50098C9.87679 7.39065 9.78712 7.30176 9.67676 7.30176H8.19043Z" fill="#222631"/>
</svg>
