<svg width="24" height="24" viewBox="0 0 24 24" fill="none" xmlns="http://www.w3.org/2000/svg">
<path d="M14.8242 9.86914C14.9412 9.71897 15.1816 9.80183 15.1816 9.99219V12.3691C15.1815 12.4793 15.0926 12.5691 14.9824 12.5693H13.1309C12.9644 12.5693 12.8705 12.3774 12.9727 12.2461L14.8242 9.86914Z" fill="#222631"/>
<path fill-rule="evenodd" clip-rule="evenodd" d="M12 2C17.5228 2 22 6.47715 22 12C22 17.5228 17.5228 22 12 22C6.47715 22 2 17.5228 2 12C2 6.47715 6.47715 2 12 2ZM8.01465 7.30859C7.97968 7.30863 7.94534 7.3175 7.91504 7.33496L5.24512 8.87305C5.1435 8.93162 5.11351 9.06497 5.18066 9.16113L5.84961 10.1182C5.90842 10.2024 6.02169 10.2288 6.11133 10.1787L7.5957 9.34473C7.7289 9.26991 7.89326 9.36588 7.89355 9.51855V16.4922C7.89371 16.6024 7.9835 16.6923 8.09375 16.6924H9.50195C9.61215 16.6922 9.70101 16.6024 9.70117 16.4922V7.50781C9.70101 7.39761 9.61215 7.30878 9.50195 7.30859H8.01465ZM14.9873 7.32227C14.925 7.32227 14.866 7.35095 14.8281 7.40039L10.9131 12.5146C10.8864 12.5495 10.8711 12.5928 10.8711 12.6367V14.002C10.8713 14.1122 10.961 14.202 11.0713 14.2021H14.9824C15.0926 14.2023 15.1815 14.2912 15.1816 14.4014V16.4922C15.1818 16.6024 15.2716 16.6923 15.3818 16.6924H16.79C16.9002 16.6922 16.9891 16.6024 16.9893 16.4922V14.4014C16.9894 14.2911 17.0792 14.2023 17.1895 14.2021H17.7402C17.8504 14.202 17.9393 14.1122 17.9395 14.002V12.7686C17.9393 12.6583 17.8504 12.5695 17.7402 12.5693H17.1895C17.0792 12.5692 16.9894 12.4794 16.9893 12.3691V7.52148C16.9891 7.41128 16.9002 7.32245 16.79 7.32227H14.9873Z" fill="#222631"/>
</svg>
