<svg width="24" height="24" viewBox="0 0 24 24" fill="none" xmlns="http://www.w3.org/2000/svg">
<path fill-rule="evenodd" clip-rule="evenodd" d="M12 2C17.5228 2 22 6.47715 22 12C22 17.5228 17.5228 22 12 22C6.47715 22 2 17.5228 2 12C2 6.47715 6.47715 2 12 2ZM12.0986 7.43457C11.9922 7.43457 11.9039 7.51869 11.8984 7.625L11.6514 12.4316C11.6455 12.546 11.7361 12.6416 11.8506 12.6416H14.1699C14.5621 12.6416 14.8926 12.6997 15.1602 12.8154C15.4277 12.9224 15.6336 13.0839 15.7764 13.2979C15.919 13.503 15.9902 13.7574 15.9902 14.0605C15.9902 14.3371 15.9238 14.5827 15.79 14.7969C15.6562 15.011 15.4685 15.176 15.2275 15.292C14.9956 15.4079 14.7233 15.4658 14.4111 15.4658C13.9562 15.4657 13.5587 15.3501 13.2197 15.1182C12.9316 14.9078 12.6673 14.592 12.4268 14.1709C12.369 14.0698 12.2387 14.0335 12.1396 14.0947L10.9072 14.8564C10.8159 14.913 10.7855 15.0316 10.8418 15.123C11.2099 15.721 11.6678 16.188 12.2158 16.5234C12.8136 16.8892 13.5457 17.0722 14.4111 17.0723C15.0535 17.0722 15.6339 16.9471 16.1514 16.6973C16.6687 16.4474 17.0747 16.0908 17.3691 15.627C17.6725 15.163 17.8242 14.614 17.8242 13.9805C17.8242 13.3738 17.699 12.8513 17.4492 12.4141C17.1993 11.9771 16.8114 11.6373 16.2852 11.3965C15.7676 11.1557 15.0886 11.0352 14.25 11.0352H13.7393C13.6245 11.0352 13.5328 10.9388 13.5391 10.8242L13.625 9.25684C13.6308 9.1509 13.7182 9.06757 13.8242 9.06738H17.291C17.4012 9.06719 17.49 8.97831 17.4902 8.86816V7.63477C17.4901 7.5245 17.4013 7.43476 17.291 7.43457H12.0986ZM7.96875 7.4209C7.93378 7.42094 7.89945 7.43078 7.86914 7.44824L5.19922 8.98633C5.09765 9.04492 5.06762 9.17826 5.13477 9.27441L5.80371 10.2314C5.86261 10.3158 5.97573 10.3414 6.06543 10.291L7.5498 9.45801C7.68304 9.38318 7.84745 9.47909 7.84766 9.63184V16.6055C7.84788 16.7157 7.93764 16.8046 8.04785 16.8047H9.45605C9.56621 16.8045 9.65505 16.7156 9.65527 16.6055V7.62109C9.65518 7.51083 9.56629 7.42109 9.45605 7.4209H7.96875Z" fill="#222631"/>
</svg>
