<svg width="24" height="24" viewBox="0 0 24 24" fill="none" xmlns="http://www.w3.org/2000/svg">
<path d="M14.7344 12.2812C15.0288 12.2812 15.2877 12.3486 15.5107 12.4824C15.7426 12.6073 15.921 12.781 16.0459 13.0039C16.1797 13.227 16.2471 13.4868 16.2471 13.7812C16.2469 14.0753 16.1796 14.3386 16.0459 14.5703C15.921 14.8021 15.7378 14.9854 15.4971 15.1191C15.2652 15.2527 14.984 15.3203 14.6543 15.3203C14.2709 15.3202 13.9358 15.213 13.6504 14.999C13.3649 14.7849 13.1458 14.4405 12.9941 13.9678C12.9311 13.7673 12.8816 13.5383 12.8447 13.2822C12.8373 13.23 12.8514 13.1766 12.8848 13.1357C13.0974 12.8752 13.344 12.6758 13.623 12.5361C13.962 12.3666 14.333 12.2813 14.7344 12.2812Z" fill="#222631"/>
<path fill-rule="evenodd" clip-rule="evenodd" d="M12 2C17.5228 2 22 6.47715 22 12C22 17.5228 17.5228 22 12 22C6.47715 22 2 17.5228 2 12C2 6.47715 6.47715 2 12 2ZM14.9756 7.04785C14.2619 7.04791 13.6454 7.17304 13.1279 7.42285C12.6197 7.66375 12.2001 8.00726 11.8701 8.45312C11.5402 8.89018 11.2944 9.41693 11.1338 10.0322C10.9822 10.6389 10.9062 11.3095 10.9062 12.041C10.9063 13.0846 11.0533 13.9726 11.3477 14.7041C11.6421 15.4357 12.0707 15.9942 12.6328 16.3779C13.1949 16.7615 13.8825 16.953 14.6943 16.9531C15.4079 16.9531 16.0198 16.806 16.5283 16.5117C17.0366 16.2174 17.4247 15.8243 17.6924 15.334C17.9689 14.8433 18.1073 14.3026 18.1074 13.7139C18.1074 13.1428 17.9822 12.6299 17.7324 12.1748C17.4915 11.7197 17.1398 11.3576 16.6758 11.0898C16.2208 10.8133 15.6849 10.6748 15.0693 10.6748C14.5878 10.6749 14.1455 10.7555 13.7441 10.916C13.5406 10.9947 13.348 11.0928 13.166 11.21C13.0169 11.3059 12.8065 11.1973 12.8281 11.0215C12.8474 10.8674 12.8708 10.7202 12.9004 10.5811C12.9896 10.1621 13.1235 9.81357 13.3018 9.53711C13.489 9.25177 13.7217 9.03731 13.998 8.89453C14.2745 8.75183 14.5963 8.68073 14.9619 8.68066C15.3455 8.68066 15.6756 8.77465 15.9521 8.96191C16.1874 9.10892 16.4082 9.30675 16.6133 9.55664C16.686 9.6453 16.8174 9.66326 16.9062 9.59082L17.9873 8.70703C18.07 8.6395 18.0854 8.51887 18.0176 8.43652C17.8366 8.21749 17.6251 8.01359 17.3848 7.82422C17.0993 7.59228 16.7559 7.40448 16.3545 7.26172C15.962 7.11902 15.5019 7.04787 14.9756 7.04785ZM7.81543 7.30176C7.78048 7.3018 7.74611 7.31067 7.71582 7.32812L5.0459 8.86621C4.94435 8.92483 4.91524 9.05817 4.98242 9.1543L5.65039 10.1104C5.70922 10.1945 5.82249 10.221 5.91211 10.1709L7.39648 9.33789C7.52973 9.26312 7.69415 9.35899 7.69434 9.51172V16.4854C7.69449 16.5956 7.78431 16.6854 7.89453 16.6855H9.30273C9.41296 16.6854 9.50179 16.5956 9.50195 16.4854V7.50098C9.50179 7.39075 9.41296 7.30192 9.30273 7.30176H7.81543Z" fill="#222631"/>
</svg>
