<svg width="24" height="24" viewBox="0 0 24 24" fill="none" xmlns="http://www.w3.org/2000/svg">
<path fill-rule="evenodd" clip-rule="evenodd" d="M12 2C17.5228 2 22 6.47715 22 12C22 17.5228 17.5228 22 12 22C6.47715 22 2 17.5228 2 12C2 6.47715 6.47715 2 12 2ZM8.41504 7.30859C8.38009 7.30864 8.34572 7.31751 8.31543 7.33496L5.64551 8.87305C5.54393 8.93163 5.51391 9.06498 5.58105 9.16113L6.25 10.1182C6.3088 10.2024 6.42209 10.2287 6.51172 10.1787L7.99609 9.34473C8.12929 9.26991 8.29463 9.36588 8.29492 9.51855V16.4922C8.29508 16.6024 8.38392 16.6922 8.49414 16.6924H9.90234C10.0126 16.6922 10.1024 16.6024 10.1025 16.4922V7.50781C10.1024 7.39759 10.0126 7.30875 9.90234 7.30859H8.41504ZM11.832 7.32227C11.7218 7.32243 11.633 7.41126 11.6328 7.52148V8.75488C11.633 8.86511 11.7218 8.95492 11.832 8.95508H16.0918C16.2478 8.95508 16.3438 9.12551 16.2627 9.25879L11.9248 16.3877C11.8437 16.521 11.9397 16.6924 12.0957 16.6924H13.7129C13.7839 16.6924 13.8498 16.654 13.8857 16.5928L18.3379 9.00098C18.3558 8.97038 18.3662 8.93584 18.3662 8.90039V7.52148C18.3661 7.41126 18.2762 7.32242 18.166 7.32227H11.832Z" fill="#222631"/>
</svg>
