<svg width="24" height="24" viewBox="0 0 24 24" fill="none" xmlns="http://www.w3.org/2000/svg">
<path d="M14.6377 12.4824C14.9945 12.4825 15.2981 12.545 15.5479 12.6699C15.8062 12.7948 16.003 12.9686 16.1367 13.1914C16.2792 13.4054 16.3515 13.6648 16.3516 13.9678C16.3515 14.2531 16.2794 14.5037 16.1367 14.7178C16.0029 14.9318 15.8065 15.0969 15.5479 15.2129C15.2981 15.3289 14.9945 15.3867 14.6377 15.3867C14.281 15.3867 13.9678 15.3287 13.7002 15.2129C13.4419 15.097 13.2413 14.9315 13.0986 14.7178C12.9648 14.5037 12.8975 14.2531 12.8975 13.9678C12.8975 13.6646 12.9649 13.4055 13.0986 13.1914C13.2413 12.9686 13.4418 12.7948 13.7002 12.6699C13.9679 12.545 14.2808 12.4824 14.6377 12.4824Z" fill="#222631"/>
<path d="M14.6514 8.60059C15.0437 8.60072 15.356 8.70783 15.5879 8.92188C15.8195 9.13593 15.9365 9.417 15.9365 9.76465C15.9365 10.0054 15.8824 10.2162 15.7754 10.3945C15.6683 10.5638 15.5164 10.6978 15.3203 10.7959C15.1331 10.885 14.9098 10.9296 14.6514 10.9297C14.2322 10.9297 13.9011 10.827 13.6602 10.6221C13.4193 10.408 13.2989 10.1214 13.2988 9.76465C13.2989 9.53283 13.353 9.33156 13.46 9.16211C13.567 8.98386 13.7189 8.84612 13.915 8.74805C14.1203 8.64994 14.3659 8.60059 14.6514 8.60059Z" fill="#222631"/>
<path fill-rule="evenodd" clip-rule="evenodd" d="M12 2C17.5228 2 22 6.47715 22 12C22 17.5228 17.5228 22 12 22C6.47715 22 2 17.5228 2 12C2 6.47715 6.47715 2 12 2ZM14.624 7.04785C13.9283 7.04788 13.3439 7.16839 12.8711 7.40918C12.4072 7.64113 12.0544 7.95322 11.8135 8.3457C11.5727 8.72927 11.4522 9.14009 11.4521 9.57715C11.4522 10.041 11.5726 10.4565 11.8135 10.8223C11.9522 11.0329 12.1281 11.2186 12.3408 11.3789C12.4761 11.4812 12.4633 11.7101 12.3164 11.7949C12.1886 11.8687 12.0703 11.951 11.9609 12.041C11.6576 12.2819 11.4253 12.5759 11.2646 12.9238C11.1131 13.2628 11.0372 13.6423 11.0371 14.0615C11.0372 14.6057 11.1756 15.097 11.4521 15.5342C11.7288 15.9711 12.1348 16.3195 12.6699 16.5781C13.2052 16.8278 13.8569 16.9531 14.624 16.9531C15.2039 16.9531 15.718 16.8773 16.1641 16.7256C16.6189 16.5828 16.9937 16.3817 17.2881 16.123C17.5914 15.8643 17.819 15.5608 17.9707 15.2129C18.1312 14.8561 18.2118 14.4718 18.2119 14.0615C18.2119 13.4997 18.0732 13.0128 17.7969 12.6025C17.5204 12.1834 17.114 11.8579 16.5791 11.626C16.5648 11.6197 16.5634 11.6002 16.5771 11.5928C16.9508 11.391 17.2375 11.1345 17.4355 10.8223C17.6763 10.4566 17.7968 10.0409 17.7969 9.57715C17.7968 9.14023 17.6762 8.72916 17.4355 8.3457C17.2036 7.95331 16.8505 7.64114 16.3779 7.40918C15.914 7.16828 15.3288 7.0479 14.624 7.04785ZM7.98438 7.30176C7.94944 7.30182 7.91504 7.31068 7.88477 7.32812L5.21484 8.86621C5.11333 8.92484 5.0842 9.05818 5.15137 9.1543L5.81934 10.1104C5.87816 10.1945 5.99144 10.2209 6.08105 10.1709L7.56641 9.33789C7.69961 9.26333 7.86407 9.35907 7.86426 9.51172V16.4854C7.86442 16.5956 7.95328 16.6854 8.06348 16.6855H9.47168C9.58193 16.6854 9.67172 16.5956 9.67188 16.4854V7.50098C9.67172 7.39073 9.58193 7.30188 9.47168 7.30176H7.98438Z" fill="#222631"/>
</svg>
