<svg width="24" height="24" viewBox="0 0 24 24" fill="none" xmlns="http://www.w3.org/2000/svg">
<path d="M14.7549 8.68066C15.1474 8.68072 15.4822 8.78785 15.7588 9.00195C16.0442 9.2161 16.2624 9.56423 16.4141 10.0459C16.4761 10.2395 16.525 10.461 16.5615 10.71C16.5689 10.7602 16.5562 10.8122 16.5254 10.8525C16.3221 11.1185 16.0756 11.3233 15.7852 11.4648C15.4462 11.6342 15.0752 11.7197 14.6738 11.7197C14.3798 11.7196 14.1165 11.6569 13.8848 11.5322C13.6618 11.3984 13.4825 11.2191 13.3486 10.9961C13.2239 10.7643 13.1622 10.5049 13.1621 10.2197C13.1622 9.9258 13.2241 9.66235 13.3486 9.43066C13.4823 9.19897 13.6659 9.01565 13.8975 8.88184C14.1383 8.74803 14.4249 8.68072 14.7549 8.68066Z" fill="#222631"/>
<path fill-rule="evenodd" clip-rule="evenodd" d="M12 2C17.5228 2 22 6.47715 22 12C22 17.5228 17.5228 22 12 22C6.47715 22 2 17.5228 2 12C2 6.47715 6.47715 2 12 2ZM14.7148 7.04785C14.0102 7.04791 13.3983 7.19493 12.8809 7.48926C12.3725 7.7837 11.9787 8.17637 11.7021 8.66699C11.4346 9.14875 11.3008 9.68943 11.3008 10.2871C11.3009 10.849 11.4261 11.3623 11.6758 11.8262C11.9256 12.2812 12.2784 12.6472 12.7334 12.9238C13.1884 13.1915 13.7243 13.3251 14.3398 13.3252C14.8303 13.3252 15.2726 13.2492 15.665 13.0977C15.8699 13.0138 16.0623 12.9116 16.2422 12.793C16.3907 12.695 16.6022 12.803 16.5801 12.9795C16.5609 13.132 16.537 13.2789 16.5078 13.4189C16.4186 13.8381 16.2801 14.1911 16.0928 14.4766C15.9143 14.7529 15.6866 14.9638 15.4102 15.1064C15.1337 15.2489 14.8117 15.3203 14.4463 15.3203C14.0719 15.3202 13.7414 15.2311 13.4561 15.0527C13.2208 14.8983 13.001 14.6947 12.7959 14.4434C12.7234 14.3545 12.5918 14.3368 12.5029 14.4092L11.4229 15.293C11.3402 15.3606 11.3248 15.4819 11.3926 15.5645C11.5721 15.7832 11.778 15.9876 12.0107 16.1768C12.3052 16.4087 12.6533 16.5965 13.0547 16.7393C13.4561 16.882 13.9162 16.9531 14.4336 16.9531C15.1471 16.9531 15.7591 16.8325 16.2676 16.5918C16.7848 16.3421 17.209 15.9984 17.5391 15.5615C17.8692 15.1155 18.11 14.5833 18.2617 13.9678C18.4222 13.3523 18.5029 12.6825 18.5029 11.96C18.5029 10.9162 18.3549 10.0285 18.0605 9.29688C17.7661 8.56511 17.3376 8.00678 16.7754 7.62305C16.2134 7.23959 15.5265 7.04792 14.7148 7.04785ZM8.27734 7.30176C8.24237 7.30179 8.20804 7.31066 8.17773 7.32812L5.50781 8.86621C5.40623 8.92481 5.37618 9.05815 5.44336 9.1543L6.1123 10.1104C6.17114 10.1945 6.28439 10.221 6.37402 10.1709L7.8584 9.33789C7.99164 9.26312 8.15606 9.35899 8.15625 9.51172V16.4854C8.15641 16.5956 8.24619 16.6854 8.35645 16.6855H9.76465C9.87484 16.6854 9.96371 16.5956 9.96387 16.4854V7.50098C9.96371 7.39077 9.87484 7.30195 9.76465 7.30176H8.27734Z" fill="#222631"/>
</svg>
