<svg width="24" height="24" viewBox="0 0 24 24" fill="none" xmlns="http://www.w3.org/2000/svg">
<path fill-rule="evenodd" clip-rule="evenodd" d="M12 2C17.5228 2 22 6.47715 22 12C22 17.5228 17.5228 22 12 22C6.47715 22 2 17.5228 2 12C2 6.47715 6.47715 2 12 2ZM12.0586 6.52539C11.2089 6.52539 10.4787 6.71953 9.86914 7.10742C9.32104 7.46159 8.85015 7.93144 8.45605 8.5166C8.39387 8.60895 8.42349 8.73404 8.51855 8.79199L9.69629 9.50977C9.79128 9.56767 9.91525 9.53683 9.97559 9.44336C10.2044 9.08885 10.4506 8.79964 10.7139 8.57617C11.0279 8.3176 11.4162 8.1885 11.8779 8.18848C12.1365 8.18848 12.3627 8.23923 12.5566 8.34082C12.7598 8.4424 12.9175 8.58484 13.0283 8.76953C13.1483 8.95414 13.2079 9.18061 13.208 9.44824C13.208 9.65136 13.1759 9.84118 13.1113 10.0166C13.0559 10.1828 12.9722 10.3494 12.8613 10.5156C12.7598 10.6725 12.6305 10.8339 12.4736 11C12.3259 11.1662 12.1593 11.3471 11.9746 11.541L8.72363 14.751C8.68559 14.7886 8.66406 14.8401 8.66406 14.8936V16.2998C8.66406 16.4103 8.7538 16.5 8.86426 16.5H15.1553C15.2657 16.5 15.3555 16.4103 15.3555 16.2998V15.0098C15.3555 14.8993 15.2657 14.8096 15.1553 14.8096H11.4326C11.2529 14.8094 11.1646 14.5907 11.2939 14.4658L13.2773 12.5518C13.6005 12.2378 13.8963 11.9145 14.1641 11.582C14.441 11.2404 14.6673 10.8804 14.8428 10.502C15.0182 10.1233 15.1055 9.71186 15.1055 9.26855C15.1055 8.71456 14.9674 8.23442 14.6904 7.82812C14.4226 7.41253 14.0575 7.09372 13.5957 6.87207C13.1433 6.64127 12.631 6.52545 12.0586 6.52539Z" fill="#222631"/>
</svg>
