<svg width="24" height="24" viewBox="0 0 24 24" fill="none" xmlns="http://www.w3.org/2000/svg">
<path d="M15.7803 8.7207C16.1818 8.72072 16.508 8.85912 16.7578 9.13574C17.0164 9.40341 17.2081 9.78292 17.333 10.2734C17.4668 10.7641 17.5342 11.34 17.5342 12C17.5342 12.4995 17.4981 12.9511 17.4268 13.3525C17.3554 13.7449 17.2434 14.0885 17.0918 14.3828C16.949 14.6682 16.766 14.8922 16.543 15.0527C16.3289 15.2041 16.0744 15.2803 15.7803 15.2803C15.3878 15.2802 15.0577 15.1455 14.79 14.8779C14.5314 14.6014 14.334 14.218 14.2002 13.7275C14.0753 13.2368 14.0137 12.6602 14.0137 12C14.0137 11.5008 14.0488 11.0545 14.1201 10.6621C14.1915 10.2607 14.2987 9.91634 14.4414 9.63086C14.593 9.33658 14.781 9.1136 15.0039 8.96191C15.227 8.80132 15.4859 8.72073 15.7803 8.7207Z" fill="#222631"/>
<path fill-rule="evenodd" clip-rule="evenodd" d="M12 2C17.5228 2 22 6.47715 22 12C22 17.5228 17.5228 22 12 22C6.47715 22 2 17.5228 2 12C2 6.47715 6.47715 2 12 2ZM15.7803 7.04785C15.1646 7.04787 14.6289 7.173 14.1738 7.42285C13.728 7.67262 13.353 8.02477 13.0498 8.47949C12.7554 8.9256 12.5315 9.45293 12.3799 10.0596C12.2372 10.6572 12.166 11.3043 12.166 12C12.1661 12.9277 12.2951 13.7672 12.5537 14.5166C12.8214 15.2658 13.2189 15.8597 13.7451 16.2969C14.2805 16.734 14.9594 16.9531 15.7803 16.9531C16.3958 16.9531 16.9317 16.8279 17.3867 16.5781C17.8416 16.3283 18.2164 15.9801 18.5107 15.5342C18.8051 15.0792 19.0242 14.5527 19.167 13.9551C19.3187 13.3484 19.3945 12.6959 19.3945 12C19.3945 11.0633 19.2645 10.2239 19.0059 9.4834C18.7471 8.73409 18.3497 8.14029 17.8145 7.70312C17.2791 7.2661 16.601 7.04787 15.7803 7.04785ZM8.61035 7.04785C7.78948 7.0479 7.08402 7.23462 6.49512 7.60938C5.96734 7.95049 5.51371 8.40294 5.13379 8.96582C5.07169 9.05804 5.1014 9.18229 5.19629 9.24023L6.32324 9.92676C6.41808 9.98426 6.54109 9.95335 6.60156 9.86035C6.82182 9.52045 7.0595 9.24305 7.3125 9.02832C7.6158 8.77873 7.99062 8.65433 8.43652 8.6543C8.68639 8.6543 8.90538 8.70262 9.09277 8.80078C9.28897 8.89892 9.4408 9.03745 9.54785 9.21582C9.66375 9.39425 9.72168 9.6134 9.72168 9.87207C9.72163 10.0682 9.69034 10.2515 9.62793 10.4209C9.57441 10.5813 9.49363 10.7419 9.38672 10.9023C9.2886 11.0539 9.16329 11.2106 9.01172 11.3711C8.86903 11.5316 8.70859 11.7063 8.53027 11.8936L5.39062 14.9932C5.35259 15.0307 5.33108 15.0823 5.33105 15.1357V16.4854C5.33121 16.5957 5.42089 16.6855 5.53125 16.6855H11.5957C11.7061 16.6855 11.7957 16.5957 11.7959 16.4854V15.252C11.7957 15.1416 11.7061 15.0527 11.5957 15.0527H8.02246C7.84268 15.0526 7.75441 14.8329 7.88379 14.708L9.78809 12.8701C10.1003 12.5668 10.3868 12.2547 10.6455 11.9336C10.913 11.6037 11.1313 11.2552 11.3008 10.8896C11.4702 10.524 11.5556 10.1263 11.5557 9.69824C11.5557 9.16294 11.4219 8.69826 11.1543 8.30566C10.8955 7.90413 10.5428 7.59601 10.0967 7.38184C9.6594 7.15874 9.16364 7.04785 8.61035 7.04785Z" fill="#222631"/>
</svg>
