<svg width="24" height="24" viewBox="0 0 24 24" fill="none" xmlns="http://www.w3.org/2000/svg">
<path fill-rule="evenodd" clip-rule="evenodd" d="M12 2C17.5228 2 22 6.47715 22 12C22 17.5228 17.5228 22 12 22C6.47715 22 2 17.5228 2 12C2 6.47715 6.47715 2 12 2ZM12.1592 6.87402C11.3742 6.87405 10.7045 7.03616 10.1504 7.35938C9.6056 7.68261 9.1531 8.12617 8.79297 8.68945L10.3164 9.64453C10.5195 9.29373 10.7557 9.02105 11.0234 8.82715C11.3004 8.63343 11.6329 8.53715 12.0205 8.53711C12.2789 8.53711 12.5054 8.58259 12.6992 8.6748C12.8931 8.75791 13.0454 8.88804 13.1562 9.06348C13.2763 9.2297 13.3369 9.43721 13.3369 9.68652C13.3369 10.0559 13.2024 10.3516 12.9346 10.5732C12.6668 10.7854 12.3299 10.8916 11.9238 10.8916H10.4551V12.5537H12.0479C12.3987 12.5537 12.6999 12.6144 12.9492 12.7344C13.2076 12.8452 13.4065 13.0119 13.5449 13.2334C13.6925 13.4457 13.7656 13.7043 13.7656 14.0088C13.7656 14.2949 13.6925 14.5489 13.5449 14.7705C13.4064 14.9921 13.2121 15.1632 12.9629 15.2832C12.7228 15.4032 12.4404 15.4629 12.1172 15.4629C11.6372 15.4628 11.2263 15.3381 10.8848 15.0889C10.5524 14.8395 10.2477 14.4519 9.9707 13.9258L8.33594 14.9365C8.73304 15.6291 9.23621 16.1697 9.8457 16.5576C10.4552 16.9362 11.2176 17.126 12.1318 17.126C12.8058 17.1259 13.4063 17.0012 13.9326 16.752C14.4682 16.5026 14.8886 16.1463 15.1934 15.6846C15.5071 15.2229 15.664 14.6874 15.6641 14.0781C15.6641 13.6256 15.567 13.2141 15.373 12.8447C15.1884 12.4663 14.9157 12.1481 14.5557 11.8896C14.4278 11.7946 14.2894 11.7091 14.1406 11.6338C14.2229 11.5787 14.3023 11.5218 14.376 11.46C14.6622 11.2107 14.8786 10.9148 15.0264 10.5732C15.1741 10.2315 15.248 9.86197 15.248 9.46484C15.248 8.93854 15.1144 8.48159 14.8467 8.09375C14.5789 7.70592 14.2092 7.40576 13.7383 7.19336C13.2766 6.98099 12.7502 6.87403 12.1592 6.87402Z" fill="#222631"/>
</svg>
