<svg width="24" height="24" viewBox="0 0 24 24" fill="none" xmlns="http://www.w3.org/2000/svg">
<path d="M11.8652 9.5459C11.9822 9.39576 12.2236 9.47861 12.2236 9.66895V12.1562C12.2236 12.2666 12.1337 12.3563 12.0234 12.3564H10.085C9.91847 12.3564 9.82447 12.1645 9.92676 12.0332L11.8652 9.5459Z" fill="#222631"/>
<path fill-rule="evenodd" clip-rule="evenodd" d="M12 2C17.5228 2 22 6.47715 22 12C22 17.5228 17.5228 22 12 22C6.47715 22 2 17.5228 2 12C2 6.47715 6.47715 2 12 2ZM12.0176 6.92578C11.9553 6.92578 11.8962 6.95448 11.8584 7.00391L7.80371 12.3027C7.77706 12.3376 7.76272 12.38 7.7627 12.4238V13.8457C7.76272 13.956 7.85161 14.0457 7.96191 14.0459H12.0234C12.1338 14.0461 12.2236 14.1357 12.2236 14.2461V16.4229C12.2237 16.5332 12.3125 16.6229 12.4229 16.623H13.8936C14.0039 16.6229 14.0937 16.5332 14.0938 16.4229V14.2461C14.0938 14.1357 14.1826 14.0461 14.293 14.0459H14.877C14.9873 14.0457 15.0771 13.956 15.0771 13.8457V12.5566C15.0771 12.4463 14.9873 12.3566 14.877 12.3564H14.293C14.1827 12.3563 14.0938 12.2666 14.0938 12.1562V7.12598C14.0938 7.01562 14.0039 6.92594 13.8936 6.92578H12.0176Z" fill="#222631"/>
</svg>
