<svg width="24" height="24" viewBox="0 0 24 24" fill="none" xmlns="http://www.w3.org/2000/svg">
<path fill-rule="evenodd" clip-rule="evenodd" d="M12 2C17.5228 2 22 6.47715 22 12C22 17.5228 17.5228 22 12 22C6.47715 22 2 17.5228 2 12C2 6.47715 6.47715 2 12 2ZM9.66211 7.0127C9.5559 7.01288 9.46849 7.09608 9.46289 7.20215L9.20605 12.1914C9.20036 12.3055 9.29109 12.4011 9.40527 12.4014H11.8135C12.2198 12.4014 12.5618 12.462 12.8389 12.582C13.1156 12.6928 13.3279 12.8587 13.4756 13.0801C13.6233 13.2925 13.6973 13.5561 13.6973 13.8701C13.6972 14.1562 13.6286 14.4103 13.4902 14.6318C13.3518 14.8534 13.1574 15.0245 12.9082 15.1445C12.6681 15.2646 12.3857 15.3242 12.0625 15.3242C11.5918 15.3242 11.1808 15.2047 10.8301 14.9648C10.5301 14.7459 10.2542 14.4162 10.0039 13.9766C9.94623 13.8757 9.81669 13.8394 9.71777 13.9004L8.42969 14.6963C8.33839 14.7528 8.30807 14.8723 8.36426 14.9639C8.74594 15.5856 9.22193 16.0707 9.79102 16.4189C10.4097 16.7975 11.1669 16.9872 12.0625 16.9873C12.7274 16.9873 13.3286 16.8572 13.8643 16.5986C14.3994 16.3401 14.8194 15.971 15.124 15.4912C15.438 15.011 15.5957 14.4427 15.5957 13.7871C15.5957 13.1592 15.4665 12.6185 15.208 12.166C14.9494 11.7135 14.5468 11.3626 14.002 11.1133C13.4664 10.864 12.7644 10.7393 11.8965 10.7393H11.3594C11.2447 10.7392 11.1539 10.6429 11.1602 10.5283L11.249 8.89258C11.2548 8.78652 11.343 8.70312 11.4492 8.70312H15.0488C15.1593 8.70312 15.249 8.61339 15.249 8.50293V7.21289C15.249 7.10243 15.1593 7.0127 15.0488 7.0127H9.66211Z" fill="#222631"/>
</svg>
