<svg width="24" height="24" viewBox="0 0 24 24" fill="none" xmlns="http://www.w3.org/2000/svg">
<path d="M12.2217 12.291C12.5265 12.291 12.7945 12.3605 13.0254 12.499C13.2654 12.6283 13.4498 12.8083 13.5791 13.0391C13.7176 13.27 13.7871 13.538 13.7871 13.8428C13.7871 14.1474 13.7176 14.4201 13.5791 14.6602C13.4499 14.9 13.2608 15.0891 13.0117 15.2275C12.7716 15.3661 12.4804 15.4355 12.1387 15.4355C11.7416 15.4355 11.3951 15.3251 11.0996 15.1035C10.8041 14.8819 10.5779 14.5256 10.4209 14.0361C10.3554 13.8281 10.3037 13.5911 10.2656 13.3252C10.2582 13.273 10.2725 13.2197 10.3057 13.1787C10.5263 12.9075 10.7823 12.6987 11.0723 12.5537C11.4231 12.3784 11.8063 12.291 12.2217 12.291Z" fill="#222631"/>
<path fill-rule="evenodd" clip-rule="evenodd" d="M12 2C17.5228 2 22 6.47715 22 12C22 17.5228 17.5228 22 12 22C6.47715 22 2 17.5228 2 12C2 6.47715 6.47715 2 12 2ZM12.4707 6.87402C11.7322 6.87408 11.0951 7.00328 10.5596 7.26172C10.0331 7.51108 9.59855 7.86732 9.25684 8.3291C8.91524 8.78158 8.66132 9.32676 8.49512 9.96387C8.33817 10.5918 8.25977 11.2848 8.25977 12.042C8.25981 13.1224 8.41206 14.0416 8.7168 14.7988C9.02157 15.556 9.46513 16.1332 10.0469 16.5303C10.6287 16.9273 11.3403 17.126 12.1807 17.126C12.9192 17.1259 13.5518 16.9736 14.0781 16.6689C14.6046 16.3642 15.0061 15.9572 15.2832 15.4492C15.5694 14.9414 15.7129 14.3829 15.7129 13.7734C15.7129 13.1824 15.5838 12.6507 15.3252 12.1797C15.0758 11.7088 14.7106 11.3346 14.2305 11.0576C13.7596 10.7714 13.2054 10.6289 12.5684 10.6289C12.0696 10.6289 11.6119 10.7117 11.1963 10.8779C10.9803 10.9614 10.7764 11.0661 10.584 11.1914C10.4353 11.2883 10.2243 11.18 10.2461 11.0039C10.2666 10.8381 10.2925 10.6805 10.3242 10.5312C10.4165 10.0975 10.5547 9.73736 10.7393 9.45117C10.9332 9.15563 11.1737 8.9339 11.46 8.78613C11.7462 8.63841 12.0785 8.56449 12.457 8.56445C12.8542 8.56445 13.1961 8.66152 13.4824 8.85547C13.7277 9.00877 13.9574 9.21617 14.1709 9.47754C14.2435 9.56615 14.3741 9.58308 14.4629 9.51074L15.5928 8.58887C15.6754 8.52131 15.6907 8.39989 15.623 8.31738C15.435 8.08858 15.2155 7.87521 14.9648 7.67773C14.6694 7.43766 14.3139 7.24346 13.8984 7.0957C13.4921 6.94793 13.0156 6.87402 12.4707 6.87402Z" fill="#222631"/>
</svg>
