<svg width="24" height="24" viewBox="0 0 24 24" fill="none" xmlns="http://www.w3.org/2000/svg">
<path fill-rule="evenodd" clip-rule="evenodd" d="M12 2C17.5228 2 22 6.47715 22 12C22 17.5228 17.5228 22 12 22C6.47715 22 2 17.5228 2 12C2 6.47715 6.47715 2 12 2ZM8.92676 7.15137C8.81648 7.15157 8.72754 7.24123 8.72754 7.35156V8.6416C8.72754 8.75193 8.81648 8.84159 8.92676 8.8418H13.3545C13.5105 8.8418 13.6064 9.01224 13.5254 9.14551L9.02344 16.5449C8.94253 16.6782 9.03839 16.8486 9.19434 16.8486H10.8848C10.9557 16.8486 11.0217 16.8111 11.0576 16.75L15.668 8.88867C15.686 8.85799 15.6963 8.82268 15.6963 8.78711V7.35156C15.6963 7.24117 15.6065 7.15148 15.4961 7.15137H8.92676Z" fill="#222631"/>
</svg>
