<svg width="24" height="24" viewBox="0 0 24 24" fill="none" xmlns="http://www.w3.org/2000/svg">
<path d="M12.0137 12.499C12.3831 12.499 12.6975 12.5631 12.9561 12.6924C13.2238 12.8217 13.4269 13.0026 13.5654 13.2334C13.713 13.4549 13.7871 13.7224 13.7871 14.0361C13.7871 14.3317 13.7132 14.5908 13.5654 14.8125C13.4269 15.0341 13.2238 15.2052 12.9561 15.3252C12.6975 15.4453 12.3831 15.5049 12.0137 15.5049C11.6443 15.5049 11.321 15.4452 11.0439 15.3252C10.7763 15.2052 10.5687 15.034 10.4209 14.8125C10.2824 14.5908 10.2129 14.3317 10.2129 14.0361C10.2129 13.7223 10.2825 13.4549 10.4209 13.2334C10.5687 13.0025 10.7761 12.8217 11.0439 12.6924C11.321 12.5631 11.6443 12.499 12.0137 12.499Z" fill="#222631"/>
<path d="M12.0273 8.48145C12.4336 8.48145 12.757 8.59196 12.9971 8.81348C13.2372 9.03513 13.3574 9.32634 13.3574 9.68652C13.3574 9.93587 13.3022 10.1532 13.1914 10.3379C13.0806 10.5133 12.9229 10.6514 12.7197 10.7529C12.5258 10.8452 12.2951 10.8916 12.0273 10.8916C11.5934 10.8916 11.2513 10.7856 11.002 10.5732C10.7527 10.3516 10.6279 10.0559 10.6279 9.68652C10.6279 9.44645 10.6841 9.23893 10.7949 9.06348C10.9057 8.87877 11.0625 8.73538 11.2656 8.63379C11.478 8.53222 11.7319 8.48146 12.0273 8.48145Z" fill="#222631"/>
<path fill-rule="evenodd" clip-rule="evenodd" d="M12 2C17.5228 2 22 6.47715 22 12C22 17.5228 17.5228 22 12 22C6.47715 22 2 17.5228 2 12C2 6.47715 6.47715 2 12 2ZM12 6.87402C11.2796 6.87402 10.6741 6.99869 10.1846 7.24805C9.70456 7.4881 9.34013 7.81162 9.09082 8.21777C8.84153 8.6148 8.71686 9.03978 8.7168 9.49219C8.7168 9.97244 8.84146 10.4026 9.09082 10.7812C9.23693 11.003 9.42303 11.1974 9.64844 11.3652C9.78441 11.4665 9.77192 11.6949 9.625 11.7793C9.48763 11.8579 9.36011 11.9457 9.24316 12.042C8.9292 12.2913 8.68868 12.5959 8.52246 12.9561C8.36552 13.307 8.28711 13.6998 8.28711 14.1338C8.28717 14.697 8.43056 15.2048 8.7168 15.6572C9.0031 16.1097 9.42343 16.4705 9.97754 16.7383C10.5316 16.9967 11.2059 17.126 12 17.126C12.6001 17.126 13.1311 17.0476 13.5928 16.8906C14.0638 16.7429 14.4521 16.5344 14.7568 16.2666C15.0706 15.9989 15.3059 15.6851 15.4629 15.3252C15.6291 14.9559 15.7128 14.5585 15.7129 14.1338C15.7129 13.5519 15.5695 13.0479 15.2832 12.623C14.9969 12.1891 14.5765 11.8524 14.0225 11.6123C14.0079 11.6059 14.0066 11.5867 14.0205 11.5791C14.4075 11.3703 14.7041 11.1046 14.9092 10.7812C15.1585 10.4026 15.2832 9.97244 15.2832 9.49219C15.2831 9.03978 15.1585 8.6148 14.9092 8.21777C14.6691 7.81147 14.3039 7.48815 13.8145 7.24805C13.3343 6.99878 12.7294 6.87405 12 6.87402Z" fill="#222631"/>
</svg>
