<svg width="24" height="24" viewBox="0 0 24 24" fill="none" xmlns="http://www.w3.org/2000/svg">
<path d="M11.9785 8.56445C12.3848 8.56445 12.7313 8.67492 13.0176 8.89648C13.3131 9.11813 13.5393 9.47883 13.6963 9.97754C13.7608 10.1787 13.8109 10.409 13.8486 10.668C13.8559 10.7181 13.8432 10.7692 13.8125 10.8096C13.6017 11.0862 13.3465 11.2994 13.0449 11.4463C12.6941 11.6216 12.3109 11.709 11.8955 11.709C11.5909 11.709 11.3182 11.6448 11.0781 11.5156C10.8473 11.3771 10.662 11.1918 10.5234 10.9609C10.3942 10.7209 10.3301 10.4527 10.3301 10.1572C10.3301 9.85258 10.3942 9.57989 10.5234 9.33984C10.6619 9.09982 10.8518 8.91098 11.0918 8.77246C11.3411 8.63394 11.6368 8.56446 11.9785 8.56445Z" fill="#222631"/>
<path fill-rule="evenodd" clip-rule="evenodd" d="M12 2C17.5228 2 22 6.47715 22 12C22 17.5228 17.5228 22 12 22C6.47715 22 2 17.5228 2 12C2 6.47715 6.47715 2 12 2ZM11.9365 6.87402C11.2072 6.87409 10.5746 7.02641 10.0391 7.33105C9.51266 7.63583 9.10661 8.04284 8.82031 8.55078C8.5433 9.04943 8.40433 9.60789 8.4043 10.2266C8.4043 10.8084 8.53341 11.3401 8.79199 11.8203C9.05057 12.2912 9.41579 12.6698 9.88672 12.9561C10.3576 13.233 10.9118 13.3711 11.5488 13.3711C12.0568 13.3711 12.5145 13.2927 12.9209 13.1357C13.1383 13.0468 13.342 12.9382 13.5322 12.8115C13.6803 12.7132 13.8918 12.8215 13.8701 12.998C13.85 13.1619 13.8242 13.3188 13.793 13.4688C13.7007 13.9024 13.558 14.2671 13.3643 14.5625C13.1795 14.8488 12.9435 15.0661 12.6572 15.2139C12.371 15.3616 12.0387 15.4355 11.6602 15.4355C11.2723 15.4355 10.9303 15.3429 10.6348 15.1582C10.3895 14.9972 10.1599 14.7852 9.94629 14.5225C9.87392 14.4337 9.74308 14.4169 9.6543 14.4893L8.52441 15.4111C8.44182 15.4787 8.42677 15.5999 8.49414 15.6826C8.68087 15.9113 8.89571 16.1249 9.13867 16.3223C9.44335 16.5623 9.80332 16.7566 10.2188 16.9043C10.6343 17.0521 11.1108 17.126 11.6465 17.126C12.3851 17.1259 13.0177 17.0012 13.5439 16.752C14.0796 16.4934 14.5186 16.1371 14.8604 15.6846C15.2019 15.2229 15.4514 14.6732 15.6084 14.0361C15.7746 13.399 15.8574 12.7059 15.8574 11.958C15.8574 10.8776 15.7051 9.95839 15.4004 9.20117C15.0956 8.44404 14.6521 7.86679 14.0703 7.46973C13.4885 7.07268 12.7769 6.87402 11.9365 6.87402Z" fill="#222631"/>
</svg>
