<svg width="24" height="24" viewBox="0 0 24 24" fill="none" xmlns="http://www.w3.org/2000/svg">
<path d="M7.22905 11.2581C6.4836 11.2581 5.80593 11.0764 5.19602 10.7129C4.59227 10.3494 4.10865 9.86583 3.74517 9.26208C3.38169 8.65217 3.19995 7.97449 3.19995 7.22905C3.19995 6.48977 3.38169 5.81517 3.74517 5.20526C4.10865 4.59535 4.59227 4.10865 5.19602 3.74517C5.80593 3.38169 6.4836 3.19995 7.22905 3.19995C7.96833 3.19995 8.64293 3.38169 9.25284 3.74517C9.86275 4.10865 10.3494 4.59535 10.7129 5.20526C11.0764 5.81517 11.2581 6.48977 11.2581 7.22905C11.2581 7.97449 11.0764 8.65217 10.7129 9.26208C10.3494 9.86583 9.86275 10.3494 9.25284 10.7129C8.64293 11.0764 7.96833 11.2581 7.22905 11.2581ZM16.7566 11.2581C16.0111 11.2581 15.3335 11.0764 14.7235 10.7129C14.1136 10.3494 13.6269 9.86583 13.2635 9.26208C12.9061 8.65217 12.7275 7.97449 12.7275 7.22905C12.7275 6.48977 12.9061 5.81517 13.2635 5.20526C13.6269 4.59535 14.1136 4.10865 14.7235 3.74517C15.3335 3.38169 16.0111 3.19995 16.7566 3.19995C17.4959 3.19995 18.1705 3.38169 18.7804 3.74517C19.3903 4.10865 19.877 4.59535 20.2404 5.20526C20.6039 5.81517 20.7857 6.48977 20.7857 7.22905C20.7857 7.97449 20.6039 8.65217 20.2404 9.26208C19.877 9.86583 19.3903 10.3494 18.7804 10.7129C18.1705 11.0764 17.4959 11.2581 16.7566 11.2581ZM7.22905 20.7764C6.4836 20.7764 5.80593 20.5947 5.19602 20.2312C4.59227 19.8677 4.10865 19.381 3.74517 18.7711C3.38169 18.1612 3.19995 17.4866 3.19995 16.7473C3.19995 16.0019 3.38169 15.3242 3.74517 14.7143C4.10865 14.1044 4.59227 13.6208 5.19602 13.2635C5.80593 12.9 6.4836 12.7182 7.22905 12.7182C7.96833 12.7182 8.64293 12.9 9.25284 13.2635C9.86275 13.6208 10.3494 14.1044 10.7129 14.7143C11.0764 15.3242 11.2581 16.0019 11.2581 16.7473C11.2581 17.4866 11.0764 18.1612 10.7129 18.7711C10.3494 19.381 9.86275 19.8677 9.25284 20.2312C8.64293 20.5947 7.96833 20.7764 7.22905 20.7764ZM16.7566 20.7764C16.0111 20.7764 15.3335 20.5947 14.7235 20.2312C14.1136 19.8677 13.6269 19.381 13.2635 18.7711C12.9061 18.1612 12.7275 17.4866 12.7275 16.7473C12.7275 16.0019 12.9061 15.3242 13.2635 14.7143C13.6269 14.1044 14.1136 13.6208 14.7235 13.2635C15.3335 12.9 16.0111 12.7182 16.7566 12.7182C17.4959 12.7182 18.1705 12.9 18.7804 13.2635C19.3903 13.6208 19.877 14.1044 20.2404 14.7143C20.6039 15.3242 20.7857 16.0019 20.7857 16.7473C20.7857 17.4866 20.6039 18.1612 20.2404 18.7711C19.877 19.381 19.3903 19.8677 18.7804 20.2312C18.1705 20.5947 17.4959 20.7764 16.7566 20.7764Z" fill="#222631"/>
</svg>
