<svg width="24" height="24" viewBox="0 0 24 24" fill="none" xmlns="http://www.w3.org/2000/svg">
<path d="M5.72632 5.87305C6.05743 5.87305 6.37785 6.02513 6.68725 6.3291L9.46362 9.09766C9.63725 9.2659 9.72436 9.4587 9.72436 9.67578C9.72427 9.89265 9.64282 10.0824 9.48022 10.2451C9.31195 10.4188 9.12161 10.5035 8.90991 10.498C8.69831 10.4872 8.50542 10.3977 8.33179 10.2295L7.67261 9.57812L6.52417 8.29395V16.8164C6.52422 17.2124 6.6252 17.5078 6.82593 17.7031C7.02677 17.8985 7.31705 17.9971 7.69702 17.9971H13.9578C14.2235 17.9971 14.4328 18.0671 14.5847 18.208C14.7367 18.3546 14.8156 18.5531 14.821 18.8027C14.821 19.047 14.7421 19.2397 14.5847 19.3809C14.4327 19.5273 14.2236 19.6006 13.9578 19.6006H7.59936C6.72001 19.6006 6.05478 19.3753 5.60425 18.9248C5.15378 18.4797 4.92847 17.8225 4.92847 16.9541V8.29395L3.78003 9.57812L3.11304 10.2295C2.95022 10.3977 2.7598 10.4872 2.54272 10.498C2.33114 10.5034 2.14159 10.4187 1.97339 10.2451C1.80521 10.0824 1.72295 9.89275 1.72827 9.67578C1.7337 9.45878 1.82092 9.26586 1.98901 9.09766L4.77417 6.3291C5.07806 6.02525 5.3953 5.8731 5.72632 5.87305Z" fill="#222631"/>
<path d="M16.4167 4.39941C17.2907 4.39941 17.9535 4.62228 18.4041 5.06738C18.8544 5.51248 19.0798 6.17219 19.0798 7.0459V15.6963L20.2273 14.4141L20.8874 13.7627C21.0556 13.6001 21.2453 13.5163 21.4568 13.5107C21.6683 13.4999 21.8613 13.5781 22.0349 13.7461C22.1977 13.9143 22.2766 14.1072 22.2712 14.3242C22.2712 14.5358 22.1874 14.7263 22.0193 14.8945L19.2429 17.6631C18.9336 17.967 18.613 18.1191 18.282 18.1191C17.9509 18.1246 17.6304 17.9724 17.321 17.6631L14.5447 14.8945C14.371 14.7263 14.2816 14.5359 14.2761 14.3242C14.2762 14.1072 14.3575 13.9143 14.5203 13.7461C14.6939 13.578 14.8868 13.4999 15.0984 13.5107C15.3153 13.5162 15.505 13.6001 15.6677 13.7627L16.3357 14.4141L17.4841 15.6963V7.17578C17.4841 6.78507 17.3831 6.49229 17.1824 6.29688C16.9815 6.10146 16.6912 6.00293 16.3113 6.00293H10.0583C9.78694 6.00293 9.57459 5.93312 9.42261 5.79199C9.27064 5.64544 9.19269 5.44693 9.18725 5.19727C9.18725 4.95303 9.26284 4.76027 9.41479 4.61914C9.57221 4.47258 9.78694 4.39941 10.0583 4.39941H16.4167Z" fill="#222631"/>
</svg>
