<svg width="24" height="24" viewBox="0 0 24 24" fill="none" xmlns="http://www.w3.org/2000/svg">
<path d="M9.05175 7.30447C9.25173 7.30447 9.41979 7.37236 9.55528 7.50776L11.9082 9.92847C12.0371 10.0575 12.1012 10.2158 12.1012 10.4028C12.1011 10.5963 12.0402 10.7546 11.9176 10.8772C11.8015 10.9997 11.6492 11.0607 11.4621 11.0607C11.2751 11.0606 11.1167 10.9958 10.9878 10.8668L9.90352 9.73459L9.70775 9.51435L9.71999 9.94729V16.0555C9.71999 16.2491 9.65518 16.4112 9.52611 16.5402C9.39708 16.6627 9.23878 16.7238 9.05175 16.7238C8.85832 16.7237 8.69698 16.6627 8.56799 16.5402C8.44537 16.4112 8.38446 16.2491 8.38446 16.0555V9.95671L8.39105 9.53129L8.21975 9.73459L7.12516 10.8668C7.00255 10.9959 6.84439 11.0607 6.65081 11.0607C6.464 11.0606 6.30929 10.9995 6.18681 10.8772C6.06426 10.7546 6.00242 10.5963 6.00234 10.4028C6.00234 10.2286 6.07401 10.0705 6.21599 9.92847L8.56799 7.50776C8.69698 7.37236 8.85832 7.30455 9.05175 7.30447Z" fill="#222631"/>
<path d="M14.9087 7.29506C15.0957 7.29506 15.254 7.35613 15.383 7.47859C15.5121 7.6012 15.5769 7.75639 15.5769 7.94353V14.0621L15.5647 14.4866L15.7605 14.2654L16.855 13.1416C16.984 13.0129 17.1387 12.9488 17.319 12.9487C17.5126 12.9487 17.6678 13.0097 17.784 13.1322C17.9066 13.2548 17.9675 13.4131 17.9675 13.6066C17.9675 13.7937 17.9035 13.9519 17.7746 14.0809L15.4122 16.5016C15.2832 16.637 15.1181 16.7049 14.9181 16.7049C14.7183 16.7048 14.5569 16.637 14.4343 16.5016L12.0823 14.0809C11.9404 13.939 11.8687 13.7808 11.8687 13.6066C11.8687 13.4131 11.9306 13.2548 12.0532 13.1322C12.1758 13.0097 12.331 12.9487 12.5181 12.9487C12.7115 12.9488 12.8699 13.0127 12.9925 13.1416L14.0861 14.2654L14.2536 14.4668L14.2508 14.0518V7.94353C14.2508 7.75639 14.3117 7.6012 14.4343 7.47859C14.5634 7.35605 14.7216 7.2951 14.9087 7.29506Z" fill="#222631"/>
<path fill-rule="evenodd" clip-rule="evenodd" d="M11.9948 2C13.3759 2 14.6703 2.25734 15.8772 2.77365C17.0905 3.28995 18.1551 4.00686 19.0715 4.92329C19.9879 5.83965 20.7039 6.90448 21.2202 8.11765C21.743 9.3245 22.0052 10.6189 22.0052 12C22.0051 13.381 21.743 14.6785 21.2202 15.8918C20.704 17.0984 19.9878 18.1565 19.0715 19.0664C18.1551 19.9828 17.0904 20.6997 15.8772 21.216C14.6703 21.7388 13.3759 22 11.9948 22C10.6139 22 9.3201 21.7386 8.1134 21.216C6.90655 20.6997 5.84489 19.9828 4.92846 19.0664C4.0121 18.1565 3.29215 17.0985 2.7694 15.8918C2.25313 14.6785 1.99484 13.381 1.99481 12C1.99481 10.6189 2.2531 9.3245 2.7694 8.11765C3.29215 6.90441 4.01207 5.83968 4.92846 4.92329C5.84487 4.00692 6.9066 3.28993 8.1134 2.77365C9.32007 2.2575 10.6139 2.00002 11.9948 2ZM11.9948 3.97459C10.8913 3.97461 9.8521 4.18382 8.87764 4.60329C7.90968 5.01629 7.05801 5.59098 6.32234 6.32659C5.58661 7.05587 5.00913 7.9083 4.58964 8.88282C4.17661 9.85087 3.9694 10.89 3.9694 12C3.96943 13.11 4.17662 14.1492 4.58964 15.1172C5.00912 16.0851 5.58669 16.9368 6.32234 17.6725C7.05802 18.4081 7.90965 18.9827 8.87764 19.3958C9.8521 19.8152 10.8913 20.0254 11.9948 20.0254C13.1048 20.0254 14.144 19.8152 15.112 19.3958C16.0801 18.9827 16.9325 18.4082 17.6682 17.6725C18.4103 16.9368 18.9879 16.0851 19.4009 15.1172C19.8139 14.1492 20.0202 13.11 20.0202 12C20.0202 10.89 19.8139 9.85082 19.4009 8.88282C18.9879 7.90831 18.4104 7.05586 17.6682 6.32659C16.9325 5.59086 16.0801 5.01634 15.112 4.60329C14.144 4.18389 13.1047 3.97459 11.9948 3.97459Z" fill="#222631"/>
</svg>
