<svg width="24" height="24" viewBox="0 0 24 24" fill="none" xmlns="http://www.w3.org/2000/svg">
<path fill-rule="evenodd" clip-rule="evenodd" d="M11.9956 22C13.3765 21.9999 14.6707 21.7385 15.8774 21.2158C17.0906 20.6995 18.1554 19.9827 19.0718 19.0664C19.9881 18.1565 20.7049 17.095 21.2212 15.8818C21.7439 14.6751 22.0044 13.381 22.0044 12C22.0044 10.619 21.7439 9.32494 21.2212 8.11816C20.7049 6.91144 19.9881 5.84996 19.0718 4.93359C18.1554 4.01726 17.0906 3.30046 15.8774 2.78418C14.6707 2.26149 13.3765 2.00006 11.9956 2C10.6145 2 9.31963 2.26143 8.11279 2.78418C6.90612 3.30046 5.84454 4.01727 4.92822 4.93359C4.01195 5.84993 3.29272 6.91148 2.77002 8.11816C2.25372 9.325 1.99561 10.6189 1.99561 12C1.99561 13.3811 2.25372 14.675 2.77002 15.8818C3.29272 17.095 4.01195 18.1565 4.92822 19.0664C5.84454 19.9827 6.90612 20.6995 8.11279 21.2158C9.31963 21.7386 10.6145 22 11.9956 22ZM12.0044 17.0723C11.8885 17.0722 11.7726 17.0499 11.6567 17.0049C11.547 16.9597 11.4307 16.8788 11.3081 16.7627L8.02588 13.5977C7.94199 13.5202 7.8777 13.4327 7.83252 13.3359C7.78735 13.2391 7.76514 13.1294 7.76514 13.0068C7.76514 12.7746 7.84513 12.584 8.00635 12.4355C8.16762 12.2872 8.35833 12.213 8.57764 12.2129C8.83578 12.2129 9.04618 12.3037 9.20752 12.4844L10.6108 13.9844L11.1528 14.6328L11.0757 13.1523V7.83691C11.0758 7.58543 11.1656 7.36906 11.3462 7.18848C11.5332 7.01433 11.7529 6.92783 12.0044 6.92773C12.269 6.92773 12.4893 7.01423 12.6636 7.18848C12.8441 7.36905 12.934 7.58545 12.9341 7.83691V13.1523L12.8667 14.6328L13.4087 13.9844L14.812 12.4844C14.9669 12.3037 15.174 12.2129 15.4321 12.2129C15.6577 12.213 15.851 12.2873 16.0122 12.4355C16.1735 12.584 16.2544 12.7745 16.2544 13.0068C16.2544 13.1294 16.2322 13.2392 16.187 13.3359C16.1418 13.4327 16.0742 13.5202 15.9839 13.5977L12.7114 16.7627C12.5888 16.8789 12.4725 16.9597 12.3628 17.0049C12.2531 17.05 12.1334 17.0723 12.0044 17.0723Z" fill="#222631"/>
</svg>
