<svg width="24" height="24" viewBox="0 0 24 24" fill="none" xmlns="http://www.w3.org/2000/svg">
<path d="M8.46627 6.36542C8.70616 6.36542 8.90776 6.44686 9.0703 6.60929L11.8929 9.51314C12.0474 9.6679 12.1243 9.85786 12.1243 10.0822C12.1242 10.3142 12.0512 10.5042 11.9042 10.6512C11.7648 10.7982 11.5821 10.8714 11.3577 10.8714C11.1334 10.8712 10.9434 10.7935 10.7887 10.6388L9.48804 9.28056L9.2532 9.01637L9.26788 9.53572V16.8631C9.26788 17.0954 9.19014 17.2897 9.0353 17.4445C8.88053 17.5914 8.69062 17.6647 8.46627 17.6647C8.23424 17.6646 8.04069 17.5915 7.88595 17.4445C7.73886 17.2897 7.66579 17.0954 7.66579 16.8631V9.54701L7.6737 9.03669L7.46821 9.28056L6.15516 10.6388C6.00807 10.7936 5.81835 10.8714 5.58613 10.8714C5.36203 10.8712 5.17644 10.7979 5.02952 10.6512C4.88251 10.5042 4.80832 10.3142 4.80823 10.0822C4.80823 9.87314 4.8942 9.68346 5.06452 9.51314L7.88595 6.60929C8.04069 6.44685 8.23423 6.36551 8.46627 6.36542Z" fill="#222631"/>
<path d="M15.4922 6.35413C15.7166 6.35413 15.9065 6.42739 16.0612 6.57429C16.2161 6.72137 16.2938 6.90754 16.2938 7.13203V14.4718L16.2791 14.981L16.514 14.7157L17.827 13.3676C17.9817 13.2132 18.1673 13.1363 18.3836 13.1362C18.6158 13.1362 18.802 13.2094 18.9414 13.3563C19.0884 13.5034 19.1615 13.6932 19.1615 13.9254C19.1615 14.1498 19.0848 14.3396 18.9301 14.4944L16.0962 17.3983C15.9414 17.5607 15.7434 17.6421 15.5035 17.6421C15.2638 17.642 15.0701 17.5606 14.9232 17.3983L12.1017 14.4944C11.9314 14.3241 11.8454 14.1344 11.8454 13.9254C11.8455 13.6932 11.9197 13.5034 12.0667 13.3563C12.2138 13.2094 12.4 13.1362 12.6245 13.1362C12.8565 13.1363 13.0465 13.2129 13.1935 13.3676L14.5054 14.7157L14.7064 14.9573L14.703 14.4594V7.13203C14.703 6.90754 14.7761 6.72137 14.9232 6.57429C15.0779 6.42729 15.2678 6.35418 15.4922 6.35413Z" fill="#222631"/>
</svg>
