<svg width="24" height="24" viewBox="0 0 24 24" fill="none" xmlns="http://www.w3.org/2000/svg">
<path fill-rule="evenodd" clip-rule="evenodd" d="M11.9956 2C13.3765 2.00006 14.6707 2.26149 15.8774 2.78418C17.0906 3.30046 18.1554 4.01726 19.0718 4.93359C19.9881 5.8435 20.7049 6.90499 21.2212 8.11816C21.7439 9.32494 22.0044 10.619 22.0044 12C22.0044 13.381 21.7439 14.6751 21.2212 15.8818C20.7049 17.0886 19.9881 18.15 19.0718 19.0664C18.1554 19.9827 17.0906 20.6995 15.8774 21.2158C14.6707 21.7385 13.3765 21.9999 11.9956 22C10.6145 22 9.31963 21.7386 8.11279 21.2158C6.90612 20.6995 5.84454 19.9827 4.92822 19.0664C4.01195 18.1501 3.29272 17.0885 2.77002 15.8818C2.25372 14.675 1.99561 13.3811 1.99561 12C1.99561 10.6189 2.25372 9.32501 2.77002 8.11816C3.29272 6.90503 4.01195 5.84348 4.92822 4.93359C5.84454 4.01727 6.90612 3.30046 8.11279 2.78418C9.31963 2.26143 10.6145 2 11.9956 2ZM12.0044 6.92773C11.8885 6.92779 11.7726 6.95009 11.6567 6.99512C11.547 7.04028 11.4307 7.12118 11.3081 7.2373L8.02588 10.4023C7.94199 10.4798 7.8777 10.5673 7.83252 10.6641C7.78735 10.7609 7.76514 10.8706 7.76514 10.9932C7.76514 11.2254 7.84513 11.416 8.00635 11.5645C8.16762 11.7128 8.35833 11.787 8.57764 11.7871C8.83578 11.7871 9.04618 11.6963 9.20752 11.5156L10.6108 10.0156L11.1528 9.36719L11.0757 10.8477V16.1631C11.0758 16.4146 11.1656 16.6309 11.3462 16.8115C11.5332 16.9857 11.7529 17.0722 12.0044 17.0723C12.269 17.0723 12.4893 16.9858 12.6636 16.8115C12.8441 16.6309 12.934 16.4145 12.9341 16.1631V10.8477L12.8667 9.36719L13.4087 10.0156L14.812 11.5156C14.9669 11.6963 15.174 11.7871 15.4321 11.7871C15.6577 11.787 15.851 11.7127 16.0122 11.5645C16.1735 11.416 16.2544 11.2255 16.2544 10.9932C16.2544 10.8706 16.2322 10.7608 16.187 10.6641C16.1418 10.5673 16.0742 10.4798 15.9839 10.4023L12.7114 7.2373C12.5888 7.12114 12.4725 7.04029 12.3628 6.99512C12.2531 6.95 12.1334 6.92773 12.0044 6.92773Z" fill="#222631"/>
</svg>
