<svg viewBox="0 0 16 16" fill="none" xmlns="http://www.w3.org/2000/svg">
  <path
    d="M2.66667 1.33325C3.03486 1.33325 3.33333 1.63173 3.33333 1.99992V5.72636C3.33333 6.25679 3.5442 6.76535 3.91927 7.14042C4.29434 7.5155 4.8029 7.72636 5.33333 7.72636H11.724L9.52865 5.53105C9.2683 5.2707 9.2683 4.84869 9.52865 4.58834C9.789 4.32799 10.211 4.32799 10.4714 4.58834L13.8047 7.92167C13.8366 7.95355 13.8651 7.98872 13.89 8.02649C13.9065 8.05148 13.9208 8.07744 13.9336 8.10396C13.948 8.1339 13.9608 8.16484 13.9707 8.19706C13.9749 8.21078 13.9778 8.22482 13.9811 8.23873C13.9929 8.28832 14 8.33984 14 8.39303C14 8.42918 13.9964 8.46455 13.9909 8.49915C13.9862 8.52853 13.98 8.55773 13.9714 8.58639C13.9614 8.61933 13.9483 8.65087 13.9336 8.68144C13.9291 8.69088 13.9243 8.70017 13.9193 8.70943C13.9009 8.74342 13.8799 8.77568 13.8561 8.80579C13.8402 8.82595 13.8233 8.84576 13.8047 8.86438L10.4714 12.1977C10.211 12.4581 9.789 12.4581 9.52865 12.1977C9.2683 11.9374 9.2683 11.5154 9.52865 11.255L11.724 9.05969H5.33333C4.44928 9.05969 3.60168 8.70825 2.97656 8.08313C2.35144 7.45801 2 6.61042 2 5.72636L2 1.99992C2 1.63173 2.29848 1.33325 2.66667 1.33325Z"
    fill="currentColor"
  />
</svg>
