<svg width="24" height="24" viewBox="0 0 24 24" fill="none" xmlns="http://www.w3.org/2000/svg">
<path d="M11.9951 16.9463C12.1176 16.9463 12.2341 16.924 12.3438 16.8789C12.4534 16.8337 12.5665 16.7528 12.6826 16.6367L15.8867 13.5586C15.9642 13.4811 16.0261 13.3937 16.0713 13.2969C16.1164 13.2066 16.1387 13.1001 16.1387 12.9775C16.1387 12.7517 16.0578 12.5645 15.8965 12.416C15.7416 12.2741 15.551 12.2031 15.3252 12.2031C15.2156 12.2032 15.109 12.2254 15.0059 12.2705C14.9028 12.3156 14.8094 12.3835 14.7256 12.4736L13.3604 13.9258L12.8467 14.5137L12.9053 13.123V7.94336C12.9052 7.70475 12.8153 7.49506 12.6348 7.31445C12.4605 7.1402 12.2468 7.05273 11.9951 7.05273C11.75 7.05282 11.5371 7.14029 11.3564 7.31445C11.1823 7.49509 11.0948 7.7047 11.0947 7.94336V13.123L11.1533 14.5254L10.6309 13.9258L9.26562 12.4736C9.18821 12.3834 9.09401 12.3157 8.98438 12.2705C8.87482 12.2255 8.76483 12.2031 8.65527 12.2031C8.43613 12.2032 8.24947 12.2743 8.09473 12.416C7.93984 12.5645 7.8623 12.7517 7.8623 12.9775C7.86232 13.1001 7.88122 13.2066 7.91992 13.2969C7.9651 13.3937 8.0327 13.4812 8.12305 13.5586L11.3086 16.6367C11.431 16.7527 11.5467 16.8337 11.6562 16.8789C11.7658 16.924 11.8791 16.9462 11.9951 16.9463Z" fill="#222631"/>
<path fill-rule="evenodd" clip-rule="evenodd" d="M11.9951 22C13.376 22 14.6703 21.7417 15.877 21.2256C17.0902 20.7093 18.1558 19.9926 19.0723 19.0762C19.9885 18.1599 20.7044 17.0949 21.2207 15.8818C21.7434 14.6751 22.0048 13.381 22.0049 12C22.0049 10.619 21.7434 9.32165 21.2207 8.1084C20.7044 6.90157 19.9887 5.84258 19.0723 4.93262C18.1558 4.01619 17.0902 3.30048 15.877 2.78418C14.6702 2.26149 13.3761 2 11.9951 2C10.6142 2.00005 9.32001 2.26148 8.11328 2.78418C6.90667 3.30044 5.845 4.01635 4.92871 4.93262C4.01229 5.84259 3.29228 6.90156 2.76953 8.1084C2.25336 9.32157 1.99512 10.6191 1.99512 12C1.99516 13.381 2.25328 14.6751 2.76953 15.8818C3.29228 17.0951 4.01231 18.1598 4.92871 19.0762C5.8451 19.9925 6.90651 20.7093 8.11328 21.2256C9.32001 21.7418 10.6142 22 11.9951 22ZM11.9951 20.0244C10.8917 20.0244 9.85233 19.8149 8.87793 19.3955C7.91004 18.9825 7.05789 18.4085 6.32227 17.6729C5.58663 16.9437 5.00932 16.0915 4.58984 15.1172C4.17685 14.1492 3.97075 13.1099 3.9707 12C3.9707 10.8901 4.17689 9.85079 4.58984 8.88281C5.00926 7.91492 5.58672 7.06278 6.32227 6.32715C7.05791 5.5915 7.91 5.01654 8.87793 4.60352C9.85233 4.18407 10.8917 3.97466 11.9951 3.97461C13.105 3.97461 14.1443 4.18412 15.1123 4.60352C16.0804 5.01655 16.9322 5.59143 17.668 6.32715C18.4101 7.06287 18.9883 7.91476 19.4014 8.88281C19.8143 9.85077 20.0205 10.8901 20.0205 12C20.0205 13.1099 19.8144 14.1492 19.4014 15.1172C18.9883 16.0916 18.4101 16.9437 17.668 17.6729C16.9323 18.4084 16.0802 18.9825 15.1123 19.3955C14.1443 19.8149 13.1051 20.0244 11.9951 20.0244Z" fill="#222631"/>
</svg>
