<svg width="24" height="24" viewBox="0 0 24 24" fill="none" xmlns="http://www.w3.org/2000/svg">
<path d="M11.9951 7.05371C12.1176 7.05371 12.2341 7.076 12.3438 7.12109C12.4534 7.16625 12.5665 7.2472 12.6826 7.36328L15.8867 10.4414C15.9642 10.5189 16.0261 10.6063 16.0713 10.7031C16.1164 10.7934 16.1387 10.8999 16.1387 11.0225C16.1387 11.2483 16.0578 11.4355 15.8965 11.584C15.7416 11.7259 15.551 11.7969 15.3252 11.7969C15.2156 11.7968 15.109 11.7746 15.0059 11.7295C14.9028 11.6844 14.8094 11.6165 14.7256 11.5264L13.3604 10.0742L12.8467 9.48633L12.9053 10.877V16.0566C12.9052 16.2953 12.8153 16.5049 12.6348 16.6855C12.4605 16.8598 12.2468 16.9473 11.9951 16.9473C11.75 16.9472 11.5371 16.8597 11.3564 16.6855C11.1823 16.5049 11.0948 16.2953 11.0947 16.0566V10.877L11.1533 9.47461L10.6309 10.0742L9.26562 11.5264C9.18821 11.6166 9.09401 11.6843 8.98438 11.7295C8.87482 11.7745 8.76483 11.7969 8.65527 11.7969C8.43613 11.7968 8.24947 11.7257 8.09473 11.584C7.93984 11.4355 7.8623 11.2483 7.8623 11.0225C7.86232 10.8999 7.88122 10.7934 7.91992 10.7031C7.9651 10.6063 8.0327 10.5188 8.12305 10.4414L11.3086 7.36328C11.431 7.24735 11.5467 7.16626 11.6562 7.12109C11.7658 7.07597 11.8791 7.05376 11.9951 7.05371Z" fill="#222631"/>
<path fill-rule="evenodd" clip-rule="evenodd" d="M11.9951 2C13.376 2 14.6703 2.25827 15.877 2.77441C17.0902 3.29071 18.1558 4.0074 19.0723 4.92383C19.9885 5.84013 20.7044 6.90508 21.2207 8.11816C21.7434 9.3249 22.0048 10.619 22.0049 12C22.0049 13.381 21.7434 14.6784 21.2207 15.8916C20.7044 17.0984 19.9887 18.1574 19.0723 19.0674C18.1558 19.9838 17.0902 20.6995 15.877 21.2158C14.6702 21.7385 13.3761 22 11.9951 22C10.6142 22 9.32001 21.7385 8.11328 21.2158C6.90667 20.6996 5.845 19.9836 4.92871 19.0674C4.01229 18.1574 3.29228 17.0984 2.76953 15.8916C2.25336 14.6784 1.99512 13.3809 1.99512 12C1.99516 10.619 2.25328 9.3249 2.76953 8.11816C3.29228 6.90491 4.01231 5.84023 4.92871 4.92383C5.8451 4.00745 6.90651 3.2907 8.11328 2.77441C9.32001 2.25817 10.6142 2.00005 11.9951 2ZM11.9951 3.97559C10.8917 3.97563 9.85233 4.18505 8.87793 4.60449C7.91004 5.01752 7.05789 5.59153 6.32227 6.32715C5.58663 7.05633 5.00932 7.90845 4.58984 8.88281C4.17685 9.85076 3.97075 10.8901 3.9707 12C3.9707 13.1099 4.17689 14.1492 4.58984 15.1172C5.00926 16.0851 5.58672 16.9372 6.32227 17.6729C7.05791 18.4085 7.91 18.9835 8.87793 19.3965C9.85233 19.8159 10.8917 20.0253 11.9951 20.0254C13.105 20.0254 14.1443 19.8159 15.1123 19.3965C16.0804 18.9834 16.9322 18.4086 17.668 17.6729C18.4101 16.9371 18.9883 16.0852 19.4014 15.1172C19.8143 14.1492 20.0205 13.1099 20.0205 12C20.0205 10.8901 19.8144 9.85076 19.4014 8.88281C18.9883 7.90841 18.4101 7.05635 17.668 6.32715C16.9323 5.59161 16.0802 5.01746 15.1123 4.60449C14.1443 4.18508 13.1051 3.97559 11.9951 3.97559Z" fill="#222631"/>
</svg>
