<svg width="24" height="24" viewBox="0 0 24 24" fill="none" xmlns="http://www.w3.org/2000/svg">
<path d="M12.8 23C11.4333 23 10.15 22.6875 8.95001 22.0625C7.75001 21.4375 6.76668 20.5667 6.00001 19.45L1.20001 12.4L1.67501 11.925C2.00835 11.575 2.42085 11.375 2.91251 11.325C3.40418 11.275 3.85001 11.3917 4.25001 11.675L7.00001 13.575V4C7.00001 3.71667 7.09585 3.47917 7.28751 3.2875C7.47918 3.09583 7.71668 3 8.00001 3C8.28335 3 8.52085 3.09583 8.71251 3.2875C8.90418 3.47917 9.00001 3.71667 9.00001 4V17.425L5.30001 14.85L7.67501 18.3C8.25835 19.15 9.00001 19.8125 9.90001 20.2875C10.8 20.7625 11.7667 21 12.8 21C14.5167 21 15.9792 20.3958 17.1875 19.1875C18.3958 17.9792 19 16.5167 19 14.8V5C19 4.71667 19.0958 4.47917 19.2875 4.2875C19.4792 4.09583 19.7167 4 20 4C20.2833 4 20.5208 4.09583 20.7125 4.2875C20.9042 4.47917 21 4.71667 21 5V14.8C21 17.0833 20.2042 19.0208 18.6125 20.6125C17.0208 22.2042 15.0833 23 12.8 23ZM11 12V2C11 1.71667 11.0958 1.47917 11.2875 1.2875C11.4792 1.09583 11.7167 1 12 1C12.2833 1 12.5208 1.09583 12.7125 1.2875C12.9042 1.47917 13 1.71667 13 2V12H11ZM15 12V3C15 2.71667 15.0958 2.47917 15.2875 2.2875C15.4792 2.09583 15.7167 2 16 2C16.2833 2 16.5208 2.09583 16.7125 2.2875C16.9042 2.47917 17 2.71667 17 3V12H15Z" fill="#222631"/>
</svg>
