<svg width="24" height="24" viewBox="0 0 24 24" fill="none" xmlns="http://www.w3.org/2000/svg">
<path d="M5.7959 16.5C6.26483 16.5 6.49956 16.4999 6.68848 16.5645C7.03934 16.6846 7.31542 16.9607 7.43555 17.3115C7.50015 17.5004 7.5 17.7352 7.5 18.2041V18.7959C7.5 19.2648 7.50015 19.4996 7.43555 19.6885C7.31542 20.0393 7.03934 20.3154 6.68848 20.4355C6.49956 20.5002 6.26483 20.5 5.7959 20.5H5.2041C4.73517 20.5 4.50044 20.5002 4.31152 20.4355C3.96066 20.3154 3.68458 20.0393 3.56445 19.6885C3.49985 19.4996 3.5 19.2648 3.5 18.7959V18.2041C3.5 17.7352 3.49985 17.5004 3.56445 17.3115C3.68458 16.9607 3.96066 16.6846 4.31152 16.5645C4.50044 16.4999 4.73517 16.5 5.2041 16.5H5.7959Z" fill="#222631"/>
<path d="M12.2959 16.5C12.7648 16.5 12.9996 16.4999 13.1885 16.5645C13.5393 16.6846 13.8154 16.9607 13.9355 17.3115C14.0001 17.5004 14 17.7352 14 18.2041V18.7959C14 19.2648 14.0001 19.4996 13.9355 19.6885C13.8154 20.0393 13.5393 20.3154 13.1885 20.4355C12.9996 20.5002 12.7648 20.5 12.2959 20.5H11.7041C11.2352 20.5 11.0004 20.5002 10.8115 20.4355C10.4607 20.3154 10.1846 20.0393 10.0645 19.6885C9.99985 19.4996 10 19.2648 10 18.7959V18.2041C10 17.7352 9.99985 17.5004 10.0645 17.3115C10.1846 16.9607 10.4607 16.6846 10.8115 16.5645C11.0004 16.4999 11.2352 16.5 11.7041 16.5H12.2959Z" fill="#222631"/>
<path d="M18.7959 16.5C19.2648 16.5 19.4996 16.4999 19.6885 16.5645C20.0393 16.6846 20.3154 16.9607 20.4355 17.3115C20.5002 17.5004 20.5 17.7352 20.5 18.2041V18.7959C20.5 19.2648 20.5002 19.4996 20.4355 19.6885C20.3154 20.0393 20.0393 20.3154 19.6885 20.4355C19.4996 20.5002 19.2648 20.5 18.7959 20.5H18.2041C17.7352 20.5 17.5004 20.5002 17.3115 20.4355C16.9607 20.3154 16.6846 20.0393 16.5645 19.6885C16.4999 19.4996 16.5 19.2648 16.5 18.7959V18.2041C16.5 17.7352 16.4999 17.5004 16.5645 17.3115C16.6846 16.9607 16.9607 16.6846 17.3115 16.5645C17.5004 16.4999 17.7352 16.5 18.2041 16.5H18.7959Z" fill="#222631"/>
<path d="M5.7959 10C6.26483 10 6.49956 9.99985 6.68848 10.0645C7.03934 10.1846 7.31542 10.4607 7.43555 10.8115C7.50015 11.0004 7.5 11.2352 7.5 11.7041V12.2959C7.5 12.7648 7.50015 12.9996 7.43555 13.1885C7.31542 13.5393 7.03934 13.8154 6.68848 13.9355C6.49956 14.0001 6.26483 14 5.7959 14H5.2041C4.73517 14 4.50044 14.0001 4.31152 13.9355C3.96066 13.8154 3.68458 13.5393 3.56445 13.1885C3.49985 12.9996 3.5 12.7648 3.5 12.2959V11.7041C3.5 11.2352 3.49985 11.0004 3.56445 10.8115C3.68458 10.4607 3.96066 10.1846 4.31152 10.0645C4.50044 9.99985 4.73517 10 5.2041 10H5.7959Z" fill="#222631"/>
<path d="M12.2959 10C12.7648 10 12.9996 9.99985 13.1885 10.0645C13.5393 10.1846 13.8154 10.4607 13.9355 10.8115C14.0001 11.0004 14 11.2352 14 11.7041V12.2959C14 12.7648 14.0001 12.9996 13.9355 13.1885C13.8154 13.5393 13.5393 13.8154 13.1885 13.9355C12.9996 14.0001 12.7648 14 12.2959 14H11.7041C11.2352 14 11.0004 14.0001 10.8115 13.9355C10.4607 13.8154 10.1846 13.5393 10.0645 13.1885C9.99985 12.9996 10 12.7648 10 12.2959V11.7041C10 11.2352 9.99985 11.0004 10.0645 10.8115C10.1846 10.4607 10.4607 10.1846 10.8115 10.0645C11.0004 9.99985 11.2352 10 11.7041 10H12.2959Z" fill="#222631"/>
<path d="M18.7959 10C19.2648 10 19.4996 9.99985 19.6885 10.0645C20.0393 10.1846 20.3154 10.4607 20.4355 10.8115C20.5002 11.0004 20.5 11.2352 20.5 11.7041V12.2959C20.5 12.7648 20.5002 12.9996 20.4355 13.1885C20.3154 13.5393 20.0393 13.8154 19.6885 13.9355C19.4996 14.0001 19.2648 14 18.7959 14H18.2041C17.7352 14 17.5004 14.0001 17.3115 13.9355C16.9607 13.8154 16.6846 13.5393 16.5645 13.1885C16.4999 12.9996 16.5 12.7648 16.5 12.2959V11.7041C16.5 11.2352 16.4999 11.0004 16.5645 10.8115C16.6846 10.4607 16.9607 10.1846 17.3115 10.0645C17.5004 9.99985 17.7352 10 18.2041 10H18.7959Z" fill="#222631"/>
<path d="M5.7959 3.5C6.26483 3.5 6.49956 3.49985 6.68848 3.56445C7.03934 3.68458 7.31542 3.96066 7.43555 4.31152C7.50015 4.50044 7.5 4.73517 7.5 5.2041V5.7959C7.5 6.26483 7.50015 6.49956 7.43555 6.68848C7.31542 7.03934 7.03934 7.31542 6.68848 7.43555C6.49956 7.50015 6.26483 7.5 5.7959 7.5H5.2041C4.73517 7.5 4.50044 7.50015 4.31152 7.43555C3.96066 7.31542 3.68458 7.03934 3.56445 6.68848C3.49985 6.49956 3.5 6.26483 3.5 5.7959V5.2041C3.5 4.73517 3.49985 4.50044 3.56445 4.31152C3.68458 3.96066 3.96066 3.68458 4.31152 3.56445C4.50044 3.49985 4.73517 3.5 5.2041 3.5H5.7959Z" fill="#222631"/>
<path d="M12.2959 3.5C12.7648 3.5 12.9996 3.49985 13.1885 3.56445C13.5393 3.68458 13.8154 3.96066 13.9355 4.31152C14.0001 4.50044 14 4.73517 14 5.2041V5.7959C14 6.26483 14.0001 6.49956 13.9355 6.68848C13.8154 7.03934 13.5393 7.31542 13.1885 7.43555C12.9996 7.50015 12.7648 7.5 12.2959 7.5H11.7041C11.2352 7.5 11.0004 7.50015 10.8115 7.43555C10.4607 7.31542 10.1846 7.03934 10.0645 6.68848C9.99985 6.49956 10 6.26483 10 5.7959V5.2041C10 4.73517 9.99985 4.50044 10.0645 4.31152C10.1846 3.96066 10.4607 3.68458 10.8115 3.56445C11.0004 3.49985 11.2352 3.5 11.7041 3.5H12.2959Z" fill="#222631"/>
<path d="M18.7959 3.5C19.2648 3.5 19.4996 3.49985 19.6885 3.56445C20.0393 3.68458 20.3154 3.96066 20.4355 4.31152C20.5002 4.50044 20.5 4.73517 20.5 5.2041V5.7959C20.5 6.26483 20.5002 6.49956 20.4355 6.68848C20.3154 7.03934 20.0393 7.31542 19.6885 7.43555C19.4996 7.50015 19.2648 7.5 18.7959 7.5H18.2041C17.7352 7.5 17.5004 7.50015 17.3115 7.43555C16.9607 7.31542 16.6846 7.03934 16.5645 6.68848C16.4999 6.49956 16.5 6.26483 16.5 5.7959V5.2041C16.5 4.73517 16.4999 4.50044 16.5645 4.31152C16.6846 3.96066 16.9607 3.68458 17.3115 3.56445C17.5004 3.49985 17.7352 3.5 18.2041 3.5H18.7959Z" fill="#222631"/>
</svg>
