<svg viewBox="0 0 58 66" fill="none" xmlns="http://www.w3.org/2000/svg">
  <g filter="url(#filter0_d_12774_19384)">
    <path
      d="M18.3626 14.3838V9.54711C18.3626 7.8304 18.8776 6.49435 19.9076 5.53897C20.9526 4.56865 22.4006 4.0835 24.2517 4.0835H32.7606C34.6116 4.0835 36.0596 4.56865 37.1046 5.53897C38.1495 6.49435 38.672 7.8304 38.672 9.54711V14.3838H34.5295V9.74864C34.5295 9.18138 34.3429 8.72608 33.9697 8.38273C33.5965 8.02446 33.0964 7.84533 32.4695 7.84533H24.5428C23.9307 7.84533 23.4381 8.02446 23.0649 8.38273C22.6917 8.72608 22.5051 9.18138 22.5051 9.74864V14.3838H18.3626ZM18.2506 54.6219C16.519 54.6219 15.1307 54.1368 14.0858 53.1665C13.0557 52.1961 12.5034 50.8452 12.4288 49.1135L10.8613 16.3766H46.1957L44.6507 49.0911C44.576 50.8228 44.0162 52.1738 42.9713 53.1441C41.9263 54.1293 40.5455 54.6219 38.8288 54.6219H18.2506Z"
      fill="#626A80"
    />
    <path
      d="M18.3626 14.3838V9.54711C18.3626 7.8304 18.8776 6.49435 19.9076 5.53897C20.9526 4.56865 22.4006 4.0835 24.2517 4.0835H32.7606C34.6116 4.0835 36.0596 4.56865 37.1046 5.53897C38.1495 6.49435 38.672 7.8304 38.672 9.54711V14.3838H34.5295V9.74864C34.5295 9.18138 34.3429 8.72608 33.9697 8.38273C33.5965 8.02446 33.0964 7.84533 32.4695 7.84533H24.5428C23.9307 7.84533 23.4381 8.02446 23.0649 8.38273C22.6917 8.72608 22.5051 9.18138 22.5051 9.74864V14.3838H18.3626ZM18.2506 54.6219C16.519 54.6219 15.1307 54.1368 14.0858 53.1665C13.0557 52.1961 12.5034 50.8452 12.4288 49.1135L10.8613 16.3766H46.1957L44.6507 49.0911C44.576 50.8228 44.0162 52.1738 42.9713 53.1441C41.9263 54.1293 40.5455 54.6219 38.8288 54.6219H18.2506Z"
      fill="#F6F8F9"
      fill-opacity="0.9"
    />
    <path
      d="M18.3626 14.3838V9.54711C18.3626 7.8304 18.8776 6.49435 19.9076 5.53897C20.9526 4.56865 22.4006 4.0835 24.2517 4.0835H32.7606C34.6116 4.0835 36.0596 4.56865 37.1046 5.53897C38.1495 6.49435 38.672 7.8304 38.672 9.54711V14.3838H34.5295V9.74864C34.5295 9.18138 34.3429 8.72608 33.9697 8.38273C33.5965 8.02446 33.0964 7.84533 32.4695 7.84533H24.5428C23.9307 7.84533 23.4381 8.02446 23.0649 8.38273C22.6917 8.72608 22.5051 9.18138 22.5051 9.74864V14.3838H18.3626ZM18.2506 54.6219C16.519 54.6219 15.1307 54.1368 14.0858 53.1665C13.0557 52.1961 12.5034 50.8452 12.4288 49.1135L10.8613 16.3766H46.1957L44.6507 49.0911C44.576 50.8228 44.0162 52.1738 42.9713 53.1441C41.9263 54.1293 40.5455 54.6219 38.8288 54.6219H18.2506Z"
      stroke="#6D778C"
      stroke-width="1.09597"
    />
    <path
      d="M18.3626 14.3838V9.54711C18.3626 7.8304 18.8776 6.49435 19.9076 5.53897C20.9526 4.56865 22.4006 4.0835 24.2517 4.0835H32.7606C34.6116 4.0835 36.0596 4.56865 37.1046 5.53897C38.1495 6.49435 38.672 7.8304 38.672 9.54711V14.3838H34.5295V9.74864C34.5295 9.18138 34.3429 8.72608 33.9697 8.38273C33.5965 8.02446 33.0964 7.84533 32.4695 7.84533H24.5428C23.9307 7.84533 23.4381 8.02446 23.0649 8.38273C22.6917 8.72608 22.5051 9.18138 22.5051 9.74864V14.3838H18.3626ZM18.2506 54.6219C16.519 54.6219 15.1307 54.1368 14.0858 53.1665C13.0557 52.1961 12.5034 50.8452 12.4288 49.1135L10.8613 16.3766H46.1957L44.6507 49.0911C44.576 50.8228 44.0162 52.1738 42.9713 53.1441C41.9263 54.1293 40.5455 54.6219 38.8288 54.6219H18.2506Z"
      stroke="#F6F8F9"
      stroke-opacity="0.8"
      stroke-width="1.09597"
    />
    <path
      d="M7.63617 16.2645C8.01341 16.6527 8.47045 16.8467 9.00729 16.8467H48.0733C48.6101 16.8467 49.0599 16.6527 49.4226 16.2645C49.7998 15.8764 49.9885 15.4062 49.9885 14.8539C49.9885 14.3015 49.7998 13.8388 49.4226 13.4656C49.0599 13.0924 48.6101 12.9058 48.0733 12.9058H9.00729C8.47045 12.9058 8.01341 13.0998 7.63617 13.4879C7.25893 13.8611 7.07031 14.3164 7.07031 14.8539C7.07031 15.4062 7.25893 15.8764 7.63617 16.2645Z"
      fill="#626A80"
    />
    <path
      d="M7.63617 16.2645C8.01341 16.6527 8.47045 16.8467 9.00729 16.8467H48.0733C48.6101 16.8467 49.0599 16.6527 49.4226 16.2645C49.7998 15.8764 49.9885 15.4062 49.9885 14.8539C49.9885 14.3015 49.7998 13.8388 49.4226 13.4656C49.0599 13.0924 48.6101 12.9058 48.0733 12.9058H9.00729C8.47045 12.9058 8.01341 13.0998 7.63617 13.4879C7.25893 13.8611 7.07031 14.3164 7.07031 14.8539C7.07031 15.4062 7.25893 15.8764 7.63617 16.2645Z"
      fill="#F6F8F9"
      fill-opacity="0.65"
    />
    <path
      d="M22.8419 48.1618C22.5433 48.4454 22.1552 48.5873 21.6775 48.5873C21.1849 48.5873 20.7893 48.4529 20.4908 48.1842C20.2071 47.9006 20.0504 47.5199 20.0205 47.0422L19.3488 22.7023C19.3338 22.2395 19.4682 21.8663 19.7518 21.5827C20.0504 21.299 20.446 21.1572 20.9386 21.1572C21.4014 21.1572 21.782 21.299 22.0806 21.5827C22.3941 21.8514 22.5508 22.2171 22.5508 22.6799L23.2674 47.0422C23.2823 47.505 23.1405 47.8782 22.8419 48.1618Z"
      fill="#626A80"
    />
    <path
      d="M22.8419 48.1618C22.5433 48.4454 22.1552 48.5873 21.6775 48.5873C21.1849 48.5873 20.7893 48.4529 20.4908 48.1842C20.2071 47.9006 20.0504 47.5199 20.0205 47.0422L19.3488 22.7023C19.3338 22.2395 19.4682 21.8663 19.7518 21.5827C20.0504 21.299 20.446 21.1572 20.9386 21.1572C21.4014 21.1572 21.782 21.299 22.0806 21.5827C22.3941 21.8514 22.5508 22.2171 22.5508 22.6799L23.2674 47.0422C23.2823 47.505 23.1405 47.8782 22.8419 48.1618Z"
      fill="#F6F8F9"
      fill-opacity="0.975"
    />
    <path
      d="M29.7162 48.1842C29.4176 48.4529 29.0221 48.5873 28.5294 48.5873C28.0517 48.5873 27.6562 48.4529 27.3427 48.1842C27.0441 47.9006 26.8948 47.5274 26.8948 47.0646V22.7023C26.8948 22.2395 27.0441 21.8663 27.3427 21.5827C27.6562 21.299 28.0517 21.1572 28.5294 21.1572C29.0221 21.1572 29.4176 21.299 29.7162 21.5827C30.0297 21.8663 30.1864 22.2395 30.1864 22.7023V47.0646C30.1864 47.5274 30.0297 47.9006 29.7162 48.1842Z"
      fill="#626A80"
    />
    <path
      d="M29.7162 48.1842C29.4176 48.4529 29.0221 48.5873 28.5294 48.5873C28.0517 48.5873 27.6562 48.4529 27.3427 48.1842C27.0441 47.9006 26.8948 47.5274 26.8948 47.0646V22.7023C26.8948 22.2395 27.0441 21.8663 27.3427 21.5827C27.6562 21.299 28.0517 21.1572 28.5294 21.1572C29.0221 21.1572 29.4176 21.299 29.7162 21.5827C30.0297 21.8663 30.1864 22.2395 30.1864 22.7023V47.0646C30.1864 47.5274 30.0297 47.9006 29.7162 48.1842Z"
      fill="#F6F8F9"
      fill-opacity="0.975"
    />
    <path
      d="M36.5681 48.1842C36.2845 48.4529 35.8964 48.5873 35.4037 48.5873C34.9111 48.5873 34.5155 48.4529 34.217 48.1842C33.9333 47.9006 33.799 47.5199 33.8139 47.0422L34.5081 22.7023C34.523 22.2246 34.6797 21.8514 34.9783 21.5827C35.2918 21.299 35.6724 21.1572 36.1203 21.1572C36.6129 21.1572 37.001 21.299 37.2847 21.5827C37.5832 21.8663 37.725 22.2395 37.7101 22.7023L37.0383 47.0422C37.0234 47.5348 36.8667 47.9155 36.5681 48.1842Z"
      fill="#626A80"
    />
    <path
      d="M36.5681 48.1842C36.2845 48.4529 35.8964 48.5873 35.4037 48.5873C34.9111 48.5873 34.5155 48.4529 34.217 48.1842C33.9333 47.9006 33.799 47.5199 33.8139 47.0422L34.5081 22.7023C34.523 22.2246 34.6797 21.8514 34.9783 21.5827C35.2918 21.299 35.6724 21.1572 36.1203 21.1572C36.6129 21.1572 37.001 21.299 37.2847 21.5827C37.5832 21.8663 37.725 22.2395 37.7101 22.7023L37.0383 47.0422C37.0234 47.5348 36.8667 47.9155 36.5681 48.1842Z"
      fill="#F6F8F9"
      fill-opacity="0.975"
    />
    <path
      d="M22.8419 48.1618C22.5433 48.4454 22.1552 48.5873 21.6775 48.5873C21.1849 48.5873 20.7893 48.4529 20.4908 48.1842C20.2071 47.9006 20.0504 47.5199 20.0205 47.0422L19.3488 22.7023C19.3338 22.2395 19.4682 21.8663 19.7518 21.5827C20.0504 21.299 20.446 21.1572 20.9386 21.1572C21.4014 21.1572 21.782 21.299 22.0806 21.5827C22.3941 21.8514 22.5508 22.2171 22.5508 22.6799L23.2674 47.0422C23.2823 47.505 23.1405 47.8782 22.8419 48.1618Z"
      stroke="#6D778C"
      stroke-width="0.919204"
    />
    <path
      d="M22.8419 48.1618C22.5433 48.4454 22.1552 48.5873 21.6775 48.5873C21.1849 48.5873 20.7893 48.4529 20.4908 48.1842C20.2071 47.9006 20.0504 47.5199 20.0205 47.0422L19.3488 22.7023C19.3338 22.2395 19.4682 21.8663 19.7518 21.5827C20.0504 21.299 20.446 21.1572 20.9386 21.1572C21.4014 21.1572 21.782 21.299 22.0806 21.5827C22.3941 21.8514 22.5508 22.2171 22.5508 22.6799L23.2674 47.0422C23.2823 47.505 23.1405 47.8782 22.8419 48.1618Z"
      stroke="#F6F8F9"
      stroke-opacity="0.8"
      stroke-width="0.919204"
    />
    <path
      d="M29.7162 48.1842C29.4176 48.4529 29.0221 48.5873 28.5294 48.5873C28.0517 48.5873 27.6562 48.4529 27.3427 48.1842C27.0441 47.9006 26.8948 47.5274 26.8948 47.0646V22.7023C26.8948 22.2395 27.0441 21.8663 27.3427 21.5827C27.6562 21.299 28.0517 21.1572 28.5294 21.1572C29.0221 21.1572 29.4176 21.299 29.7162 21.5827C30.0297 21.8663 30.1864 22.2395 30.1864 22.7023V47.0646C30.1864 47.5274 30.0297 47.9006 29.7162 48.1842Z"
      stroke="#6D778C"
      stroke-width="0.919204"
    />
    <path
      d="M29.7162 48.1842C29.4176 48.4529 29.0221 48.5873 28.5294 48.5873C28.0517 48.5873 27.6562 48.4529 27.3427 48.1842C27.0441 47.9006 26.8948 47.5274 26.8948 47.0646V22.7023C26.8948 22.2395 27.0441 21.8663 27.3427 21.5827C27.6562 21.299 28.0517 21.1572 28.5294 21.1572C29.0221 21.1572 29.4176 21.299 29.7162 21.5827C30.0297 21.8663 30.1864 22.2395 30.1864 22.7023V47.0646C30.1864 47.5274 30.0297 47.9006 29.7162 48.1842Z"
      stroke="#F6F8F9"
      stroke-opacity="0.8"
      stroke-width="0.919204"
    />
    <path
      d="M36.5681 48.1842C36.2845 48.4529 35.8964 48.5873 35.4037 48.5873C34.9111 48.5873 34.5155 48.4529 34.217 48.1842C33.9333 47.9006 33.799 47.5199 33.8139 47.0422L34.5081 22.7023C34.523 22.2246 34.6797 21.8514 34.9783 21.5827C35.2918 21.299 35.6724 21.1572 36.1203 21.1572C36.6129 21.1572 37.001 21.299 37.2847 21.5827C37.5832 21.8663 37.725 22.2395 37.7101 22.7023L37.0383 47.0422C37.0234 47.5348 36.8667 47.9155 36.5681 48.1842Z"
      stroke="#6D778C"
      stroke-width="0.919204"
    />
    <path
      d="M36.5681 48.1842C36.2845 48.4529 35.8964 48.5873 35.4037 48.5873C34.9111 48.5873 34.5155 48.4529 34.217 48.1842C33.9333 47.9006 33.799 47.5199 33.8139 47.0422L34.5081 22.7023C34.523 22.2246 34.6797 21.8514 34.9783 21.5827C35.2918 21.299 35.6724 21.1572 36.1203 21.1572C36.6129 21.1572 37.001 21.299 37.2847 21.5827C37.5832 21.8663 37.725 22.2395 37.7101 22.7023L37.0383 47.0422C37.0234 47.5348 36.8667 47.9155 36.5681 48.1842Z"
      stroke="#F6F8F9"
      stroke-opacity="0.8"
      stroke-width="0.919204"
    />
  </g>
  <defs>
    <filter
      id="filter0_d_12774_19384"
      x="-6.82471"
      y="-2.46606"
      width="70.708"
      height="70.708"
      filterUnits="userSpaceOnUse"
      color-interpolation-filters="sRGB"
    >
      <feFlood flood-opacity="0" result="BackgroundImageFix" />
      <feColorMatrix
        in="SourceAlpha"
        type="matrix"
        values="0 0 0 0 0 0 0 0 0 0 0 0 0 0 0 0 0 0 127 0"
        result="hardAlpha"
      />
      <feOffset dy="3.5354" />
      <feGaussianBlur stdDeviation="3.5354" />
      <feComposite in2="hardAlpha" operator="out" />
      <feColorMatrix
        type="matrix"
        values="0 0 0 0 0.0941176 0 0 0 0 0.105882 0 0 0 0 0.141176 0 0 0 0.05 0"
      />
      <feBlend
        mode="normal"
        in2="BackgroundImageFix"
        result="effect1_dropShadow_12774_19384"
      />
      <feBlend
        mode="normal"
        in="SourceGraphic"
        in2="effect1_dropShadow_12774_19384"
        result="shape"
      />
    </filter>
  </defs>
</svg>
