<svg width="24" height="24" viewBox="0 0 24 24" fill="none" xmlns="http://www.w3.org/2000/svg">
<path fill-rule="evenodd" clip-rule="evenodd" d="M1.90048 15.1447C1.65502 15.1447 1.43941 15.0485 1.26786 14.877C1.09631 14.7054 1.00018 14.4898 1.00018 14.2444C1.00018 13.9989 1.09631 13.7833 1.26786 13.6118C1.43941 13.4402 1.65501 13.3441 1.90048 13.3441C2.14596 13.3441 2.36156 13.4402 2.53311 13.6118C2.70466 13.7833 2.80079 13.9989 2.80079 14.2444C2.80079 14.4898 2.70466 14.7054 2.53311 14.877C2.36156 15.0485 2.14595 15.1447 1.90048 15.1447ZM1.90048 10.6559C1.65502 10.6559 1.43941 10.5598 1.26786 10.3882C1.09631 10.2167 1.00018 10.0011 1.00018 9.75562C1.00018 9.51015 1.09631 9.29455 1.26786 9.123C1.43941 8.95145 1.65501 8.85532 1.90048 8.85532C2.14596 8.85532 2.36156 8.95145 2.53311 9.123C2.70466 9.29455 2.80079 9.51015 2.80079 9.75562C2.80079 10.0011 2.70466 10.2167 2.53311 10.3882C2.36156 10.5598 2.14595 10.6559 1.90048 10.6559ZM5.26705 20.1945C4.86367 20.1945 4.50947 20.0544 4.22764 19.7725C3.9458 19.4907 3.80566 19.1365 3.80566 18.7331C3.80566 18.3298 3.9458 17.9756 4.22764 17.6937C4.50948 17.4119 4.86367 17.2717 5.26705 17.2717C5.67043 17.2717 6.02462 17.4119 6.30647 17.6937C6.5883 17.9756 6.72845 18.3298 6.72845 18.7331C6.72845 19.1365 6.5883 19.4907 6.30647 19.7725C6.02463 20.0544 5.67043 20.1945 5.26705 20.1945ZM5.26705 15.7058C4.86367 15.7058 4.50948 15.5656 4.22764 15.2838C3.9458 15.002 3.80566 14.6478 3.80566 14.2444C3.80566 13.841 3.9458 13.4868 4.22764 13.205C4.50948 12.9231 4.86367 12.783 5.26705 12.783C5.67043 12.783 6.02463 12.9231 6.30647 13.205C6.5883 13.4868 6.72845 13.841 6.72845 14.2444C6.72845 14.6478 6.5883 15.002 6.30647 15.2838C6.02463 15.5656 5.67043 15.7058 5.26705 15.7058ZM5.26705 11.217C4.86367 11.217 4.50948 11.0769 4.22764 10.795C3.9458 10.5132 3.80566 10.159 3.80566 9.75562C3.80566 9.35225 3.9458 8.99805 4.22764 8.71621C4.50948 8.43437 4.86367 8.29423 5.26705 8.29423C5.67043 8.29423 6.02463 8.43437 6.30647 8.71621C6.5883 8.99805 6.72845 9.35225 6.72845 9.75562C6.72845 10.159 6.5883 10.5132 6.30647 10.795C6.02462 11.0769 5.67043 11.217 5.26705 11.217ZM5.26705 6.72826C4.86367 6.72826 4.50948 6.58812 4.22764 6.30628C3.9458 6.02444 3.80566 5.67024 3.80566 5.26687C3.80566 4.86349 3.9458 4.50929 4.22764 4.22745C4.50948 3.94561 4.86367 3.80547 5.26705 3.80547C5.67043 3.80547 6.02463 3.94561 6.30647 4.22745C6.5883 4.50929 6.72845 4.86349 6.72845 5.26687C6.72845 5.67024 6.5883 6.02444 6.30647 6.30628C6.02463 6.58812 5.67043 6.72826 5.26705 6.72826ZM9.75581 16.2669C9.19929 16.2669 8.71527 16.0682 8.32362 15.6766C7.93198 15.2849 7.73332 14.8009 7.73332 14.2444C7.73332 13.6879 7.93198 13.2038 8.32362 12.8122C8.71526 12.4206 9.19929 12.2219 9.75581 12.2219C10.3123 12.2219 10.7963 12.4206 11.188 12.8122C11.5796 13.2038 11.7783 13.6879 11.7783 14.2444C11.7783 14.8009 11.5796 15.2849 11.188 15.6766C10.7963 16.0682 10.3123 16.2669 9.75581 16.2669ZM9.75581 11.7781C9.19929 11.7781 8.71526 11.5794 8.32362 11.1878C7.93198 10.7962 7.73332 10.3121 7.73332 9.75562C7.73332 9.19911 7.93198 8.71508 8.32362 8.32344C8.71527 7.9318 9.19929 7.73313 9.75581 7.73313C10.3123 7.73313 10.7963 7.9318 11.188 8.32344C11.5796 8.71508 11.7783 9.19911 11.7783 9.75562C11.7783 10.3121 11.5796 10.7962 11.188 11.1878C10.7963 11.5794 10.3123 11.7781 9.75581 11.7781ZM9.75581 20.1945C9.35243 20.1945 8.99823 20.0544 8.71639 19.7725C8.43455 19.4907 8.29441 19.1365 8.29441 18.7331C8.29441 18.3298 8.43455 17.9756 8.71639 17.6937C8.99823 17.4119 9.35243 17.2717 9.75581 17.2717C10.1592 17.2717 10.5134 17.4119 10.7952 17.6937C11.0771 17.9756 11.2172 18.3298 11.2172 18.7331C11.2172 19.1365 11.0771 19.4907 10.7952 19.7725C10.5134 20.0544 10.1592 20.1945 9.75581 20.1945ZM9.75581 6.72826C9.35243 6.72826 8.99823 6.58812 8.71639 6.30628C8.43455 6.02444 8.29441 5.67024 8.29441 5.26687C8.29441 4.86349 8.43455 4.50929 8.71639 4.22745C8.99823 3.94561 9.35243 3.80547 9.75581 3.80547C10.1592 3.80547 10.5134 3.94561 10.7952 4.22745C11.0771 4.50929 11.2172 4.86349 11.2172 5.26687C11.2172 5.67024 11.0771 6.02444 10.7952 6.30628C10.5134 6.58812 10.1592 6.72826 9.75581 6.72826ZM9.75581 23C9.51034 23 9.29474 22.9039 9.12319 22.7323C8.95164 22.5608 8.8555 22.3452 8.8555 22.0997C8.8555 21.8542 8.95164 21.6386 9.12319 21.4671C9.29474 21.2955 9.51034 21.1994 9.75581 21.1994C10.0013 21.1994 10.2169 21.2955 10.3884 21.4671C10.56 21.6386 10.6561 21.8542 10.6561 22.0997C10.6561 22.3452 10.56 22.5608 10.3884 22.7323C10.2169 22.9039 10.0013 23 9.75581 23ZM9.75581 2.8006C9.51034 2.8006 9.29473 2.70447 9.12319 2.53292C8.95164 2.36137 8.8555 2.14577 8.8555 1.9003C8.8555 1.65483 8.95164 1.43923 9.12319 1.26768C9.29473 1.09613 9.51034 1 9.75581 1C10.0013 1 10.2169 1.09613 10.3884 1.26768C10.56 1.43923 10.6561 1.65483 10.6561 1.9003C10.6561 2.14577 10.56 2.36137 10.3884 2.53292C10.2169 2.70447 10.0013 2.8006 9.75581 2.8006ZM14.2446 16.2669C13.688 16.2669 13.204 16.0682 12.8124 15.6766C12.4207 15.2849 12.2221 14.8009 12.2221 14.2444C12.2221 13.6879 12.4207 13.2038 12.8124 12.8122C13.204 12.4206 13.688 12.2219 14.2446 12.2219C14.8011 12.2219 15.2851 12.4206 15.6767 12.8122C16.0684 13.2038 16.2671 13.6879 16.2671 14.2444C16.2671 14.8009 16.0684 15.2849 15.6767 15.6766C15.2851 16.0682 14.8011 16.2669 14.2446 16.2669ZM14.2446 11.7781C13.688 11.7781 13.204 11.5794 12.8124 11.1878C12.4207 10.7962 12.2221 10.3121 12.2221 9.75562C12.2221 9.19911 12.4207 8.71508 12.8124 8.32344C13.204 7.9318 13.688 7.73313 14.2446 7.73313C14.8011 7.73313 15.2851 7.9318 15.6767 8.32344C16.0684 8.71508 16.2671 9.19911 16.2671 9.75562C16.2671 10.3121 16.0684 10.7962 15.6767 11.1878C15.2851 11.5794 14.8011 11.7781 14.2446 11.7781ZM14.2446 20.1945C13.8412 20.1945 13.487 20.0544 13.2051 19.7725C12.9233 19.4907 12.7832 19.1365 12.7832 18.7331C12.7832 18.3298 12.9233 17.9756 13.2051 17.6937C13.487 17.4119 13.8412 17.2717 14.2446 17.2717C14.6479 17.2717 15.0021 17.4119 15.284 17.6937C15.5658 17.9756 15.706 18.3298 15.706 18.7331C15.706 19.1365 15.5658 19.4907 15.284 19.7725C15.0021 20.0544 14.6479 20.1945 14.2446 20.1945ZM14.2446 6.72826C13.8412 6.72826 13.487 6.58812 13.2051 6.30628C12.9233 6.02444 12.7832 5.67024 12.7832 5.26687C12.7832 4.86349 12.9233 4.50929 13.2051 4.22745C13.487 3.94561 13.8412 3.80547 14.2446 3.80547C14.6479 3.80547 15.0021 3.94561 15.284 4.22745C15.5658 4.50929 15.706 4.86349 15.706 5.26687C15.706 5.67024 15.5658 6.02444 15.284 6.30628C15.0021 6.58812 14.6479 6.72826 14.2446 6.72826ZM14.2446 23C13.9991 23 13.7835 22.9039 13.6119 22.7323C13.4404 22.5608 13.3443 22.3452 13.3443 22.0997C13.3443 21.8542 13.4404 21.6386 13.6119 21.4671C13.7835 21.2955 13.9991 21.1994 14.2446 21.1994C14.49 21.1994 14.7056 21.2955 14.8772 21.4671C15.0487 21.6386 15.1449 21.8542 15.1449 22.0997C15.1449 22.3452 15.0487 22.5608 14.8772 22.7323C14.7056 22.9039 14.49 23 14.2446 23ZM14.2446 2.8006C13.9991 2.8006 13.7835 2.70447 13.6119 2.53292C13.4404 2.36137 13.3443 2.14577 13.3443 1.9003C13.3443 1.65483 13.4404 1.43923 13.6119 1.26768C13.7835 1.09613 13.9991 1 14.2446 1C14.49 1 14.7056 1.09613 14.8772 1.26768C15.0487 1.43923 15.1449 1.65483 15.1449 1.9003C15.1449 2.14577 15.0487 2.36137 14.8772 2.53292C14.7056 2.70447 14.49 2.8006 14.2446 2.8006ZM18.7333 20.1945C18.3299 20.1945 17.9757 20.0544 17.6939 19.7725C17.4121 19.4907 17.2719 19.1365 17.2719 18.7331C17.2719 18.3298 17.4121 17.9756 17.6939 17.6937C17.9757 17.4119 18.3299 17.2717 18.7333 17.2717C19.1367 17.2717 19.4909 17.4119 19.7727 17.6937C20.0546 17.9756 20.1947 18.3298 20.1947 18.7331C20.1947 19.1365 20.0546 19.4907 19.7727 19.7725C19.4909 20.0544 19.1367 20.1945 18.7333 20.1945ZM18.7333 15.7058C18.3299 15.7058 17.9757 15.5656 17.6939 15.2838C17.4121 15.002 17.2719 14.6478 17.2719 14.2444C17.2719 13.841 17.4121 13.4868 17.6939 13.205C17.9757 12.9231 18.3299 12.783 18.7333 12.783C19.1367 12.783 19.4909 12.9231 19.7727 13.205C20.0546 13.4868 20.1947 13.841 20.1947 14.2444C20.1947 14.6478 20.0546 15.002 19.7727 15.2838C19.4909 15.5656 19.1367 15.7058 18.7333 15.7058ZM18.7333 11.217C18.3299 11.217 17.9757 11.0769 17.6939 10.795C17.4121 10.5132 17.2719 10.159 17.2719 9.75562C17.2719 9.35225 17.4121 8.99805 17.6939 8.71621C17.9757 8.43437 18.3299 8.29423 18.7333 8.29423C19.1367 8.29423 19.4909 8.43437 19.7727 8.71621C20.0546 8.99805 20.1947 9.35225 20.1947 9.75562C20.1947 10.159 20.0546 10.5132 19.7727 10.795C19.4909 11.0769 19.1367 11.217 18.7333 11.217ZM18.7333 6.72826C18.3299 6.72826 17.9757 6.58812 17.6939 6.30628C17.4121 6.02444 17.2719 5.67024 17.2719 5.26687C17.2719 4.86349 17.4121 4.50929 17.6939 4.22745C17.9757 3.94561 18.3299 3.80547 18.7333 3.80547C19.1367 3.80547 19.4909 3.94561 19.7727 4.22745C20.0546 4.50929 20.1947 4.86349 20.1947 5.26687C20.1947 5.67025 20.0546 6.02444 19.7727 6.30628C19.4909 6.58812 19.1367 6.72826 18.7333 6.72826ZM22.0999 15.1447C21.8544 15.1447 21.6388 15.0485 21.4673 14.877C21.2957 14.7054 21.1996 14.4898 21.1996 14.2444C21.1996 13.9989 21.2957 13.7833 21.4673 13.6118C21.6388 13.4402 21.8544 13.3441 22.0999 13.3441C22.3454 13.3441 22.561 13.4402 22.7325 13.6118C22.9041 13.7833 23.0002 13.9989 23.0002 14.2444C23.0002 14.4898 22.9041 14.7054 22.7325 14.877C22.561 15.0485 22.3453 15.1447 22.0999 15.1447ZM22.0999 10.6559C21.8544 10.6559 21.6388 10.5598 21.4673 10.3882C21.2957 10.2167 21.1996 10.0011 21.1996 9.75562C21.1996 9.51016 21.2957 9.29455 21.4673 9.123C21.6388 8.95145 21.8544 8.85532 22.0999 8.85532C22.3454 8.85532 22.561 8.95145 22.7325 9.123C22.9041 9.29455 23.0002 9.51016 23.0002 9.75562C23.0002 10.0011 22.9041 10.2167 22.7325 10.3882C22.561 10.5598 22.3453 10.6559 22.0999 10.6559Z" fill="#222631"/>
</svg>
