<svg width="24" height="24" viewBox="0 0 24 24" fill="none" xmlns="http://www.w3.org/2000/svg">
<path d="M15.6259 1.87573C16.5271 1.87574 17.2093 2.11081 17.6721 2.57969C18.1347 3.04853 18.3658 3.7364 18.3659 4.64344V20.5735C18.3658 20.9814 18.2598 21.3014 18.0467 21.5328C17.8397 21.7703 17.5559 21.8889 17.1966 21.8889C16.9471 21.8889 16.719 21.8125 16.5121 21.6604C16.305 21.5143 16.0032 21.2495 15.6074 20.8658L12.0728 17.3766C12.0241 17.3218 11.9722 17.3218 11.9174 17.3766L8.3921 20.8658C7.99629 21.2495 7.69129 21.5143 7.47816 21.6604C7.27115 21.8126 7.04551 21.8889 6.80196 21.8889C6.43678 21.8888 6.14733 21.7702 5.93428 21.5328C5.72726 21.3014 5.6244 20.9815 5.62439 20.5735V4.64344C5.62442 3.73636 5.85554 3.04853 6.31817 2.57969C6.78096 2.1108 7.46312 1.87573 8.36435 1.87573H15.6259Z" fill="#222631"/>
</svg>
