<svg width="24" height="24" viewBox="0 0 24 24" fill="none" xmlns="http://www.w3.org/2000/svg">
<path fill-rule="evenodd" clip-rule="evenodd" d="M17.0234 1.74219C18.0366 1.74222 18.8012 2.0067 19.3174 2.53516C19.8336 3.05763 20.0918 3.82638 20.0918 4.83984V15.3203C20.0918 15.7987 20.0103 16.1737 19.8467 16.4443C19.683 16.715 19.4848 16.9544 19.252 17.1621C18.8556 17.5396 18.6101 17.9483 18.5156 18.3887C18.4275 18.823 18.4652 19.2263 18.6289 19.5977C18.7925 19.969 19.0688 20.2402 19.459 20.4102C19.6352 20.4857 19.7862 20.599 19.9121 20.75C20.038 20.9074 20.1016 21.0901 20.1016 21.2979C20.1015 21.5431 20.0165 21.751 19.8467 21.9209C19.6831 22.0907 19.4752 22.1757 19.2236 22.1758H6.94824C5.94744 22.1758 5.189 21.914 4.67285 21.3916C4.15673 20.8754 3.89844 20.1136 3.89844 19.1064V4.83984C3.89844 3.82013 4.15672 3.04884 4.67285 2.52637C5.18903 2.0039 5.95431 1.74219 6.96777 1.74219H17.0234ZM16.9951 17.4922C16.907 17.5048 16.8057 17.5107 16.6924 17.5107H7.25977C6.76271 17.5108 6.36957 17.6465 6.08008 17.917C5.79681 18.1877 5.65527 18.5343 5.65527 18.9561C5.65534 19.4028 5.78403 19.7582 6.04199 20.0225C6.30008 20.2868 6.68098 20.4189 7.18457 20.4189H17.0898C16.8381 19.9909 16.7025 19.5191 16.6836 19.0029C16.6647 18.493 16.7685 17.9895 16.9951 17.4922ZM6.81641 3.31934C6.6654 3.31934 6.53319 3.37606 6.41992 3.48926C6.30662 3.59627 6.25 3.73184 6.25 3.89551V15.415C6.25004 15.5723 6.30666 15.708 6.41992 15.8213C6.53315 15.9344 6.66549 15.9912 6.81641 15.9912C6.97369 15.9912 7.1094 15.9345 7.22266 15.8213C7.33592 15.708 7.39253 15.5723 7.39258 15.415V3.89551C7.39258 3.73194 7.33583 3.59624 7.22266 3.48926C7.1094 3.376 6.97369 3.31938 6.81641 3.31934Z" fill="#222631"/>
</svg>
