<svg width="24" height="24" viewBox="0 0 24 24" fill="none" xmlns="http://www.w3.org/2000/svg">
<path d="M1.83875 18.8567V6.62889C1.83875 6.53884 1.84475 6.4548 1.85675 6.37677C1.87476 6.29873 1.91078 6.21769 1.96481 6.13365C2.24694 5.64142 2.65513 5.1942 3.18939 4.79201C3.72964 4.38982 4.35994 4.06867 5.08028 3.82855C5.80663 3.58844 6.59 3.46838 7.4304 3.46838C8.38485 3.46838 9.26427 3.63646 10.0687 3.97262C10.879 4.30878 11.5243 4.74699 12.0046 5.28725C12.4728 4.74699 13.1091 4.30878 13.9135 3.97262C14.7239 3.63646 15.6123 3.46838 16.5787 3.46838C17.4071 3.46838 18.1815 3.58844 18.9019 3.82855C19.6282 4.06867 20.2615 4.38982 20.8018 4.79201C21.342 5.1942 21.7532 5.64142 22.0353 6.13365C22.0834 6.21769 22.1164 6.29873 22.1344 6.37677C22.1524 6.4548 22.1614 6.53884 22.1614 6.62889V18.8567C22.1614 19.2649 22.0443 19.565 21.8102 19.7571C21.5761 19.9552 21.297 20.0543 20.9728 20.0543C20.8048 20.0543 20.6427 20.0152 20.4866 19.9372C20.3305 19.8592 20.1534 19.7571 19.9554 19.6311C19.4631 19.3069 18.9319 19.0518 18.3616 18.8657C17.7913 18.6796 17.209 18.5896 16.6148 18.5956C15.9785 18.6016 15.3602 18.7186 14.7599 18.9467C14.1656 19.1808 13.6253 19.532 13.1391 20.0002C12.929 20.1983 12.7339 20.3364 12.5538 20.4144C12.3737 20.4925 12.1907 20.5315 12.0046 20.5315C11.8125 20.5315 11.6264 20.4925 11.4463 20.4144C11.2662 20.3364 11.0711 20.1983 10.861 20.0002C10.3688 19.532 9.82254 19.1808 9.22225 18.9467C8.62797 18.7186 8.01568 18.6016 7.38538 18.5956C6.7911 18.5896 6.20882 18.6796 5.63855 18.8657C5.06828 19.0518 4.53403 19.3069 4.03579 19.6311C3.8437 19.7571 3.66961 19.8592 3.51354 19.9372C3.35747 20.0152 3.19539 20.0543 3.02731 20.0543C2.70316 20.0543 2.42402 19.9552 2.18991 19.7571C1.9558 19.565 1.83875 19.2649 1.83875 18.8567ZM3.61259 17.8572C4.08081 17.5391 4.64808 17.2899 5.3144 17.1099C5.98071 16.9238 6.68605 16.8307 7.4304 16.8307C7.89862 16.8307 8.35784 16.8818 8.80806 16.9838C9.25827 17.0799 9.67847 17.2149 10.0687 17.389C10.4588 17.5631 10.807 17.7642 11.1132 17.9923V6.94403C10.807 6.42779 10.3178 6.01659 9.64545 5.71045C8.97914 5.3983 8.24079 5.24223 7.4304 5.24223C6.89615 5.24223 6.3829 5.31126 5.89067 5.44932C5.39844 5.58739 4.95423 5.77948 4.55804 6.0256C4.16185 6.27172 3.8467 6.56285 3.61259 6.89901V17.8572ZM12.887 17.9923C13.1871 17.7642 13.5353 17.5631 13.9315 17.389C14.3277 17.2149 14.7479 17.0799 15.1921 16.9838C15.6423 16.8818 16.1045 16.8307 16.5787 16.8307C17.3111 16.8307 18.0104 16.9238 18.6767 17.1099C19.3431 17.2899 19.9133 17.5391 20.3876 17.8572V6.89901C20.1534 6.56285 19.8353 6.27172 19.4331 6.0256C19.0369 5.77948 18.5927 5.58739 18.1005 5.44932C17.6142 5.31126 17.107 5.24223 16.5787 5.24223C15.7564 5.24223 15.012 5.3983 14.3457 5.71045C13.6794 6.01659 13.1931 6.42779 12.887 6.94403V17.9923Z" fill="#222631"/>
</svg>
