<svg width="24" height="24" viewBox="0 0 24 24" fill="none" xmlns="http://www.w3.org/2000/svg">
<path d="M16.2229 22.4268C16.5915 22.4268 16.8799 22.3079 17.088 22.07C17.2901 21.8322 17.3912 21.5111 17.3912 21.1068V18.9307H17.8817C18.7379 18.9307 19.4752 18.7643 20.0935 18.4313C20.7119 18.0983 21.1875 17.6197 21.5205 16.9954C21.8534 16.3652 22.0199 15.6071 22.0199 14.7212V7.78264C22.0199 6.89674 21.8564 6.14164 21.5294 5.51735C21.2024 4.88711 20.7267 4.40551 20.1024 4.07255C19.4722 3.7396 18.7082 3.57312 17.8104 3.57312H6.18961C5.29181 3.57312 4.53077 3.7396 3.90648 4.07255C3.27624 4.40551 2.79762 4.88711 2.4706 5.51735C2.14359 6.14164 1.98009 6.89674 1.98009 7.78264V14.7212C1.98009 15.6071 2.14359 16.3652 2.4706 16.9954C2.79762 17.6197 3.27624 18.0983 3.90648 18.4313C4.53077 18.7643 5.29181 18.9307 6.18961 18.9307H11.6566L14.6978 21.6241C15.0129 21.8976 15.2835 22.0998 15.5094 22.2306C15.7294 22.3614 15.9672 22.4268 16.2229 22.4268ZM15.777 20.3934L12.9498 17.6019C12.7595 17.4057 12.5812 17.2778 12.4147 17.2184C12.2482 17.153 12.0282 17.1203 11.7547 17.1203H6.24312C5.41667 17.1203 4.8013 16.9122 4.39699 16.496C3.99269 16.0798 3.79054 15.4674 3.79054 14.6588V7.84507C3.79054 7.03646 3.99269 6.42406 4.39699 6.00786C4.8013 5.59167 5.41667 5.38357 6.24312 5.38357H17.7479C18.5863 5.38357 19.2076 5.59167 19.6119 6.00786C20.0103 6.42406 20.2094 7.03646 20.2094 7.84507V14.6588C20.2094 15.4674 20.0103 16.0798 19.6119 16.496C19.2076 16.9122 18.5863 17.1203 17.7479 17.1203H16.5172C16.2615 17.1203 16.0742 17.1768 15.9553 17.2897C15.8364 17.3968 15.777 17.584 15.777 17.8516V20.3934Z" fill="#222631"/>
</svg>
