<svg width="24" height="24" viewBox="0 0 24 24" fill="none" xmlns="http://www.w3.org/2000/svg">
<path d="M6.18945 3.57324C5.29173 3.57326 4.53051 3.73933 3.90625 4.07227C3.27604 4.40522 2.7977 4.88736 2.4707 5.51758C2.14379 6.14175 1.98052 6.89657 1.98047 7.78223V14.7217C1.98053 15.6073 2.14382 16.365 2.4707 16.9951C2.79771 17.6194 3.27603 18.0987 3.90625 18.4316C4.53051 18.7646 5.29173 18.9306 6.18945 18.9307H11.6562L14.6982 21.624C15.0133 21.8974 15.2839 22.0997 15.5098 22.2305C15.7296 22.3611 15.9672 22.4267 16.2227 22.4268C16.5912 22.4268 16.8798 22.308 17.0879 22.0703C17.29 21.8325 17.3916 21.5107 17.3916 21.1064V18.9307H17.8818C18.738 18.9306 19.4754 18.7646 20.0938 18.4316C20.7121 18.0987 21.1876 17.6194 21.5205 16.9951C21.8533 16.365 22.0195 15.6073 22.0195 14.7217V7.78223C22.0195 6.89657 21.8562 6.14175 21.5293 5.51758C21.2023 4.88734 20.7268 4.40522 20.1025 4.07227C19.4723 3.73934 18.7083 3.57326 17.8105 3.57324H6.18945ZM17.748 5.38379C18.5863 5.38381 19.208 5.59163 19.6123 6.00781C20.0105 6.42395 20.2089 7.0364 20.209 7.84473V14.6592C20.2089 15.4675 20.0105 16.08 19.6123 16.4961C19.208 16.9123 18.5863 17.1201 17.748 17.1201H16.5176C16.2619 17.1201 16.074 17.1771 15.9551 17.29C15.8364 17.3971 15.7773 17.5842 15.7773 17.8516V20.3936L12.9502 17.6016C12.7601 17.4055 12.5814 17.2783 12.415 17.2188C12.2486 17.1534 12.0283 17.1201 11.7549 17.1201H6.24316C5.41691 17.1201 4.80177 16.9121 4.39746 16.4961C3.99322 16.08 3.79108 15.4676 3.79102 14.6592V7.84473C3.79107 7.03629 3.99321 6.42395 4.39746 6.00781C4.80177 5.59179 5.41689 5.38379 6.24316 5.38379H17.748ZM12.0039 7.13672C11.3573 7.13673 10.8368 7.35988 10.4424 7.80664C10.0427 8.24839 9.84277 8.83286 9.84277 9.55859V10.4492C9.39576 10.4913 9.17188 10.7784 9.17188 11.3096V14.3857C9.17188 14.9746 9.44801 15.2694 10 15.2695H14.0078C14.5546 15.2695 14.8281 14.9747 14.8281 14.3857V11.3096C14.8281 10.7837 14.6068 10.4965 14.165 10.4492V9.55859C14.165 8.83286 13.9651 8.24839 13.5654 7.80664C13.1658 7.3599 12.6453 7.13672 12.0039 7.13672ZM12.0039 8.02832C12.3772 8.02832 12.6772 8.16164 12.9033 8.42969C13.1295 8.69263 13.2422 9.043 13.2422 9.47949V10.4336H10.7578V9.47949C10.7578 9.043 10.8731 8.69263 11.1045 8.42969C11.3306 8.16162 11.6306 8.02833 12.0039 8.02832Z" fill="#222631"/>
</svg>
