<svg width="24" height="24" viewBox="0 0 24 24" fill="none" xmlns="http://www.w3.org/2000/svg">
<path d="M22.0195 14.7217C22.0195 15.6073 21.8533 16.365 21.5205 16.9951C21.1876 17.6194 20.7121 18.0987 20.0938 18.4316C19.4754 18.7646 18.738 18.9306 17.8818 18.9307H17.6316C17.5476 18.9307 17.5056 18.9307 17.4735 18.947C17.4453 18.9614 17.4223 18.9843 17.408 19.0126C17.3916 19.0447 17.3916 19.0867 17.3916 19.1707V21.1064C17.3916 21.5107 17.29 21.8325 17.0879 22.0703C16.8798 22.308 16.5912 22.4268 16.2227 22.4268C15.9672 22.4267 15.7296 22.3611 15.5098 22.2305C15.2839 22.0997 15.0133 21.8974 14.6982 21.624L11.7244 18.991C11.6992 18.9687 11.6866 18.9575 11.6723 18.9496C11.6596 18.9425 11.6459 18.9373 11.6317 18.9342C11.6158 18.9307 11.5989 18.9307 11.5653 18.9307H9.24195C9.15795 18.9307 9.11594 18.9307 9.08385 18.9143C9.05563 18.8999 9.03268 18.877 9.0183 18.8488C9.00195 18.8167 9.00195 18.7747 9.00195 18.6907V17.3601C9.00195 17.2761 9.00195 17.2341 9.0183 17.202C9.03268 17.1738 9.05563 17.1508 9.08385 17.1365C9.11594 17.1201 9.15795 17.1201 9.24195 17.1201H11.7549C12.0283 17.1201 12.2486 17.1534 12.415 17.2188C12.5814 17.2783 12.7601 17.4055 12.9502 17.6016L15.3687 19.99C15.497 20.1167 15.5612 20.1801 15.6162 20.1842C15.664 20.1877 15.7106 20.1683 15.7416 20.1318C15.7773 20.0898 15.7773 19.9996 15.7773 19.8192V17.8516C15.7773 17.5842 15.8364 17.3971 15.9551 17.29C16.074 17.1771 16.2619 17.1201 16.5176 17.1201H17.748C18.5863 17.1201 19.208 16.9123 19.6123 16.4961C20.0105 16.08 20.2089 15.4675 20.209 14.6592C20.209 14.6398 20.209 14.6301 20.2099 14.6219C20.2176 14.552 20.2727 14.4969 20.3426 14.4892C20.3508 14.4883 20.3605 14.4883 20.3799 14.4883H21.7861C21.8639 14.4883 21.9028 14.4883 21.933 14.5024C21.9649 14.5173 21.9906 14.5429 22.0055 14.5748C22.0195 14.605 22.0195 14.6439 22.0195 14.7217Z" fill="#222631"/>
<path d="M3.79102 14.6592C3.79108 15.4676 3.99322 16.08 4.39746 16.4961C4.80177 16.9121 5.41691 17.1201 6.24316 17.1201H7.26195C7.34596 17.1201 7.38796 17.1201 7.42005 17.1365C7.44828 17.1508 7.47122 17.1738 7.4856 17.202C7.50195 17.2341 7.50195 17.2761 7.50195 17.3601V18.6907C7.50195 18.7747 7.50195 18.8167 7.4856 18.8488C7.47122 18.877 7.44828 18.8999 7.42005 18.9143C7.38796 18.9307 7.34596 18.9307 7.26195 18.9307H6.18945C5.29173 18.9306 4.53051 18.7646 3.90625 18.4316C3.27603 18.0987 2.79771 17.6194 2.4707 16.9951C2.14382 16.365 1.98053 15.6073 1.98047 14.7217C1.98047 14.6439 1.98047 14.605 1.99454 14.5748C2.00944 14.5429 2.03511 14.5173 2.06703 14.5024C2.09719 14.4883 2.13608 14.4883 2.21387 14.4883H3.62012C3.63953 14.4883 3.64923 14.4883 3.6574 14.4892C3.72727 14.4969 3.78244 14.552 3.79012 14.6219C3.79102 14.6301 3.79102 14.6398 3.79102 14.6592Z" fill="#222631"/>
<path d="M22.0195 12.7483C22.0195 12.8323 22.0195 12.8743 22.0032 12.9064C21.9888 12.9346 21.9659 12.9576 21.9376 12.9719C21.9055 12.9883 21.8635 12.9883 21.7795 12.9883H20.449C20.365 12.9883 20.323 12.9883 20.2909 12.9719C20.2627 12.9576 20.2397 12.9346 20.2253 12.9064C20.209 12.8743 20.209 12.8323 20.209 12.7483V10.3396C20.209 10.2556 20.209 10.2136 20.2253 10.1815C20.2397 10.1533 20.2627 10.1303 20.2909 10.116C20.323 10.0996 20.365 10.0996 20.449 10.0996H21.7795C21.8635 10.0996 21.9055 10.0996 21.9376 10.116C21.9659 10.1303 21.9888 10.1533 22.0032 10.1815C22.0195 10.2136 22.0195 10.2556 22.0195 10.3396V12.7483Z" fill="#222631"/>
<path d="M3.79102 12.7483C3.79102 12.8323 3.79102 12.8743 3.77467 12.9064C3.76029 12.9346 3.73734 12.9576 3.70911 12.9719C3.67703 12.9883 3.63502 12.9883 3.55102 12.9883H2.22047C2.13646 12.9883 2.09446 12.9883 2.06237 12.9719C2.03415 12.9576 2.0112 12.9346 1.99682 12.9064C1.98047 12.8743 1.98047 12.8323 1.98047 12.7483V10.3396C1.98047 10.2556 1.98047 10.2136 1.99682 10.1815C2.0112 10.1533 2.03415 10.1303 2.06237 10.116C2.09446 10.0996 2.13646 10.0996 2.22047 10.0996H3.55102C3.63502 10.0996 3.67703 10.0996 3.70911 10.116C3.73734 10.1303 3.76029 10.1533 3.77467 10.1815C3.79102 10.2136 3.79102 10.2556 3.79102 10.3396V12.7483Z" fill="#222631"/>
<path d="M17.8105 3.57324C18.7083 3.57326 19.4723 3.73934 20.1025 4.07227C20.7268 4.40522 21.2023 4.88734 21.5293 5.51758C21.8562 6.14175 22.0195 6.89657 22.0195 7.78223V8.35961C22.0195 8.44362 22.0195 8.48562 22.0032 8.51771C21.9888 8.54593 21.9659 8.56888 21.9376 8.58326C21.9055 8.59961 21.8635 8.59961 21.7795 8.59961H20.449C20.365 8.59961 20.323 8.59961 20.2909 8.58326C20.2627 8.56888 20.2397 8.54593 20.2253 8.51771C20.209 8.48562 20.209 8.44362 20.209 8.35961V7.84473C20.2089 7.0364 20.0105 6.42395 19.6123 6.00781C19.208 5.59163 18.5863 5.38381 17.748 5.38379H16.742C16.6579 5.38379 16.6159 5.38379 16.5839 5.36744C16.5556 5.35306 16.5327 5.33011 16.5183 5.30189C16.502 5.2698 16.502 5.2278 16.502 5.14379V3.81324C16.502 3.72923 16.502 3.68723 16.5183 3.65514C16.5327 3.62692 16.5556 3.60397 16.5839 3.58959C16.6159 3.57324 16.6579 3.57324 16.742 3.57324H17.8105Z" fill="#222631"/>
<path d="M7.26195 3.57324C7.34596 3.57324 7.38796 3.57324 7.42005 3.58959C7.44828 3.60397 7.47122 3.62692 7.4856 3.65514C7.50195 3.68723 7.50195 3.72923 7.50195 3.81324V5.14379C7.50195 5.2278 7.50195 5.2698 7.4856 5.30189C7.47122 5.33011 7.44828 5.35306 7.42005 5.36744C7.38796 5.38379 7.34596 5.38379 7.26195 5.38379H6.24316C5.41689 5.38379 4.80177 5.59179 4.39746 6.00781C3.99321 6.42395 3.79107 7.03629 3.79102 7.84473V8.35961C3.79102 8.44362 3.79102 8.48562 3.77467 8.51771C3.76029 8.54593 3.73734 8.56888 3.70911 8.58326C3.67703 8.59961 3.63502 8.59961 3.55102 8.59961H2.22047C2.13646 8.59961 2.09446 8.59961 2.06237 8.58326C2.03415 8.56888 2.0112 8.54593 1.99682 8.51771C1.98047 8.48562 1.98047 8.44362 1.98047 8.35961V7.78223C1.98052 6.89657 2.14379 6.14175 2.4707 5.51758C2.7977 4.88736 3.27604 4.40522 3.90625 4.07227C4.53051 3.73933 5.29173 3.57326 6.18945 3.57324H7.26195Z" fill="#222631"/>
<path d="M14.762 3.57324C14.846 3.57324 14.888 3.57324 14.9201 3.58959C14.9483 3.60397 14.9712 3.62692 14.9856 3.65514C15.002 3.68723 15.002 3.72923 15.002 3.81324V5.14379C15.002 5.2278 15.002 5.2698 14.9856 5.30189C14.9712 5.33011 14.9483 5.35306 14.9201 5.36744C14.888 5.38379 14.846 5.38379 14.762 5.38379H9.24195C9.15795 5.38379 9.11594 5.38379 9.08385 5.36744C9.05563 5.35306 9.03268 5.33011 9.0183 5.30189C9.00195 5.2698 9.00195 5.2278 9.00195 5.14379V3.81324C9.00195 3.72923 9.00195 3.68723 9.0183 3.65514C9.03268 3.62692 9.05563 3.60397 9.08385 3.58959C9.11594 3.57324 9.15795 3.57324 9.24195 3.57324H14.762Z" fill="#222631"/>
</svg>
