<svg width="24" height="24" viewBox="0 0 24 24" fill="none" xmlns="http://www.w3.org/2000/svg">
<path d="M14.3428 3C14.1472 3.55331 14.0303 4.14349 14.0059 4.75781H6.24805C5.40331 4.75782 4.7786 4.96927 4.37402 5.3916C3.9635 5.80807 3.75782 6.42701 3.75781 7.24805V14.0576C3.75782 14.8846 3.9635 15.5092 4.37402 15.9316C4.7786 16.3481 5.40321 16.5566 6.24805 16.5566H11.7988C12.0725 16.5566 12.2934 16.5889 12.46 16.6543C12.6205 16.7138 12.796 16.839 12.9863 17.0293L15.8154 19.832V17.2881C15.8155 17.0204 15.8752 16.8327 15.9941 16.7256C16.1072 16.6128 16.2885 16.5567 16.5381 16.5566H17.7607C18.5996 16.5566 19.2242 16.3481 19.6348 15.9316C20.0393 15.5092 20.2422 14.8846 20.2422 14.0576V10.9932C20.8565 10.9688 21.4467 10.8528 22 10.6572V14.1201C22 15.0066 21.836 15.762 21.5088 16.3867C21.1756 17.0055 20.7027 17.4813 20.0898 17.8145C19.4711 18.1476 18.7307 18.3144 17.8682 18.3145H17.3857V20.5098C17.3857 20.9083 17.288 21.224 17.0918 21.4561C16.8896 21.688 16.6097 21.8036 16.2529 21.8037C16.0031 21.8037 15.768 21.7383 15.5479 21.6074C15.3277 21.4825 15.0652 21.2863 14.7617 21.0186L11.71 18.3145H6.19434C5.30197 18.3144 4.54362 18.1476 3.91895 17.8145C3.29424 17.4813 2.81844 17.0055 2.49121 16.3867C2.16399 15.762 2.00001 15.0066 2 14.1201V7.19434C2.00003 6.30792 2.164 5.55524 2.49121 4.93652C2.81844 4.31192 3.2943 3.83314 3.91895 3.5C4.54361 3.16685 5.30199 3.00003 6.19434 3H14.3428Z" fill="#222631"/>
<path d="M12.2598 12.8799C12.4143 12.88 12.5453 12.9359 12.6523 13.0488C12.7653 13.1558 12.8212 13.2869 12.8213 13.4414C12.8213 13.5959 12.7651 13.727 12.6523 13.834C12.5453 13.941 12.4143 13.995 12.2598 13.9951H7.46191C7.30722 13.9951 7.17643 13.9411 7.06934 13.834C6.96232 13.7269 6.9082 13.596 6.9082 13.4414C6.90828 13.2869 6.95948 13.1558 7.06055 13.0488C7.16759 12.936 7.30143 12.8799 7.46191 12.8799H12.2598Z" fill="#222631"/>
<path d="M16.4395 10.0322C16.6001 10.0322 16.7347 10.0891 16.8418 10.2021C16.9488 10.3152 17.002 10.4432 17.002 10.5859C17.0019 10.7464 16.9487 10.8803 16.8418 10.9873C16.7347 11.0944 16.6001 11.1484 16.4395 11.1484H7.46191C7.30723 11.1484 7.17643 11.0944 7.06934 10.9873C6.96225 10.8802 6.90821 10.7466 6.9082 10.5859C6.9082 10.4431 6.9594 10.3152 7.06055 10.2021C7.16761 10.0892 7.30136 10.0322 7.46191 10.0322H16.4395Z" fill="#222631"/>
<path d="M20 1C22.2091 1 24 2.79086 24 5C24 7.20914 22.2091 9 20 9C17.7909 9 16 7.20914 16 5C16 2.79086 17.7909 1 20 1Z" fill="#222631"/>
<path d="M14.4189 7.20312C14.5734 7.594 14.7669 7.96489 14.9961 8.31055H7.46191C7.30726 8.31055 7.17642 8.25645 7.06934 8.14941C6.96228 8.03641 6.90824 7.90267 6.9082 7.74805C6.9082 7.5993 6.9594 7.47135 7.06055 7.36426C7.16762 7.25725 7.30134 7.20312 7.46191 7.20312H14.4189Z" fill="#222631"/>
</svg>
