<svg width="24" height="24" viewBox="0 0 24 24" fill="none" xmlns="http://www.w3.org/2000/svg">
<path d="M13.4795 4.75786H6.24805C5.40331 4.75787 4.7786 4.96933 4.37402 5.39165C3.96353 5.80812 3.75782 6.4271 3.75781 7.2481V14.0577C3.75784 14.8846 3.96352 15.5093 4.37402 15.9317C4.7786 16.3481 5.40325 16.5567 6.24805 16.5567H11.7988C12.0725 16.5567 12.2934 16.5889 12.46 16.6543C12.6205 16.7139 12.796 16.839 12.9863 17.0293L15.8154 19.8321V17.2881C15.8155 17.0205 15.8752 16.8327 15.9941 16.7256C16.1072 16.6129 16.2885 16.5567 16.5381 16.5567H17.7607C18.5996 16.5567 19.2242 16.3481 19.6348 15.9317C20.0393 15.5093 20.2422 14.8846 20.2422 14.0577V9.52056L22 7.76275V14.1202C22 15.0066 21.836 15.7621 21.5088 16.3868C21.1756 17.0055 20.7026 17.4813 20.0898 17.8145C19.4712 18.1476 18.7307 18.3145 17.8682 18.3145H17.3857V20.5098C17.3857 20.9083 17.288 21.2241 17.0918 21.4561C16.8896 21.688 16.6097 21.8037 16.2529 21.8038C16.0031 21.8038 15.768 21.7383 15.5479 21.6075C15.3277 21.4825 15.0651 21.2863 14.7617 21.0186L11.71 18.3145H6.19434C5.30199 18.3145 4.54361 18.1476 3.91895 17.8145C3.29427 17.4813 2.81844 17.0055 2.49121 16.3868C2.164 15.7621 2.00002 15.0066 2 14.1202V7.19439C2.00003 6.30801 2.16403 5.55528 2.49121 4.93657C2.81844 4.31198 3.29432 3.83319 3.91895 3.50005C4.54361 3.16691 5.30199 3.00008 6.19434 3.00005H15.2373L13.4795 4.75786Z" fill="#222631"/>
<path d="M20.9426 4.52072L12.8821 12.5822L10.8293 13.4553C10.7026 13.4996 10.5854 13.4716 10.4778 13.3703C10.3701 13.2626 10.3446 13.1454 10.4016 13.0188L11.3049 11.0129L19.3557 2.95236L20.9426 4.52072Z" fill="#222631"/>
<path d="M21.4475 1.22189C21.7069 1.19674 21.928 1.27076 22.1115 1.44162L22.3879 1.71701C22.5842 1.91341 22.6794 2.14184 22.6731 2.40158C22.6666 2.66118 22.5588 2.89229 22.3498 3.09494L21.6848 3.77951L20.1067 2.19259L20.7727 1.53634C20.9627 1.34638 21.1878 1.24089 21.4475 1.22189Z" fill="#222631"/>
</svg>
