<svg width="24" height="24" viewBox="0 0 24 24" fill="none" xmlns="http://www.w3.org/2000/svg">
<path d="M8.95166 17.4303C9.26724 17.4303 9.53544 17.5439 9.75635 17.7711C9.98356 17.992 10.0972 18.2602 10.0972 18.5758C10.0972 18.885 9.98346 19.1499 9.75635 19.3707C9.53544 19.5916 9.26724 19.7028 8.95166 19.7028C8.64239 19.7028 8.37419 19.5916 8.14697 19.3707C7.92617 19.1499 7.81592 18.885 7.81592 18.5758C7.81592 18.2602 7.92607 17.992 8.14697 17.7711C8.37419 17.5439 8.6424 17.4303 8.95166 17.4303Z" fill="#222631"/>
<path d="M15.0396 17.4303C15.355 17.4304 15.6234 17.544 15.8442 17.7711C16.065 17.992 16.1753 18.2603 16.1753 18.5758C16.1753 18.8849 16.0649 19.1499 15.8442 19.3707C15.6234 19.5916 15.355 19.7027 15.0396 19.7028C14.724 19.7028 14.4558 19.5916 14.2349 19.3707C14.014 19.1498 13.9028 18.8851 13.9028 18.5758C13.9028 18.2602 14.014 17.992 14.2349 17.7711C14.4557 17.544 14.7241 17.4303 15.0396 17.4303Z" fill="#222631"/>
<path d="M7.81592 13.5768C8.20691 13.5769 8.54129 13.7189 8.81885 14.0026C9.10287 14.2803 9.24561 14.6186 9.24561 15.0162C9.24556 15.4138 9.10283 15.7547 8.81885 16.0387C8.54126 16.3162 8.20699 16.4546 7.81592 16.4547C7.41841 16.4547 7.07743 16.3162 6.79346 16.0387C6.50948 15.7547 6.36674 15.4138 6.3667 15.0162C6.3667 14.6186 6.50943 14.2803 6.79346 14.0026C7.07739 13.7188 7.41849 13.5768 7.81592 13.5768Z" fill="#222631"/>
<path d="M16.1753 13.5768C16.5728 13.5768 16.9138 13.7187 17.1978 14.0026C17.4818 14.2803 17.6235 14.6186 17.6235 15.0162C17.6235 15.4138 17.4817 15.7547 17.1978 16.0387C16.9137 16.3163 16.5729 16.4547 16.1753 16.4547C15.7841 16.4547 15.4466 16.3163 15.1626 16.0387C14.8849 15.7547 14.7456 15.4138 14.7456 15.0162C14.7456 14.6186 14.8849 14.2803 15.1626 14.0026C15.4465 13.7188 15.7842 13.5768 16.1753 13.5768Z" fill="#222631"/>
<path d="M8.95166 10.1969C9.29243 10.1969 9.58294 10.32 9.82275 10.566C10.0689 10.8058 10.1918 11.0964 10.1919 11.4371C10.1919 11.778 10.0689 12.0718 9.82275 12.318C9.58292 12.5578 9.29247 12.6774 8.95166 12.6774C8.61085 12.6774 8.3204 12.5578 8.08057 12.318C7.84072 12.0718 7.72119 11.778 7.72119 11.4371C7.72125 11.0964 7.84078 10.8058 8.08057 10.566C8.32038 10.32 8.61089 10.1969 8.95166 10.1969Z" fill="#222631"/>
<path d="M15.0396 10.1969C15.3802 10.197 15.6709 10.32 15.9106 10.566C16.1504 10.8058 16.27 11.0964 16.27 11.4371C16.27 11.7779 16.1504 12.0719 15.9106 12.318C15.6709 12.5578 15.3802 12.6773 15.0396 12.6774C14.6987 12.6774 14.4048 12.5578 14.1587 12.318C13.9188 12.0718 13.7993 11.778 13.7993 11.4371C13.7994 11.0964 13.9189 10.8058 14.1587 10.566C14.3985 10.32 14.6925 10.1969 15.0396 10.1969Z" fill="#222631"/>
<path fill-rule="evenodd" clip-rule="evenodd" d="M7.64502 0.77698C7.82795 0.663439 8.05201 0.650704 8.31689 0.738895L9.04639 1.03284C9.53846 1.2095 9.89827 1.47107 10.1255 1.818C10.3183 2.11259 10.41 2.45988 10.4028 2.85901C10.8938 2.75325 11.4229 2.69886 11.9907 2.69886C12.5658 2.69886 13.099 2.75313 13.5913 2.85706C13.5754 2.45875 13.6635 2.1121 13.856 1.818C14.0895 1.47105 14.4527 1.2095 14.9448 1.03284L15.6831 0.738895C15.9418 0.650598 16.1632 0.663397 16.3462 0.77698C16.529 0.88424 16.6547 1.03908 16.7241 1.24085C16.7935 1.44282 16.7876 1.64187 16.7056 1.83753C16.6298 2.02683 16.4623 2.15926 16.2036 2.23499L15.5884 2.45276C15.3927 2.51588 15.2569 2.59787 15.1812 2.69886C15.1117 2.79984 15.093 2.92628 15.1245 3.07776L15.2222 3.4762C15.7499 3.79137 16.178 4.19471 16.5063 4.68714C16.9418 5.33082 17.1665 6.10064 17.1792 6.99671C17.6276 7.39115 18.0334 7.83479 18.3999 8.32483L19.7827 7.18616C19.9782 7.0286 20.1895 6.94642 20.4165 6.94007C20.6499 6.92745 20.8457 7.01909 21.0034 7.21448C21.1612 7.40383 21.2185 7.61572 21.1743 7.84925C21.1301 8.07642 21.013 8.26862 20.8237 8.42639L19.2651 9.71155C19.602 10.3621 19.8724 11.0481 20.0757 11.7692C20.2133 12.2573 20.3142 12.7473 20.3804 13.2389L22.0454 13.2457C22.3104 13.2458 22.5215 13.3218 22.6792 13.4733C22.8433 13.6247 22.9253 13.8204 22.9253 14.0602C22.9252 14.3061 22.8432 14.5045 22.6792 14.6559C22.5215 14.8073 22.3104 14.8834 22.0454 14.8834L20.4683 14.8707C20.4429 16.0748 20.2445 17.1775 19.8677 18.1783C19.7236 18.5589 19.556 18.9194 19.3677 19.2614L20.7573 20.4215C20.953 20.5856 21.0735 20.7822 21.1177 21.0094C21.1617 21.2427 21.101 21.454 20.937 21.6432C20.7792 21.8387 20.5836 21.9337 20.3501 21.9274C20.123 21.921 19.9119 21.8355 19.7163 21.6715L18.4419 20.5895C18.3427 20.7034 18.2414 20.8155 18.1353 20.9235C17.3905 21.6935 16.497 22.2837 15.4556 22.694C14.4205 23.1105 13.2656 23.319 11.9907 23.319C10.7284 23.319 9.57609 23.1105 8.53467 22.694C7.49343 22.2837 6.59717 21.6934 5.84619 20.9235C5.74364 20.8183 5.64443 20.7102 5.54834 20.5992L4.28467 21.6715C4.0827 21.8356 3.86736 21.9211 3.64014 21.9274C3.41304 21.9336 3.21726 21.8388 3.05322 21.6432C2.89562 21.454 2.83582 21.2427 2.87354 21.0094C2.91772 20.7822 3.03726 20.5856 3.23291 20.4215L4.61963 19.2575C4.43306 18.9167 4.26708 18.5574 4.12354 18.1783C3.74674 17.1775 3.54729 16.0748 3.52197 14.8707L1.95557 14.8834C1.69048 14.8834 1.47514 14.8074 1.31104 14.6559C1.15359 14.5045 1.07478 14.306 1.07471 14.0602C1.07471 13.8205 1.15351 13.6247 1.31104 13.4733C1.47514 13.3218 1.68702 13.2457 1.9458 13.2457L3.60791 13.2389C3.67403 12.7415 3.77585 12.2482 3.91455 11.7594C4.12241 11.0392 4.39548 10.3558 4.73291 9.7096L3.17627 8.42639C2.98081 8.26866 2.86106 8.07632 2.81689 7.84925C2.77271 7.61572 2.82903 7.40383 2.98682 7.21448C3.1508 7.01899 3.34672 6.92758 3.57373 6.94007C3.80095 6.94638 4.01629 7.02837 4.21826 7.18616L5.59521 8.33264C5.9611 7.84224 6.36646 7.39646 6.81201 6.99671C6.83101 6.10082 7.05493 5.3342 7.48389 4.6969C7.81155 4.20541 8.23883 3.80186 8.76514 3.48694L8.8667 3.07776C8.90455 2.92636 8.8857 2.79981 8.81006 2.69886C8.73432 2.59787 8.60097 2.51588 8.41162 2.45276L7.79639 2.23499C7.53783 2.15927 7.36771 2.02671 7.28564 1.83753C7.20991 1.64187 7.203 1.44282 7.26611 1.24085C7.33553 1.0389 7.46202 0.884277 7.64502 0.77698ZM16.4399 8.62561C15.872 8.85905 15.197 9.04884 14.4146 9.19397C13.6319 9.33283 12.8238 9.40198 11.9907 9.40198C11.1639 9.40198 10.3558 9.33283 9.56689 9.19397C8.78428 9.04881 8.11201 8.85914 7.55029 8.62561C7.14639 9.06109 6.76451 9.58226 6.40479 10.1881C6.04513 10.7876 5.75207 11.4601 5.5249 12.2047C5.29775 12.9494 5.18408 13.7507 5.18408 14.609C5.18409 16.0165 5.4676 17.2508 6.03564 18.3112C6.60365 19.365 7.39907 20.1852 8.42139 20.7721C9.26404 21.2558 10.2207 21.5366 11.2905 21.6217V11.2194C11.2906 11.0303 11.353 10.8694 11.479 10.7369C11.6115 10.6044 11.7731 10.5377 11.9624 10.5377C12.1517 10.5377 12.3123 10.6045 12.4448 10.7369C12.5773 10.8694 12.644 11.0301 12.644 11.2194V21.6266C13.744 21.5467 14.7222 21.2637 15.5786 20.7721C16.601 20.1852 17.3938 19.3651 17.9556 18.3112C18.5236 17.2508 18.8071 16.0165 18.8071 14.609C18.8071 13.7508 18.6934 12.9494 18.4663 12.2047C18.2391 11.4537 17.9427 10.7779 17.5767 10.1783C17.2169 9.57243 16.8376 9.0548 16.4399 8.62561Z" fill="#222631"/>
</svg>
