<svg width="24" height="24" viewBox="0 0 24 24" fill="none" xmlns="http://www.w3.org/2000/svg">
<path d="M21.0245 19.8265C21.2492 19.8266 21.4427 19.9084 21.6057 20.0713C21.7743 20.2343 21.8588 20.431 21.8588 20.6615C21.8588 20.8864 21.7743 21.0805 21.6057 21.2435C21.4428 21.4063 21.2492 21.4882 21.0245 21.4883H2.96714C2.74251 21.4882 2.54892 21.4063 2.38601 21.2435C2.22296 21.0805 2.14124 20.8864 2.14124 20.6615C2.14124 20.431 2.22296 20.2343 2.38601 20.0713C2.54893 19.9084 2.74247 19.8266 2.96714 19.8265H21.0245Z" fill="#222631"/>
<path d="M6.6279 9.36036C6.81338 9.36039 6.95986 9.41341 7.06666 9.52021C7.17344 9.62699 7.22647 9.77625 7.22651 9.9673V10.0855C7.22651 10.2766 7.17341 10.4231 7.06666 10.5243C6.95986 10.6255 6.81338 10.6758 6.6279 10.6758H6.21412V17.87H6.6279C6.81337 17.87 6.95986 17.923 7.06666 18.0298C7.17348 18.131 7.2265 18.2747 7.22651 18.4602V18.5868C7.22651 18.7723 7.17344 18.9187 7.06666 19.0256C6.95986 19.1324 6.81338 19.1854 6.6279 19.1854H4.30006C4.11452 19.1854 3.96813 19.1324 3.86131 19.0256C3.75448 18.9187 3.70145 18.7723 3.70145 18.5868V18.4602C3.70146 18.2747 3.75449 18.131 3.86131 18.0298C3.96813 17.923 4.11457 17.87 4.30006 17.87H4.71301V10.6758H4.30006C4.11452 10.6758 3.96813 10.6255 3.86131 10.5243C3.75451 10.4231 3.70145 10.2767 3.70145 10.0855V9.9673C3.7015 9.77625 3.75452 9.62699 3.86131 9.52021C3.96813 9.41343 4.11456 9.36036 4.30006 9.36036H6.6279Z" fill="#222631"/>
<path d="M11.013 9.36036C11.1984 9.36036 11.345 9.41353 11.4518 9.52021C11.5585 9.62699 11.6124 9.77625 11.6124 9.9673V10.0855C11.6124 10.2767 11.5586 10.4231 11.4518 10.5243C11.3449 10.6254 11.1985 10.6758 11.013 10.6758H10.6V17.87H11.013C11.1984 17.87 11.345 17.9231 11.4518 18.0298C11.5586 18.131 11.6124 18.2747 11.6124 18.4602V18.5868C11.6124 18.7723 11.5586 18.9187 11.4518 19.0256C11.3449 19.1323 11.1985 19.1854 11.013 19.1854H8.68599C8.50056 19.1854 8.35404 19.1323 8.24723 19.0256C8.14603 18.9187 8.09488 18.7723 8.09488 18.5868V18.4602C8.09488 18.2747 8.14604 18.131 8.24723 18.0298C8.35404 17.9232 8.50061 17.87 8.68599 17.87H9.09894V10.6758H8.68599C8.50054 10.6758 8.35405 10.6254 8.24723 10.5243C8.14603 10.4231 8.09488 10.2767 8.09488 10.0855V9.9673C8.09492 9.77625 8.14607 9.62699 8.24723 9.52021C8.35404 9.41356 8.50061 9.36036 8.68599 9.36036H11.013Z" fill="#222631"/>
<path d="M15.3906 9.36036C15.5817 9.3604 15.7309 9.41344 15.8377 9.52021C15.9445 9.62699 15.9975 9.77625 15.9975 9.9673V10.0855C15.9975 10.2766 15.9444 10.4231 15.8377 10.5243C15.7309 10.6255 15.5817 10.6758 15.3906 10.6758H14.986V17.87H15.3906C15.5816 17.87 15.7309 17.923 15.8377 18.0298C15.9445 18.131 15.9975 18.2747 15.9975 18.4602V18.5868C15.9975 18.7723 15.9445 18.9187 15.8377 19.0256C15.7309 19.1323 15.5817 19.1854 15.3906 19.1854H13.0711C12.6719 19.1854 12.4725 18.986 12.4725 18.5868V18.4602C12.4725 18.2747 12.5255 18.131 12.6323 18.0298C12.7391 17.923 12.8856 17.87 13.0711 17.87H13.484V10.6758H13.0711C12.8856 10.6758 12.7391 10.6255 12.6323 10.5243C12.5256 10.4231 12.4725 10.2766 12.4725 10.0855V9.9673C12.4725 9.77625 12.5255 9.62699 12.6323 9.52021C12.7391 9.41343 12.8856 9.36037 13.0711 9.36036H15.3906Z" fill="#222631"/>
<path d="M19.7757 9.36036C19.9667 9.36036 20.1133 9.41352 20.2145 9.52021C20.3212 9.62699 20.3751 9.77625 20.3751 9.9673V10.0855C20.3751 10.2767 20.3213 10.4231 20.2145 10.5243C20.1133 10.6254 19.9668 10.6758 19.7757 10.6758H19.3711V17.87H19.7757C19.9667 17.87 20.1133 17.9231 20.2145 18.0298C20.3213 18.131 20.3751 18.2747 20.3751 18.4602V18.5868C20.3751 18.7723 20.3213 18.9187 20.2145 19.0256C20.1133 19.1323 19.9668 19.1854 19.7757 19.1854H17.457C17.0578 19.1854 16.8576 18.986 16.8576 18.5868V18.4602C16.8576 18.2747 16.9114 18.131 17.0183 18.0298C17.1251 17.9232 17.2716 17.87 17.457 17.87H17.87V10.6758H17.457C17.2716 10.6758 17.1251 10.6254 17.0183 10.5243C16.9114 10.4231 16.8576 10.2767 16.8576 10.0855V9.9673C16.8576 9.77625 16.9088 9.62699 17.0099 9.52021C17.1167 9.41359 17.266 9.36036 17.457 9.36036H19.7757Z" fill="#222631"/>
<path fill-rule="evenodd" clip-rule="evenodd" d="M12.042 2.51172C12.4244 2.51172 12.8016 2.6186 13.1727 2.83225L20.5775 7.10828C20.9371 7.31624 21.1168 7.57787 21.117 7.89256C21.117 8.10059 21.0379 8.29189 20.8805 8.46619C20.7231 8.63484 20.5066 8.71929 20.2311 8.71929H3.86131C3.58028 8.71925 3.36097 8.63483 3.20358 8.46619C3.04623 8.29193 2.96714 8.10054 2.96714 7.89256C2.96724 7.57221 3.14774 7.31063 3.50747 7.10828L10.9123 2.83225C11.2776 2.61874 11.6543 2.51175 12.042 2.51172ZM12.042 4.28341C11.9521 4.28344 11.8622 4.31131 11.7723 4.3675L6.79442 7.15907H17.2897L12.3118 4.3675C12.2107 4.31137 12.1207 4.28341 12.042 4.28341Z" fill="#222631"/>
</svg>
