<svg viewBox="0 0 24 24" fill="none" xmlns="http://www.w3.org/2000/svg">
  <path
    d="M3.00977 18C3.56205 18 4.00977 18.4477 4.00977 19C4.00977 19.5523 3.56205 20 3.00977 20H3C2.44772 20 2 19.5523 2 19C2 18.4477 2.44772 18 3 18H3.00977Z"
    fill="currentColor"
  />
  <path
    d="M21 18C21.5523 18 22 18.4477 22 19C22 19.5523 21.5523 20 21 20H8C7.44772 20 7 19.5523 7 19C7 18.4477 7.44772 18 8 18H21Z"
    fill="currentColor"
  />
  <path
    d="M3.00977 11C3.56205 11 4.00977 11.4477 4.00977 12C4.00977 12.5523 3.56205 13 3.00977 13H3C2.44772 13 2 12.5523 2 12C2 11.4477 2.44772 11 3 11H3.00977Z"
    fill="currentColor"
  />
  <path
    d="M21 11C21.5523 11 22 11.4477 22 12C22 12.5523 21.5523 13 21 13H8C7.44772 13 7 12.5523 7 12C7 11.4477 7.44772 11 8 11H21Z"
    fill="currentColor"
  />
  <path
    d="M3.00977 4C3.56205 4 4.00977 4.44772 4.00977 5C4.00977 5.55228 3.56205 6 3.00977 6H3C2.44772 6 2 5.55228 2 5C2 4.44772 2.44772 4 3 4H3.00977Z"
    fill="currentColor"
  />
  <path
    d="M21 4C21.5523 4 22 4.44772 22 5C22 5.55228 21.5523 6 21 6H8C7.44772 6 7 5.55228 7 5C7 4.44772 7.44772 4 8 4H21Z"
    fill="currentColor"
  />
</svg>
