<svg width="24" height="24" viewBox="0 0 24 24" fill="none" xmlns="http://www.w3.org/2000/svg">
<path d="M2.96665 18.3892C2.70243 18.3892 2.47366 18.2893 2.28033 18.0896C2.09344 17.8898 2 17.6546 2 17.3839C2 17.1197 2.09344 16.8909 2.28033 16.6976C2.46721 16.5043 2.69599 16.4076 2.96665 16.4076H21.0333C21.2976 16.4076 21.5231 16.5043 21.71 16.6976C21.9033 16.8909 22 17.1197 22 17.3839C22 17.6546 21.9033 17.8898 21.71 18.0896C21.5231 18.2893 21.2976 18.3892 21.0333 18.3892H2.96665ZM2.96665 12.9709C2.70243 12.9709 2.47366 12.8743 2.28033 12.6809C2.09344 12.4811 2 12.2492 2 11.9849C2 11.7143 2.09344 11.4823 2.28033 11.2889C2.46721 11.0892 2.69599 10.9893 2.96665 10.9893H21.0333C21.2976 10.9893 21.5231 11.0892 21.71 11.2889C21.9033 11.4823 22 11.7143 22 11.9849C22 12.2492 21.9033 12.4811 21.71 12.6809C21.5231 12.8743 21.2976 12.9709 21.0333 12.9709H2.96665ZM2.96665 7.57194C2.70243 7.57194 2.47366 7.47528 2.28033 7.28195C2.09344 7.08217 2 6.85018 2 6.58596C2 6.3153 2.09344 6.0833 2.28033 5.88997C2.46721 5.69664 2.69599 5.59998 2.96665 5.59998H21.0333C21.2976 5.59998 21.5231 5.69664 21.71 5.88997C21.9033 6.0833 22 6.3153 22 6.58596C22 6.85018 21.9033 7.08217 21.71 7.28195C21.5231 7.47528 21.2976 7.57194 21.0333 7.57194H2.96665Z" fill="#222631"/>
</svg>
