<svg width="24" height="24" viewBox="0 0 24 24" fill="none" xmlns="http://www.w3.org/2000/svg">
<path fill-rule="evenodd" clip-rule="evenodd" d="M15.4625 8.5375C16.4375 9.5125 17.6167 10 19 10C20.3833 10 21.5625 9.5125 22.5375 8.5375C23.5125 7.5625 24 6.38333 24 5C24 3.61667 23.5125 2.4375 22.5375 1.4625C21.5625 0.4875 20.3833 0 19 0C17.6167 0 16.4375 0.4875 15.4625 1.4625C14.4875 2.4375 14 3.61667 14 5C14 6.38333 14.4875 7.5625 15.4625 8.5375ZM19.5 2V6H18.5V2H19.5ZM19.35 7.85C19.25 7.95 19.1333 8 19 8C18.8667 8 18.75 7.95 18.65 7.85C18.55 7.75 18.5 7.63333 18.5 7.5C18.5 7.36667 18.55 7.25 18.65 7.15C18.75 7.05 18.8667 7 19 7C19.1333 7 19.25 7.05 19.35 7.15C19.45 7.25 19.5 7.36667 19.5 7.5C19.5 7.63333 19.45 7.75 19.35 7.85ZM19 12C17.9222 12 16.9154 11.7785 15.9999 11.3431V13.175L17.9999 15.175V13.5L21.9999 17.5V11.3432C21.0845 11.7786 20.0777 12 19 12ZM12 5C12 5.34066 12.0221 5.67422 12.0661 6.00005H8.8249L6.8249 4.00005H12.0661C12.0221 4.32585 12 4.65938 12 5ZM20.5499 23.35L16.959 19.7592C16.6718 19.9198 16.3521 20 15.9999 20H3.9999C3.4499 20 2.97907 19.8042 2.5874 19.4125C2.19574 19.0209 1.9999 18.5501 1.9999 18V6.00005C1.9999 5.64788 2.08019 5.32817 2.24077 5.04092L0.649902 3.45005L2.0499 2.05005L3.9999 4.00005L5.9999 6.00005L15.9999 16L17.9999 18L21.9499 21.9501L20.5499 23.35ZM3.9999 6.80005L15.1999 18H3.9999V6.80005Z" fill="#222631"/>
</svg>
