<svg width="24" height="24" viewBox="0 0 24 24" fill="none" xmlns="http://www.w3.org/2000/svg">
<path fill-rule="evenodd" clip-rule="evenodd" d="M12 3.97363C12.791 3.97363 13.5222 3.97923 14.1934 3.99121C14.8707 4.0032 15.4464 4.01815 15.9199 4.03613C16.3994 4.05411 16.7471 4.07843 16.9629 4.1084C17.5802 4.19232 18.1224 4.39331 18.5898 4.71094C19.0633 5.02261 19.426 5.44228 19.6777 5.96973C19.7796 6.19149 19.9059 6.51222 20.0557 6.93164C20.2114 7.35103 20.3639 7.82439 20.5137 8.35156C20.6695 8.87897 20.8013 9.41276 20.9092 9.95215L21.71 10.9502C21.9916 11.3157 22.2132 11.6692 22.375 12.0107C22.5428 12.3524 22.6625 12.7216 22.7344 13.1172C22.8063 13.5126 22.8428 13.9738 22.8428 14.501V19.8242C22.8427 20.1656 22.7257 20.4529 22.4922 20.6865C22.2584 20.9203 21.9705 21.0371 21.6289 21.0371H20.541C20.1994 21.0371 19.9115 20.9203 19.6777 20.6865C19.4503 20.4529 19.336 20.1655 19.3359 19.8242V18.2637C19.2742 18.2677 19.2114 18.2734 19.1475 18.2773C18.4703 18.3193 17.7242 18.3586 16.9092 18.3945C16.1002 18.4245 15.2699 18.4478 14.4189 18.4658C13.5738 18.4838 12.7672 18.4932 12 18.4932C11.2328 18.4932 10.4234 18.4838 9.57227 18.4658C8.72725 18.4478 7.89709 18.4245 7.08203 18.3945C6.27294 18.3586 5.52979 18.3193 4.85254 18.2773C4.79159 18.2736 4.73176 18.2675 4.67285 18.2637V19.8242C4.67277 20.1655 4.55285 20.4529 4.31348 20.6865C4.07978 20.9202 3.79173 21.0371 3.4502 21.0371H2.37988C2.03233 21.0371 1.74153 20.9202 1.50781 20.6865C1.27434 20.4529 1.15731 20.1656 1.15723 19.8242V14.501C1.15725 13.9738 1.19375 13.5126 1.26562 13.1172C1.33755 12.7216 1.45438 12.3524 1.61621 12.0107C1.784 11.6692 2.00847 11.3156 2.29004 10.9502L3.08105 9.95215C3.19494 9.41271 3.33049 8.87901 3.48633 8.35156C3.64209 7.82439 3.79456 7.35103 3.94434 6.93164C4.09411 6.51226 4.2232 6.19148 4.33105 5.96973C4.5768 5.44228 4.93386 5.01982 5.40137 4.70215C5.86883 4.38454 6.41385 4.18632 7.03711 4.1084C7.24689 4.08442 7.59179 4.0629 8.07129 4.04492C8.55065 4.02096 9.12585 4.0032 9.79688 3.99121C10.4682 3.97922 11.2028 3.97363 12 3.97363ZM5.41895 12.9824C4.98747 12.9824 4.62752 13.1255 4.33984 13.4131C4.05815 13.7008 3.917 14.0579 3.91699 14.4834C3.91699 14.909 4.05814 15.2688 4.33984 15.5625C4.62754 15.8502 4.9874 15.9941 5.41895 15.9941C5.8503 15.9941 6.20664 15.85 6.48828 15.5625C6.77598 15.2688 6.91992 14.909 6.91992 14.4834C6.91991 14.0579 6.77597 13.7008 6.48828 13.4131C6.20666 13.1257 5.85022 12.9824 5.41895 12.9824ZM18.5811 12.9824C18.1555 12.9824 17.7984 13.1254 17.5107 13.4131C17.2231 13.7008 17.0801 14.0579 17.0801 14.4834C17.0801 14.9089 17.2231 15.2688 17.5107 15.5625C17.7984 15.8502 18.1555 15.9941 18.5811 15.9941C19.0066 15.9941 19.3637 15.8502 19.6514 15.5625C19.939 15.2688 20.083 14.9089 20.083 14.4834C20.083 14.0579 19.9391 13.7008 19.6514 13.4131C19.3637 13.1254 19.0066 12.9824 18.5811 12.9824ZM9.57227 13.4404C9.24873 13.4405 8.98498 13.5424 8.78125 13.7461C8.58347 13.9439 8.48439 14.2047 8.48438 14.5283C8.48438 14.8459 8.5835 15.1068 8.78125 15.3105C8.98498 15.5083 9.24873 15.6074 9.57227 15.6074H14.4277C14.7452 15.6074 15.0025 15.5081 15.2002 15.3105C15.404 15.1068 15.5059 14.846 15.5059 14.5283C15.5058 14.2047 15.404 13.9439 15.2002 13.7461C15.0025 13.5426 14.7451 13.4405 14.4277 13.4404H9.57227ZM12 5.67285C10.6214 5.67285 9.53349 5.68501 8.73633 5.70898C7.94543 5.73295 7.38814 5.76568 7.06445 5.80762C6.79493 5.84954 6.57598 5.92727 6.4082 6.04102C6.24038 6.1489 6.08987 6.31996 5.95801 6.55371C5.87411 6.71554 5.77597 6.94367 5.66211 7.2373C5.55427 7.52489 5.44573 7.83918 5.33789 8.18066C5.23601 8.51626 5.15564 8.83135 5.0957 9.125C5.04775 9.3168 5.06271 9.45795 5.14062 9.54785C5.22455 9.63748 5.36507 9.67599 5.5625 9.66406C6.02997 9.64009 6.55162 9.61675 7.12695 9.59277C7.70235 9.5628 8.38279 9.53849 9.16797 9.52051C9.95314 9.50253 10.8972 9.49414 12 9.49414C13.0968 9.49414 14.0381 9.50253 14.8232 9.52051C15.6143 9.53849 16.2977 9.56281 16.873 9.59277C17.4544 9.61675 17.976 9.64009 18.4375 9.66406C18.6409 9.67599 18.7814 9.63747 18.8594 9.54785C18.9433 9.45795 18.962 9.31679 18.9141 9.125C18.8421 8.83131 18.7552 8.51352 18.6533 8.17188C18.5515 7.83037 18.4457 7.51612 18.3379 7.22852C18.23 6.93482 18.1281 6.70955 18.0322 6.55371C17.9004 6.32007 17.7536 6.14887 17.5918 6.04102C17.43 5.92727 17.2111 5.84954 16.9355 5.80762C16.6119 5.75969 16.0517 5.72696 15.2549 5.70898C14.4577 5.68501 13.3726 5.67285 12 5.67285Z" fill="#222631"/>
</svg>
