<svg width="24" height="24" viewBox="0 0 24 24" fill="none" xmlns="http://www.w3.org/2000/svg">
<path d="M5.39578 8.98665C6.02586 8.98669 6.5045 9.14711 6.83081 9.46779C7.16257 9.78285 7.32866 10.2415 7.3287 10.8433V19.9997C7.32864 20.5959 7.16261 21.0518 6.83081 21.3668C6.5045 21.6875 6.02586 21.8479 5.39578 21.848H2.99847C2.36832 21.848 1.88702 21.6875 1.55506 21.3668C1.22881 21.0518 1.06561 20.596 1.06555 19.9997L1.06555 10.8433C1.06559 10.2414 1.22886 9.78285 1.55506 9.46779C1.88702 9.14708 2.36832 8.98667 2.99847 8.98665H5.39578Z" fill="#222631"/>
<path d="M13.1945 5.561C13.8245 5.56105 14.3023 5.7215 14.6286 6.04214C14.9605 6.36286 15.1274 6.82393 15.1274 7.42599V19.9997C15.1273 20.596 14.9605 21.0518 14.6286 21.3668C14.3023 21.6873 13.8243 21.8479 13.1945 21.848H10.7972C10.167 21.848 9.68572 21.6876 9.35375 21.3668C9.02748 21.0518 8.8643 20.596 8.86424 19.9997V7.42599C8.86424 6.82409 9.02758 6.36285 9.35375 6.04214C9.68572 5.72142 10.167 5.56101 10.7972 5.561H13.1945Z" fill="#222631"/>
<path d="M20.9932 2.1521C21.6288 2.15216 22.1093 2.31257 22.4356 2.63324C22.7676 2.95396 22.9344 3.41228 22.9344 4.00871V19.9997C22.9344 20.596 22.7675 21.0518 22.4356 21.3668C22.1093 21.6873 21.6286 21.8479 20.9932 21.848H18.5958C17.9713 21.848 17.4928 21.6876 17.1608 21.3668C16.8346 21.0518 16.6714 20.596 16.6713 19.9997V4.00871C16.6713 3.41248 16.8347 2.95394 17.1608 2.63324C17.4928 2.31251 17.9713 2.1521 18.5958 2.1521H20.9932Z" fill="#222631"/>
</svg>
