<svg width="24" height="24" viewBox="0 0 24 24" fill="none" xmlns="http://www.w3.org/2000/svg">
<path d="M15.5913 7.26611C15.822 7.26619 16.0298 7.34208 16.2144 7.49365C16.399 7.64531 16.4907 7.84346 16.4907 8.0874C16.4907 8.19952 16.4644 8.31537 16.4116 8.43408C16.3655 8.54605 16.3095 8.65168 16.2437 8.75049L11.8218 15.6655C11.6108 16.0016 11.3207 16.1693 10.9517 16.1694C10.767 16.1694 10.6016 16.1304 10.4565 16.0513C10.3116 15.9656 10.1701 15.84 10.0317 15.6753L7.69678 12.8257C7.5255 12.6082 7.44003 12.3876 7.43994 12.1636C7.43994 11.9196 7.52214 11.711 7.68701 11.5396C7.85842 11.3617 8.06301 11.2729 8.30029 11.2729C8.45182 11.273 8.58695 11.3058 8.70557 11.3716C8.83087 11.4309 8.95307 11.5405 9.07178 11.6987L10.9116 14.0327L14.8188 7.771C15.0233 7.43465 15.2813 7.26611 15.5913 7.26611Z" fill="#222631"/>
<path fill-rule="evenodd" clip-rule="evenodd" d="M11.9995 1.93408C12.1643 1.93408 12.3362 1.95094 12.5142 1.98389C12.6988 2.01686 12.8737 2.05686 13.0386 2.10303C13.2496 2.17557 13.5499 2.28094 13.939 2.41943C14.3346 2.55791 14.7699 2.71283 15.2446 2.88428C15.726 3.04914 16.2044 3.21672 16.6792 3.38818C17.1606 3.55964 17.599 3.72186 17.9946 3.87354C18.3903 4.01862 18.6969 4.13765 18.9146 4.22998C19.4092 4.44102 19.7726 4.68127 20.0034 4.95166C20.2407 5.22207 20.3589 5.65101 20.3589 6.23779V13.7163C20.3589 14.6197 20.224 15.4111 19.9536 16.0903C19.6898 16.763 19.2578 17.393 18.6577 17.98C18.0642 18.5603 17.2761 19.1577 16.2935 19.771C15.3175 20.3843 14.1172 21.0798 12.6929 21.8579C12.5677 21.9238 12.4421 21.9734 12.3169 22.0063C12.1916 22.0459 12.0852 22.0659 11.9995 22.0659C11.9139 22.0658 11.8082 22.0458 11.6831 22.0063C11.5579 21.9734 11.4323 21.9238 11.3071 21.8579C9.88273 21.0798 8.67937 20.3801 7.69678 19.7603C6.72084 19.147 5.93262 18.5505 5.33252 17.9702C4.73897 17.3899 4.30701 16.763 4.03662 16.0903C3.77286 15.4111 3.64111 14.6197 3.64111 13.7163V6.23779C3.64111 5.65095 3.75608 5.22206 3.98682 4.95166C4.22423 4.67467 4.58766 4.43442 5.07568 4.22998C5.29331 4.13766 5.60001 4.01541 5.99561 3.86377C6.39125 3.71211 6.82968 3.54986 7.31104 3.37842C7.79241 3.20038 8.27082 3.02545 8.74561 2.854C9.2269 2.68259 9.66226 2.53079 10.0513 2.39893C10.4468 2.26049 10.7536 2.16237 10.9712 2.10303C11.1295 2.06346 11.298 2.02663 11.4761 1.99365C11.6604 1.95418 11.8349 1.93412 11.9995 1.93408ZM11.9995 3.79443C11.9271 3.79448 11.8478 3.80399 11.7622 3.82373C11.6832 3.84349 11.5879 3.87316 11.4761 3.9126C11.2123 4.01812 10.8952 4.13714 10.5259 4.26904C10.1633 4.40089 9.771 4.53906 9.34912 4.68408C8.9271 4.82915 8.50137 4.97773 8.07275 5.12939C7.65071 5.28107 7.24503 5.42963 6.85596 5.57471C6.47359 5.71315 6.13727 5.84178 5.84717 5.96045C5.70867 6.01321 5.61599 6.08272 5.56982 6.16846C5.52368 6.25419 5.50049 6.38278 5.50049 6.5542V13.3501C5.50049 14.0755 5.59951 14.6929 5.79736 15.2007C5.99523 15.7083 6.31875 16.1796 6.76709 16.6147C7.22213 17.0434 7.82902 17.5017 8.5874 17.9897C9.35237 18.4777 10.2986 19.0647 11.4263 19.7505C11.5713 19.8362 11.6831 19.8962 11.7622 19.9292C11.8478 19.9621 11.9271 19.978 11.9995 19.978C12.0653 19.978 12.1415 19.962 12.2271 19.9292C12.3128 19.8962 12.4255 19.8362 12.564 19.7505C13.685 19.0779 14.6249 18.5014 15.3833 18.02C16.1417 17.532 16.7486 17.0695 17.2036 16.6343C17.6651 16.1991 17.9951 15.7279 18.1929 15.2202C18.3907 14.7058 18.4897 14.0821 18.4897 13.3501V6.5542C18.4897 6.38283 18.4665 6.25419 18.4204 6.16846C18.3742 6.07613 18.2847 6.00661 18.1528 5.96045C17.8496 5.85497 17.5036 5.73266 17.1147 5.59424C16.7324 5.45579 16.3265 5.3113 15.8979 5.15967C15.4759 5.00798 15.0566 4.85627 14.6411 4.70459C14.2257 4.55294 13.8336 4.41068 13.4644 4.27881C13.095 4.14031 12.778 4.01812 12.5142 3.9126C12.4022 3.87308 12.3029 3.8435 12.2173 3.82373C12.1383 3.804 12.0654 3.79443 11.9995 3.79443Z" fill="#222631"/>
</svg>
