<svg width="24" height="24" viewBox="0 0 24 24" fill="none" xmlns="http://www.w3.org/2000/svg">
<path d="M6.44925 20.0393C5.6106 20.0393 4.9862 19.8342 4.57605 19.424C4.16591 19.02 3.96084 18.3956 3.96084 17.5508V15.5858C3.96084 15.4144 3.90574 15.2675 3.79555 15.1451L2.39984 13.7494C1.79993 13.1556 1.49997 12.574 1.49997 12.0047C1.49997 11.4293 1.79993 10.8416 2.39984 10.2417L3.79555 8.84599C3.90574 8.72968 3.96084 8.58889 3.96084 8.4236V6.4494C3.96084 5.5985 4.16285 4.97104 4.56687 4.56702C4.97701 4.163 5.60447 3.96099 6.44925 3.96099H8.41427C8.59179 3.96099 8.73871 3.90283 8.85502 3.78652L10.2507 2.39999C10.8506 1.80008 11.4353 1.50012 12.0046 1.50012C12.5739 1.50012 13.1585 1.80008 13.7584 2.39999L15.1541 3.78652C15.2704 3.90283 15.4143 3.96099 15.5857 3.96099H17.5507C18.4016 3.96099 19.029 4.16606 19.4331 4.5762C19.8371 4.98635 20.0391 5.61075 20.0391 6.4494V8.4236C20.0391 8.58889 20.1003 8.72968 20.2228 8.84599L21.6001 10.2417C22.2 10.8416 22.5 11.4293 22.5 12.0047C22.5 12.574 22.2 13.1556 21.6001 13.7494L20.2228 15.1451C20.1003 15.2675 20.0391 15.4144 20.0391 15.5858V17.5508C20.0391 18.3956 19.834 19.02 19.4239 19.424C19.0199 19.8342 18.3955 20.0393 17.5507 20.0393H15.5857C15.4143 20.0393 15.2704 20.0974 15.1541 20.2137L13.7584 21.6003C13.1585 22.2002 12.5708 22.5001 11.9954 22.5001C11.4261 22.5001 10.8445 22.2002 10.2507 21.6003L8.85502 20.2137C8.73871 20.0974 8.59179 20.0393 8.41427 20.0393H6.44925ZM6.5778 18.3681H8.97439C9.24986 18.3681 9.47636 18.463 9.65388 18.6527L11.3434 20.3423C11.6311 20.6239 11.8485 20.7647 11.9954 20.7647C12.1484 20.7647 12.3719 20.6239 12.6657 20.3423L14.3552 18.6527C14.5328 18.463 14.7562 18.3681 15.0255 18.3681H17.4221C17.8323 18.3681 18.0924 18.313 18.2026 18.2028C18.3128 18.0926 18.3679 17.8324 18.3679 17.4223V15.0257C18.3679 14.7625 18.4628 14.539 18.6526 14.3554L20.3421 12.6658C20.6298 12.3781 20.7737 12.1578 20.7737 12.0047C20.7737 11.8517 20.6298 11.6313 20.3421 11.3436L18.6526 9.65404C18.4628 9.46427 18.3679 9.23777 18.3679 8.97454V6.57795C18.3679 6.17393 18.3128 5.91683 18.2026 5.80664C18.0924 5.69645 17.8323 5.64136 17.4221 5.64136L15.0255 5.63217C14.7562 5.63217 14.5328 5.54035 14.3552 5.3567L12.6657 3.66715C12.3719 3.37944 12.1484 3.23558 11.9954 3.23558C11.8485 3.23558 11.6311 3.37944 11.3434 3.66715L9.65388 5.3567C9.47636 5.54035 9.24986 5.63217 8.97439 5.63217L6.5778 5.64136C6.16766 5.64136 5.90749 5.69645 5.7973 5.80664C5.69324 5.9107 5.6412 6.16781 5.6412 6.57795V8.97454C5.63508 9.23777 5.5402 9.46427 5.35655 9.65404L3.667 11.3436C3.37929 11.6313 3.23543 11.8517 3.23543 12.0047C3.23543 12.1578 3.37929 12.3781 3.667 12.6658L5.35655 14.3554C5.5402 14.539 5.63202 14.7625 5.63202 15.0257V17.4223C5.63814 17.8324 5.6963 18.0926 5.80648 18.2028C5.91667 18.313 6.17378 18.3681 6.5778 18.3681ZM11.0221 16.3663C10.8506 16.3663 10.6976 16.3296 10.5629 16.2561C10.4283 16.1766 10.2966 16.0602 10.1681 15.9072L8.00106 13.2627C7.8419 13.0607 7.76232 12.8556 7.76232 12.6475C7.76232 12.421 7.83884 12.2282 7.99188 12.069C8.15104 11.9037 8.34081 11.8211 8.56119 11.8211C8.70198 11.8211 8.82747 11.8517 8.93766 11.9129C9.05397 11.968 9.16722 12.069 9.27741 12.2159L10.9853 14.3829L14.6123 8.57052C14.8021 8.25832 15.0409 8.10222 15.3286 8.10222C15.5428 8.10222 15.7356 8.17262 15.9071 8.31342C16.0785 8.45421 16.1642 8.63786 16.1642 8.86436C16.1642 8.96842 16.1397 9.07555 16.0907 9.18574C16.0478 9.2898 15.9958 9.38775 15.9346 9.47957L11.8301 15.898C11.6342 16.2102 11.3649 16.3663 11.0221 16.3663Z" fill="#222631"/>
</svg>
