<svg width="24" height="24" viewBox="0 0 24 24" fill="none" xmlns="http://www.w3.org/2000/svg">
<path d="M6.44933 20.0391C5.61068 20.0391 4.98629 19.834 4.57615 19.4239C4.16601 19.0198 3.96094 18.3954 3.96094 17.5507V15.5857C3.96094 15.4143 3.90584 15.2704 3.79566 15.1541L2.39995 13.7584C1.80005 13.1646 1.50009 12.58 1.50009 12.0046C1.50009 11.4292 1.80005 10.8415 2.39995 10.2416L3.79566 8.84589C3.90584 8.72959 3.96094 8.58879 3.96094 8.42351V6.44933C3.96094 5.59844 4.16295 4.97098 4.56696 4.56696C4.97711 4.16295 5.60456 3.96094 6.44933 3.96094H8.42351C8.59491 3.96094 8.73877 3.90278 8.85508 3.78647L10.2508 2.39995C10.8446 1.80005 11.4292 1.50009 12.0046 1.50009C12.58 1.49397 13.1646 1.79392 13.7584 2.39995L15.1541 3.78647C15.2704 3.90278 15.4143 3.96094 15.5857 3.96094H17.5507C18.4016 3.96094 19.029 4.16601 19.433 4.57615C19.8371 4.98629 20.0391 5.61068 20.0391 6.44933V8.42351C20.0391 8.58879 20.1003 8.72959 20.2227 8.84589L21.6092 10.2416C22.203 10.8415 22.4999 11.4292 22.4999 12.0046C22.4999 12.58 22.203 13.1646 21.6092 13.7584L20.2227 15.1541C20.1003 15.2704 20.0391 15.4143 20.0391 15.5857V17.5507C20.0391 18.4016 19.834 19.029 19.4239 19.433C19.0198 19.8371 18.3954 20.0391 17.5507 20.0391H15.5857C15.4143 20.0391 15.2704 20.0972 15.1541 20.2135L13.7584 21.6092C13.1646 22.203 12.58 22.4999 12.0046 22.4999C11.4292 22.506 10.8446 22.2091 10.2508 21.6092L8.85508 20.2135C8.73877 20.0972 8.59491 20.0391 8.42351 20.0391H6.44933ZM10.9854 16.5223C11.1568 16.5223 11.3129 16.4825 11.4537 16.4029C11.6006 16.3233 11.7291 16.2039 11.8393 16.0448L16.1366 9.34174C16.1978 9.24379 16.2529 9.13973 16.3019 9.02954C16.3509 8.91323 16.3753 8.80304 16.3753 8.69898C16.3753 8.46024 16.2835 8.26741 16.0999 8.1205C15.9224 7.97358 15.7203 7.90012 15.4938 7.90012C15.1939 7.90012 14.946 8.05928 14.7501 8.3776L10.9486 14.4563L9.18564 12.2158C9.06321 12.0627 8.94384 11.9556 8.82753 11.8944C8.71122 11.8332 8.57961 11.8026 8.43269 11.8026C8.20008 11.8026 8.00113 11.8883 7.83585 12.0597C7.67669 12.225 7.59711 12.4239 7.59711 12.6565C7.59711 12.7728 7.61853 12.8861 7.66138 12.9963C7.70423 13.1065 7.76545 13.2136 7.84503 13.3177L10.0947 16.054C10.2294 16.2192 10.3671 16.3386 10.5079 16.4121C10.6487 16.4855 10.8078 16.5223 10.9854 16.5223Z" fill="#222631"/>
</svg>
