<svg width="24" height="24" viewBox="0 0 24 24" fill="none" xmlns="http://www.w3.org/2000/svg">
<path d="M10.1184 19.8853C9.68213 19.8853 9.30945 19.6914 9.0004 19.3036L4.29195 13.4135C4.17681 13.2741 4.09198 13.1378 4.03744 13.0044C3.98896 12.8711 3.96472 12.7348 3.96472 12.5954C3.96472 12.2803 4.06774 12.0197 4.27377 11.8137C4.48586 11.6077 4.75249 11.5046 5.07366 11.5046C5.44331 11.5046 5.75539 11.6713 6.0099 12.0046L10.0821 17.2311L17.9719 4.69649C18.1113 4.48439 18.2537 4.33593 18.3991 4.25109C18.5446 4.16019 18.7324 4.11475 18.9627 4.11475C19.2778 4.11475 19.5353 4.21473 19.7353 4.41471C19.9353 4.60862 20.0353 4.86313 20.0353 5.17824C20.0353 5.30549 20.014 5.43578 19.9716 5.56909C19.9292 5.69635 19.8626 5.83269 19.7717 5.97813L11.2274 19.2945C10.9607 19.6884 10.5911 19.8853 10.1184 19.8853Z" fill="#222631"/>
</svg>
