<svg width="24" height="24" viewBox="0 0 24 24" fill="none" xmlns="http://www.w3.org/2000/svg">
<path d="M12.0004 11.3551C12.1666 11.3552 12.3232 11.3875 12.4702 11.4514C12.6173 11.5154 12.7516 11.6114 12.8731 11.7393L20.1737 19.2129C20.3911 19.4367 20.5 19.6986 20.5 19.9991C20.5 20.2037 20.4489 20.3925 20.3467 20.5652C20.2508 20.7377 20.1197 20.8721 19.9536 20.9681C19.7874 21.0703 19.5985 21.1213 19.3875 21.1214C19.0806 21.1214 18.8119 21.0065 18.5817 20.7764L12.004 14.0383L5.4192 20.7764C5.189 21.0066 4.92028 21.1213 4.61337 21.1214C4.40232 21.1214 4.2136 21.0704 4.04732 20.9681C3.88104 20.8721 3.74674 20.7378 3.64441 20.5652C3.5485 20.3925 3.5 20.2037 3.5 19.9991C3.50002 19.8458 3.52557 19.7019 3.57666 19.5677C3.63418 19.4399 3.71765 19.3215 3.82625 19.2129L11.1269 11.7393C11.3891 11.4835 11.6807 11.3551 12.0004 11.3551Z" fill="#222631"/>
<path d="M12.0004 2.77893C12.1665 2.77897 12.3199 2.81392 12.4604 2.88412C12.6074 2.94803 12.7453 3.04084 12.8731 3.16224L20.1737 10.6456C20.3912 10.863 20.5 11.1257 20.5 11.4327C20.4999 11.6372 20.4489 11.8262 20.3467 11.9987C20.2508 12.1649 20.1197 12.2994 19.9536 12.4017C19.7874 12.4975 19.5985 12.5451 19.3875 12.5452C19.0806 12.5452 18.8119 12.4329 18.5817 12.2091L12.004 5.46206L5.4192 12.2091C5.189 12.4329 4.92028 12.5451 4.61337 12.5452C4.40243 12.5452 4.21354 12.4975 4.04732 12.4017C3.88116 12.2994 3.74671 12.1648 3.64441 11.9987C3.54854 11.8262 3.50006 11.6372 3.5 11.4327C3.5 11.2728 3.5255 11.1283 3.57666 11.0004C3.63422 10.8661 3.71754 10.7445 3.82625 10.6358L11.1269 3.16224C11.3891 2.90644 11.6807 2.77893 12.0004 2.77893Z" fill="#222631"/>
</svg>
