<svg width="24" height="24" viewBox="0 0 24 24" fill="none" xmlns="http://www.w3.org/2000/svg">
<path d="M11.9689 1.67322C13.3511 1.67322 14.6463 1.93194 15.8541 2.44865C17.0684 2.96536 18.1313 3.68244 19.042 4.5996C19.959 5.51671 20.6763 6.58234 21.1929 7.79649C21.7161 9.00427 21.9774 10.2995 21.9774 11.6816C21.9774 13.0636 21.7159 14.3617 21.1929 15.5758C20.6763 16.7835 19.959 17.843 19.042 18.7537C18.1313 19.6708 17.0684 20.3879 15.8541 20.9046C14.6463 21.4278 13.3511 21.6901 11.9689 21.6901C10.9033 21.69 9.88607 21.5316 8.91732 21.2152C7.94849 20.8987 7.05367 20.4465 6.23338 19.8587C5.4196 19.2774 4.70602 18.5858 4.09244 17.7849C3.87304 17.5331 3.77972 17.2654 3.81193 16.9814C3.85068 16.6972 3.98259 16.4736 4.20866 16.3122C4.44759 16.1379 4.69673 16.0833 4.95503 16.1479C5.21328 16.206 5.43958 16.3487 5.63328 16.5746C6.11762 17.2074 6.68622 17.7593 7.33842 18.2307C7.99719 18.7022 8.71435 19.0674 9.48938 19.3257C10.2707 19.584 11.0972 19.7134 11.9689 19.7134C13.0799 19.7134 14.1198 19.5031 15.0887 19.0833C16.0575 18.6699 16.9101 18.0953 17.6464 17.3591C18.3891 16.6228 18.9672 15.7701 19.3806 14.8014C19.7939 13.8326 20.0007 12.7925 20.0007 11.6816C20.0007 10.5707 19.794 9.53074 19.3806 8.5619C18.9672 7.58663 18.3892 6.73403 17.6464 6.00419C16.9101 5.26791 16.0575 4.69338 15.0887 4.28002C14.1198 3.86019 13.0799 3.64986 11.9689 3.64986C10.8582 3.64988 9.81537 3.86027 8.84018 4.28002C7.87143 4.69335 7.01874 5.26797 6.28247 6.00419C5.55262 6.73405 4.97713 7.5866 4.5573 8.5619C4.39591 8.94268 4.26696 9.33358 4.16858 9.73406H5.4299C5.66209 9.73412 5.83925 9.78618 5.96188 9.88934C6.08459 9.99267 6.14365 10.1282 6.13721 10.2961C6.13075 10.4576 6.06201 10.6292 5.93283 10.81L3.68569 13.9488C3.53077 14.1618 3.34666 14.2719 3.13368 14.2784C2.92699 14.2784 2.74213 14.1684 2.58066 13.9488L0.333524 10.8191C0.197933 10.6382 0.13015 10.464 0.13015 10.2961C0.1237 10.1283 0.178315 9.99266 0.294452 9.88934C0.417102 9.78606 0.601236 9.73411 0.846468 9.73406H2.14486C2.27392 9.06435 2.46995 8.41827 2.73595 7.79649C3.25912 6.58221 3.97976 5.51677 4.89692 4.5996C5.81401 3.68253 6.87611 2.96534 8.08379 2.44865C9.29155 1.93196 10.5868 1.67324 11.9689 1.67322Z" fill="#222631"/>
<path d="M11.9689 6.0623C12.195 6.0623 12.3886 6.14333 12.55 6.30474C12.7115 6.45976 12.7925 6.65329 12.7925 6.88581V11.9491L15.0596 15.0148C15.208 15.2278 15.2733 15.4471 15.254 15.673C15.2411 15.8925 15.1406 16.0704 14.9534 16.206C14.7468 16.3545 14.5303 16.409 14.3042 16.3703C14.0782 16.3315 13.875 16.196 13.6941 15.9635L11.3879 12.9309C11.3041 12.815 11.2397 12.7055 11.1945 12.6023C11.1558 12.499 11.1364 12.3889 11.1364 12.2727V6.88581C11.1364 6.65342 11.2166 6.45971 11.3779 6.30474C11.5393 6.14332 11.7365 6.06234 11.9689 6.0623Z" fill="#222631"/>
</svg>
