<svg width="24" height="24" viewBox="0 0 24 24" fill="none" xmlns="http://www.w3.org/2000/svg">
<path d="M12.0049 9.81934C12.1192 9.81939 12.2278 9.8407 12.3301 9.88281C12.4323 9.92495 12.5373 10.0003 12.6455 10.1084L15.6182 12.9639C15.7747 13.1265 15.8535 13.3071 15.8535 13.5059C15.8535 13.7107 15.7813 13.8829 15.6367 14.0215C15.4922 14.1539 15.317 14.2197 15.1123 14.2197C14.8836 14.2197 14.6972 14.1381 14.5527 13.9756L13.251 12.6025L12.7695 12.0195L12.8447 13.3613V22.0537C12.8446 22.2704 12.7631 22.4605 12.6006 22.623C12.4381 22.7914 12.2395 22.8759 12.0049 22.876C11.7761 22.876 11.5796 22.7916 11.417 22.623C11.2544 22.4605 11.1729 22.2704 11.1729 22.0537V13.3613L11.2471 12.0156L10.7666 12.6025L9.4834 13.9756C9.33281 14.1382 9.14296 14.2197 8.91406 14.2197C8.7096 14.2197 8.53503 14.1537 8.39062 14.0215C8.24004 13.8829 8.16406 13.7107 8.16406 13.5059C8.1641 13.3072 8.24568 13.1264 8.4082 12.9639L11.3809 10.1084C11.4893 10 11.5949 9.92497 11.6973 9.88281C11.7936 9.84065 11.8965 9.81934 12.0049 9.81934Z" fill="#222631"/>
<path d="M10.0615 3.12402C10.8686 3.12402 11.6068 3.25095 12.2754 3.50391C12.938 3.75689 13.5316 4.10325 14.0557 4.54297C14.5797 4.97664 15.0317 5.46475 15.4111 6.00684C15.9411 5.8744 16.4831 5.86785 17.0371 5.98828C17.5913 6.10875 18.1034 6.33846 18.5732 6.67578C19.0369 7.00704 19.4168 7.42577 19.7119 7.93164C20.0068 8.43738 20.1663 9.00935 20.1904 9.64746C20.8771 9.76191 21.4708 10.0185 21.9707 10.416C22.4705 10.8135 22.8559 11.3138 23.127 11.916C23.3979 12.5123 23.5332 13.1718 23.5332 13.8945C23.5332 14.7015 23.3377 15.4362 22.9463 16.0986C22.5548 16.7612 21.9972 17.2919 21.2744 17.6895C20.5456 18.0869 19.6814 18.2861 18.6816 18.2861H14.5068V16.5059H18.6904C19.347 16.5059 19.9018 16.3882 20.3535 16.1533C20.8051 15.9124 21.148 15.5928 21.3828 15.1953C21.6177 14.7918 21.7353 14.3463 21.7354 13.8584C21.7354 13.0091 21.4733 12.3164 20.9492 11.7803C20.4252 11.2442 19.6991 10.9766 18.7715 10.9766C18.6513 10.9764 18.5908 10.9097 18.5908 10.7773C18.6149 9.87382 18.4436 9.17183 18.0762 8.67188C17.7028 8.17213 17.2209 7.85342 16.6309 7.71484C16.0406 7.5763 15.4228 7.60038 14.7783 7.78711C14.67 7.81718 14.5911 7.78661 14.543 7.69629C14.2478 7.17232 13.8986 6.69894 13.4951 6.27734C13.0916 5.85584 12.6099 5.52132 12.0498 5.27441C11.4836 5.02145 10.8269 4.89552 10.0801 4.89551C9.12836 4.89551 8.28467 5.12148 7.5498 5.57324C6.80906 6.02498 6.22172 6.62152 5.78809 7.3623C5.34848 8.10312 5.10759 8.91641 5.06543 9.80176C5.04738 10.0366 5.04461 10.2804 5.05664 10.5332C5.06869 10.7802 5.08626 11.0126 5.11035 11.2295C5.12226 11.3558 5.07136 11.4282 4.95703 11.4463C4.13181 11.6029 3.47798 11.9187 2.99609 12.3945C2.50822 12.8704 2.26465 13.4854 2.26465 14.2383C2.26475 14.9005 2.49924 15.4455 2.96875 15.873C3.43256 16.2947 4.13178 16.5059 5.06543 16.5059H9.51074V18.2861H5.02051C4.08086 18.2861 3.27049 18.1138 2.58984 17.7705C1.90931 17.4212 1.385 16.9487 1.01758 16.3525C0.650172 15.7563 0.466825 15.0782 0.466797 14.3193C0.466797 13.3616 0.722376 12.5179 1.23438 11.7891C1.74633 11.0543 2.45126 10.5097 3.34863 10.1543C3.34863 9.13038 3.52 8.19025 3.86328 7.33496C4.20057 6.4797 4.6767 5.73871 5.29102 5.1123C5.89939 4.47984 6.61065 3.99178 7.42383 3.64844C8.23684 3.29918 9.11606 3.12407 10.0615 3.12402Z" fill="#222631"/>
</svg>
