<svg width="24" height="24" viewBox="0 0 24 24" fill="none" xmlns="http://www.w3.org/2000/svg">
<path d="M19.8 22.6L17.15 20H6.5C4.96667 20 3.66667 19.4667 2.6 18.4C1.53333 17.3333 1 16.0333 1 14.5C1 13.2167 1.39583 12.075 2.1875 11.075C2.97917 10.075 4 9.43332 5.25 9.14999C5.3 9.01665 5.35 8.88749 5.4 8.76249C5.45 8.63749 5.5 8.49999 5.55 8.34999L1.4 4.19999L2.8 2.79999L21.2 21.2L19.8 22.6ZM6.5 18H15.15L7.1 9.94999C7.06667 10.1333 7.04167 10.3083 7.025 10.475C7.00833 10.6417 7 10.8167 7 11H6.5C5.53333 11 4.70833 11.3417 4.025 12.025C3.34167 12.7083 3 13.5333 3 14.5C3 15.4667 3.34167 16.2917 4.025 16.975C4.70833 17.6583 5.53333 18 6.5 18ZM21.6 18.75L20.15 17.35C20.4333 17.1167 20.6458 16.8458 20.7875 16.5375C20.9292 16.2292 21 15.8833 21 15.5C21 14.8 20.7583 14.2083 20.275 13.725C19.7917 13.2417 19.2 13 18.5 13H17V11C17 9.61666 16.5125 8.43749 15.5375 7.46249C14.5625 6.48749 13.3833 5.99999 12 5.99999C11.55 5.99999 11.1167 6.05415 10.7 6.16249C10.2833 6.27082 9.88333 6.44165 9.5 6.67499L8.05 5.22499C8.63333 4.82499 9.25417 4.52082 9.9125 4.31249C10.5708 4.10415 11.2667 3.99999 12 3.99999C13.95 3.99999 15.6042 4.67915 16.9625 6.03749C18.3208 7.39582 19 9.04999 19 11C20.15 11.1333 21.1042 11.6292 21.8625 12.4875C22.6208 13.3458 23 14.35 23 15.5C23 16.15 22.875 16.7542 22.625 17.3125C22.375 17.8708 22.0333 18.35 21.6 18.75Z" fill="#222631"/>
</svg>
