<svg width="24" height="24" viewBox="0 0 24 24" fill="none" xmlns="http://www.w3.org/2000/svg">
<path fill-rule="evenodd" clip-rule="evenodd" d="M14.2637 1.91406C15.2623 1.91413 16.0175 2.17011 16.5293 2.68164C17.0411 3.18732 17.2979 3.93421 17.2979 4.9209V6.30859H18.8701C19.869 6.30863 20.6239 6.56444 21.1357 7.07617C21.6476 7.58801 21.9043 8.33394 21.9043 9.31445V18.75C21.9042 19.7365 21.6475 20.4827 21.1357 20.9883C20.6239 21.4999 19.8689 21.7558 18.8701 21.7559H9.49902C8.50021 21.7558 7.74517 21.5027 7.2334 20.9971C6.72166 20.4914 6.46587 19.7427 6.46582 18.75V17.3525H4.89258C3.89393 17.3525 3.13875 17.1001 2.62695 16.5947C2.11512 16.0891 1.85841 15.3395 1.8584 14.3467V4.9209C1.8584 3.92804 2.11511 3.17853 2.62695 2.67285C3.13875 2.16735 3.89381 1.91411 4.89258 1.91406H14.2637ZM9.61035 8.13086C9.17887 8.13088 8.84924 8.24466 8.62109 8.47266C8.39292 8.69466 8.27832 9.03127 8.27832 9.48145V18.5928C8.27838 19.0428 8.39298 19.3786 8.62109 19.6006C8.84924 19.8286 9.17881 19.9433 9.61035 19.9434H18.7588C19.1843 19.9434 19.5111 19.8287 19.7393 19.6006C19.9674 19.3786 20.082 19.0428 20.082 18.5928V9.48145C20.082 9.03127 19.9674 8.69466 19.7393 8.47266C19.5111 8.24456 19.1842 8.13086 18.7588 8.13086H9.61035ZM5.00391 3.72754C4.57223 3.72754 4.24184 3.84116 4.01367 4.06934C3.79171 4.29134 3.68066 4.62799 3.68066 5.07812V14.1895C3.68068 14.6395 3.79176 14.9789 4.01367 15.207C4.24184 15.429 4.57223 15.54 5.00391 15.54H6.46582V9.31445C6.46582 8.32778 6.72156 7.58185 7.2334 7.07617C7.74517 6.5644 8.50021 6.30867 9.49902 6.30859H15.4746V5.07812C15.4746 4.62795 15.361 4.29134 15.1328 4.06934C14.9047 3.84127 14.5777 3.72755 14.1523 3.72754H5.00391Z" fill="#222631"/>
</svg>
