<svg width="24" height="24" viewBox="0 0 24 24" fill="none" xmlns="http://www.w3.org/2000/svg">
<path d="M3.11167 18.5241C2.72916 18.3064 2.42909 18.013 2.21146 17.6436C2.00042 17.2743 1.8949 16.8687 1.8949 16.4269V7.56323C1.8949 7.11478 2.00042 6.70589 2.21146 6.33657C2.42909 5.96725 2.72916 5.67378 3.11167 5.45614L10.7882 1.02433C11.1707 0.800103 11.573 0.687988 11.9951 0.687988C12.4238 0.687988 12.8326 0.800103 13.2217 1.02433L20.8884 5.45614C21.2709 5.67378 21.5677 5.96725 21.7787 6.33657C21.9963 6.70589 22.1052 7.11478 22.1052 7.56323V16.4269C22.1052 16.8687 21.9963 17.2743 21.7787 17.6436C21.5677 18.013 21.2709 18.3064 20.8884 18.5241L13.2217 22.9658C12.8326 23.1966 12.4238 23.312 11.9951 23.312C11.573 23.312 11.1707 23.1966 10.7882 22.9658L3.11167 18.5241ZM11.0355 20.8785V12.8854L3.81403 8.77011V16.0707C3.81403 16.4928 4.00199 16.816 4.3779 17.0402L10.8673 20.7894C10.9069 20.8158 10.9366 20.8323 10.9564 20.8389C10.9762 20.8521 11.0025 20.8653 11.0355 20.8785ZM11.9951 11.1839L19.4837 6.91033C19.4441 6.86417 19.3979 6.8246 19.3452 6.79162L12.5589 2.87422C12.1896 2.65658 11.817 2.65658 11.4411 2.87422L4.65489 6.79162C4.60872 6.818 4.57575 6.84109 4.55596 6.86087C4.54277 6.87406 4.52299 6.89055 4.49661 6.91033L11.9951 11.1839ZM12.9645 20.8785C13.0107 20.8521 13.047 20.8323 13.0734 20.8191C13.1063 20.8059 13.1525 20.7795 13.2119 20.74L19.6222 17.0402C19.9915 16.816 20.1761 16.4928 20.1761 16.0707V8.76022L12.9645 12.8755V20.8785Z" fill="#222631"/>
</svg>
