<svg width="24" height="24" viewBox="0 0 24 24" fill="none" xmlns="http://www.w3.org/2000/svg">
<path d="M3 12.1257C3 11.4593 3.39043 11.1261 4.17129 11.1261H9.82578C10.4249 11.1261 11.0644 10.9746 11.7443 10.6717C12.4309 10.3688 13.1141 9.96827 13.794 9.47014C14.4739 8.97874 15.0966 8.44021 15.662 7.85457C16.2342 7.26893 16.7054 6.68665 17.0756 6.10774L17.6108 5.28986C17.8127 4.96001 18.1089 4.79509 18.4994 4.79509C18.7552 4.79509 18.9773 4.87923 19.1658 5.04752C19.361 5.22254 19.4586 5.46488 19.4586 5.77453C19.4586 6.06398 19.3644 6.34671 19.1759 6.6227L18.8326 7.15786C18.4556 7.71658 18.0113 8.26856 17.4997 8.81381C16.9881 9.35907 16.4462 9.86057 15.8741 10.3183C15.3086 10.7828 14.76 11.1699 14.2282 11.4795C13.6964 11.7959 13.2286 12.0046 12.8247 12.1055V12.1459C13.2286 12.2402 13.6964 12.4455 14.2282 12.7619C14.76 13.0782 15.3086 13.4687 15.8741 13.9331C16.4395 14.3976 16.978 14.8991 17.4896 15.4376C18.008 15.9829 18.4556 16.5382 18.8326 17.1037L19.1759 17.6288C19.3644 17.9048 19.4586 18.1875 19.4586 18.4769C19.4586 18.7799 19.3644 19.0188 19.1759 19.1938C18.9941 19.3689 18.7653 19.4564 18.4893 19.4564C18.1056 19.4564 17.8127 19.2914 17.6108 18.9616L17.0756 18.1538C16.7054 17.5749 16.2342 16.9893 15.662 16.3969C15.0966 15.8112 14.4739 15.2694 13.794 14.7712C13.1141 14.2798 12.4309 13.8827 11.7443 13.5797C11.0644 13.2768 10.4249 13.1254 9.82578 13.1254H4.17129C3.39043 13.1254 3 12.7922 3 12.1257ZM15.8438 5.03742C15.5341 4.79509 15.4163 4.54602 15.4904 4.29022C15.5644 4.04116 15.7865 3.86277 16.1568 3.75507L20.1351 2.55349C20.438 2.45925 20.6871 2.48954 20.8823 2.64436C21.0775 2.79919 21.1684 3.03143 21.1549 3.34108L20.9833 7.50117C20.9698 7.88486 20.8487 8.14066 20.6198 8.26856C20.3976 8.39646 20.1351 8.34597 19.8322 8.1171L15.8438 5.03742ZM15.864 19.0828L19.9332 16.1243C20.2428 15.8954 20.5087 15.8516 20.7309 15.993C20.953 16.1344 21.0641 16.3935 21.0641 16.7705L21.1146 20.9407C21.1146 21.2503 21.0136 21.4758 20.8116 21.6172C20.6164 21.7653 20.3674 21.7888 20.0644 21.6879L16.1265 20.3651C15.763 20.2507 15.5476 20.0656 15.4803 19.8098C15.4129 19.554 15.5408 19.3116 15.864 19.0828Z" fill="#222631"/>
</svg>
