<svg width="24" height="24" viewBox="0 0 24 24" fill="none" xmlns="http://www.w3.org/2000/svg">
<path fill-rule="evenodd" clip-rule="evenodd" d="M20.2158 15.6611C20.6703 15.6611 21.0189 15.7816 21.2607 16.0234C21.5026 16.2626 21.623 16.6087 21.623 17.0605V21.8838C21.623 22.3356 21.5026 22.6817 21.2607 22.9209C21.0189 23.1628 20.6703 23.2832 20.2158 23.2832H15.4082C14.9537 23.2832 14.6051 23.1627 14.3633 22.9209C14.1214 22.6817 14.001 22.3356 14.001 21.8838V17.0605C14.001 16.6087 14.1214 16.2626 14.3633 16.0234C14.6051 15.7816 14.9537 15.6611 15.4082 15.6611H20.2158ZM17.082 17.7461C16.9413 17.7462 16.8281 17.7831 16.7432 17.8574C16.6583 17.9318 16.6163 18.0328 16.6162 18.1602C16.6162 18.2849 16.6571 18.3846 16.7393 18.459C16.8243 18.5334 16.9374 18.5712 17.0781 18.5713H17.6846L18.1787 18.5068L17.6123 19.0059L16.2773 20.3408C16.1763 20.4392 16.126 20.5543 16.126 20.6846C16.1261 20.8279 16.1705 20.9424 16.2607 21.0273C16.3537 21.1123 16.4656 21.1542 16.5957 21.1543C16.6646 21.1543 16.73 21.143 16.791 21.1191C16.8521 21.0952 16.9097 21.0561 16.9629 21.0029L18.2861 19.6797L18.7803 19.1172L18.7246 19.6357V20.2021C18.7247 20.3428 18.7626 20.4561 18.8369 20.541C18.9113 20.6231 19.0123 20.6641 19.1396 20.6641C19.2672 20.664 19.3667 20.6212 19.4385 20.5361C19.5127 20.4512 19.5497 20.34 19.5498 20.2021V18.2959C19.5498 18.1152 19.5007 17.9788 19.4023 17.8857C19.304 17.7927 19.1688 17.7461 18.9961 17.7461H17.082Z" fill="#222631"/>
<path d="M16.6631 1.69141C17.6852 1.69141 18.457 1.95793 18.9775 2.49121C19.4981 3.01814 19.7578 3.79334 19.7578 4.81543V12.7402C19.7575 13.2552 19.3401 13.6726 18.8252 13.6729C18.31 13.6729 17.8919 13.2554 17.8916 12.7402V4.93848C17.8915 4.49426 17.7773 4.15476 17.5488 3.91992C17.3203 3.67867 16.9742 3.55762 16.5107 3.55762H6.68359C6.22022 3.55762 5.87406 3.67875 5.64551 3.91992C5.41701 4.15477 5.30279 4.49422 5.30273 4.93848V19.0703C5.30273 19.5084 5.41696 19.8452 5.64551 20.0801C5.87406 20.3149 6.22021 20.4326 6.68359 20.4326H11.043C11.5608 20.4329 11.9805 20.8532 11.9805 21.3711C11.9802 21.8889 11.5599 22.3086 11.042 22.3086H6.52148C5.49942 22.3086 4.72762 22.0454 4.20703 21.5186C3.68653 20.9917 3.42684 20.2138 3.42676 19.1855V4.81543C3.42676 3.7933 3.68645 3.01815 4.20703 2.49121C4.72762 1.95793 5.49936 1.69141 6.52148 1.69141H16.6631Z" fill="#222631"/>
<path d="M11.4824 12.7861C11.6602 12.7861 11.8066 12.8462 11.9209 12.9668C12.0351 13.081 12.0918 13.2242 12.0918 13.3955C12.0917 13.4982 12.0677 13.5898 12.0234 13.6729H11.9805V13.7422C11.9623 13.7668 11.9435 13.7918 11.9209 13.8145C11.8066 13.9287 11.6601 13.9854 11.4824 13.9854H8.11133C7.93385 13.9853 7.788 13.9285 7.67383 13.8145C7.55964 13.7003 7.50204 13.5604 7.50195 13.3955C7.50195 13.2241 7.55955 13.0811 7.67383 12.9668C7.78804 12.8463 7.93371 12.7862 8.11133 12.7861H11.4824Z" fill="#222631"/>
<path d="M15.082 9.5293C15.2534 9.5293 15.3965 9.58599 15.5107 9.7002C15.625 9.81445 15.6826 9.95412 15.6826 10.1191C15.6826 10.2906 15.625 10.437 15.5107 10.5576C15.3965 10.6717 15.2533 10.7285 15.082 10.7285H8.11133C7.93385 10.7285 7.788 10.6716 7.67383 10.5576C7.55955 10.437 7.50195 10.2906 7.50195 10.1191C7.50198 9.95412 7.55958 9.81445 7.67383 9.7002C7.78802 9.58609 7.93378 9.52936 8.11133 9.5293H15.082Z" fill="#222631"/>
<path d="M15.082 6.27246C15.2534 6.27246 15.3965 6.32915 15.5107 6.44336C15.625 6.55763 15.6826 6.70066 15.6826 6.87207C15.6826 7.03708 15.625 7.18019 15.5107 7.30078C15.3965 7.42124 15.2533 7.48145 15.082 7.48145H8.11133C7.93384 7.48138 7.788 7.42114 7.67383 7.30078C7.55958 7.18019 7.50198 7.03708 7.50195 6.87207C7.50195 6.70066 7.55955 6.55763 7.67383 6.44336C7.78802 6.32925 7.93377 6.27252 8.11133 6.27246H15.082Z" fill="#222631"/>
</svg>
