<svg width="24" height="24" viewBox="0 0 24 24" fill="none" xmlns="http://www.w3.org/2000/svg">
<path d="M6.49074 9.98001C6.35846 9.83995 6.29328 9.66638 6.29328 9.47339C6.29328 9.28037 6.35866 9.10673 6.49521 8.97019C6.6362 8.82919 6.81472 8.76025 7.01443 8.76025H13.0974C13.2923 8.76025 13.4656 8.82969 13.6006 8.97014C13.741 9.1051 13.8105 9.27847 13.8105 9.47339C13.8105 9.66926 13.7406 9.84347 13.6028 9.98236C13.4675 10.1243 13.2934 10.1945 13.0974 10.1945H7.01443C6.81472 10.1945 6.6362 10.1256 6.49521 9.9846L6.49373 9.98313L6.49074 9.98001Z" fill="#222631"/>
<path d="M6.49074 12.777C6.35846 12.637 6.29328 12.4634 6.29328 12.2704C6.29328 12.0774 6.35866 11.9038 6.49521 11.7672C6.6362 11.6262 6.81472 11.5573 7.01443 11.5573H13.0974C13.2923 11.5573 13.4656 11.6267 13.6006 11.7672C13.7411 11.9021 13.8105 12.0755 13.8105 12.2704C13.8105 12.4663 13.7406 12.6405 13.6028 12.7794C13.4676 12.9213 13.2934 12.9916 13.0974 12.9916H7.01443C6.81472 12.9916 6.6362 12.9226 6.49521 12.7816L6.49373 12.7801L6.49074 12.777Z" fill="#222631"/>
<path d="M6.29328 15.0835C6.29328 15.2737 6.36017 15.4438 6.49074 15.5821L6.49677 15.5883L6.4998 15.5911C6.64156 15.725 6.8186 15.7886 7.01443 15.7886H9.8916C10.0873 15.7886 10.2646 15.7249 10.4028 15.5867C10.5402 15.4493 10.6128 15.2777 10.6128 15.0835C10.6128 14.8848 10.5446 14.7072 10.4051 14.5665C10.268 14.4227 10.0902 14.3543 9.8916 14.3543H7.01443C6.81474 14.3543 6.63615 14.4232 6.49514 14.5642L6.49074 14.5688C6.35686 14.7106 6.29328 14.8876 6.29328 15.0835Z" fill="#222631"/>
<path fill-rule="evenodd" clip-rule="evenodd" d="M7.66547 1.90943C8.13877 1.43006 8.8285 1.20959 9.69241 1.20959H18.2037C19.0671 1.20959 19.7548 1.42981 20.2231 1.90995C20.6953 2.38854 20.9124 3.08241 20.9124 3.95038V16.1082C20.9124 16.981 20.6956 17.6761 20.2218 18.15C19.7533 18.6239 19.0661 18.841 18.2037 18.841H17.0163V20.0043C17.0163 20.8771 16.7994 21.5723 16.3256 22.0461C15.8572 22.5201 15.1699 22.7371 14.3075 22.7371H5.79625C4.93306 22.7371 4.24373 22.5197 3.77032 22.0463C3.30243 21.5723 3.08752 20.8765 3.08752 20.0043V7.84649C3.08752 6.97888 3.30276 6.28421 3.76931 5.80554C4.24261 5.32617 4.93233 5.1057 5.79625 5.1057H6.98369V3.95038C6.98369 3.08277 7.19892 2.3881 7.66547 1.90943ZM8.64438 5.1057H14.3075C15.1709 5.1057 15.8587 5.32592 16.327 5.80605C16.7992 6.28464 17.0163 6.97851 17.0163 7.84649V17.1803H18.1396C18.5329 17.1803 18.8012 17.0797 18.9727 16.9038L18.974 16.9025C19.1522 16.7242 19.2517 16.4592 19.2517 16.0842V3.97443C19.2517 3.59939 19.1522 3.33437 18.974 3.15608L18.9714 3.1535C18.7997 2.97306 18.5319 2.87029 18.1396 2.87029H9.75653C9.36452 2.87029 9.09289 2.97291 8.91545 3.15477C8.74178 3.33291 8.64438 3.59844 8.64438 3.97443V5.1057ZM5.86037 21.0764C5.46788 21.0764 5.19596 20.9762 5.01866 20.7993C4.84536 20.6212 4.74822 20.3558 4.74822 19.9803V7.87053C4.74822 7.49454 4.84561 7.22902 5.01928 7.05087C5.19672 6.86902 5.46836 6.76639 5.86037 6.76639H14.2434C14.6357 6.76639 14.9036 6.86917 15.0752 7.04961L15.0778 7.05219C15.2561 7.23047 15.3556 7.49549 15.3556 7.87053V19.9803C15.3556 20.3553 15.2561 20.6203 15.0778 20.7986L15.0765 20.7999C14.905 20.9758 14.6367 21.0764 14.2434 21.0764H5.86037Z" fill="#222631"/>
</svg>
