<svg width="24" height="24" viewBox="0 0 24 24" fill="none" xmlns="http://www.w3.org/2000/svg">
<path d="M16.8867 1.69141C17.9088 1.69141 18.6806 1.95795 19.2012 2.49121C19.7218 3.01815 19.9824 3.7933 19.9824 4.81543V19.1855C19.9823 20.2138 19.7217 20.9917 19.2012 21.5186C18.6806 22.0454 17.9088 22.3086 16.8867 22.3086H7.93457C7.4167 22.3086 6.99636 21.8889 6.99609 21.3711C6.99609 20.8531 7.41653 20.4326 7.93457 20.4326H16.7344C17.1978 20.4326 17.5439 20.315 17.7725 20.0801C18.001 19.8452 18.1152 19.5084 18.1152 19.0703V4.93848C18.1152 4.49422 18.001 4.15477 17.7725 3.91992C17.5439 3.6787 17.1978 3.55762 16.7344 3.55762H6.90723C6.4438 3.55762 6.09769 3.67869 5.86914 3.91992C5.64064 4.15477 5.52642 4.49422 5.52637 4.93848V9.73242C5.5261 10.2501 5.10652 10.6697 4.58887 10.6699C4.07083 10.6699 3.65039 10.2495 3.65039 9.73145V4.81543C3.65039 3.79336 3.91014 3.01814 4.43066 2.49121C4.95125 1.95793 5.72299 1.69141 6.74512 1.69141H16.8867Z" fill="#222631"/>
<path d="M4.09082 12.4756C4.30613 12.4756 4.49156 12.5439 4.63965 12.6846L4.64258 12.6885C4.78384 12.8372 4.85254 13.0262 4.85254 13.2471C4.85248 13.3566 4.8307 13.4628 4.78711 13.5645C4.74296 13.6674 4.67671 13.7559 4.58984 13.8291L3.81738 14.5918L3.23926 15.1553L4.43457 15.0986H9.29004C9.52184 15.0987 9.72018 15.1836 9.87988 15.3506L9.88184 15.3516C10.0387 15.5227 10.1191 15.7226 10.1191 15.9473C10.1191 16.1778 10.0387 16.3789 9.87988 16.5449C9.7202 16.7118 9.52178 16.7968 9.29004 16.7969H4.43945L3.23926 16.7402L3.81738 17.3037L4.58984 18.0664C4.67665 18.1396 4.74299 18.2281 4.78711 18.3311C4.83067 18.4328 4.85251 18.5389 4.85254 18.6484C4.85254 18.8693 4.78386 19.0583 4.64258 19.207L4.64062 19.209C4.49289 19.3565 4.30742 19.4297 4.09082 19.4297C3.9692 19.4297 3.85755 19.405 3.75879 19.3525C3.66324 19.308 3.57654 19.2418 3.49902 19.1572L1.12695 16.582L1.125 16.5811C1.03182 16.4746 0.961899 16.3704 0.917969 16.2695C0.866165 16.1718 0.84082 16.0633 0.84082 15.9473C0.840872 15.831 0.865885 15.7229 0.917969 15.625C0.961864 15.5308 1.03222 15.4303 1.125 15.3242L3.49902 12.7383C3.57722 12.653 3.66419 12.5866 3.76074 12.542C3.85906 12.4966 3.97004 12.4756 4.09082 12.4756Z" fill="#222631"/>
<path d="M11.7158 9.5293C11.8872 9.5293 12.0303 9.58595 12.1445 9.7002C12.2588 9.81445 12.3164 9.95412 12.3164 10.1191C12.3164 10.2906 12.2588 10.437 12.1445 10.5576C12.0303 10.6718 11.8871 10.7285 11.7158 10.7285H8.33496C8.15751 10.7284 8.01161 10.6717 7.89746 10.5576C7.78319 10.437 7.72559 10.2906 7.72559 10.1191C7.72561 9.95412 7.78321 9.81445 7.89746 9.7002C8.01163 9.58606 8.15744 9.5294 8.33496 9.5293H11.7158Z" fill="#222631"/>
<path d="M15.3066 6.27246C15.4778 6.27256 15.6202 6.32931 15.7344 6.44336C15.8486 6.55763 15.9062 6.70066 15.9062 6.87207C15.9062 7.03708 15.8486 7.18019 15.7344 7.30078C15.6203 7.42107 15.4777 7.48134 15.3066 7.48145H8.33496C8.15751 7.48134 8.01161 7.42116 7.89746 7.30078C7.78322 7.18019 7.72562 7.03708 7.72559 6.87207C7.72559 6.70066 7.78319 6.55763 7.89746 6.44336C8.01163 6.32923 8.15744 6.27256 8.33496 6.27246H15.3066Z" fill="#222631"/>
</svg>
