<svg viewBox="0 0 24 24" fill="none" xmlns="http://www.w3.org/2000/svg">
  <path
    d="M15.2002 1C16.0237 1 16.7016 0.998985 17.252 1.04395C17.8141 1.08987 18.3311 1.18826 18.8164 1.43555C19.569 1.819 20.181 2.43108 20.5645 3.1836C20.8117 3.66889 20.9101 4.186 20.9561 4.74805C21.001 5.29843 21 5.97632 21 6.79981V13.5C21 14.0523 20.5523 14.5 20 14.5C19.4478 14.4999 19 14.0522 19 13.5V6.79981C19 5.94341 18.9997 5.36117 18.9629 4.91113C18.9271 4.47272 18.8619 4.2482 18.7822 4.0918C18.5905 3.71556 18.2845 3.40949 17.9082 3.21778C17.7518 3.1381 17.5272 3.07293 17.0889 3.03711C16.6388 3.00037 16.0566 3 15.2002 3H8.80079C7.94423 3 7.36121 3.00034 6.91114 3.03711C6.47325 3.07291 6.24912 3.13818 6.09278 3.21778C5.71656 3.40947 5.41051 3.71562 5.21875 4.0918C5.13906 4.24819 5.07392 4.47273 5.03809 4.91113C5.00132 5.36117 5.00003 5.94339 5 6.79981V17.2002C4.99998 18.0566 5.00133 18.6388 5.03809 19.0889C5.0739 19.5273 5.13809 19.7518 5.21778 19.9082C5.4095 20.2845 5.71557 20.5905 6.0918 20.7822C6.2482 20.8619 6.47271 20.9271 6.91114 20.9629C7.36117 20.9997 7.94342 21 8.79981 21H11.5C12.0523 21 12.5 21.4477 12.5 22C12.5 22.5523 12.0523 23 11.5 23H8.79981C7.97636 23 7.29841 23.001 6.74805 22.9561C6.18623 22.9101 5.6697 22.8115 5.18458 22.5645C4.43192 22.181 3.81904 21.5681 3.43555 20.8154C3.18851 20.3303 3.08985 19.8138 3.04395 19.252C2.999 18.7016 2.99998 18.0236 3 17.2002V6.79981C3.00003 5.97629 2.99994 5.29844 3.04493 4.74805C3.09087 4.186 3.18925 3.66889 3.43653 3.1836C3.82004 2.43113 4.43206 1.81897 5.18458 1.43555C5.66983 1.18835 6.18703 1.08987 6.74903 1.04395C7.29936 0.999011 7.97744 1 8.80079 1H15.2002Z"
    fill="currentColor"
  />
  <path
    d="M17 15C17.5523 15 18 15.4477 18 16V18H20C20.5523 18 21 18.4477 21 19C21 19.5523 20.5523 20 20 20H18V22C18 22.5523 17.5523 23 17 23C16.4477 23 16 22.5523 16 22V20H14C13.4477 20 13 19.5523 13 19C13 18.4477 13.4477 18 14 18H16V16C16 15.4477 16.4477 15 17 15Z"
    fill="currentColor"
  />
  <path
    d="M12 13C12.5523 13 13 13.4477 13 14C13 14.5523 12.5523 15 12 15H8.5C7.94772 15 7.5 14.5523 7.5 14C7.50001 13.4477 7.94772 13 8.5 13H12Z"
    fill="currentColor"
  />
  <path
    d="M15.5 9.5C16.0523 9.5 16.5 9.94772 16.5 10.5C16.5 11.0523 16.0523 11.5 15.5 11.5H8.5C7.94772 11.5 7.5 11.0523 7.5 10.5C7.50001 9.94772 7.94772 9.5 8.5 9.5H15.5Z"
    fill="currentColor"
  />
  <path
    d="M15.5 6C16.0523 6 16.5 6.44772 16.5 7C16.5 7.55229 16.0523 8 15.5 8H8.5C7.94772 8 7.5 7.55229 7.5 7C7.50001 6.44772 7.94772 6 8.5 6H15.5Z"
    fill="currentColor"
  />
</svg>
