<svg width="24" height="24" viewBox="0 0 24 24" fill="none" xmlns="http://www.w3.org/2000/svg">
<path d="M2.14844 1.44531C2.34316 1.44531 2.5117 1.5137 2.65332 1.64941L22.3643 21.3506C22.5 21.4922 22.5645 21.6579 22.5586 21.8467C22.5586 22.0412 22.4938 22.2091 22.3643 22.3506C22.2285 22.4863 22.0629 22.5547 21.8682 22.5547C21.6736 22.5546 21.5058 22.4862 21.3643 22.3506L1.64453 2.64941C1.50882 2.5137 1.44043 2.34804 1.44043 2.15332C1.44047 1.95284 1.50894 1.78506 1.64453 1.64941C1.78604 1.5138 1.9539 1.44541 2.14844 1.44531Z" fill="#222631"/>
<path d="M5.52637 8.38477V19.0703C5.52637 19.5084 5.64059 19.8452 5.86914 20.0801C6.09769 20.315 6.44378 20.4326 6.90723 20.4326H16.7344C17.0139 20.4326 17.2503 20.3882 17.4443 20.3027L18.9082 21.7666C18.4059 22.1273 17.7323 22.3086 16.8867 22.3086H6.74512C5.723 22.3086 4.95125 22.0455 4.43066 21.5186C3.91016 20.9917 3.65047 20.2138 3.65039 19.1855V6.50879L5.52637 8.38477Z" fill="#222631"/>
<path d="M16.8867 1.69141C17.9088 1.69141 18.6806 1.95795 19.2012 2.49121C19.7218 3.01815 19.9824 3.7933 19.9824 4.81543V17.124L18.1152 15.2568V4.93848C18.1152 4.49422 18.001 4.15477 17.7725 3.91992C17.5439 3.6787 17.1978 3.55762 16.7344 3.55762H6.90723C6.744 3.55762 6.59503 3.57261 6.46094 3.60254L4.95117 2.09277C5.42346 1.82539 6.02137 1.69141 6.74512 1.69141H16.8867Z" fill="#222631"/>
<path d="M11.127 13.9854H8.33496C8.15751 13.9853 8.01161 13.9285 7.89746 13.8145C7.78327 13.7003 7.72567 13.5604 7.72559 13.3955C7.72559 13.2241 7.78322 13.0811 7.89746 12.9668C8.01164 12.8463 8.15741 12.7862 8.33496 12.7861H9.92773L11.127 13.9854Z" fill="#222631"/>
<path d="M15.3066 9.5293C15.4778 9.5294 15.6202 9.58615 15.7344 9.7002C15.8486 9.81445 15.9062 9.95412 15.9062 10.1191C15.9062 10.2906 15.8486 10.437 15.7344 10.5576C15.6203 10.6716 15.4777 10.7284 15.3066 10.7285H13.5869L12.3877 9.5293H15.3066Z" fill="#222631"/>
<path d="M15.3066 6.27246C15.4778 6.27256 15.6202 6.32931 15.7344 6.44336C15.8486 6.55763 15.9062 6.70066 15.9062 6.87207C15.9062 7.03708 15.8486 7.18019 15.7344 7.30078C15.6203 7.42107 15.4777 7.48134 15.3066 7.48145H10.3398L9.13086 6.27246H15.3066Z" fill="#222631"/>
</svg>
