<svg viewBox="0 0 24 24" fill="none" xmlns="http://www.w3.org/2000/svg">
  <path
    d="M16.8867 1.69141C17.9088 1.69141 18.6806 1.95795 19.2012 2.49121C19.7218 3.01815 19.9824 3.7933 19.9824 4.81543V19.1855C19.9823 20.2138 19.7217 20.9917 19.2012 21.5186C18.6806 22.0454 17.9088 22.3086 16.8867 22.3086H10.9346C10.4167 22.3086 9.99636 21.8889 9.99609 21.3711C9.99609 20.8531 10.4165 20.4326 10.9346 20.4326H16.7344C17.1978 20.4326 17.5439 20.315 17.7725 20.0801C18.001 19.8452 18.1152 19.5084 18.1152 19.0703V4.93848C18.1152 4.49422 18.001 4.15477 17.7725 3.91992C17.5439 3.6787 17.1978 3.55762 16.7344 3.55762H6.90723C6.4438 3.55762 6.09769 3.67869 5.86914 3.91992C5.64064 4.15477 5.52642 4.49422 5.52637 4.93848V9.73242C5.5261 10.2501 5.10652 10.6697 4.58887 10.6699C4.07083 10.6699 3.65039 10.2495 3.65039 9.73145V4.81543C3.65039 3.79336 3.91014 3.01814 4.43066 2.49121C4.95125 1.95793 5.72299 1.69141 6.74512 1.69141H16.8867Z"
    fill="currentColor"
  />
  <path
    d="M8.38574 12.417C8.50652 12.417 8.6175 12.439 8.71582 12.4844C8.81242 12.529 8.89931 12.5953 8.97754 12.6807L11.3516 15.2666C11.4444 15.3727 11.5147 15.4732 11.5586 15.5674C11.6107 15.6653 11.6357 15.7734 11.6357 15.8896C11.6357 16.0056 11.6104 16.1142 11.5586 16.2119C11.5147 16.3126 11.4445 16.4161 11.3516 16.5225L11.3496 16.5244L8.97754 19.0996C8.90009 19.184 8.8142 19.2504 8.71875 19.2949C8.61987 19.3476 8.50757 19.3721 8.38574 19.3721C8.16919 19.372 7.98364 19.2989 7.83594 19.1514L7.83398 19.1494C7.6927 19.0007 7.62402 18.8117 7.62402 18.5908C7.62404 18.4813 7.64591 18.3751 7.68945 18.2734C7.73363 18.1704 7.80072 18.082 7.8877 18.0088L8.65918 17.2461L9.2373 16.6826L8.03711 16.7393H3.1875C2.95558 16.7393 2.75646 16.6543 2.59668 16.4873C2.43789 16.3213 2.35742 16.1202 2.35742 15.8896C2.35749 15.665 2.43789 15.4651 2.59473 15.2939L2.59668 15.293C2.75648 15.1259 2.95552 15.041 3.1875 15.041H8.04199L9.2373 15.0977L8.65918 14.5342L7.8877 13.7715C7.80073 13.6982 7.73363 13.6099 7.68945 13.5068C7.6458 13.405 7.62402 13.2982 7.62402 13.1885C7.62411 12.9678 7.6929 12.7795 7.83398 12.6309L7.83691 12.627C7.98496 12.4863 8.17051 12.4171 8.38574 12.417Z"
    fill="currentColor"
  />
  <path
    d="M11.7158 9.5293C11.8872 9.5293 12.0303 9.58595 12.1445 9.7002C12.2588 9.81445 12.3164 9.95412 12.3164 10.1191C12.3164 10.2906 12.2588 10.437 12.1445 10.5576C12.0303 10.6718 11.8871 10.7285 11.7158 10.7285H8.33496C8.15751 10.7284 8.01161 10.6717 7.89746 10.5576C7.78319 10.437 7.72559 10.2906 7.72559 10.1191C7.72561 9.95412 7.78321 9.81445 7.89746 9.7002C8.01163 9.58606 8.15744 9.5294 8.33496 9.5293H11.7158Z"
    fill="currentColor"
  />
  <path
    d="M15.3066 6.27246C15.4778 6.27256 15.6202 6.32931 15.7344 6.44336C15.8486 6.55763 15.9062 6.70066 15.9062 6.87207C15.9062 7.03708 15.8486 7.18019 15.7344 7.30078C15.6203 7.42107 15.4777 7.48134 15.3066 7.48145H8.33496C8.15751 7.48134 8.01161 7.42116 7.89746 7.30078C7.78322 7.18019 7.72562 7.03708 7.72559 6.87207C7.72559 6.70066 7.78319 6.55763 7.89746 6.44336C8.01163 6.32923 8.15744 6.27256 8.33496 6.27246H15.3066Z"
    fill="currentColor"
  />
</svg>
