<svg width="24" height="24" viewBox="0 0 24 24" fill="none" xmlns="http://www.w3.org/2000/svg">
<path d="M12.8594 1.69141C12.5198 2.26055 12.2689 2.8887 12.1279 3.55762H6.90723C6.4438 3.55762 6.09769 3.67869 5.86914 3.91992C5.64064 4.15477 5.52642 4.49422 5.52637 4.93848V19.0703C5.52637 19.5084 5.64059 19.8452 5.86914 20.0801C6.09769 20.315 6.44378 20.4326 6.90723 20.4326H16.7344C17.1978 20.4326 17.5439 20.315 17.7725 20.0801C18.001 19.8452 18.1152 19.5084 18.1152 19.0703V10.9629C18.1201 10.9629 18.125 10.9639 18.1299 10.9639C18.7755 10.9639 19.3979 10.8627 19.9824 10.6777V19.1855C19.9823 20.2138 19.7217 20.9917 19.2012 21.5186C18.6806 22.0454 17.9088 22.3086 16.8867 22.3086H6.74512C5.723 22.3086 4.95125 22.0455 4.43066 21.5186C3.91016 20.9917 3.65047 20.2138 3.65039 19.1855V4.81543C3.65039 3.79336 3.91014 3.01814 4.43066 2.49121C4.95125 1.95793 5.72299 1.69141 6.74512 1.69141H12.8594Z" fill="#222631"/>
<path d="M11.7061 12.7861C11.8838 12.7861 12.0303 12.8462 12.1445 12.9668C12.2588 13.0811 12.3164 13.2241 12.3164 13.3955C12.3163 13.5604 12.2587 13.7003 12.1445 13.8145C12.0303 13.9286 11.8837 13.9854 11.7061 13.9854H8.33496C8.15751 13.9853 8.01161 13.9285 7.89746 13.8145C7.78327 13.7003 7.72567 13.5604 7.72559 13.3955C7.72559 13.2241 7.78322 13.0811 7.89746 12.9668C8.01164 12.8463 8.15741 12.7862 8.33496 12.7861H11.7061Z" fill="#222631"/>
<path d="M14.1904 9.5293C14.665 9.92753 15.2004 10.2551 15.7812 10.4961C15.7661 10.5163 15.7524 10.5386 15.7344 10.5576C15.6203 10.6716 15.4777 10.7284 15.3066 10.7285H8.33496C8.15751 10.7284 8.01161 10.6717 7.89746 10.5576C7.78319 10.437 7.72559 10.2906 7.72559 10.1191C7.72561 9.95412 7.78321 9.81445 7.89746 9.7002C8.01163 9.58607 8.15744 9.5294 8.33496 9.5293H14.1904Z" fill="#222631"/>
<path fill-rule="evenodd" clip-rule="evenodd" d="M18.1338 0.716797C18.8977 0.716797 19.5967 0.9081 20.2295 1.29004C20.8678 1.66626 21.3748 2.17102 21.751 2.80371C22.1272 3.43646 22.3154 4.13767 22.3154 4.90723C22.3154 5.47719 22.2047 6.01616 21.9824 6.52344C21.7658 7.02501 21.4638 7.46983 21.0762 7.85742C20.6944 8.24494 20.2493 8.54918 19.7422 8.77148C19.2348 8.98811 18.6981 9.09668 18.1338 9.09668C17.5582 9.09662 17.017 8.98805 16.5098 8.77148C16.0081 8.54916 15.5634 8.24716 15.1758 7.86523C14.794 7.47772 14.4918 7.03058 14.2695 6.52344C14.0529 6.01616 13.9444 5.47719 13.9443 4.90723C13.9443 4.13771 14.1326 3.43644 14.5088 2.80371C14.8906 2.17108 15.3977 1.66625 16.0303 1.29004C16.6629 0.908179 17.3644 0.716876 18.1338 0.716797ZM18.1426 2.24805C17.966 2.2481 17.8231 2.30189 17.7148 2.41016C17.6124 2.51269 17.5616 2.64954 17.5615 2.82031V4.33398H16.0479C15.8768 4.33398 15.7372 4.38567 15.6289 4.48828C15.5264 4.59088 15.4746 4.73058 15.4746 4.90723C15.4747 5.07813 15.5263 5.21792 15.6289 5.32617C15.7372 5.4287 15.8769 5.47949 16.0479 5.47949H17.5615V7.00195C17.5615 7.17284 17.6124 7.31262 17.7148 7.4209C17.8231 7.52346 17.966 7.57515 18.1426 7.5752C18.3136 7.5752 18.4511 7.52351 18.5537 7.4209C18.6619 7.31263 18.7158 7.17283 18.7158 7.00195V5.47949H20.2295C20.4003 5.47944 20.5371 5.42865 20.6396 5.32617C20.7479 5.21792 20.8017 5.07813 20.8018 4.90723C20.8018 4.73059 20.7479 4.59088 20.6396 4.48828C20.5371 4.38572 20.4004 4.33404 20.2295 4.33398H18.7158V2.82031C18.7158 2.64955 18.6618 2.51269 18.5537 2.41016C18.4511 2.30185 18.3136 2.24805 18.1426 2.24805Z" fill="#222631"/>
<path d="M12.1689 6.27246C12.2706 6.69396 12.4139 7.09891 12.5977 7.48145H8.33496C8.15751 7.48134 8.01161 7.42116 7.89746 7.30078C7.78322 7.18019 7.72562 7.03708 7.72559 6.87207C7.72559 6.70066 7.78319 6.55763 7.89746 6.44336C8.01163 6.32923 8.15744 6.27256 8.33496 6.27246H12.1689Z" fill="#222631"/>
</svg>
