<svg viewBox="0 0 40 40" fill="none" xmlns="http://www.w3.org/2000/svg">
  <g filter="url(#filter0_d_2456_1496)">
    <g clip-path="url(#clip0_2456_1496)">
      <rect x="8" y="4" width="24" height="32" rx="3.55556" fill="white" />
      <path
        d="M7.99951 4H31.9995L31.9995 13.5H7.99903L7.99951 4Z"
        fill="#3677CC"
      />
      <path
        d="M7.99951 4H31.9995L31.9995 13.5H7.99903L7.99951 4Z"
        fill="#F6F8F9"
        fill-opacity="0.975"
      />
      <path
        d="M7.99951 4H31.9995L31.9995 13.5H7.99903L7.99951 4Z"
        fill="url(#paint0_linear_2456_1496)"
        fill-opacity="0.4"
      />
      <path
        fill-rule="evenodd"
        clip-rule="evenodd"
        d="M11.1001 13.489C11.1001 12.9981 11.4981 12.6001 11.989 12.6001H19.989C20.4799 12.6001 20.8779 12.9981 20.8779 13.489C20.8779 13.9799 20.4799 14.3779 19.989 14.3779H11.989C11.4981 14.3779 11.1001 13.9799 11.1001 13.489Z"
        fill="#3677CC"
      />
      <path
        fill-rule="evenodd"
        clip-rule="evenodd"
        d="M11.1001 13.489C11.1001 12.9981 11.4981 12.6001 11.989 12.6001H19.989C20.4799 12.6001 20.8779 12.9981 20.8779 13.489C20.8779 13.9799 20.4799 14.3779 19.989 14.3779H11.989C11.4981 14.3779 11.1001 13.9799 11.1001 13.489Z"
        fill="#F6F8F9"
        fill-opacity="0.15"
      />
      <path
        fill-rule="evenodd"
        clip-rule="evenodd"
        d="M11.1113 17.2888C11.1113 16.7979 11.5093 16.3999 12.0002 16.3999H28.0002C28.4911 16.3999 28.8891 16.7979 28.8891 17.2888C28.8891 17.7797 28.4911 18.1777 28.0002 18.1777H12.0002C11.5093 18.1777 11.1113 17.7797 11.1113 17.2888Z"
        fill="#3677CC"
      />
      <path
        fill-rule="evenodd"
        clip-rule="evenodd"
        d="M11.1113 17.2888C11.1113 16.7979 11.5093 16.3999 12.0002 16.3999H28.0002C28.4911 16.3999 28.8891 16.7979 28.8891 17.2888C28.8891 17.7797 28.4911 18.1777 28.0002 18.1777H12.0002C11.5093 18.1777 11.1113 17.7797 11.1113 17.2888Z"
        fill="#F6F8F9"
        fill-opacity="0.8"
      />
      <path
        fill-rule="evenodd"
        clip-rule="evenodd"
        d="M11.1113 17.2888C11.1113 16.7979 11.5093 16.3999 12.0002 16.3999H28.0002C28.4911 16.3999 28.8891 16.7979 28.8891 17.2888C28.8891 17.7797 28.4911 18.1777 28.0002 18.1777H12.0002C11.5093 18.1777 11.1113 17.7797 11.1113 17.2888Z"
        fill="url(#paint1_linear_2456_1496)"
        fill-opacity="0.35"
      />
      <path
        fill-rule="evenodd"
        clip-rule="evenodd"
        d="M11.1113 20.2888C11.1113 19.7979 11.5093 19.3999 12.0002 19.3999H28.0002C28.4911 19.3999 28.8891 19.7979 28.8891 20.2888C28.8891 20.7797 28.4911 21.1777 28.0002 21.1777H12.0002C11.5093 21.1777 11.1113 20.7797 11.1113 20.2888Z"
        fill="#3677CC"
      />
      <path
        fill-rule="evenodd"
        clip-rule="evenodd"
        d="M11.1113 20.2888C11.1113 19.7979 11.5093 19.3999 12.0002 19.3999H28.0002C28.4911 19.3999 28.8891 19.7979 28.8891 20.2888C28.8891 20.7797 28.4911 21.1777 28.0002 21.1777H12.0002C11.5093 21.1777 11.1113 20.7797 11.1113 20.2888Z"
        fill="#F6F8F9"
        fill-opacity="0.8"
      />
      <path
        fill-rule="evenodd"
        clip-rule="evenodd"
        d="M11.1113 20.2888C11.1113 19.7979 11.5093 19.3999 12.0002 19.3999H28.0002C28.4911 19.3999 28.8891 19.7979 28.8891 20.2888C28.8891 20.7797 28.4911 21.1777 28.0002 21.1777H12.0002C11.5093 21.1777 11.1113 20.7797 11.1113 20.2888Z"
        fill="url(#paint2_linear_2456_1496)"
        fill-opacity="0.35"
      />
      <path
        fill-rule="evenodd"
        clip-rule="evenodd"
        d="M11.1113 23.2888C11.1113 22.7979 11.5093 22.3999 12.0002 22.3999H28.0002C28.4911 22.3999 28.8891 22.7979 28.8891 23.2888C28.8891 23.7797 28.4911 24.1777 28.0002 24.1777H12.0002C11.5093 24.1777 11.1113 23.7797 11.1113 23.2888Z"
        fill="#3677CC"
      />
      <path
        fill-rule="evenodd"
        clip-rule="evenodd"
        d="M11.1113 23.2888C11.1113 22.7979 11.5093 22.3999 12.0002 22.3999H28.0002C28.4911 22.3999 28.8891 22.7979 28.8891 23.2888C28.8891 23.7797 28.4911 24.1777 28.0002 24.1777H12.0002C11.5093 24.1777 11.1113 23.7797 11.1113 23.2888Z"
        fill="#F6F8F9"
        fill-opacity="0.8"
      />
      <path
        fill-rule="evenodd"
        clip-rule="evenodd"
        d="M11.1113 23.2888C11.1113 22.7979 11.5093 22.3999 12.0002 22.3999H28.0002C28.4911 22.3999 28.8891 22.7979 28.8891 23.2888C28.8891 23.7797 28.4911 24.1777 28.0002 24.1777H12.0002C11.5093 24.1777 11.1113 23.7797 11.1113 23.2888Z"
        fill="url(#paint3_linear_2456_1496)"
        fill-opacity="0.35"
      />
      <path
        fill-rule="evenodd"
        clip-rule="evenodd"
        d="M11.1113 26.2888C11.1113 25.7979 11.5093 25.3999 12.0002 25.3999H28.0002C28.4911 25.3999 28.8891 25.7979 28.8891 26.2888C28.8891 26.7797 28.4911 27.1777 28.0002 27.1777H12.0002C11.5093 27.1777 11.1113 26.7797 11.1113 26.2888Z"
        fill="#3677CC"
      />
      <path
        fill-rule="evenodd"
        clip-rule="evenodd"
        d="M11.1113 26.2888C11.1113 25.7979 11.5093 25.3999 12.0002 25.3999H28.0002C28.4911 25.3999 28.8891 25.7979 28.8891 26.2888C28.8891 26.7797 28.4911 27.1777 28.0002 27.1777H12.0002C11.5093 27.1777 11.1113 26.7797 11.1113 26.2888Z"
        fill="#F6F8F9"
        fill-opacity="0.8"
      />
      <path
        fill-rule="evenodd"
        clip-rule="evenodd"
        d="M11.1113 26.2888C11.1113 25.7979 11.5093 25.3999 12.0002 25.3999H28.0002C28.4911 25.3999 28.8891 25.7979 28.8891 26.2888C28.8891 26.7797 28.4911 27.1777 28.0002 27.1777H12.0002C11.5093 27.1777 11.1113 26.7797 11.1113 26.2888Z"
        fill="url(#paint4_linear_2456_1496)"
        fill-opacity="0.35"
      />
      <path
        fill-rule="evenodd"
        clip-rule="evenodd"
        d="M11.1113 29.2888C11.1113 28.7979 11.5093 28.3999 12.0002 28.3999H28.0002C28.4911 28.3999 28.8891 28.7979 28.8891 29.2888C28.8891 29.7797 28.4911 30.1777 28.0002 30.1777H12.0002C11.5093 30.1777 11.1113 29.7797 11.1113 29.2888Z"
        fill="#3677CC"
      />
      <path
        fill-rule="evenodd"
        clip-rule="evenodd"
        d="M11.1113 29.2888C11.1113 28.7979 11.5093 28.3999 12.0002 28.3999H28.0002C28.4911 28.3999 28.8891 28.7979 28.8891 29.2888C28.8891 29.7797 28.4911 30.1777 28.0002 30.1777H12.0002C11.5093 30.1777 11.1113 29.7797 11.1113 29.2888Z"
        fill="#F6F8F9"
        fill-opacity="0.8"
      />
      <path
        fill-rule="evenodd"
        clip-rule="evenodd"
        d="M11.1113 29.2888C11.1113 28.7979 11.5093 28.3999 12.0002 28.3999H28.0002C28.4911 28.3999 28.8891 28.7979 28.8891 29.2888C28.8891 29.7797 28.4911 30.1777 28.0002 30.1777H12.0002C11.5093 30.1777 11.1113 29.7797 11.1113 29.2888Z"
        fill="url(#paint5_linear_2456_1496)"
        fill-opacity="0.35"
      />
      <path
        fill-rule="evenodd"
        clip-rule="evenodd"
        d="M11.1113 32.2888C11.1113 31.7979 11.5093 31.3999 12.0002 31.3999H28.0002C28.4911 31.3999 28.8891 31.7979 28.8891 32.2888C28.8891 32.7797 28.4911 33.1777 28.0002 33.1777H12.0002C11.5093 33.1777 11.1113 32.7797 11.1113 32.2888Z"
        fill="#3677CC"
      />
      <path
        fill-rule="evenodd"
        clip-rule="evenodd"
        d="M11.1113 32.2888C11.1113 31.7979 11.5093 31.3999 12.0002 31.3999H28.0002C28.4911 31.3999 28.8891 31.7979 28.8891 32.2888C28.8891 32.7797 28.4911 33.1777 28.0002 33.1777H12.0002C11.5093 33.1777 11.1113 32.7797 11.1113 32.2888Z"
        fill="#F6F8F9"
        fill-opacity="0.8"
      />
      <path
        fill-rule="evenodd"
        clip-rule="evenodd"
        d="M11.1113 32.2888C11.1113 31.7979 11.5093 31.3999 12.0002 31.3999H28.0002C28.4911 31.3999 28.8891 31.7979 28.8891 32.2888C28.8891 32.7797 28.4911 33.1777 28.0002 33.1777H12.0002C11.5093 33.1777 11.1113 32.7797 11.1113 32.2888Z"
        fill="url(#paint6_linear_2456_1496)"
        fill-opacity="0.35"
      />
    </g>
    <rect
      x="8.35"
      y="4.35"
      width="23.3"
      height="31.3"
      rx="3.20556"
      stroke="#3677CC"
      stroke-width="0.7"
    />
    <rect
      x="8.35"
      y="4.35"
      width="23.3"
      height="31.3"
      rx="3.20556"
      stroke="#F6F8F9"
      stroke-opacity="0.8"
      stroke-width="0.7"
    />
    <rect
      x="8.35"
      y="4.35"
      width="23.3"
      height="31.3"
      rx="3.20556"
      stroke="url(#paint7_linear_2456_1496)"
      stroke-opacity="0.2"
      stroke-width="0.7"
    />
  </g>
  <defs>
    <filter
      id="filter0_d_2456_1496"
      x="-3"
      y="-2"
      width="46"
      height="46"
      filterUnits="userSpaceOnUse"
      color-interpolation-filters="sRGB"
    >
      <feFlood flood-opacity="0" result="BackgroundImageFix" />
      <feColorMatrix
        in="SourceAlpha"
        type="matrix"
        values="0 0 0 0 0 0 0 0 0 0 0 0 0 0 0 0 0 0 127 0"
        result="hardAlpha"
      />
      <feOffset dy="1" />
      <feGaussianBlur stdDeviation="1.5" />
      <feComposite in2="hardAlpha" operator="out" />
      <feColorMatrix
        type="matrix"
        values="0 0 0 0 0.0941176 0 0 0 0 0.105882 0 0 0 0 0.141176 0 0 0 0.05 0"
      />
      <feBlend
        mode="normal"
        in2="BackgroundImageFix"
        result="effect1_dropShadow_2456_1496"
      />
      <feBlend
        mode="normal"
        in="SourceGraphic"
        in2="effect1_dropShadow_2456_1496"
        result="shape"
      />
    </filter>
    <linearGradient
      id="paint0_linear_2456_1496"
      x1="20"
      y1="-6.5"
      x2="20.0094"
      y2="13.9163"
      gradientUnits="userSpaceOnUse"
    >
      <stop stop-color="white" stop-opacity="0" />
      <stop offset="1" stop-color="white" />
    </linearGradient>
    <linearGradient
      id="paint1_linear_2456_1496"
      x1="20"
      y1="22.2888"
      x2="20"
      y2="33.2"
      gradientUnits="userSpaceOnUse"
    >
      <stop stop-color="white" stop-opacity="0" />
      <stop offset="1" stop-color="white" />
    </linearGradient>
    <linearGradient
      id="paint2_linear_2456_1496"
      x1="20"
      y1="22.2888"
      x2="20"
      y2="33.2"
      gradientUnits="userSpaceOnUse"
    >
      <stop stop-color="white" stop-opacity="0" />
      <stop offset="1" stop-color="white" />
    </linearGradient>
    <linearGradient
      id="paint3_linear_2456_1496"
      x1="20"
      y1="22.2888"
      x2="20"
      y2="33.2"
      gradientUnits="userSpaceOnUse"
    >
      <stop stop-color="white" stop-opacity="0" />
      <stop offset="1" stop-color="white" />
    </linearGradient>
    <linearGradient
      id="paint4_linear_2456_1496"
      x1="20"
      y1="22.2888"
      x2="20"
      y2="33.2"
      gradientUnits="userSpaceOnUse"
    >
      <stop stop-color="white" stop-opacity="0" />
      <stop offset="1" stop-color="white" />
    </linearGradient>
    <linearGradient
      id="paint5_linear_2456_1496"
      x1="20"
      y1="22.2888"
      x2="20"
      y2="33.2"
      gradientUnits="userSpaceOnUse"
    >
      <stop stop-color="white" stop-opacity="0" />
      <stop offset="1" stop-color="white" />
    </linearGradient>
    <linearGradient
      id="paint6_linear_2456_1496"
      x1="20"
      y1="22.2888"
      x2="20"
      y2="33.2"
      gradientUnits="userSpaceOnUse"
    >
      <stop stop-color="white" stop-opacity="0" />
      <stop offset="1" stop-color="white" />
    </linearGradient>
    <linearGradient
      id="paint7_linear_2456_1496"
      x1="20"
      y1="20"
      x2="19.9997"
      y2="36.0276"
      gradientUnits="userSpaceOnUse"
    >
      <stop stop-color="white" stop-opacity="0" />
      <stop offset="1" stop-color="white" />
    </linearGradient>
    <clipPath id="clip0_2456_1496">
      <rect x="8" y="4" width="24" height="32" rx="3.55556" fill="white" />
    </clipPath>
  </defs>
</svg>
