<svg width="24" height="24" viewBox="0 0 24 24" fill="none" xmlns="http://www.w3.org/2000/svg">
<path fill-rule="evenodd" clip-rule="evenodd" d="M18.2607 11.5225C18.9108 11.5225 19.5214 11.6444 20.0918 11.8896C20.6623 12.135 21.166 12.4756 21.6016 12.9111C22.0371 13.3467 22.3777 13.853 22.623 14.4297C22.8745 15.0001 23 15.6106 23 16.2607C23 16.9047 22.8744 17.5153 22.623 18.0918C22.3777 18.6623 22.0335 19.166 21.5918 19.6016C21.1564 20.0369 20.6506 20.3777 20.0742 20.623C19.5037 20.8746 18.8987 21 18.2607 21C17.6106 21 17.0001 20.8772 16.4297 20.6318C15.8593 20.3865 15.3564 20.0431 14.9209 19.6016C14.4853 19.166 14.1448 18.6623 13.8994 18.0918C13.648 17.5214 13.5225 16.9109 13.5225 16.2607C13.5225 15.6106 13.6479 15.0001 13.8994 14.4297C14.1448 13.8592 14.4854 13.3564 14.9209 12.9209C15.3565 12.4792 15.8592 12.135 16.4297 11.8896C17.0001 11.6443 17.6106 11.5225 18.2607 11.5225ZM18.2422 17.6777C18.0093 17.6778 17.81 17.7577 17.6445 17.917C17.4789 18.0765 17.3965 18.2764 17.3965 18.5156C17.3965 18.7487 17.4789 18.945 17.6445 19.1045C17.8101 19.2639 18.0093 19.3437 18.2422 19.3438C18.4813 19.3438 18.684 19.2639 18.8496 19.1045C19.0152 18.945 19.0986 18.7487 19.0986 18.5156C19.0986 18.2825 19.0152 18.0863 18.8496 17.9268C18.6901 17.7612 18.4875 17.6777 18.2422 17.6777ZM18.252 13.1504C18.0311 13.1504 17.8527 13.2149 17.7178 13.3438C17.5891 13.4725 17.5282 13.6413 17.5342 13.8496L17.6172 16.4541C17.6233 16.6319 17.6844 16.779 17.8008 16.8955C17.9173 17.0059 18.0679 17.0615 18.252 17.0615C18.4298 17.0615 18.5768 17.0059 18.6934 16.8955C18.8098 16.779 18.8745 16.6319 18.8867 16.4541L18.96 13.8496C18.966 13.6413 18.9023 13.4725 18.7676 13.3438C18.6388 13.215 18.4666 13.1504 18.252 13.1504Z" fill="#222631"/>
<path d="M15.7139 3.94336C16.5558 3.94337 17.2827 4.13686 17.8945 4.52441C18.5125 4.90612 18.9826 5.47332 19.3037 6.22461L21.2373 10.7822C21.0587 10.6842 20.8749 10.5942 20.6855 10.5127C20.1607 10.287 19.6134 10.1412 19.0498 10.0713L17.6494 6.62402C17.4919 6.23028 17.2435 5.93331 16.9043 5.7334C16.565 5.53349 16.1591 5.43359 15.6865 5.43359H8.18848C7.716 5.43363 7.30994 5.53349 6.9707 5.7334C6.63148 5.93333 6.3831 6.23028 6.22559 6.62402L4.24414 11.4775C4.43196 11.4109 4.62623 11.3623 4.82617 11.332C5.0261 11.2957 5.2323 11.2773 5.44434 11.2773H14.5244C14.291 11.4547 14.0694 11.649 13.8604 11.8604C13.5124 12.2083 13.2111 12.5904 12.9561 13.0039H5.44434C4.89904 13.0039 4.41981 13.1166 4.00781 13.3408C3.60209 13.5589 3.28386 13.8587 3.05371 14.2402C2.82961 14.6219 2.71777 15.0554 2.71777 15.54C2.71782 16.0307 2.82959 16.467 3.05371 16.8486C3.28389 17.2241 3.60204 17.5239 4.00781 17.748C4.41981 17.9662 4.89904 18.0752 5.44434 18.0752H12.2949C12.3593 18.2811 12.4349 18.4848 12.5225 18.6846L12.5215 18.6855C12.6918 19.0814 12.8993 19.4535 13.1416 19.8018H5.44434C4.57205 19.8018 3.79938 19.6175 3.12695 19.248C2.46048 18.8785 1.93639 18.3717 1.55469 17.7295C1.17917 17.0813 0.991262 16.3517 0.991211 15.54C0.991211 15.1644 1.03979 14.8098 1.13672 14.4766C1.23366 14.1433 1.34542 13.8217 1.47266 13.5127L4.57129 6.22461C4.89241 5.47332 5.35974 4.90612 5.97168 4.52441C6.58949 4.13691 7.31932 3.94341 8.16113 3.94336H15.7139Z" fill="#222631"/>
<path d="M5.43555 14.3672C5.75059 14.3672 6.02368 14.4854 6.25391 14.7217C6.49007 14.9519 6.60742 15.2251 6.60742 15.54C6.60734 15.867 6.49001 16.1459 6.25391 16.376C6.02368 16.6001 5.75059 16.7119 5.43555 16.7119C5.11452 16.7119 4.83586 16.6 4.59961 16.376C4.36339 16.1519 4.2452 15.8731 4.24512 15.54C4.24512 15.225 4.36332 14.9519 4.59961 14.7217C4.83587 14.4855 5.1145 14.3672 5.43555 14.3672Z" fill="#222631"/>
</svg>
