<svg width="24" height="24" viewBox="0 0 24 24" fill="none" xmlns="http://www.w3.org/2000/svg">
<path d="M0.990906 15.5398C0.990906 15.1642 1.03938 14.8097 1.13632 14.4765C1.23326 14.1433 1.34535 13.8222 1.47258 13.5132L4.57167 6.22438C4.89279 5.47309 5.35932 4.90659 5.97126 4.52488C6.58926 4.13712 7.31935 3.94324 8.16153 3.94324H15.7139C16.556 3.94324 17.2831 4.13712 17.895 4.52488C18.513 4.90659 18.9826 5.47309 19.3037 6.22438L22.4119 13.5495C22.5391 13.8524 22.6482 14.1705 22.7391 14.5038C22.8299 14.8309 22.8754 15.1763 22.8754 15.5398C22.8754 16.3517 22.6845 17.0818 22.3028 17.7301C21.9272 18.3723 21.4031 18.8782 20.7306 19.2478C20.0641 19.6174 19.2946 19.8022 18.4221 19.8022H5.44414C4.57167 19.8022 3.79917 19.6174 3.12664 19.2478C2.46017 18.8782 1.93608 18.3723 1.55438 17.7301C1.17873 17.0818 0.990906 16.3517 0.990906 15.5398ZM2.71767 15.5398C2.71767 16.0306 2.82976 16.4668 3.05394 16.8485C3.28417 17.2242 3.60226 17.5241 4.0082 17.7483C4.4202 17.9664 4.89885 18.0754 5.44414 18.0754H18.4221C18.9735 18.0754 19.4521 17.9755 19.8581 17.7755C20.2701 17.5756 20.5882 17.2878 20.8124 16.9122C21.0365 16.5365 21.1486 16.0791 21.1486 15.5398C21.1486 15.0551 21.0365 14.6219 20.8124 14.2402C20.5882 13.8585 20.2701 13.5586 19.8581 13.3405C19.4521 13.1163 18.9735 13.0042 18.4221 13.0042H5.44414C4.89885 13.0042 4.4202 13.1163 4.0082 13.3405C3.60226 13.5586 3.28417 13.8585 3.05394 14.2402C2.82976 14.6219 2.71767 15.0551 2.71767 15.5398ZM4.24449 11.4774C4.43232 11.4107 4.6262 11.3623 4.82614 11.332C5.02608 11.2956 5.23208 11.2774 5.44414 11.2774H18.4221C18.6403 11.2774 18.8493 11.2956 19.0492 11.332C19.2492 11.3623 19.44 11.4107 19.6218 11.4774L17.6496 6.62427C17.4921 6.23044 17.2437 5.93356 16.9044 5.73362C16.5651 5.53368 16.1592 5.43371 15.6866 5.43371H8.18879C7.7162 5.43371 7.31026 5.53368 6.97097 5.73362C6.63167 5.93356 6.38326 6.23044 6.22573 6.62427L4.24449 11.4774ZM4.245 15.5398C4.245 15.2248 4.36315 14.9521 4.59944 14.7219C4.83574 14.4856 5.11444 14.3674 5.43556 14.3674C5.75062 14.3674 6.02327 14.4856 6.2535 14.7219C6.4898 14.9521 6.60794 15.2248 6.60794 15.5398C6.60794 15.867 6.4898 16.1457 6.2535 16.3759C6.02327 16.6001 5.75062 16.7122 5.43556 16.7122C5.11444 16.7122 4.83574 16.6001 4.59944 16.3759C4.36315 16.1518 4.245 15.8731 4.245 15.5398Z" fill="#222631"/>
</svg>
