<svg viewBox="0 0 16 16" fill="none" xmlns="http://www.w3.org/2000/svg">
  <path
    d="M13.3333 2C13.7015 2 14 2.29848 14 2.66667V7.33333C14 8.21739 13.6486 9.06498 13.0234 9.6901C12.3983 10.3152 11.5507 10.6667 10.6667 10.6667H4.27604L6.47135 12.862C6.7317 13.1223 6.7317 13.5443 6.47135 13.8047C6.21101 14.065 5.789 14.065 5.52865 13.8047L2.19531 10.4714C2.17669 10.4527 2.15984 10.4329 2.14388 10.4128C2.12001 10.3826 2.0985 10.3505 2.08008 10.3164C2.07513 10.3072 2.0709 10.2978 2.06641 10.2884C2.05169 10.2578 2.03862 10.2263 2.02865 10.1934C2.01999 10.1647 2.01383 10.1355 2.00911 10.1061C2.00358 10.0715 2 10.0362 2 10C2 9.94687 2.00648 9.89525 2.01823 9.8457C2.02154 9.83174 2.02508 9.8178 2.0293 9.80404C2.03919 9.77181 2.05196 9.74088 2.06641 9.71094C2.07918 9.68441 2.09353 9.65845 2.11003 9.63346C2.13495 9.59569 2.16344 9.56052 2.19531 9.52865L5.52865 6.19531C5.789 5.93496 6.21101 5.93496 6.47135 6.19531C6.7317 6.45566 6.7317 6.87767 6.47135 7.13802L4.27604 9.33333H10.6667C11.1971 9.33333 11.7057 9.12247 12.0807 8.7474C12.4558 8.37232 12.6667 7.86377 12.6667 7.33333V2.66667C12.6667 2.29848 12.9651 2 13.3333 2Z"
    fill="currentColor"
  />
</svg>
