<svg width="24" height="24" viewBox="0 0 24 24" fill="none" xmlns="http://www.w3.org/2000/svg">
<path fill-rule="evenodd" clip-rule="evenodd" d="M12 1.54004C13.4245 1.54005 14.7604 1.80664 16.0068 2.34082C17.2532 2.875 18.348 3.61778 19.291 4.56738C20.2339 5.51037 20.9727 6.60529 21.5068 7.85156C22.0475 9.09783 22.3174 10.4331 22.3174 11.8574C22.3174 13.2819 22.0476 14.6178 21.5068 15.8643C20.9727 17.1041 20.234 18.1956 19.291 19.1387C18.348 20.0882 17.2531 20.8301 16.0068 21.3643C14.7604 21.905 13.4245 22.1758 12 22.1758C10.5755 22.1758 9.23961 21.905 7.99316 21.3643C6.74686 20.8301 5.64881 20.0883 4.69922 19.1387C3.75617 18.1956 3.01759 17.1041 2.4834 15.8643C1.94921 14.6178 1.68164 13.2819 1.68164 11.8574C1.68167 10.4331 1.94932 9.09786 2.4834 7.85156C3.01754 6.60524 3.75627 5.5104 4.69922 4.56738C5.64885 3.61775 6.74679 2.87501 7.99316 2.34082C9.23961 1.80663 10.5755 1.54004 12 1.54004ZM13.2861 7.28711C12.5212 7.28711 11.8121 7.40933 11.1592 7.65332C10.5129 7.89733 9.96506 8.2671 9.5166 8.76172C9.06839 9.25622 8.7647 9.88571 8.60645 10.6504H7.58789C7.50217 10.6504 7.42947 10.6809 7.37012 10.7402C7.31095 10.7995 7.28125 10.8756 7.28125 10.9678C7.28135 11.0532 7.31105 11.1254 7.37012 11.1846C7.42947 11.2439 7.50217 11.2744 7.58789 11.2744H8.51758C8.511 11.36 8.50463 11.4489 8.49805 11.541V12.1055C8.50463 12.1976 8.511 12.2865 8.51758 12.3721H7.58789C7.50217 12.3721 7.42947 12.4016 7.37012 12.4609C7.3108 12.5203 7.28128 12.5962 7.28125 12.6885C7.28125 12.7676 7.31082 12.8403 7.37012 12.9062C7.42947 12.9656 7.50217 12.9951 7.58789 12.9951H8.61719C8.84141 14.0767 9.36513 14.9079 10.1895 15.4883C11.0138 16.062 12.0399 16.3486 13.2666 16.3486C13.4378 16.3486 13.6123 16.3391 13.79 16.3193C13.9746 16.2996 14.1465 16.2668 14.3047 16.2207C14.4695 16.1679 14.6086 16.0921 14.7207 15.9932C14.8328 15.8877 14.8886 15.7422 14.8887 15.5576C14.8887 15.3466 14.8192 15.1949 14.6807 15.1025C14.5422 15.0036 14.3673 14.9541 14.1562 14.9541C14.0377 14.9541 13.9385 14.9605 13.8594 14.9736C13.7868 14.9868 13.6749 14.9932 13.5234 14.9932C12.6727 14.9932 11.97 14.8256 11.416 14.4893C10.8621 14.1463 10.4859 13.648 10.2881 12.9951H13.2559C13.3415 12.9951 13.4143 12.9655 13.4736 12.9062C13.5396 12.8403 13.5732 12.7676 13.5732 12.6885C13.5732 12.5962 13.5395 12.5203 13.4736 12.4609C13.4143 12.4017 13.3415 12.3721 13.2559 12.3721H10.1504C10.1438 12.2865 10.1365 12.1976 10.1299 12.1055V11.541C10.1365 11.4488 10.1438 11.36 10.1504 11.2744H13.2559C13.3416 11.2744 13.4143 11.2439 13.4736 11.1846C13.5394 11.1253 13.5731 11.0533 13.5732 10.9678C13.5732 10.8755 13.5396 10.7996 13.4736 10.7402C13.4143 10.6809 13.3416 10.6504 13.2559 10.6504H10.2881C10.4794 10.0042 10.846 9.50989 11.3867 9.16699C11.9341 8.82407 12.6463 8.65234 13.5234 8.65234C13.6487 8.65235 13.7678 8.65869 13.8799 8.67188C13.9917 8.67845 14.087 8.68261 14.166 8.68262C14.3769 8.68262 14.5488 8.63297 14.6807 8.53418C14.8191 8.43533 14.8886 8.28014 14.8887 8.06934C14.8887 7.89791 14.8359 7.75883 14.7305 7.65332C14.6315 7.54121 14.4893 7.45584 14.3047 7.39648C14.1596 7.35694 14.0015 7.33057 13.8301 7.31738C13.6587 7.2976 13.4773 7.28712 13.2861 7.28711Z" fill="#222631"/>
</svg>
