<svg width="24" height="24" viewBox="0 0 24 24" fill="none" xmlns="http://www.w3.org/2000/svg">
<path d="M8 3C8.55 3 9.02083 3.19583 9.4125 3.5875C9.80417 3.97917 10 4.45 10 5V9C10 9.55 9.80417 10.0208 9.4125 10.4125C9.02083 10.8042 8.55 11 8 11H4C3.45 11 2.97917 10.8042 2.5875 10.4125C2.19583 10.0208 2 9.55 2 9V5C2 4.45 2.19583 3.97917 2.5875 3.5875C2.97917 3.19583 3.45 3 4 3H8ZM8 5H4V9H8V5ZM22 6V8H13V6H22ZM8 13C8.55 13 9.02083 13.1958 9.4125 13.5875C9.80417 13.9792 10 14.45 10 15V19C10 19.55 9.80417 20.0208 9.4125 20.4125C9.02083 20.8042 8.55 21 8 21H4C3.45 21 2.97917 20.8042 2.5875 20.4125C2.19583 20.0208 2 19.55 2 19V15C2 14.45 2.19583 13.9792 2.5875 13.5875C2.97917 13.1958 3.45 13 4 13H8ZM8 15H4V19H8V15ZM22 16V18H13V16H22Z" fill="#222631"/>
</svg>
