<svg width="24" height="24" viewBox="0 0 24 24" fill="none" xmlns="http://www.w3.org/2000/svg">
<path d="M11.9951 22.2189C10.5838 22.2189 9.26146 21.9518 8.02821 21.4176C6.79495 20.89 5.71008 20.158 4.77359 19.2215C3.83711 18.2916 3.10177 17.21 2.56758 15.9768C2.03998 14.7369 1.77618 13.4113 1.77618 12C1.77618 10.5887 2.03998 9.26641 2.56758 8.03315C3.10177 6.7933 3.83711 5.70513 4.77359 4.76865C5.71008 3.83216 6.79495 3.10012 8.02821 2.57252C9.26146 2.04493 10.5838 1.78113 11.9951 1.78113C13.4064 1.78113 14.7287 2.04493 15.9619 2.57252C17.2018 3.10012 18.29 3.83216 19.2264 4.76865C20.1629 5.70513 20.895 6.7933 21.4226 8.03315C21.9568 9.26641 22.2239 10.5887 22.2239 12C22.2239 13.4113 21.9568 14.7369 21.4226 15.9768C20.895 17.21 20.1629 18.2916 19.2264 19.2215C18.29 20.158 17.2018 20.89 15.9619 21.4176C14.7287 21.9518 13.4064 22.2189 11.9951 22.2189ZM11.9951 20.2009C13.1294 20.2009 14.1912 19.9865 15.1804 19.5578C16.1697 19.1358 17.0402 18.5488 17.792 17.797C18.5505 17.0452 19.1407 16.1746 19.5628 15.1854C19.9849 14.1961 20.1959 13.1344 20.1959 12C20.1959 10.8657 19.9849 9.8039 19.5628 8.81465C19.1407 7.81881 18.5505 6.94828 17.792 6.20305C17.0402 5.45122 16.1697 4.86427 15.1804 4.44219C14.1912 4.01352 13.1294 3.79919 11.9951 3.79919C10.8673 3.79919 9.80555 4.01352 8.80971 4.44219C7.82047 4.86427 6.94993 5.45122 6.19811 6.20305C5.44628 6.94828 4.85603 7.81881 4.42736 8.81465C4.00528 9.8039 3.79424 10.8657 3.79424 12C3.79424 13.1344 4.00528 14.1961 4.42736 15.1854C4.85603 16.1746 5.44628 17.0452 6.19811 17.797C6.94993 18.5488 7.82047 19.1358 8.80971 19.5578C9.80555 19.9865 10.8673 20.2009 11.9951 20.2009ZM11.9852 16.8671C11.2993 16.8671 10.6926 16.7451 10.165 16.5011C9.64397 16.2505 9.23838 15.9636 8.9482 15.6404C8.66462 15.3173 8.52283 15.0469 8.52283 14.8293C8.52283 14.7105 8.56899 14.6281 8.66132 14.5819C8.76025 14.5292 8.86577 14.5292 8.97788 14.5819C9.3406 14.7732 9.75279 14.9579 10.2144 15.1359C10.6761 15.314 11.2663 15.403 11.9852 15.403C12.704 15.403 13.2943 15.314 13.7559 15.1359C14.2242 14.9579 14.6364 14.7732 14.9925 14.5819C15.1046 14.5292 15.2101 14.5292 15.309 14.5819C15.408 14.6281 15.4574 14.7105 15.4574 14.8293C15.4574 15.0469 15.3123 15.3173 15.0222 15.6404C14.732 15.9636 14.3264 16.2505 13.8054 16.5011C13.2844 16.7451 12.6777 16.8671 11.9852 16.8671ZM9.06691 11.1097C8.75695 11.1097 8.48656 10.9844 8.25573 10.7338C8.0315 10.4832 7.91939 10.16 7.91939 9.76433C7.91939 9.37523 8.0315 9.05537 8.25573 8.80476C8.48656 8.54756 8.75695 8.41896 9.06691 8.41896C9.37688 8.41896 9.65057 8.54756 9.88799 8.80476C10.1254 9.05537 10.2441 9.37523 10.2441 9.76433C10.2441 10.16 10.1254 10.4832 9.88799 10.7338C9.65057 10.9844 9.37688 11.1097 9.06691 11.1097ZM14.9035 11.1097C14.5935 11.1097 14.3231 10.9844 14.0923 10.7338C13.868 10.4832 13.7559 10.16 13.7559 9.76433C13.7559 9.37523 13.868 9.05537 14.0923 8.80476C14.3231 8.54756 14.5935 8.41896 14.9035 8.41896C15.2134 8.41896 15.4871 8.54756 15.7245 8.80476C15.9619 9.05537 16.0807 9.37523 16.0807 9.76433C16.0807 10.16 15.9619 10.4832 15.7245 10.7338C15.4871 10.9844 15.2134 11.1097 14.9035 11.1097Z" fill="#222631"/>
</svg>
