<svg width="24" height="24" viewBox="0 0 24 24" fill="none" xmlns="http://www.w3.org/2000/svg">
<path d="M11.9951 1.78125C13.4064 1.78126 14.7287 2.04471 15.9619 2.57227C17.2018 3.09986 18.2901 3.83207 19.2266 4.76855C20.163 5.70504 20.8953 6.79336 21.4229 8.0332C21.7574 8.80552 21.9863 9.61293 22.1113 10.4551C21.4263 10.0815 20.6721 9.81952 19.873 9.69141C19.7863 9.39337 19.6845 9.10037 19.5625 8.81445C19.1404 7.81873 18.5503 6.94828 17.792 6.20312C17.0402 5.45136 16.1698 4.86445 15.1807 4.44238C14.1914 4.01372 13.1294 3.79883 11.9951 3.79883C10.8674 3.79883 9.80541 4.01371 8.80957 4.44238C7.82042 4.86445 6.95001 5.45136 6.19824 6.20312C5.44649 6.94828 4.8564 7.81874 4.42773 8.81445C4.00566 9.80369 3.79395 10.8657 3.79395 12C3.79395 13.1343 4.00566 14.1963 4.42773 15.1855C4.8564 16.1747 5.44649 17.0451 6.19824 17.7969C6.95001 18.5486 7.82041 19.1355 8.80957 19.5576C9.80541 19.9863 10.8674 20.2012 11.9951 20.2012C12.2284 20.2012 12.4584 20.189 12.6855 20.1709C13.0874 20.8575 13.6024 21.4691 14.2051 21.9814C13.4942 22.1375 12.758 22.2187 11.9951 22.2188C10.5839 22.2188 9.26151 21.9521 8.02832 21.418C6.79507 20.8904 5.70992 20.1582 4.77344 19.2217C3.83695 18.2918 3.10157 17.2098 2.56738 15.9766C2.03986 14.7368 1.77637 13.4112 1.77637 12C1.77637 10.5887 2.03982 9.26642 2.56738 8.0332C3.10157 6.79337 3.83697 5.70503 4.77344 4.76855C5.70992 3.83207 6.79506 3.09986 8.02832 2.57227C9.26152 2.04472 10.5839 1.78125 11.9951 1.78125Z" fill="#222631"/>
<path fill-rule="evenodd" clip-rule="evenodd" d="M18.7275 11.6094C19.3896 11.6094 20.0334 11.7355 20.6582 11.9873C21.2829 12.2298 21.8427 12.5986 22.3369 13.0928C22.8262 13.5822 23.1921 14.1391 23.4346 14.7637C23.6864 15.3886 23.8103 16.0353 23.8057 16.7021C23.8056 17.3642 23.6795 18.0081 23.4277 18.6328C23.1853 19.2574 22.8216 19.8121 22.3369 20.2969C21.8427 20.7911 21.2851 21.162 20.665 21.4092C20.0449 21.6563 19.4012 21.7781 18.7344 21.7734C18.0722 21.7734 17.4286 21.6516 16.8037 21.4092C16.1835 21.162 15.6262 20.7912 15.1318 20.2969C14.6376 19.8026 14.2667 19.2452 14.0195 18.625C13.7771 18.0002 13.6562 17.3564 13.6562 16.6943C13.6516 16.0276 13.7724 15.3838 14.0195 14.7637C14.2667 14.1437 14.6377 13.5869 15.1318 13.0928C15.6262 12.5985 16.1835 12.2276 16.8037 11.9805C17.4239 11.7333 18.0654 11.6094 18.7275 11.6094ZM20.5391 14.2041C20.362 14.2041 20.2033 14.2744 20.0635 14.4141L18.7344 15.7432L17.4053 14.4141C17.2655 14.2743 17.1068 14.2042 16.9297 14.2041C16.7573 14.1994 16.5986 14.2697 16.4541 14.4141C16.3095 14.5586 16.2373 14.7203 16.2373 14.8975C16.2421 15.0698 16.3144 15.2255 16.4541 15.3652L17.7832 16.6943L16.4541 18.0234C16.3143 18.1632 16.2443 18.322 16.2441 18.499C16.2395 18.6716 16.3095 18.831 16.4541 18.9756C16.5986 19.1199 16.7595 19.1924 16.9365 19.1924C17.109 19.1877 17.2654 19.1154 17.4053 18.9756L18.7344 17.6465L20.0635 18.9756C20.2033 19.1152 20.3598 19.1877 20.5322 19.1924C20.7092 19.1923 20.8702 19.1199 21.0146 18.9756C21.1592 18.831 21.2293 18.6716 21.2246 18.499C21.2245 18.322 21.1544 18.1632 21.0146 18.0234L19.6855 16.6943L21.0146 15.3652C21.1542 15.2255 21.2267 15.0697 21.2314 14.8975C21.2314 14.7203 21.1592 14.5586 21.0146 14.4141C20.8702 14.2696 20.7115 14.1995 20.5391 14.2041Z" fill="#222631"/>
<path d="M8.66113 14.582C8.75998 14.5293 8.86552 14.5294 8.97754 14.582C9.34026 14.7733 9.7532 14.9577 10.2148 15.1357C10.6439 15.3012 11.1838 15.3887 11.835 15.4004C11.7647 15.799 11.7266 16.2092 11.7266 16.6279C11.7266 16.706 11.7289 16.7838 11.7314 16.8613C11.1487 16.8346 10.6266 16.7145 10.165 16.501C9.6441 16.2504 9.23841 15.9637 8.94824 15.6406C8.66466 15.3175 8.52246 15.0467 8.52246 14.8291C8.5225 14.7106 8.56897 14.6282 8.66113 14.582Z" fill="#222631"/>
<path d="M9.06738 8.41895C9.37708 8.41908 9.65044 8.54774 9.8877 8.80469C10.1251 9.0553 10.2441 9.37555 10.2441 9.76465C10.2441 10.1602 10.125 10.4829 9.8877 10.7334C9.6504 10.9839 9.37715 11.1092 9.06738 11.1094C8.75742 11.1094 8.48668 10.984 8.25586 10.7334C8.03178 10.4829 7.91901 10.1601 7.91895 9.76465C7.91895 9.37555 8.03163 9.0553 8.25586 8.80469C8.48666 8.54755 8.75746 8.41895 9.06738 8.41895Z" fill="#222631"/>
<path d="M14.9033 8.41895C15.2133 8.41895 15.4872 8.54748 15.7246 8.80469C15.962 9.0553 16.0811 9.37555 16.0811 9.76465C16.081 9.90025 16.065 10.0269 16.0371 10.1455C15.4876 10.376 14.9739 10.6746 14.5059 11.0303C14.3565 10.9681 14.2177 10.87 14.0918 10.7334C13.8679 10.4829 13.7559 10.16 13.7559 9.76465C13.7559 9.37565 13.8677 9.05527 14.0918 8.80469C14.3226 8.54752 14.5934 8.41898 14.9033 8.41895Z" fill="#222631"/>
</svg>
