<svg width="24" height="24" viewBox="0 0 24 24" fill="none" xmlns="http://www.w3.org/2000/svg">
<path d="M13.2246 1.46151C13.3809 1.4555 13.5073 1.50941 13.6035 1.62362C13.6997 1.73187 13.748 1.89721 13.748 2.11972V3.33944C14.3718 3.46113 14.9736 3.64622 15.5527 3.89706C16.6834 4.37823 17.6762 5.04594 18.5303 5.89999C19.3843 6.74801 20.0511 7.73807 20.5322 8.86874C21.0193 9.99337 21.2636 11.1989 21.2637 12.4859C21.2637 13.7731 21.0194 14.9793 20.5322 16.1041C20.0511 17.2285 19.3841 18.2179 18.5303 19.0719C17.6763 19.9259 16.6834 20.5936 15.5527 21.0748C14.428 21.562 13.2217 21.8062 11.9346 21.8062C10.6475 21.8062 9.44112 21.562 8.31641 21.0748C7.19186 20.5936 6.20259 19.9258 5.34863 19.0719C4.49467 18.2179 3.82407 17.2287 3.33691 16.1041C2.85574 14.9793 2.61523 13.7731 2.61523 12.4859C2.61525 11.4996 2.76194 10.5551 3.05664 9.65292C3.35136 8.75077 3.77023 7.91772 4.31152 7.15389C4.85881 6.39017 5.50527 5.72227 6.25098 5.15097C6.48549 4.9466 6.73543 4.86293 7 4.89901C7.26445 4.92916 7.47178 5.04618 7.62207 5.25057C7.78436 5.479 7.83817 5.71325 7.78418 5.9537C7.73007 6.19418 7.59527 6.40515 7.37891 6.58554C6.78957 7.03656 6.27496 7.56885 5.83594 8.18222C5.39694 8.7896 5.05699 9.4575 4.81641 10.1851C4.57584 10.9068 4.4551 11.674 4.45508 12.4859C4.45508 13.5205 4.64826 14.489 5.0332 15.3912C5.42412 16.2933 5.96189 17.0874 6.64746 17.773C7.33303 18.4586 8.12727 18.9936 9.0293 19.3785C9.93748 19.7694 10.9061 19.9654 11.9346 19.9654C12.9691 19.9654 13.9376 19.7695 14.8398 19.3785C15.742 18.9936 16.5361 18.4587 17.2217 17.773C17.9134 17.0874 18.452 16.2934 18.8369 15.3912C19.2218 14.489 19.4141 13.5204 19.4141 12.4859C19.414 11.4515 19.2218 10.4828 18.8369 9.58065C18.452 8.67251 17.9133 7.87843 17.2217 7.19882C16.5361 6.51324 15.742 5.97826 14.8398 5.59335C14.4861 5.44008 14.1221 5.31739 13.748 5.22421V6.39608C13.748 6.61259 13.6997 6.7779 13.6035 6.89218C13.5073 7.00044 13.381 7.05526 13.2246 7.05526C13.0744 7.0492 12.9152 6.98583 12.7471 6.86581L9.82324 4.77206C9.62507 4.62784 9.52273 4.45662 9.5166 4.25839C9.5166 4.05996 9.61887 3.88806 9.82324 3.74374L12.7373 1.6412C12.9056 1.52698 13.0683 1.46758 13.2246 1.46151Z" fill="#222631"/>
<path fill-rule="evenodd" clip-rule="evenodd" d="M14.0996 9.05819C14.689 9.05819 15.1617 9.23187 15.5166 9.58065C15.8715 9.92349 16.1268 10.3693 16.2832 10.9166C16.4395 11.4578 16.5176 12.0263 16.5176 12.6217C16.5176 13.0666 16.4757 13.5024 16.3916 13.9293C16.3074 14.3563 16.169 14.7417 15.9766 15.0846C15.7901 15.4213 15.5403 15.6916 15.2275 15.8961C14.9208 16.0946 14.5447 16.1939 14.0996 16.1939C13.5105 16.1939 13.0384 16.0229 12.6836 15.6803C12.3287 15.3314 12.0734 14.8829 11.917 14.3355C11.7606 13.7883 11.6817 13.217 11.6816 12.6217C11.6816 12.1766 11.7244 11.7429 11.8086 11.3219C11.8928 10.901 12.0285 10.5191 12.2148 10.1764C12.4072 9.8338 12.6564 9.56324 12.9629 9.36483C13.2756 9.16039 13.6547 9.05825 14.0996 9.05819ZM14.0996 10.1676C13.8652 10.1677 13.6727 10.2727 13.5225 10.483C13.3721 10.6875 13.2579 10.9764 13.1797 11.3492C13.1015 11.7221 13.0625 12.1465 13.0625 12.6217C13.0625 13.1028 13.1015 13.5301 13.1797 13.9029C13.2579 14.2756 13.3722 14.5702 13.5225 14.7867C13.6727 14.9971 13.8652 15.102 14.0996 15.1021C14.3282 15.1021 14.5214 14.9972 14.6777 14.7867C14.834 14.5702 14.9483 14.2756 15.0205 13.9029C15.0987 13.5301 15.1377 13.1028 15.1377 12.6217C15.1377 12.1465 15.0987 11.7249 15.0205 11.358C14.9423 10.9852 14.8243 10.6935 14.668 10.483C14.5176 10.2727 14.328 10.1676 14.0996 10.1676Z" fill="#222631"/>
<path d="M9.44434 9.12948C9.69094 9.12948 9.88412 9.19638 10.0225 9.3287C10.1666 9.46101 10.2383 9.65067 10.2383 9.89706V15.4185C10.2382 15.6227 10.1786 15.794 10.0586 15.9322C9.9383 16.0706 9.76926 16.1402 9.55273 16.1402C9.3424 16.1402 9.17689 16.0741 9.05664 15.942C8.9364 15.8037 8.87603 15.6289 8.87598 15.4185V10.5191H8.84961L8.03711 11.1324C7.97708 11.1684 7.92025 11.1992 7.86621 11.2232C7.81814 11.2473 7.75762 11.2593 7.68555 11.2594C7.55322 11.2594 7.44178 11.2138 7.35156 11.1236C7.26145 11.0275 7.21589 10.9074 7.21582 10.7633C7.21582 10.5589 7.31542 10.3814 7.51367 10.231L8.46094 9.53573C8.61714 9.41558 8.7707 9.31979 8.9209 9.24764C9.07721 9.16949 9.25198 9.12952 9.44434 9.12948Z" fill="#222631"/>
</svg>
