<svg width="24" height="24" viewBox="0 0 24 24" fill="none" xmlns="http://www.w3.org/2000/svg">
<path fill-rule="evenodd" clip-rule="evenodd" d="M4.91296 14.0127C5.53213 14.0127 6.13434 14.1308 6.71863 14.3662C7.30295 14.593 7.82672 14.9372 8.28894 15.3994C8.74674 15.8572 9.08856 16.3787 9.31531 16.9629C9.55072 17.5471 9.66629 18.151 9.66199 18.7744C9.66199 19.3936 9.54394 19.9958 9.30847 20.5801C9.08177 21.1642 8.74228 21.6833 8.28894 22.1367C7.82677 22.5989 7.30534 22.9456 6.72546 23.1768C6.1455 23.4079 5.54336 23.521 4.9198 23.5166C4.30066 23.5166 3.70088 23.401 3.12097 23.1699C2.53681 22.9432 2.01375 22.5988 1.55164 22.1367C1.08953 21.6746 0.745185 21.1515 0.518432 20.5674C0.287351 19.9875 0.171783 19.3877 0.171752 18.7686C0.167392 18.145 0.280485 17.5428 0.511596 16.9629C0.742707 16.383 1.08946 15.8616 1.55164 15.3994C2.01379 14.9373 2.53527 14.5904 3.11511 14.3594C3.69477 14.1285 4.2941 14.0128 4.91296 14.0127ZM6.6073 16.4395C6.44178 16.4395 6.29367 16.5051 6.16296 16.6357L4.9198 17.8789L3.67761 16.6357C3.54679 16.5049 3.398 16.4395 3.2323 16.4395C3.07112 16.4351 2.92303 16.5008 2.78796 16.6357C2.65289 16.7708 2.58494 16.9214 2.58484 17.0869C2.5892 17.2483 2.65715 17.3946 2.78796 17.5254L4.03015 18.7686L2.78796 20.0107C2.65715 20.1416 2.59167 20.2904 2.59167 20.4561C2.58737 20.6173 2.65284 20.7653 2.78796 20.9004C2.9231 21.0355 3.07102 21.101 3.2323 21.0967C3.398 21.0967 3.54679 21.0312 3.67761 20.9004L4.9198 19.6582L6.16296 20.9004C6.29378 21.0312 6.4401 21.0992 6.60144 21.1035C6.76696 21.1034 6.91756 21.0354 7.05261 20.9004C7.18754 20.7653 7.2532 20.6172 7.2489 20.4561C7.2489 20.2904 7.18343 20.1416 7.05261 20.0107L5.80945 18.7686L7.05261 17.5254C7.1832 17.3947 7.24882 17.2465 7.2489 17.0811C7.25326 16.9197 7.18777 16.7709 7.05261 16.6357C6.91743 16.5006 6.76864 16.4351 6.6073 16.4395Z" fill="#222631"/>
<path fill-rule="evenodd" clip-rule="evenodd" d="M11.4696 1.8125C11.8579 1.81252 12.1974 1.84003 12.4872 1.89551C12.7769 1.94486 13.0453 2.04085 13.2919 2.18262C13.5384 2.31828 13.7908 2.51913 14.0497 2.78418L18.8973 7.71387C19.1686 7.9851 19.372 8.24725 19.5077 8.5C19.6495 8.74658 19.7454 9.02121 19.7948 9.32324C19.8441 9.61921 19.868 9.98343 19.868 10.415V18.8047C19.868 19.7975 19.6159 20.5507 19.1102 21.0625C18.6046 21.5805 17.855 21.8388 16.8622 21.8389H10.1278C10.3004 21.5614 10.4426 21.2682 10.5536 20.96C10.6707 20.6579 10.7569 20.3433 10.8124 20.0166H16.7137C17.1639 20.0166 17.5005 19.903 17.7225 19.6748C17.9445 19.4467 18.0555 19.1197 18.0555 18.6943V10.665H13.0692C12.4096 10.665 11.9165 10.5015 11.5897 10.1748C11.269 9.84796 11.1083 9.35418 11.1083 8.69434V3.62598H7.16785C6.71798 3.62598 6.38204 3.74255 6.16003 3.97656C5.93803 4.2109 5.82703 4.5413 5.82703 4.9668V12.7646C5.67288 12.74 5.51828 12.7213 5.36414 12.709C5.20997 12.6905 5.05541 12.6816 4.90124 12.6816C4.74718 12.6817 4.59603 12.6905 4.44812 12.709C4.30016 12.7213 4.15174 12.74 4.00378 12.7646V4.84668C4.00378 3.854 4.25707 3.10168 4.76257 2.58984C5.26825 2.07183 6.01776 1.8125 7.01062 1.8125H11.4696ZM12.7089 8.51855C12.7089 8.70973 12.7488 8.84921 12.829 8.93555C12.9153 9.02172 13.0541 9.06442 13.245 9.06445H17.8055L12.7089 3.875V8.51855Z" fill="#222631"/>
</svg>
