<svg width="24" height="24" viewBox="0 0 24 24" fill="none" xmlns="http://www.w3.org/2000/svg">
<path fill-rule="evenodd" clip-rule="evenodd" d="M4.94336 13.9756C5.59816 13.9756 6.21358 14.0988 6.78809 14.3457C7.36258 14.5927 7.86999 14.9356 8.30859 15.374C8.74711 15.8124 9.08984 16.323 9.33691 16.9033C9.58994 17.4773 9.71673 18.092 9.7168 18.7461C9.71671 19.3941 9.59 20.0061 9.33691 20.5801C9.08984 21.1603 8.74344 21.6701 8.29883 22.1084C7.86025 22.5467 7.35015 22.8897 6.76953 23.1367C6.19501 23.3899 5.58583 23.5166 4.94336 23.5166C4.28868 23.5165 3.67304 23.3934 3.09863 23.1465C2.52452 22.8996 2.01846 22.5527 1.58008 22.1084C1.14169 21.6702 0.795229 21.1638 0.541992 20.5898C0.294977 20.0158 0.171962 19.4004 0.171875 18.7461C0.171944 18.0919 0.295094 17.4773 0.541992 16.9033C0.795259 16.3291 1.14152 15.8222 1.58008 15.3838C2.0185 14.9394 2.52444 14.5927 3.09863 14.3457C3.67307 14.0987 4.28864 13.9756 4.94336 13.9756ZM7.0752 16.3467C6.84079 16.3467 6.65537 16.4455 6.51953 16.6426L4.33203 19.6631L3.25684 18.4863C3.19524 18.4249 3.12394 18.3758 3.04395 18.3389C2.9637 18.3019 2.86791 18.2832 2.75684 18.2832C2.57779 18.2832 2.42265 18.3444 2.29297 18.4678C2.16344 18.5851 2.09863 18.744 2.09863 18.9414C2.09875 19.0213 2.11477 19.1017 2.14551 19.1816C2.18252 19.2678 2.22874 19.3489 2.28418 19.4229L3.84082 21.1084C3.90251 21.1823 3.98341 21.2374 4.08203 21.2744C4.18069 21.3114 4.27664 21.331 4.36914 21.3311C4.60991 21.331 4.79248 21.2466 4.91602 21.0801L7.59473 17.3936C7.64386 17.326 7.67775 17.258 7.69629 17.1904C7.72092 17.1227 7.73234 17.0603 7.73242 17.0049C7.73239 16.8198 7.66499 16.6645 7.5293 16.541C7.39967 16.4117 7.24796 16.3467 7.0752 16.3467Z" fill="#222631"/>
<path fill-rule="evenodd" clip-rule="evenodd" d="M11.4697 1.8125C11.858 1.81253 12.1976 1.84003 12.4873 1.89551C12.7769 1.94487 13.0455 2.04087 13.292 2.18262C13.5385 2.31828 13.791 2.51916 14.0498 2.78418L18.8975 7.71387C19.1687 7.98508 19.3722 8.24727 19.5078 8.5C19.6496 8.74656 19.7456 9.02123 19.7949 9.32324C19.8442 9.61921 19.8682 9.98344 19.8682 10.415V18.8047C19.8682 19.7975 19.616 20.5507 19.1104 21.0625C18.6047 21.5805 17.855 21.8388 16.8623 21.8389H10.1279C10.3005 21.5614 10.4427 21.2682 10.5537 20.96C10.6708 20.6579 10.757 20.3433 10.8125 20.0166H16.7139C17.164 20.0166 17.5007 19.903 17.7227 19.6748C17.9446 19.4467 18.0556 19.1197 18.0557 18.6943V10.665H13.0693C12.4098 10.665 11.9166 10.5014 11.5898 10.1748C11.2692 9.84796 11.1084 9.35418 11.1084 8.69434V3.62598H7.16797C6.71814 3.62598 6.38217 3.74259 6.16016 3.97656C5.93816 4.2109 5.82715 4.5413 5.82715 4.9668V12.7646C5.67304 12.74 5.51837 12.7213 5.36426 12.709C5.21013 12.6905 5.0555 12.6816 4.90137 12.6816C4.74734 12.6817 4.59611 12.6905 4.44824 12.709C4.30032 12.7213 4.15182 12.74 4.00391 12.7646V4.84668C4.00391 3.854 4.2572 3.10168 4.7627 2.58984C5.26837 2.07187 6.01792 1.8125 7.01074 1.8125H11.4697ZM12.709 8.51855C12.709 8.70973 12.7489 8.84921 12.8291 8.93555C12.9154 9.02168 13.0543 9.06442 13.2451 9.06445H17.8057L12.709 3.875V8.51855Z" fill="#222631"/>
</svg>
