<svg width="24" height="24" viewBox="0 0 24 24" fill="none" xmlns="http://www.w3.org/2000/svg">
<path d="M7.10682 21.8756C6.10841 21.8756 5.35495 21.6182 4.84644 21.1035C4.33793 20.5888 4.08368 19.8292 4.08368 18.8245V4.78786C4.08368 3.78945 4.33793 3.03289 4.84644 2.51818C5.35495 1.99727 6.10841 1.73682 7.10682 1.73682H11.5904C11.9811 1.73682 12.3221 1.76472 12.6136 1.82053C12.9051 1.87014 13.1748 1.96627 13.4229 2.1089C13.6709 2.24532 13.9252 2.44687 14.1856 2.71352L19.0599 7.67148C19.3327 7.94434 19.5374 8.20789 19.6738 8.46215C19.8164 8.7102 19.9125 8.98616 19.9622 9.29002C20.0118 9.58769 20.0366 9.95356 20.0366 10.3877V18.8245C20.0366 19.823 19.7823 20.5795 19.2738 21.0942C18.7653 21.6151 18.0118 21.8756 17.0134 21.8756H7.10682ZM7.25565 20.0431H16.8646C17.3173 20.0431 17.6553 19.9284 17.8785 19.6989C18.1018 19.4695 18.2134 19.1408 18.2134 18.7129V10.6388H13.1996C12.5361 10.6388 12.04 10.4745 11.7113 10.1458C11.3888 9.81713 11.2276 9.32103 11.2276 8.65749V3.56H7.26496C6.81226 3.56 6.47429 3.67783 6.25104 3.91348C6.02779 4.14913 5.91617 4.4809 5.91617 4.90879V18.7129C5.91617 19.1408 6.02779 19.4695 6.25104 19.6989C6.47429 19.9284 6.80916 20.0431 7.25565 20.0431ZM13.3764 9.02957H17.9622L12.8368 3.81116V8.48075C12.8368 8.67299 12.8771 8.81252 12.9578 8.89934C13.0446 8.98616 13.1841 9.02957 13.3764 9.02957Z" fill="#222631"/>
</svg>
