<svg width="24" height="24" viewBox="0 0 24 24" fill="none" xmlns="http://www.w3.org/2000/svg">
<path d="M7.10682 21.8756C6.10841 21.8756 5.35495 21.6182 4.84644 21.1035C4.33793 20.5888 4.08368 19.8292 4.08368 18.8245V4.78786C4.08368 3.78945 4.33793 3.03289 4.84644 2.51818C5.35495 1.99727 6.10841 1.73682 7.10682 1.73682H11.3485V8.76911C11.3485 9.92256 11.9252 10.4993 13.0787 10.4993H20.0366V18.8245C20.0366 19.823 19.7823 20.5795 19.2738 21.0942C18.7653 21.6151 18.0118 21.8756 17.0134 21.8756H7.10682ZM13.2461 9.14119C12.8927 9.14119 12.7159 8.96445 12.7159 8.61098V1.82984C12.9268 1.85464 13.1376 1.94146 13.3484 2.09029C13.5655 2.23912 13.7887 2.43136 14.0182 2.66701L19.0971 7.82031C19.3389 8.06836 19.5312 8.29781 19.6738 8.50866C19.8226 8.7195 19.9094 8.93035 19.9342 9.14119H13.2461Z" fill="#222631"/>
</svg>
