<svg width="24" height="24" viewBox="0 0 24 24" fill="none" xmlns="http://www.w3.org/2000/svg">
<path d="M12.0321 11.8745C12.1435 11.8745 12.2462 11.8962 12.339 11.9395C12.4318 11.9828 12.5307 12.054 12.6359 12.153L15.1416 14.4452C15.222 14.5195 15.2842 14.6005 15.3276 14.6871C15.3707 14.7736 15.3917 14.8727 15.3917 14.9839C15.3917 15.188 15.3205 15.3552 15.1782 15.4851C15.0422 15.6148 14.8749 15.6802 14.6771 15.6802C14.5782 15.6801 14.4791 15.6584 14.3802 15.6152C14.2875 15.5719 14.2073 15.5126 14.1393 15.4383L13.4613 14.7329L12.7394 13.9761L12.8209 15.42V18.3994C12.8208 18.6096 12.7408 18.7858 12.58 18.928C12.4253 19.0765 12.2425 19.1506 12.0321 19.1506C11.8158 19.1506 11.6305 19.0763 11.476 18.928C11.3214 18.7858 11.2434 18.6096 11.2433 18.3994V15.42L11.3303 13.9688L10.613 14.7329L9.91669 15.4383C9.85482 15.5126 9.77381 15.5719 9.67482 15.6152C9.57599 15.6583 9.4798 15.6802 9.38714 15.6802C9.17696 15.6801 9.00371 15.6149 8.86768 15.4851C8.73778 15.3552 8.67257 15.188 8.67253 14.9839C8.67253 14.8727 8.69439 14.7736 8.73758 14.6871C8.78089 14.6005 8.84611 14.5195 8.93272 14.4452L11.4384 12.153C11.5374 12.054 11.6333 11.9828 11.7261 11.9395C11.8188 11.8962 11.9209 11.8745 12.0321 11.8745Z" fill="#222631"/>
<path fill-rule="evenodd" clip-rule="evenodd" d="M11.531 1.95331C11.9208 1.95331 12.2617 1.98191 12.5525 2.0376C12.8432 2.08711 13.1122 2.18302 13.3596 2.32527C13.6071 2.46139 13.8611 2.6621 14.121 2.92811L18.984 7.87448C19.2561 8.14658 19.4599 8.40975 19.596 8.6633C19.7383 8.91078 19.8341 9.18651 19.8836 9.48968C19.9331 9.7866 19.9578 10.1515 19.9579 10.5845V19.0022C19.9579 19.9983 19.7048 20.7535 19.1974 21.267C18.6901 21.7867 17.938 22.0466 16.9418 22.0466H7.05825C6.06213 22.0466 5.30999 21.7897 4.80265 21.2761C4.29536 20.7626 4.04224 20.0045 4.04224 19.0022V4.99772C4.04225 4.00165 4.29533 3.24648 4.80265 2.73296C5.30999 2.21329 6.06217 1.95331 7.05825 1.95331H11.531ZM7.21583 3.77281C6.76419 3.77282 6.42711 3.89043 6.20439 4.12554C5.98165 4.36064 5.86999 4.69175 5.86999 5.11866V18.8905C5.86999 19.3173 5.9817 19.6455 6.20439 19.8744C6.42712 20.1033 6.7612 20.218 7.20667 20.218H16.7934C17.2451 20.218 17.5821 20.1033 17.8049 19.8744C18.0276 19.6455 18.1393 19.3173 18.1393 18.8905V10.8355H13.137C12.475 10.8355 11.9798 10.6715 11.6519 10.3435C11.3302 10.0156 11.1691 9.52046 11.1691 8.85844V3.77281H7.21583ZM12.7751 8.68254C12.7752 8.87416 12.8157 9.01282 12.8961 9.0994C12.9826 9.18597 13.1213 9.22944 13.3129 9.22949H17.8882L12.7751 4.02292V8.68254Z" fill="#222631"/>
</svg>
