<svg width="24" height="24" viewBox="0 0 24 24" fill="none" xmlns="http://www.w3.org/2000/svg">
<path d="M19 9C18.1667 9 17.4583 8.70833 16.875 8.125C16.2917 7.54167 16 6.83333 16 6C16 5.16667 16.2917 4.45833 16.875 3.875C17.4583 3.29167 18.1667 3 19 3C19.8333 3 20.5417 3.29167 21.125 3.875C21.7083 4.45833 22 5.16667 22 6C22 6.83333 21.7083 7.54167 21.125 8.125C20.5417 8.70833 19.8333 9 19 9Z" fill="#222631"/>
<path d="M14.4042 8C14.1363 7.38254 14 6.71027 14 6H3V8H14.4042Z" fill="#222631"/>
<path d="M10 16V18H14V16H10Z" fill="#222631"/>
<path d="M6 11V13H18V11H6Z" fill="#222631"/>
</svg>
