<svg width="24" height="24" viewBox="0 0 24 24" fill="none" xmlns="http://www.w3.org/2000/svg">
<path fill-rule="evenodd" clip-rule="evenodd" d="M18.4368 12.4255C19.0793 12.4255 19.6819 12.545 20.2437 12.7841C20.8057 13.0233 21.3006 13.3583 21.7271 13.7877C22.1535 14.2142 22.4866 14.7083 22.7257 15.2701C22.9678 15.8321 23.0883 16.4332 23.0883 17.073C23.0883 17.7128 22.9678 18.314 22.7257 18.8759C22.4866 19.4378 22.1535 19.9319 21.7271 20.3583C21.3006 20.7849 20.8057 21.1177 20.2437 21.3569C19.6818 21.599 19.0794 21.7205 18.4368 21.7205C17.7971 21.7205 17.1958 21.599 16.6339 21.3569C16.0721 21.1177 15.5779 20.7848 15.1515 20.3583C14.7251 19.9319 14.3909 19.4377 14.1489 18.8759C13.9097 18.314 13.7903 17.7128 13.7903 17.073C13.7903 16.4332 13.9097 15.8321 14.1489 15.2701C14.3909 14.7083 14.7251 14.2142 15.1515 13.7877C15.578 13.3584 16.072 13.0233 16.6339 12.7841C17.1958 12.5449 17.7971 12.4255 18.4368 12.4255ZM16.4055 19.2606C16.1653 19.3406 15.9646 19.4357 15.8026 19.544C15.8289 19.572 15.8544 19.6009 15.8817 19.6281C16.216 19.9596 16.6014 20.2191 17.0366 20.4064C17.1229 20.4435 17.2112 20.4748 17.3 20.5046C17.1218 20.3314 16.9574 20.1228 16.8112 19.8745C16.6971 19.6765 16.5976 19.4603 16.5097 19.2275C16.4746 19.2384 16.4397 19.2489 16.4055 19.2606ZM20.3659 19.2265C20.2781 19.4596 20.1782 19.6763 20.0624 19.8745C19.9161 20.1231 19.7511 20.3313 19.5726 20.5046C19.662 20.4746 19.7512 20.4438 19.8381 20.4064C20.276 20.2191 20.6606 19.9595 20.9919 19.6281C21.0198 19.6005 21.0462 19.5714 21.0731 19.543C20.9115 19.4353 20.7122 19.3402 20.4731 19.2606C20.4381 19.2485 20.4021 19.2378 20.3659 19.2265ZM18.0782 18.9751C17.8245 18.9863 17.5793 19.0088 17.343 19.0442C17.3093 19.049 17.276 19.055 17.2429 19.0602C17.2797 19.1532 17.3194 19.2431 17.3611 19.3297C17.508 19.635 17.6746 19.8772 17.8619 20.0558C17.9327 20.1234 18.0062 20.1751 18.0782 20.2171V18.9751ZM18.8044 20.2141C18.8752 20.1725 18.9475 20.1219 19.0167 20.0558C19.204 19.8772 19.3706 19.6349 19.5176 19.3297C19.559 19.2428 19.5971 19.1523 19.6337 19.0592C19.6012 19.0541 19.5678 19.0489 19.5346 19.0442C19.3004 19.0091 19.057 18.9864 18.8044 18.9751V20.2141ZM20.7235 17.4316C20.705 17.8206 20.6534 18.1891 20.5723 18.5384C20.6617 18.5666 20.748 18.5974 20.8317 18.6295C21.103 18.7304 21.3285 18.8483 21.5098 18.9811C21.6098 18.8219 21.6983 18.6545 21.7742 18.4783C21.9159 18.1469 22.0041 17.7977 22.0386 17.4316H20.7235ZM14.84 17.4316C14.8745 17.7977 14.9627 18.1469 15.1044 18.4783C15.1801 18.6541 15.2677 18.8213 15.3669 18.9801C15.5494 18.8477 15.7738 18.7301 16.0419 18.6295C16.1253 18.5978 16.2115 18.5673 16.3004 18.5394C16.2192 18.1899 16.1696 17.8208 16.1511 17.4316H14.84ZM16.8923 17.4316C16.9098 17.7273 16.9483 18.0142 17.0105 18.292C17.016 18.3166 17.0228 18.3408 17.0285 18.3651C17.0669 18.3582 17.1056 18.3504 17.1447 18.3441C17.4443 18.2934 17.7555 18.2615 18.0782 18.2479V17.4316H16.8923ZM18.8044 18.2479C19.1264 18.2616 19.4363 18.2938 19.7339 18.3441C19.7724 18.3503 19.8103 18.3584 19.8481 18.3651C19.8542 18.3394 19.8623 18.314 19.8681 18.288C19.9302 18.0108 19.9688 17.7251 19.9863 17.4316H18.8044V18.2479ZM15.3578 15.18C15.2619 15.3357 15.1781 15.5005 15.1044 15.6728C14.9634 16.0004 14.8758 16.3459 14.841 16.7094H16.1521C16.1713 16.3305 16.2205 15.9708 16.2994 15.6297C16.2109 15.6022 16.1249 15.5734 16.0419 15.5426C15.7692 15.4378 15.5421 15.3156 15.3578 15.18ZM17.0105 15.8711C16.95 16.1434 16.9125 16.423 16.8943 16.7094H18.0782V15.9192C17.7555 15.9062 17.4443 15.8765 17.1447 15.828C17.1049 15.8213 17.0656 15.8122 17.0265 15.805C17.0214 15.827 17.0155 15.8488 17.0105 15.8711ZM19.7339 15.828C19.4363 15.8762 19.1264 15.906 18.8044 15.9192V16.7094H19.9843C19.9662 16.423 19.9286 16.1434 19.8681 15.8711C19.8632 15.8488 19.8563 15.827 19.8511 15.805C19.8123 15.8122 19.7735 15.8213 19.7339 15.828ZM21.5178 15.179C21.335 15.3149 21.1074 15.4376 20.8317 15.5426C20.7484 15.5738 20.6622 15.6029 20.5733 15.6307C20.652 15.9716 20.7033 16.3307 20.7225 16.7094H22.0376C22.0028 16.3459 21.9152 16.0004 21.7742 15.6728C21.7003 15.4999 21.6146 15.3352 21.5178 15.179ZM18.0782 13.933C18.0061 13.975 17.9327 14.0266 17.8619 14.0942C17.6746 14.2729 17.5081 14.517 17.3611 14.8254C17.3176 14.9167 17.2771 15.0115 17.2389 15.1099C17.2733 15.1155 17.3079 15.1226 17.343 15.1279C17.5793 15.1613 17.8245 15.1824 18.0782 15.193V13.933ZM18.8044 15.192C19.057 15.1813 19.3005 15.161 19.5346 15.1279C19.5696 15.1227 19.6045 15.1155 19.6388 15.1099C19.6006 15.0117 19.561 14.9165 19.5176 14.8254C19.3706 14.5171 19.204 14.2729 19.0167 14.0942C18.9475 14.0282 18.8752 13.9776 18.8044 13.936V15.192ZM19.5626 13.6365C19.7471 13.8127 19.9146 14.0278 20.0624 14.2845C20.1796 14.4852 20.2803 14.7052 20.3689 14.9426C20.404 14.9319 20.4391 14.9229 20.4731 14.9115C20.7185 14.8272 20.9213 14.7266 21.0851 14.6151C21.0545 14.5824 21.0239 14.5496 20.9919 14.5179C20.6606 14.1866 20.276 13.9269 19.8381 13.7396C19.7479 13.7008 19.6556 13.6673 19.5626 13.6365ZM17.313 13.6355C17.2196 13.6664 17.1272 13.7006 17.0366 13.7396C16.6014 13.927 16.216 14.1865 15.8817 14.5179C15.8504 14.5492 15.8206 14.5818 15.7905 14.6141C15.9547 14.7263 16.159 14.8268 16.4055 14.9115C16.4386 14.9224 16.4727 14.9312 16.5067 14.9416C16.5954 14.7045 16.6957 14.485 16.8112 14.2845C16.9612 14.0276 17.1292 13.8118 17.313 13.6355Z" fill="#222631"/>
<path fill-rule="evenodd" clip-rule="evenodd" d="M6.88817 3.15155C7.20067 3.15155 7.47111 3.17258 7.69948 3.21465C7.92785 3.25672 8.13819 3.32884 8.3305 3.431C8.52281 3.52716 8.72413 3.66237 8.93447 3.83666L9.4483 4.26034C9.70071 4.45866 9.93809 4.59989 10.1605 4.68402C10.3828 4.76816 10.6563 4.81023 10.9808 4.81023H19.3643C20.3319 4.81023 21.0651 5.05963 21.5639 5.55844C22.0687 6.05724 22.3211 6.78742 22.3211 7.74897V11.4129C22.3211 11.4963 22.2261 11.5455 22.1568 11.499C21.8088 11.2656 21.4393 11.0636 21.048 10.8971C20.9085 10.8377 20.7667 10.7854 20.6243 10.7368C20.5825 10.7225 20.5542 10.6828 20.5542 10.6386V9.98458H3.4356V16.8627C3.4356 17.3014 3.54377 17.6289 3.76012 17.8453C3.98248 18.0616 4.304 18.1698 4.72468 18.1698H11.74C11.7902 18.1699 11.8325 18.2064 11.8412 18.2559C11.9265 18.7428 12.0658 19.2185 12.2618 19.6792L12.2648 19.6872C12.2808 19.7242 12.2975 19.7608 12.3139 19.7974C12.3449 19.8663 12.2943 19.9457 12.2188 19.9457H4.6165C3.64293 19.9457 2.90674 19.6963 2.40794 19.1975C1.90913 18.7047 1.65973 17.9775 1.65973 17.0159V6.02719C1.65973 5.07766 1.89411 4.36251 2.36286 3.88173C2.83763 3.39494 3.49569 3.15155 4.33705 3.15155H6.88817ZM4.68862 4.9184C4.28597 4.9184 3.97647 5.02658 3.76012 5.24293C3.54377 5.45327 3.4356 5.76577 3.4356 6.18044V8.42506H20.5542V7.90222C20.5542 7.46351 20.44 7.13598 20.2117 6.91963C19.9833 6.69727 19.6618 6.58609 19.2471 6.58609H10.512C10.1995 6.58609 9.92607 6.56506 9.69169 6.52299C9.46333 6.48092 9.24998 6.41181 9.05166 6.31566C8.85935 6.21349 8.66103 6.07827 8.4567 5.91L7.94287 5.48632C7.69046 5.28199 7.45308 5.13776 7.23072 5.05362C7.01437 4.96348 6.74694 4.9184 6.42843 4.9184H4.68862Z" fill="#222631"/>
</svg>
