<svg width="24" height="24" viewBox="0 0 24 24" fill="none" xmlns="http://www.w3.org/2000/svg">
<path d="M17.694 11.3757C17.8459 11.3757 17.9762 11.4293 18.0838 11.5368C18.1913 11.6413 18.2763 11.7937 18.3396 11.993L19.2557 14.8549H22.2696C22.4816 14.8549 22.6539 14.89 22.7868 14.9596C22.9197 15.0261 23.0098 15.1305 23.0572 15.2729C23.1078 15.4184 23.0986 15.5593 23.029 15.6954C22.9625 15.8282 22.8437 15.9563 22.673 16.0796L20.2145 17.8406L21.1778 20.7025C21.2443 20.8987 21.2651 21.071 21.2398 21.2197C21.2145 21.3716 21.1414 21.4931 21.0212 21.5849C20.8979 21.6766 20.7605 21.7103 20.6087 21.685C20.46 21.6597 20.3011 21.5854 20.1334 21.462L17.694 19.6727L15.2592 21.462C15.0916 21.5852 14.932 21.6597 14.7802 21.685C14.6315 21.7104 14.4948 21.6766 14.3714 21.5849C14.2514 21.4932 14.1791 21.3714 14.1538 21.2197C14.1285 21.0711 14.1484 20.8986 14.2148 20.7025L15.1791 17.8406L12.7196 16.0796C12.549 15.9563 12.4287 15.8282 12.3591 15.6954C12.2927 15.5594 12.2849 15.4183 12.3354 15.2729C12.3828 15.1306 12.4731 15.0261 12.6058 14.9596C12.7387 14.8901 12.9098 14.855 13.1185 14.8549H16.137L17.0539 11.993C17.1172 11.7937 17.2022 11.6413 17.3098 11.5368C17.4173 11.4294 17.5455 11.3757 17.694 11.3757Z" fill="#222631"/>
<path fill-rule="evenodd" clip-rule="evenodd" d="M6.87203 3.15057C7.18731 3.15058 7.46017 3.17189 7.69062 3.21431C7.92118 3.25679 8.13385 3.3297 8.32801 3.43285C8.52215 3.52993 8.72575 3.66666 8.93809 3.8426L9.4562 4.26965C9.71101 4.46986 9.95106 4.61267 10.1755 4.69762C10.4 4.78256 10.6765 4.82509 11.0042 4.82509H19.4678C20.4447 4.82509 21.1851 5.07726 21.6887 5.58086C22.1982 6.08446 22.4526 6.82193 22.4526 7.79261V11.6188C22.4526 11.7648 22.4528 11.8381 22.4262 11.8947C22.3985 11.9534 22.3511 12.0008 22.2924 12.0285C22.2358 12.0552 22.1624 12.0549 22.0165 12.0549H21.105C20.959 12.0549 20.8856 12.0552 20.8291 12.0285C20.7704 12.0008 20.7229 11.9534 20.6952 11.8947C20.6686 11.8381 20.6688 11.7648 20.6688 11.6188V10.049H3.3864V16.9938C3.38645 17.4364 3.49508 17.767 3.71329 17.9854C3.93779 18.2039 4.26287 18.3132 4.68759 18.3132H11.4285C11.6306 18.3132 11.7318 18.3135 11.7982 18.3533C11.867 18.3946 11.9147 18.4637 11.9293 18.5427C11.9431 18.6188 11.908 18.7133 11.8373 18.9024L11.4931 19.8229C11.4567 19.9204 11.4383 19.9693 11.4075 20.006C11.3754 20.0443 11.3336 20.0731 11.2864 20.0897C11.2413 20.1057 11.1893 20.1061 11.0852 20.1061H4.57832C3.59539 20.1061 2.85196 19.854 2.34836 19.3504C1.845 18.8529 1.59357 18.1191 1.59351 17.1486V6.05344C1.59357 5.09516 1.82981 4.37345 2.30283 3.88813C2.78214 3.39669 3.44666 3.1506 4.29605 3.15057H6.87203ZM4.65117 4.93436C4.24465 4.93436 3.93172 5.04374 3.71329 5.26216C3.49509 5.47447 3.38646 5.78992 3.3864 6.20824V8.47462H20.6688V7.9465C20.6688 7.5039 20.5541 7.17326 20.3237 6.9549C20.0932 6.7304 19.7681 6.61799 19.3494 6.61799H10.5307C10.2152 6.61799 9.93868 6.59672 9.70205 6.55425C9.47165 6.51179 9.25656 6.44182 9.05646 6.34482C8.86238 6.24172 8.66169 6.10577 8.45549 5.93598L7.93647 5.50802C7.68177 5.30183 7.44244 5.15591 7.21804 5.07095C6.99961 4.97993 6.72922 4.93436 6.40764 4.93436H4.65117Z" fill="#222631"/>
</svg>
