<svg width="24" height="24" viewBox="0 0 24 24" fill="none" xmlns="http://www.w3.org/2000/svg">
<path d="M1.80179 17.4336V10.0689H22.1983V17.4336C22.1983 18.3616 21.9737 19.0562 21.5247 19.5172C21.0756 19.9843 20.4499 20.2178 19.6476 20.2178H4.62191C3.68187 20.2178 2.97534 19.9843 2.50233 19.5172C2.0353 19.0562 1.80179 18.3616 1.80179 17.4336ZM1.80179 8.89239V6.48541C1.80179 5.58129 2.01734 4.9047 2.44844 4.45564C2.87954 4.00658 3.49027 3.78204 4.28062 3.78204H6.84028C7.13367 3.78204 7.38814 3.803 7.60369 3.84491C7.82523 3.88682 8.02581 3.95568 8.20543 4.05148C8.39105 4.14728 8.58265 4.27901 8.78024 4.44666L9.32809 4.89572C9.55562 5.08732 9.77416 5.22503 9.98373 5.30886C10.1933 5.3867 10.4508 5.42562 10.7561 5.42562H19.3781C20.3122 5.42562 21.0157 5.65913 21.4887 6.12615C21.9617 6.59318 22.1983 7.28773 22.1983 8.20981V8.89239H1.80179Z" fill="#222631"/>
</svg>
