<svg width="24" height="24" viewBox="0 0 24 24" fill="none" xmlns="http://www.w3.org/2000/svg">
<path d="M6.31479 7.2947H20.7574C20.71 6.48605 20.4776 5.85984 20.0604 5.41607C19.5953 4.91536 18.9116 4.66501 18.0094 4.66501H10.1918C9.88918 4.66501 9.63419 4.62278 9.42685 4.53832C9.2195 4.45386 8.99814 4.3121 8.76277 4.11302L8.28363 3.68772C8.08749 3.51277 7.89976 3.37704 7.72043 3.28052C7.5411 3.17796 7.34496 3.10557 7.13201 3.06334C6.91906 3.02111 6.66688 3 6.37547 3H3.99658C3.21202 3 2.59838 3.24432 2.15567 3.73296C1.71856 4.21557 1.5 4.93346 1.5 5.88661V14.7408L2.63033 10.1778C3.02477 8.58551 4.67436 7.2947 6.31479 7.2947Z" fill="#222631"/>
<path d="M2.39081 19.4705C2.72721 19.9902 3.34934 20.25 4.25718 20.25H14.7417L15.0273 19.1789H13.5086C13.3573 19.1789 13.2428 19.1283 13.1651 19.0271C13.0873 18.9259 13.0679 18.8022 13.1069 18.6561C13.1459 18.5099 13.2305 18.389 13.3607 18.2934C13.4925 18.1922 13.634 18.1416 13.7852 18.1416H15.3039L15.6368 16.8935H14.1181C13.9668 16.8935 13.8523 16.8429 13.7745 16.7417C13.6968 16.6405 13.6781 16.514 13.7186 16.3622C13.7561 16.2216 13.84 16.1036 13.9702 16.008C14.1019 15.9068 14.2434 15.8562 14.3947 15.8562H15.9134L16.2462 14.6081H14.7275C14.5762 14.6081 14.4617 14.5575 14.384 14.4563C14.3077 14.3494 14.2891 14.2229 14.3281 14.0768C14.3656 13.9362 14.4494 13.8181 14.5796 13.7226C14.7114 13.6214 14.8529 13.5708 15.0041 13.5708H16.5228L16.8557 12.3226H15.337C15.1857 12.3226 15.0712 12.272 14.9934 12.1708C14.9172 12.064 14.8985 11.9375 14.9375 11.7913C14.975 11.6508 15.0589 11.5327 15.1891 11.4371C15.3208 11.3359 15.4623 11.2853 15.6136 11.2853H17.1323L17.8432 8.61942H5.98668C5.09997 8.61942 4.2083 9.31715 3.99509 10.1778L2.25613 17.1977C2.00797 18.1995 2.05286 18.9571 2.39081 19.4705Z" fill="#222631"/>
<path d="M18.9255 8.61942L18.5204 10.1384H20.0391C20.1904 10.1384 20.3049 10.189 20.3826 10.2902C20.4619 10.3858 20.482 10.5067 20.443 10.6528C20.404 10.799 20.3187 10.9227 20.187 11.0239C20.0552 11.1251 19.9137 11.1757 19.7625 11.1757H18.2438L17.9109 12.4238H19.4296C19.5809 12.4238 19.6954 12.4744 19.7732 12.5756C19.8524 12.6712 19.8726 12.7921 19.8336 12.9383C19.7946 13.0844 19.7092 13.2081 19.5775 13.3093C19.4458 13.4105 19.3043 13.4611 19.153 13.4611H17.6343L17.3015 14.7093H18.8202C18.9715 14.7093 19.086 14.7599 19.1637 14.8611C19.243 14.9566 19.2631 15.0775 19.2241 15.2237C19.1851 15.3699 19.0998 15.4936 18.9681 15.5948C18.8364 15.696 18.6948 15.7466 18.5436 15.7466H17.0249L16.692 16.9947H18.2107C18.362 16.9947 18.4765 17.0453 18.5543 17.1465C18.6335 17.2421 18.6537 17.363 18.6147 17.5091C18.5757 17.6553 18.4903 17.779 18.3586 17.8802C18.2269 17.9814 18.0854 18.032 17.9341 18.032H16.4154L15.824 20.25H18.2195C19.0209 20.25 19.7101 19.9902 20.2872 19.4705C20.8627 18.9571 21.2745 18.1995 21.5227 17.1977L23.2616 10.1779C23.4748 9.31715 22.9288 8.61942 22.0421 8.61942H18.9255Z" fill="#222631"/>
</svg>
