<svg width="24" height="24" viewBox="0 0 24 24" fill="none" xmlns="http://www.w3.org/2000/svg">
<path d="M14.259 17.7084C14.6133 17.7084 14.9421 17.7533 15.2446 17.8426C15.547 17.9319 15.8123 18.0426 16.0399 18.1751C15.7632 18.4028 15.5343 18.6481 15.3527 18.9103C15.1712 19.1697 15.0365 19.4315 14.9501 19.6966C14.8665 19.9617 14.8336 20.2114 14.8509 20.4448C14.8711 20.681 14.9413 20.8859 15.0623 21.0588H11.9593C11.6136 21.0588 11.3737 20.9809 11.2411 20.8254C11.1085 20.6727 11.0428 20.4603 11.0428 20.1894C11.0428 19.9156 11.1217 19.6331 11.2802 19.342C11.4387 19.051 11.6621 18.7827 11.9503 18.5377C12.2383 18.293 12.5783 18.0944 12.9699 17.9418C13.3618 17.7861 13.7921 17.7084 14.259 17.7084Z" fill="#222631"/>
<path d="M19.3211 17.7164C19.8801 17.7164 20.3862 17.7986 20.8386 17.9628C21.2937 18.127 21.684 18.3419 22.0095 18.6068C22.3351 18.869 22.5848 19.1517 22.7577 19.4542C22.9306 19.7568 23.0171 20.0458 23.0171 20.3196C23.017 20.5442 22.9392 20.723 22.7837 20.8555C22.631 20.988 22.3527 21.0538 21.9494 21.0538H16.6929C16.2867 21.0538 16.0052 20.988 15.8495 20.8555C15.6969 20.723 15.6203 20.5442 15.6202 20.3196C15.6202 20.0458 15.7067 19.7568 15.8796 19.4542C16.0554 19.1517 16.3051 18.869 16.6278 18.6068C16.9533 18.3419 17.3436 18.127 17.7987 17.9628C18.254 17.7985 18.7621 17.7164 19.3211 17.7164Z" fill="#222631"/>
<path fill-rule="evenodd" clip-rule="evenodd" d="M6.88908 3.15991C7.20159 3.15991 7.47202 3.18095 7.70039 3.22301C7.92876 3.26508 8.1391 3.3372 8.33141 3.43936C8.52372 3.53552 8.72505 3.67074 8.93539 3.84502L9.44922 4.2687C9.70162 4.46702 9.93901 4.60825 10.1614 4.69239C10.3837 4.77652 10.6572 4.81859 10.9817 4.81859H19.3652C20.3328 4.81859 21.066 5.06799 21.5648 5.5668C22.0696 6.0656 22.322 6.79578 22.322 7.75733V12.2496C22.322 12.3473 22.1952 12.3921 22.1297 12.3197C21.8981 12.0622 21.6324 11.8322 21.3324 11.6396C21.106 11.4936 20.8677 11.3759 20.6233 11.285C20.5825 11.2698 20.5551 11.2304 20.5551 11.1869V9.99294H3.43651V16.871C3.43651 17.3098 3.54469 17.6373 3.76103 17.8536C3.98339 18.07 4.30491 18.1782 4.72559 18.1782H9.40214C9.48194 18.1782 9.5316 18.2655 9.49329 18.3354C9.48873 18.3436 9.48377 18.3522 9.47926 18.3604C9.24093 18.7981 9.06738 19.3122 9.01351 19.8589C9.00824 19.9124 8.96312 19.954 8.90934 19.954H4.61742C3.64385 19.954 2.90766 19.7046 2.40885 19.2058C1.91005 18.713 1.66064 17.9858 1.66064 17.0243V6.03555C1.66064 5.08602 1.89502 4.37087 2.36378 3.89009C2.83855 3.4033 3.49661 3.15991 4.33797 3.15991H6.88908ZM4.68953 4.92676C4.28688 4.92676 3.97738 5.03494 3.76103 5.25129C3.54469 5.46163 3.43651 5.77413 3.43651 6.1888V8.43342H20.5551V7.91058C20.5551 7.47187 20.441 7.14434 20.2126 6.92799C19.9842 6.70564 19.6627 6.59446 19.248 6.59446H10.5129C10.2004 6.59446 9.92699 6.57342 9.69261 6.53135C9.46424 6.48929 9.2509 6.42017 9.05258 6.32402C8.86027 6.22185 8.66195 6.08664 8.45762 5.91836L7.94379 5.49468C7.69138 5.29035 7.454 5.14612 7.23164 5.06198C7.01529 4.97184 6.74786 4.92676 6.42934 4.92676H4.68953Z" fill="#222631"/>
<path d="M14.259 13.6919C14.547 13.692 14.809 13.7686 15.0452 13.9213C15.2816 14.074 15.4709 14.2777 15.6122 14.5313C15.7531 14.7846 15.8234 15.0624 15.8235 15.3646C15.8235 15.6814 15.7532 15.9686 15.6122 16.225C15.4738 16.4815 15.2856 16.6862 15.0493 16.839C14.8131 16.9916 14.5498 17.0683 14.259 17.0684C13.9737 17.0684 13.712 16.9917 13.4757 16.839C13.2396 16.6863 13.0509 16.4813 12.9098 16.225C12.7716 15.9686 12.7025 15.6836 12.7025 15.3696C12.7025 15.0643 12.7728 14.7847 12.9138 14.5313C13.055 14.2777 13.2444 14.074 13.4807 13.9213C13.717 13.7686 13.9766 13.6919 14.259 13.6919Z" fill="#222631"/>
<path d="M19.3211 13.104C19.6523 13.104 19.9518 13.1907 20.2196 13.3634C20.4905 13.5363 20.7073 13.7684 20.8686 14.0595C21.03 14.3505 21.11 14.6704 21.11 15.0191C21.11 15.3822 21.03 15.7128 20.8686 16.0097C20.7102 16.3034 20.4953 16.5381 20.2246 16.7138C19.9538 16.8866 19.6524 16.9731 19.3211 16.9732C18.9868 16.9732 18.6836 16.8867 18.4127 16.7138C18.1448 16.5381 17.93 16.3034 17.7686 16.0097C17.6073 15.7129 17.5273 15.3841 17.5273 15.0241C17.5273 14.6753 17.6073 14.3546 17.7686 14.0635C17.9329 13.7697 18.1509 13.5363 18.4217 13.3634C18.6926 13.1905 18.9927 13.104 19.3211 13.104Z" fill="#222631"/>
</svg>
