<svg width="24" height="24" viewBox="0 0 24 24" fill="none" xmlns="http://www.w3.org/2000/svg">
<path d="M18.8513 17.7165C19.4132 17.7165 19.9204 17.7987 20.3728 17.9629C20.8253 18.1271 21.215 18.3418 21.5407 18.6069C21.8662 18.869 22.115 19.1518 22.2879 19.4543C22.4608 19.7569 22.5473 20.0459 22.5473 20.3197C22.5472 20.55 22.4682 20.7299 22.3099 20.8595C22.1543 20.9892 21.9352 21.0538 21.6529 21.0539H16.0498C15.7675 21.0538 15.5472 20.9892 15.3887 20.8595C15.2303 20.7299 15.1515 20.55 15.1514 20.3197C15.1514 20.0459 15.2379 19.7569 15.4108 19.4543C15.5866 19.1519 15.8354 18.869 16.158 18.6069C16.4836 18.3418 16.8746 18.1271 17.3299 17.9629C17.7851 17.7987 18.2924 17.7165 18.8513 17.7165Z" fill="#222631"/>
<path fill-rule="evenodd" clip-rule="evenodd" d="M6.89504 3.15997C7.20754 3.15997 7.47798 3.18101 7.70635 3.22308C7.93471 3.26514 8.14505 3.33726 8.33736 3.43942C8.52967 3.53558 8.731 3.6708 8.94134 3.84508L9.45517 4.26876C9.70757 4.46708 9.94496 4.60831 10.1673 4.69245C10.3897 4.77658 10.6631 4.81865 10.9876 4.81865H19.3712C20.3387 4.81865 21.0719 5.06805 21.5707 5.56686C22.0755 6.06566 22.3279 6.79584 22.3279 7.75739V13.101C22.3277 13.1554 22.2512 13.1723 22.2258 13.1241C22.2155 13.1045 22.2045 13.0844 22.1937 13.065C21.8725 12.4804 21.4177 11.991 20.8456 11.6296C20.7883 11.5933 20.7301 11.5591 20.6713 11.5265C20.6044 11.4894 20.5613 11.4196 20.5611 11.3432V9.993H3.44246V16.8711C3.44246 17.3098 3.55064 17.6373 3.76699 17.8537C3.98934 18.07 4.31086 18.1782 4.73154 18.1782H13.5017C13.6252 18.1785 13.6991 18.3167 13.6369 18.4236L13.6329 18.4306L13.6299 18.4366C13.4069 18.8269 13.2271 19.2762 13.1471 19.7718C13.1304 19.8751 13.0425 19.9541 12.9378 19.9541H4.62337C3.6498 19.9541 2.91361 19.7047 2.4148 19.2059C1.916 18.7131 1.6666 17.9859 1.6666 17.0244V6.03561C1.6666 5.08608 1.90097 4.37093 2.36973 3.89015C2.8445 3.40337 3.50256 3.15997 4.34392 3.15997H6.89504ZM4.69548 4.92683C4.29283 4.92683 3.98334 5.035 3.76699 5.25135C3.55064 5.46169 3.44246 5.77419 3.44246 6.18886V8.43349H20.5611V7.91064C20.5611 7.47193 20.4469 7.1444 20.2185 6.92806C19.9902 6.7057 19.6687 6.59452 19.254 6.59452H10.5189C10.2064 6.59452 9.93294 6.57348 9.69856 6.53142C9.47019 6.48935 9.25685 6.42024 9.05853 6.32408C8.86622 6.22192 8.6679 6.0867 8.46357 5.91843L7.94974 5.49474C7.69733 5.29041 7.45995 5.14618 7.23759 5.06204C7.02124 4.9719 6.75381 4.92683 6.43529 4.92683H4.69548Z" fill="#222631"/>
<path d="M18.8513 13.104C19.1799 13.104 19.4799 13.1905 19.7508 13.3634C20.0245 13.5363 20.2403 13.7686 20.3988 14.0596C20.5602 14.3506 20.6412 14.6705 20.6412 15.0191C20.6412 15.3822 20.5602 15.7129 20.3988 16.0097C20.2403 16.3035 20.0256 16.5381 19.7548 16.7139C19.4839 16.8868 19.1828 16.9733 18.8513 16.9733C18.5171 16.9733 18.2147 16.8867 17.9439 16.7139C17.676 16.5382 17.4612 16.3034 17.2998 16.0097C17.1414 15.713 17.0615 15.3842 17.0614 15.0241C17.0614 14.6754 17.1424 14.3547 17.3038 14.0636C17.4652 13.7698 17.6811 13.5363 17.9519 13.3634C18.2228 13.1905 18.5228 13.104 18.8513 13.104Z" fill="#222631"/>
</svg>
