<svg width="24" height="24" viewBox="0 0 24 24" fill="none" xmlns="http://www.w3.org/2000/svg">
<path d="M12.0004 3.99939C8.25082 3.99939 6.04791 5.44404 5.95511 5.50564C5.63031 5.72244 5.5115 6.14415 5.6723 6.50095L9.38948 14.7291C9.51908 15.0155 9.80557 15.1994 10.1192 15.1994H13.8817C14.1961 15.1994 14.4802 15.0155 14.6098 14.7291L18.3285 6.50095C18.4901 6.14415 18.3705 5.72244 18.0457 5.50564C17.9529 5.44404 15.75 3.99939 12.0004 3.99939ZM4.74417 8.33533C3.54737 9.27453 2.25941 10.6408 1.64261 12.4728C1.55941 12.7192 1.60147 12.9906 1.75667 13.201C1.82707 13.2962 2.49533 14.1565 4.34573 15.0213C5.85534 15.7269 7.22407 15.9765 7.28167 15.9869C7.32807 15.9957 7.3751 15.9994 7.4223 15.9994C7.7063 15.9994 7.91555 15.8778 8.10355 15.701C8.03955 15.6026 7.98284 15.4988 7.93324 15.39L4.74417 8.33533ZM19.2567 8.33533L16.0676 15.39C16.018 15.4988 15.9613 15.6026 15.8973 15.701C16.0853 15.8778 16.2945 15.9994 16.5785 15.9994C16.6257 15.9994 16.6728 15.9957 16.7192 15.9869C16.7768 15.9765 18.1455 15.7269 19.6551 15.0213C21.5055 14.1565 22.1738 13.2962 22.2442 13.201C22.3994 12.9906 22.4414 12.7192 22.3582 12.4728C21.7414 10.6408 20.4535 9.27453 19.2567 8.33533ZM1.60355 15.24C1.61635 18.4176 3.06922 19.9994 4.00042 19.9994C4.91162 19.9994 5.3685 18.8518 6.0973 17.351C5.4757 17.1838 4.59961 16.9065 3.66761 16.4713C2.76441 16.0489 2.09875 15.62 1.60355 15.24ZM22.3973 15.24C21.9021 15.62 21.2364 16.0489 20.3332 16.4713C19.4012 16.9065 18.5251 17.1838 17.9035 17.351C18.6323 18.8518 19.0892 19.9994 20.0004 19.9994C20.9316 19.9994 22.3845 18.4176 22.3973 15.24Z" fill="#222631"/>
</svg>
