<svg width="24" height="24" viewBox="0 0 24 24" fill="none" xmlns="http://www.w3.org/2000/svg">
<path d="M21.7428 8.31362L12.9284 2.70162C12.666 2.51362 12.3468 2.40002 11.9996 2.40002C11.6524 2.40002 11.3332 2.51362 11.0708 2.70162L2.25638 8.31362C1.85958 8.60483 1.59958 9.07042 1.59958 9.60002C1.59958 10.1904 1.92358 10.7008 2.39958 10.9784V19.2C2.39958 20.084 3.11558 20.8 3.99958 20.8H19.9996C20.8836 20.8 21.5996 20.084 21.5996 19.2V10.9784C22.0756 10.7016 22.3996 10.1912 22.3996 9.60002C22.3996 9.07042 22.1396 8.60483 21.7428 8.31362ZM11.9996 4.00002C12.4412 4.00002 12.7996 4.35842 12.7996 4.80002C12.7996 5.24162 12.4412 5.60002 11.9996 5.60002C11.558 5.60002 11.1996 5.24162 11.1996 4.80002C11.1996 4.35842 11.558 4.00002 11.9996 4.00002ZM9.59958 5.60002C10.0412 5.60002 10.3996 5.95842 10.3996 6.40002C10.3996 6.84162 10.0412 7.20002 9.59958 7.20002C9.15798 7.20002 8.79958 6.84162 8.79958 6.40002C8.79958 5.95842 9.15798 5.60002 9.59958 5.60002ZM3.99958 19.2C3.99958 18.7584 4.35798 18.4 4.79958 18.4C5.24118 18.4 5.59958 18.7584 5.59958 19.2H3.99958ZM4.79958 16.8C4.35798 16.8 3.99958 16.4416 3.99958 16C3.99958 15.5584 4.35798 15.2 4.79958 15.2C5.24118 15.2 5.59958 15.5584 5.59958 16C5.59958 16.4416 5.24118 16.8 4.79958 16.8ZM4.79958 13.6C4.35798 13.6 3.99958 13.2416 3.99958 12.8C3.99958 12.3584 4.35798 12 4.79958 12C5.24118 12 5.59958 12.3584 5.59958 12.8C5.59958 13.2416 5.24118 13.6 4.79958 13.6ZM4.79958 10.4C4.35798 10.4 3.99958 10.0416 3.99958 9.60002C3.99958 9.15842 4.35798 8.80002 4.79958 8.80002C5.24118 8.80002 5.59958 9.15842 5.59958 9.60002C5.59958 10.0416 5.24118 10.4 4.79958 10.4ZM7.19958 8.80002C6.75798 8.80002 6.39958 8.44162 6.39958 8.00002C6.39958 7.55842 6.75798 7.20002 7.19958 7.20002C7.64118 7.20002 7.99958 7.55842 7.99958 8.00002C7.99958 8.44162 7.64118 8.80002 7.19958 8.80002ZM15.1996 19.2H8.79958V16C8.79958 14.2328 10.2324 12.8 11.9996 12.8C13.7668 12.8 15.1996 14.2328 15.1996 16V19.2ZM14.3996 7.20002C13.958 7.20002 13.5996 6.84162 13.5996 6.40002C13.5996 5.95842 13.958 5.60002 14.3996 5.60002C14.8412 5.60002 15.1996 5.95842 15.1996 6.40002C15.1996 6.84162 14.8412 7.20002 14.3996 7.20002ZM16.7996 8.80002C16.358 8.80002 15.9996 8.44162 15.9996 8.00002C15.9996 7.55842 16.358 7.20002 16.7996 7.20002C17.2412 7.20002 17.5996 7.55842 17.5996 8.00002C17.5996 8.44162 17.2412 8.80002 16.7996 8.80002ZM18.3996 19.2C18.3996 18.7584 18.758 18.4 19.1996 18.4C19.6412 18.4 19.9996 18.7584 19.9996 19.2H18.3996ZM19.1996 16.8C18.758 16.8 18.3996 16.4416 18.3996 16C18.3996 15.5584 18.758 15.2 19.1996 15.2C19.6412 15.2 19.9996 15.5584 19.9996 16C19.9996 16.4416 19.6412 16.8 19.1996 16.8ZM19.1996 13.6C18.758 13.6 18.3996 13.2416 18.3996 12.8C18.3996 12.3584 18.758 12 19.1996 12C19.6412 12 19.9996 12.3584 19.9996 12.8C19.9996 13.2416 19.6412 13.6 19.1996 13.6ZM19.1996 10.4C18.758 10.4 18.3996 10.0416 18.3996 9.60002C18.3996 9.15842 18.758 8.80002 19.1996 8.80002C19.6412 8.80002 19.9996 9.15842 19.9996 9.60002C19.9996 10.0416 19.6412 10.4 19.1996 10.4Z" fill="#222631"/>
</svg>
