<svg width="24" height="24" viewBox="0 0 24 24" fill="none" xmlns="http://www.w3.org/2000/svg">
<path d="M20.7693 3.51753C19.6357 2.38393 17.2373 2.09913 14.5405 2.72873C13.6205 2.94393 13.0773 3.90313 13.3765 4.79993L13.5589 5.34633C13.6989 5.76553 13.4725 6.21833 13.0533 6.35833C12.9685 6.38713 12.8829 6.39993 12.7997 6.39993C12.4645 6.39993 12.1525 6.18793 12.0405 5.85273L11.7181 4.88633C11.5341 4.33513 10.8925 4.09353 10.3877 4.38153C10.2549 4.45753 10.1221 4.53513 9.9901 4.61593C9.0205 5.20553 8.5677 6.37353 8.9261 7.45033L9.5581 9.34713C9.6981 9.76633 9.4717 10.2191 9.0525 10.3591C8.9685 10.3871 8.88289 10.3999 8.7997 10.3999C8.4645 10.3999 8.15249 10.1879 8.04049 9.85273C8.04049 9.85273 7.70449 8.84553 7.42289 8.00553C7.2509 7.49113 6.58049 7.35593 6.22449 7.76553C6.01729 8.00393 5.81889 8.24713 5.62929 8.49433C5.02449 9.28073 4.79729 10.2935 5.03809 11.2559L5.57569 13.4055C5.68289 13.8343 5.4221 14.2687 4.99329 14.3759C4.92849 14.3927 4.86369 14.3999 4.79889 14.3999C4.44049 14.3999 4.11489 14.1575 4.02369 13.7943L3.57569 12.0007C2.00929 15.6455 2.03569 19.2879 3.51809 20.7703C4.74689 21.9991 5.99009 21.7479 6.96769 20.7695L20.7693 6.96793C21.7469 5.99033 21.9989 4.74713 20.7693 3.51753Z" fill="#222631"/>
</svg>
