<svg width="24" height="24" viewBox="0 0 24 24" fill="none" xmlns="http://www.w3.org/2000/svg">
<path d="M7.12961 5.15911C7.39991 4.87179 7.94743 4.81531 8.24621 5.08264L12.823 9.65986C15.7776 12.6148 16.9549 13.8208 17.5254 14.3879C18.0958 14.9549 18.4769 15.7515 18.4769 16.6021C18.4769 17.4527 18.4983 17.4404 18.497 19.764C18.4962 21.2087 18.4846 22.0133 18.4846 22.4569C18.4845 22.9004 18.0659 23.1387 17.6525 23.1387C17.2392 23.1387 16.8361 22.7906 16.8361 22.4847C16.8361 22.1789 16.8244 21.8108 16.826 19.7548C16.8281 16.9298 16.828 16.9239 16.7706 16.5981C16.6995 16.1951 16.5023 15.7744 16.2402 15.4675C16.2167 15.4399 14.1535 13.3722 11.6556 10.8726C8.73452 7.94963 7.19794 6.40023 7.05576 6.24508C6.78049 5.9447 6.87042 5.43465 7.12961 5.15911Z" fill="#222631"/>
<path d="M6.17073 8.09876C6.26998 8.06664 6.41204 8.06679 6.51124 8.09906C6.63696 8.13999 6.71713 8.22005 6.87735 8.38025L8.89428 10.3969C10.2954 11.7979 12.1879 13.6903 13.0998 14.6025L14.1335 15.6364C14.352 15.855 14.4613 15.9643 14.5022 16.0903C14.5381 16.2011 14.5381 16.3205 14.502 16.4313C14.461 16.5572 14.3514 16.6667 14.1322 16.8854C13.7881 17.2288 13.4664 17.5428 13.4174 17.5832C13.1947 17.7667 12.8744 17.9459 12.6146 18.0322C12.4721 18.0796 12.166 18.1426 11.9955 18.1598C11.9155 18.1679 11.4005 18.1732 10.6585 18.1735C9.9947 18.1739 9.35838 18.1792 9.24432 18.1855C8.98812 18.1995 8.77416 18.2419 8.54932 18.3233C8.42044 18.3699 8.16302 18.506 8.01395 18.6064C7.93453 18.6598 7.32156 19.1143 6.65179 19.6162C6.31609 19.8768 6.04572 20.0803 5.8357 20.2351C5.64488 20.3757 5.54946 20.4461 5.43319 20.4709C5.33512 20.4918 5.21975 20.4834 5.12577 20.4484C5.01433 20.407 4.92691 20.3203 4.75211 20.1471C4.45206 19.8497 4.04369 19.444 3.59813 18.9985C3.16318 18.5636 2.76615 18.1639 2.47084 17.8658C2.28717 17.6804 2.1953 17.5877 2.15388 17.4757C2.11803 17.3787 2.11032 17.268 2.13234 17.167C2.15779 17.0503 2.23469 16.9473 2.38837 16.7415C2.48049 16.618 2.57294 16.4948 2.6651 16.3714C2.86618 16.1021 3.12631 15.7547 3.24316 15.5993C3.89359 14.7345 3.98435 14.6091 4.07441 14.4506C4.22693 14.1822 4.31418 13.9661 4.36322 13.735C4.41669 13.483 4.42236 13.3226 4.42292 12.0521C4.42322 11.3243 4.42868 10.7793 4.43669 10.6774C4.47591 10.1785 4.57137 9.86798 4.80688 9.47353C4.85863 9.38681 4.9407 9.26787 4.98914 9.20919C5.04089 9.1465 5.45286 8.72968 5.81 8.37371C5.96662 8.2176 6.04493 8.13948 6.17073 8.09876Z" fill="#222631"/>
<path d="M14.4849 1.14518C14.795 0.909074 15.4088 0.729213 15.7215 0.988468C16.0343 1.24777 16.06 1.72868 15.6432 2.20315C15.2799 2.61672 13.4544 4.52801 12.9918 5.01186C12.9323 5.07405 12.9342 5.17195 12.9954 5.23242L14.3783 6.59881C14.438 6.65783 14.5325 6.66061 14.5944 6.60389C15.1146 6.1274 17.3254 4.10298 17.6693 3.79626C18.0595 3.44822 18.6818 3.18988 19.0773 3.49045C19.4728 3.79103 19.2708 4.36604 18.9929 4.69274C18.7462 4.98278 16.5006 7.4479 15.9988 7.99851C15.9424 8.06044 15.9458 8.15405 16.0046 8.21369L17.3693 9.59655C17.4306 9.65865 17.5301 9.65974 17.592 9.59824C18.0716 9.12158 19.9482 7.25787 20.2572 6.97009C20.612 6.63962 21.1771 6.32917 21.6408 6.68944C22.1044 7.04972 21.797 7.6959 21.5311 8.05214C21.2961 8.36701 19.5383 10.663 19.1325 11.1927C19.0843 11.2557 19.0913 11.3432 19.1476 11.3991C19.3141 11.5645 19.6515 11.9007 19.8361 12.0921C20.0876 12.3529 20.1095 12.8568 19.8361 13.19C19.5627 13.5233 19.0931 13.6599 18.7133 13.3087C18.3336 12.9576 9.61757 4.2309 9.36164 3.95727C9.10582 3.68374 9.07411 3.13269 9.39149 2.81899C9.70888 2.50534 10.2919 2.57798 10.5449 2.81899C10.7299 2.99521 11.047 3.30193 11.2059 3.45583C11.2617 3.50985 11.347 3.51608 11.409 3.46929C11.9312 3.07504 14.2106 1.35407 14.4849 1.14518Z" fill="#222631"/>
</svg>
