<svg width="24" height="24" viewBox="0 0 24 24" fill="none" xmlns="http://www.w3.org/2000/svg">
<path fill-rule="evenodd" clip-rule="evenodd" d="M4.3469 4.34689C8.57361 0.120182 15.4264 0.120237 19.6531 4.34689C23.8798 8.57363 23.8798 15.4264 19.6531 19.6531C15.4264 23.8798 8.57362 23.8798 4.3469 19.6531C0.12026 15.4264 0.120233 8.5736 4.3469 4.34689ZM14.9682 20.3958C15.8967 20.0683 16.7812 19.5822 17.5807 18.9375L15.3923 16.7491L13.3569 18.7845L14.9682 20.3958ZM18.9375 17.5806C19.5823 16.7812 20.0683 15.8967 20.3958 14.9682L18.7845 13.3569L16.7492 15.3922L18.9375 17.5806ZM11.2692 20.8722C11.7556 20.912 12.2444 20.912 12.7308 20.8722L12 20.1414L11.2692 20.8722ZM20.1414 12L20.8722 12.7308C20.912 12.2444 20.912 11.7556 20.8722 11.2692L20.1414 12ZM16.7492 8.60774L18.7845 10.6431L20.3965 9.03111C20.069 8.10279 19.5822 7.21869 18.9375 6.41934L16.7492 8.60774ZM6.41935 18.9375C7.2187 19.5822 8.1028 20.069 9.03112 20.3965L10.6431 18.7845L8.60775 16.7491L6.41935 18.9375ZM12 17.4276L14.0354 15.3922L12 13.3569L9.96465 15.3922L12 17.4276ZM15.3923 14.0353L17.4276 12L15.3923 9.96464L13.3569 12L15.3923 14.0353ZM13.3569 5.21549L15.3923 7.25084L17.5807 5.06244C16.7813 4.41784 15.8972 3.93101 14.9689 3.60351L13.3569 5.21549ZM3.60352 14.9689C3.93102 15.8972 4.41785 16.7813 5.06245 17.5806L7.25085 15.3922L5.2155 13.3569L3.60352 14.9689ZM8.60775 14.0353L10.6431 12L8.60775 9.96464L6.5724 12L8.60775 14.0353ZM12 10.6431L14.0354 8.60774L12 6.57239L9.96465 8.60774L12 10.6431ZM12 3.85859L12.7308 3.1278C12.2442 3.08796 11.7552 3.08726 11.2685 3.12714L12 3.85859ZM3.12715 11.2685C3.08727 11.7552 3.08797 12.2442 3.12781 12.7308L3.8586 12L3.12715 11.2685ZM5.06179 6.41868C4.41715 7.21804 3.93104 8.10277 3.60352 9.03111L5.2155 10.6431L7.25085 8.60774L5.06179 6.41868ZM8.60775 7.25084L10.6431 5.21549L9.03112 3.60351C8.10278 3.93103 7.21805 4.41714 6.41869 5.06178L8.60775 7.25084Z" fill="#222631"/>
</svg>
