<svg width="24" height="24" viewBox="0 0 24 24" fill="none" xmlns="http://www.w3.org/2000/svg">
<path d="M21.5998 14.6984C21.5998 7.90642 16.0934 2.40002 9.30135 2.40002L2.47335 20.1528C2.14295 21.0128 2.98695 21.8568 3.84695 21.5264L8.51255 19.732C9.03655 19.5304 9.59976 19.9168 9.59976 20.4784V20.8C9.59976 21.2416 9.95816 21.6 10.3998 21.6C10.8414 21.6 11.1998 21.2416 11.1998 20.8V19.5224C11.1998 19.0256 11.5054 18.5808 11.9694 18.4024C12.7558 18.1 13.5998 18.68 13.5998 19.5224V21.6C13.5998 22.0416 13.9582 22.4 14.3998 22.4C14.8414 22.4 15.1998 22.0416 15.1998 21.6V18.808C15.1998 17.8152 15.811 16.9248 16.7382 16.568L21.5998 14.6984ZM7.19975 17.6C6.31575 17.6 5.59976 16.884 5.59976 16C5.59976 15.116 6.31575 14.4 7.19975 14.4C8.08375 14.4 8.79975 15.116 8.79975 16C8.79975 16.884 8.08375 17.6 7.19975 17.6ZM9.99976 10.4C9.33736 10.4 8.79975 9.86242 8.79975 9.20002C8.79975 8.53682 9.33736 8.00002 9.99976 8.00002C10.6622 8.00002 11.1998 8.53682 11.1998 9.20002C11.1998 9.86242 10.6622 10.4 9.99976 10.4ZM12.7998 12C12.7998 10.6744 13.8742 9.60002 15.1998 9.60002C16.5254 9.60002 17.5998 10.6744 17.5998 12C17.5998 13.3256 16.5254 14.4 15.1998 14.4C13.8742 14.4 12.7998 13.3256 12.7998 12Z" fill="#222631"/>
</svg>
