<svg width="24" height="24" viewBox="0 0 24 24" fill="none" xmlns="http://www.w3.org/2000/svg">
<path d="M10.8004 2.40002C10.27 2.40002 9.76128 2.61074 9.38621 2.98581C9.01114 3.36088 8.80042 3.86959 8.80042 4.40002C8.80087 4.83294 8.94178 5.25403 9.20199 5.60002H4.40042C3.73802 5.60002 3.20042 6.13762 3.20042 6.80002C3.20042 7.46242 3.73802 8.00002 4.40042 8.00002H8.80042C9.68442 8.00002 10.4004 8.71602 10.4004 9.60002V10.4C10.4004 10.8424 10.7588 11.2 11.2004 11.2C11.642 11.2 12.0004 10.8424 12.0004 10.4V9.20002C12.0004 8.53762 12.538 8.00002 13.2004 8.00002C13.8628 8.00002 14.4004 8.53762 14.4004 9.20002V15.2C14.4004 15.6424 14.7588 16 15.2004 16C15.642 16 16.0004 15.6424 16.0004 15.2V10.4C16.0004 9.07442 17.0748 8.00002 18.4004 8.00002H19.6004C20.2628 8.00002 20.8004 7.46242 20.8004 6.80002C20.8004 6.13762 20.2628 5.60002 19.6004 5.60002H14.9848C15.1257 5.35692 15.2 5.081 15.2004 4.80002C15.2004 4.37568 15.0319 3.96871 14.7318 3.66865C14.4317 3.3686 14.0248 3.20002 13.6004 3.20002C13.2397 3.19982 12.8895 3.32151 12.6067 3.54534C12.4449 3.20304 12.1892 2.9137 11.8695 2.71096C11.5498 2.50821 11.179 2.40039 10.8004 2.40002ZM3.60042 9.60002C2.93722 9.60002 2.40042 10.1376 2.40042 10.8C2.40042 11.4624 2.93722 12 3.60042 12H9.42386C9.03986 11.5744 8.80042 11.0168 8.80042 10.4V9.60002H3.60042ZM18.4004 9.60002C17.9596 9.60002 17.6004 9.95922 17.6004 10.4V12H19.6004C20.2636 12 20.8004 11.4624 20.8004 10.8C20.8004 10.1376 20.2636 9.60002 19.6004 9.60002H18.4004ZM4.40042 13.6C3.73722 13.6 3.20042 14.1376 3.20042 14.8C3.20042 15.4624 3.73722 16 4.40042 16H12.9473C12.8577 15.7488 12.8004 15.4816 12.8004 15.2V13.6H4.40042ZM17.6004 13.6V15.2C17.6004 15.4816 17.5431 15.7488 17.4535 16H21.2004C21.8636 16 22.4004 15.4624 22.4004 14.8C22.4004 14.1376 21.8636 13.6 21.2004 13.6H17.6004ZM3.60042 17.6C3.44141 17.5978 3.28353 17.6272 3.13597 17.6865C2.98841 17.7457 2.8541 17.8338 2.74086 17.9454C2.62762 18.0571 2.53769 18.1901 2.47632 18.3368C2.41494 18.4835 2.38333 18.641 2.38333 18.8C2.38333 18.9591 2.41494 19.1165 2.47632 19.2632C2.53769 19.4099 2.62762 19.543 2.74086 19.6546C2.8541 19.7663 2.98841 19.8543 3.13597 19.9136C3.28353 19.9729 3.44141 20.0023 3.60042 20H19.6004C19.7594 20.0023 19.9173 19.9729 20.0649 19.9136C20.2124 19.8543 20.3467 19.7663 20.46 19.6546C20.5732 19.543 20.6632 19.4099 20.7245 19.2632C20.7859 19.1165 20.8175 18.9591 20.8175 18.8C20.8175 18.641 20.7859 18.4835 20.7245 18.3368C20.6632 18.1901 20.5732 18.0571 20.46 17.9454C20.3467 17.8338 20.2124 17.7457 20.0649 17.6865C19.9173 17.6272 19.7594 17.5978 19.6004 17.6H3.60042Z" fill="#222631"/>
</svg>
