<svg width="24" height="24" viewBox="0 0 24 24" fill="none" xmlns="http://www.w3.org/2000/svg">
<path d="M15.599 3.99939C14.9014 3.99939 14.2342 4.09219 13.6054 4.25699C14.5526 4.97059 15.1774 5.75619 15.5726 6.40179C15.5814 6.40099 15.5902 6.39939 15.599 6.39939C17.715 6.39939 19.999 8.08179 19.999 10.7994C19.999 14.8666 16.787 17.5994 12.0062 17.5994C7.2166 17.5994 3.999 14.8666 3.999 10.7994C3.999 8.08179 6.283 6.39939 8.399 6.39939C8.9462 6.39939 9.467 6.47699 9.947 6.62019C9.2198 7.57699 8.799 8.73699 8.799 9.99939C8.799 11.7002 9.2966 13.0106 10.0462 14.0058C9.2294 14.3226 8.503 14.3898 8.323 14.4018C7.6638 14.4434 7.1622 15.0106 7.2014 15.6706C7.2414 16.3322 7.8094 16.8282 8.471 16.797C9.443 16.7386 10.7758 16.4266 11.9998 15.7138C13.223 16.4266 14.5566 16.7394 15.5286 16.797C16.1846 16.8258 16.7526 16.3346 16.795 15.6754C16.8374 15.0162 16.3358 14.4466 15.6766 14.4018C15.5598 14.3938 15.207 14.361 14.7502 14.2522C12.331 13.7554 11.199 11.9826 11.199 9.99939C11.199 9.21139 11.4934 8.49059 11.999 7.90339C12.5046 8.48979 12.799 9.21139 12.799 9.99939C12.799 10.3274 12.7654 10.625 12.715 10.9066C12.791 11.341 13.1366 12.3474 14.6574 12.7898C14.9966 12.0042 15.199 10.9546 15.199 9.99939C15.199 7.27379 13.0838 5.48819 12.0086 4.87779C12.0054 4.87939 12.0022 4.88019 11.999 4.88259C10.9614 4.32019 9.731 3.99939 8.399 3.99939C5.1286 3.99939 1.599 6.59939 1.599 10.7994C1.599 16.2162 5.879 19.9994 12.0062 19.9994C18.1254 19.9994 22.399 16.2162 22.399 10.7994C22.399 6.59939 18.8694 3.99939 15.599 3.99939Z" fill="#222631"/>
</svg>
