<svg width="24" height="24" viewBox="0 0 24 24" fill="none" xmlns="http://www.w3.org/2000/svg">
<path d="M8.34473 14.7539C8.58491 14.7539 8.7914 14.8403 8.96387 15.0127C9.13626 15.1851 9.22255 15.3882 9.22266 15.6221C9.22266 15.8623 9.13636 16.0687 8.96387 16.2412C8.79137 16.4076 8.58499 16.4912 8.34473 16.4912C8.10464 16.4911 7.89798 16.4075 7.72559 16.2412C7.55953 16.0688 7.47656 15.8621 7.47656 15.6221C7.47667 15.3883 7.55951 15.185 7.72559 15.0127C7.89798 14.8403 8.10464 14.754 8.34473 14.7539Z" fill="#222631"/>
<path d="M15.6455 14.7539C15.8858 14.7539 16.0895 14.8402 16.2559 15.0127C16.4281 15.185 16.5145 15.3882 16.5146 15.6221C16.5146 15.8622 16.4281 16.0688 16.2559 16.2412C16.0895 16.4076 15.8858 16.4912 15.6455 16.4912C15.4114 16.4912 15.2086 16.4075 15.0361 16.2412C14.8636 16.0687 14.7773 15.8623 14.7773 15.6221C14.7775 15.3882 14.8637 15.1851 15.0361 15.0127C15.2086 14.8403 15.4115 14.7539 15.6455 14.7539Z" fill="#222631"/>
<path d="M8.29004 7.8418C8.407 7.82342 8.52992 7.8572 8.65918 7.94336L12.9102 10.8633C13.0149 10.9249 13.1199 10.9961 13.2246 11.0762C13.3292 11.1562 13.4094 11.2239 13.4648 11.2793C13.779 11.5935 13.9355 11.9574 13.9355 12.3701C13.9354 12.7827 13.7789 13.1432 13.4648 13.4512C13.1507 13.7653 12.7868 13.9219 12.374 13.9219C11.9676 13.9218 11.6071 13.7652 11.293 13.4512C11.2376 13.3958 11.1698 13.3155 11.0898 13.2109C11.0159 13.1 10.9447 12.9951 10.877 12.8965L7.96582 8.63672C7.87341 8.5135 7.83338 8.39244 7.8457 8.27539C7.8642 8.15868 7.91072 8.0604 7.98438 7.98047C8.07679 7.90038 8.17915 7.85412 8.29004 7.8418Z" fill="#222631"/>
<path d="M6.81152 11.1318C7.05776 11.1319 7.26442 11.2173 7.43066 11.3896C7.60316 11.5621 7.68945 11.7659 7.68945 12C7.68945 12.2341 7.60316 12.4379 7.43066 12.6104C7.26442 12.7827 7.05777 12.869 6.81152 12.8691C6.5775 12.8691 6.37363 12.7827 6.20117 12.6104C6.02867 12.4379 5.94238 12.2341 5.94238 12C5.94239 11.7659 6.02868 11.5621 6.20117 11.3896C6.37363 11.2173 6.57751 11.1318 6.81152 11.1318Z" fill="#222631"/>
<path d="M17.1797 11.1318C17.4136 11.1319 17.6167 11.2175 17.7891 11.3896C17.9616 11.5621 18.0478 11.7659 18.0479 12C18.0479 12.2341 17.9616 12.4379 17.7891 12.6104C17.6167 12.7825 17.4136 12.8691 17.1797 12.8691C16.9395 12.8691 16.733 12.7827 16.5605 12.6104C16.3942 12.4379 16.3105 12.2341 16.3105 12C16.3106 11.7659 16.3942 11.5621 16.5605 11.3896C16.733 11.2173 16.9395 11.1318 17.1797 11.1318Z" fill="#222631"/>
<path d="M15.6455 7.50879C15.8858 7.50879 16.0895 7.59508 16.2559 7.76758C16.4283 7.93389 16.5146 8.13774 16.5146 8.37793C16.5145 8.61176 16.4281 8.81496 16.2559 8.9873C16.0895 9.1598 15.8858 9.24609 15.6455 9.24609C15.4115 9.24607 15.2086 9.15967 15.0361 8.9873C14.8637 8.81491 14.7774 8.61186 14.7773 8.37793C14.7773 8.13766 14.8636 7.93392 15.0361 7.76758C15.2086 7.59526 15.4115 7.50881 15.6455 7.50879Z" fill="#222631"/>
<path d="M11.9863 5.92871C12.2265 5.92876 12.433 6.01504 12.6055 6.1875C12.7778 6.35987 12.8642 6.56301 12.8643 6.79688C12.8643 7.037 12.7778 7.24358 12.6055 7.41602C12.433 7.58231 12.2265 7.66597 11.9863 7.66602C11.7522 7.66602 11.5485 7.58236 11.376 7.41602C11.2037 7.24358 11.1172 7.03699 11.1172 6.79688C11.1173 6.56303 11.2037 6.35986 11.376 6.1875C11.5485 6.015 11.7522 5.92871 11.9863 5.92871Z" fill="#222631"/>
<path fill-rule="evenodd" clip-rule="evenodd" d="M11.9951 2.4541C13.3135 2.4541 14.5491 2.7005 15.7012 3.19336C16.8593 3.68621 17.8762 4.37033 18.751 5.24512C19.6255 6.11974 20.309 7.13608 20.8018 8.29395C21.3008 9.44599 21.5508 10.6816 21.5508 12C21.5508 13.3184 21.3008 14.5566 20.8018 15.7148C20.3089 16.8668 19.6257 17.8775 18.751 18.7461C17.8762 19.6209 16.8594 20.305 15.7012 20.7979C14.5491 21.2969 13.3135 21.5459 11.9951 21.5459C10.677 21.5459 9.4419 21.2967 8.29004 20.7979C7.13798 20.305 6.12385 19.6209 5.24902 18.7461C4.37427 17.8775 3.68747 16.8668 3.18848 15.7148C2.69566 14.5567 2.44922 13.3183 2.44922 12C2.44922 10.6816 2.69562 9.44599 3.18848 8.29395C3.68742 7.136 4.37444 6.11979 5.24902 5.24512C6.12385 4.37029 7.13798 3.68622 8.29004 3.19336C9.44195 2.70061 10.6769 2.45413 11.9951 2.4541ZM11.9951 4.33887C10.9417 4.3389 9.94972 4.53904 9.01953 4.93945C8.09544 5.33374 7.28239 5.88265 6.58008 6.58496C5.87781 7.2811 5.32621 8.0942 4.92578 9.02441C4.53152 9.94849 4.33496 10.9404 4.33496 12C4.33496 13.0596 4.53153 14.0515 4.92578 14.9756C5.3262 15.8996 5.87782 16.7127 6.58008 17.415C7.28238 18.1173 8.09545 18.6663 9.01953 19.0605C9.94972 19.461 10.9417 19.6611 11.9951 19.6611C13.0546 19.6611 14.0467 19.4609 14.9707 19.0605C15.8948 18.6663 16.7088 18.1174 17.4111 17.415C18.1194 16.7128 18.6702 15.8995 19.0645 14.9756C19.4587 14.0515 19.6562 13.0596 19.6562 12C19.6562 10.9404 19.4587 9.94852 19.0645 9.02441C18.6702 8.09434 18.1194 7.28102 17.4111 6.58496C16.7088 5.88264 15.8948 5.33374 14.9707 4.93945C14.0467 4.53912 13.0546 4.33887 11.9951 4.33887Z" fill="#222631"/>
</svg>
