<svg width="24" height="24" viewBox="0 0 24 24" fill="none" xmlns="http://www.w3.org/2000/svg">
<path d="M12.9189 2.25C13.3023 2.25 13.6365 2.36175 13.9178 2.58644C14.1992 2.80532 14.3829 3.09965 14.4697 3.46532L14.4706 3.46627L14.8052 4.91029C14.8192 4.97081 14.8618 5.02073 14.9195 5.04354C14.9748 5.06526 15.0372 5.05955 15.0878 5.02842L16.3503 4.24971C16.673 4.05116 17.0143 3.97567 17.371 4.02573C17.7262 4.07564 18.0404 4.23543 18.3122 4.50109L19.5616 5.74949C19.8392 6.02711 19.9991 6.34532 20.0369 6.70209C20.0807 7.0583 20.0021 7.3958 19.8035 7.71234L19.0163 8.96736C18.9854 9.01668 18.9802 9.07789 19.0021 9.1318C19.0241 9.18576 19.0712 9.22586 19.1278 9.23953L20.5529 9.58353C20.9187 9.67037 21.2122 9.8579 21.4309 10.1449C21.6552 10.4317 21.7683 10.7658 21.7683 11.1438V12.9006C21.7683 13.2315 21.6821 13.5286 21.5103 13.7899L21.4318 13.8995C21.2131 14.1868 20.9189 14.374 20.5529 14.4609L19.1014 14.7992C19.0503 14.8111 19.0074 14.8469 18.9879 14.8956C18.9689 14.9432 18.9739 14.9977 19.0012 15.0411L19.795 16.3047C19.9933 16.6268 20.0721 16.9682 20.0284 17.3244C19.9954 17.6367 19.8686 17.9193 19.6514 18.1711L19.5521 18.277L18.3037 19.5169C18.0316 19.7889 17.7138 19.9475 17.3521 19.9913C16.9951 20.0412 16.6539 19.9634 16.3314 19.7588L15.0556 18.9791C15.0131 18.9533 14.9609 18.9477 14.9139 18.964C14.8598 18.9828 14.8192 19.0283 14.8061 19.084L14.4706 20.5337C14.3839 20.9051 14.1995 21.203 13.9178 21.4221C13.6363 21.641 13.3022 21.75 12.9189 21.75H11.1082C10.725 21.75 10.3878 21.6414 10.1008 21.423C9.81284 21.2039 9.62868 20.9059 9.54792 20.5337L9.21338 19.0907C9.19967 19.0315 9.15664 18.9833 9.09903 18.964C9.05014 18.9477 8.99649 18.9541 8.95254 18.981L7.68619 19.7579C7.36341 19.9627 7.01972 20.0422 6.65704 19.9922C6.30115 19.9483 5.9866 19.7885 5.71483 19.5169L4.46643 18.277C4.18879 17.9993 4.02543 17.6811 3.98162 17.3244C3.93787 16.9677 4.01915 16.6268 4.22355 16.3047L5.02022 15.0355C5.04587 14.9946 5.05167 14.9439 5.03534 14.8984C5.01726 14.8482 4.97489 14.8103 4.92288 14.7983L3.46657 14.4609C3.10048 14.374 2.80281 14.1865 2.57823 13.8995C2.35996 13.6127 2.25031 13.2783 2.25031 12.9006V11.1438C2.25031 10.7661 2.3595 10.4346 2.57823 10.1534C2.79695 9.86639 3.09363 9.67633 3.46468 9.58353L4.89642 9.24048C4.95406 9.22665 5.00153 9.18454 5.02211 9.12896C5.0411 9.07738 5.03521 9.01962 5.00605 8.97303L4.21505 7.71234C4.01673 7.39615 3.93472 7.05888 3.97217 6.70304C4.01598 6.34629 4.17927 6.0272 4.45698 5.74949L5.70538 4.50109C5.97725 4.2354 6.29228 4.07562 6.64759 4.02573C7.0043 3.97567 7.3456 4.05116 7.66823 4.24971L8.93081 5.02842C8.98136 5.05951 9.04378 5.06525 9.09903 5.04354C9.15674 5.02072 9.19937 4.97077 9.21338 4.91029L9.54792 3.46627L9.58289 3.33207C9.67624 3.02725 9.8492 2.77798 10.1008 2.58644L10.2104 2.508C10.4725 2.33605 10.7724 2.25004 11.1082 2.25H12.9189ZM11.3312 4.00967C11.2676 4.00969 11.2263 4.02464 11.1999 4.04558C11.1743 4.06601 11.1537 4.09923 11.1441 4.15426L11.1432 4.15899L10.6933 6.06608C10.6454 6.26939 10.4882 6.42458 10.2926 6.48473C10.1061 6.54211 9.92101 6.61054 9.73693 6.68886C9.57178 6.75708 9.41874 6.8267 9.28047 6.89677C9.1018 6.98718 8.8851 6.98867 8.70967 6.8826L7.04167 5.87329C6.99248 5.84632 6.95015 5.83812 6.91314 5.84211C6.87606 5.84611 6.8368 5.86383 6.79501 5.9007L5.84525 6.83251L5.80272 6.89205C5.79329 6.91146 5.7881 6.93045 5.78665 6.94875C5.78378 6.98575 5.79451 7.02994 5.82729 7.08295L6.86022 8.76512C6.96351 8.93337 6.96849 9.14189 6.8829 9.31703C6.81839 9.44888 6.75082 9.59553 6.67972 9.75553C6.60202 9.93037 6.53576 10.1119 6.48126 10.2999C6.4231 10.5002 6.26687 10.6639 6.05883 10.7138L4.15929 11.1693L4.15835 11.1703C4.10125 11.1827 4.06603 11.2042 4.04494 11.2298C4.02403 11.2552 4.00998 11.2927 4.00997 11.3489V12.687C4.01002 12.7469 4.02452 12.785 4.04494 12.8099C4.06517 12.8345 4.09854 12.8549 4.15457 12.8647L4.15929 12.8657L6.06639 13.3155C6.26967 13.3634 6.42483 13.5207 6.48504 13.7162C6.5409 13.8978 6.60584 14.0743 6.67972 14.2454L6.89708 14.7066C6.9854 14.8829 6.98034 15.0944 6.87534 15.2642L5.83674 16.9435C5.80693 16.9963 5.79715 17.0388 5.79988 17.073C5.80267 17.1065 5.81822 17.1404 5.85281 17.1751L6.8073 18.1201L6.81013 18.1239L6.86684 18.173C6.88475 18.1838 6.90211 18.1897 6.91787 18.1919C6.94911 18.1961 6.9879 18.1878 7.03694 18.156L7.03883 18.1551L8.71061 17.1259C8.89075 17.015 9.11463 17.0181 9.29654 17.1165C9.44051 17.1945 9.59292 17.2684 9.753 17.3376L10.0138 17.4349C10.1012 17.465 10.1898 17.4924 10.2784 17.5181C10.4769 17.5758 10.6374 17.7316 10.6867 17.9368L11.1432 19.841L11.1441 19.8457C11.1537 19.9008 11.1743 19.934 11.1999 19.9544C11.2263 19.9754 11.2676 19.9903 11.3312 19.9903H12.6959C12.7559 19.9903 12.7929 19.9758 12.8159 19.9563C12.8385 19.937 12.8577 19.9046 12.865 19.8486L12.866 19.8401L13.33 17.9396C13.3805 17.7326 13.5442 17.5773 13.7449 17.5209C13.9302 17.469 14.1063 17.4074 14.2731 17.3376C14.4296 17.2684 14.5794 17.1954 14.722 17.1174C14.9036 17.0181 15.1278 17.0143 15.308 17.125L16.9703 18.1456L16.9731 18.1475C17.0262 18.1828 17.0679 18.1926 17.1007 18.1891C17.133 18.1856 17.1692 18.168 17.2084 18.1239L17.2113 18.121L18.1563 17.1665L18.1601 17.1628L18.1998 17.1155C18.2081 17.1001 18.2126 17.0847 18.214 17.0692C18.2167 17.036 18.2066 16.9919 18.1733 16.935L17.148 15.2727C17.0399 15.0972 17.0405 14.8797 17.1319 14.7C17.2039 14.5583 17.2724 14.4074 17.3379 14.2473L17.3388 14.2454C17.4113 14.0775 17.4734 13.9057 17.526 13.7304C17.5853 13.5327 17.7409 13.3722 17.9465 13.3231L19.8593 12.8657L19.8631 12.8647C19.9194 12.8549 19.9533 12.8346 19.9736 12.8099C19.994 12.785 20.0085 12.7468 20.0086 12.687V11.3489C20.0086 11.2927 19.9945 11.2552 19.9736 11.2298C19.9525 11.2042 19.9174 11.1827 19.8602 11.1703L19.8593 11.1693L17.9531 10.7129C17.7489 10.6638 17.5939 10.504 17.5345 10.3074C17.4769 10.1168 17.4091 9.93272 17.3303 9.75553L17.3294 9.75363C17.2629 9.59626 17.1979 9.45257 17.1338 9.3227C17.0459 9.1447 17.0477 8.93111 17.1536 8.75851L18.1818 7.08295L18.1837 7.08106C18.2191 7.02793 18.2299 6.98435 18.2272 6.94875C18.2244 6.91361 18.2074 6.87507 18.1658 6.83345L17.2217 5.90731C17.1799 5.86802 17.1399 5.84906 17.1016 5.844C17.0635 5.83898 17.0192 5.84646 16.9674 5.87329L15.2957 6.89205C15.1226 6.9975 14.909 6.99832 14.7315 6.90906C14.5845 6.83514 14.4285 6.76534 14.2646 6.69831L14.2627 6.69737C14.0947 6.62313 13.9186 6.55783 13.7345 6.50174C13.5392 6.44219 13.3809 6.28783 13.3319 6.08498L12.866 4.15899L12.8641 4.15142C12.8566 4.09603 12.8384 4.06284 12.8159 4.04369C12.7929 4.02417 12.7559 4.00967 12.6959 4.00967H11.3312ZM12.0088 8.54682C12.6454 8.54682 13.2265 8.70166 13.7496 9.01178C14.2713 9.3212 14.6876 9.73749 14.997 10.2592C15.3073 10.7824 15.462 11.3633 15.462 12C15.462 12.6308 15.3069 13.2111 14.997 13.7398C14.6876 14.2616 14.2713 14.6788 13.7496 14.9882C13.2265 15.2983 12.6454 15.4532 12.0088 15.4532C11.3724 15.4531 10.7892 15.2981 10.2605 14.9882C9.73866 14.6788 9.32154 14.2626 9.01208 13.7408C8.70822 13.212 8.55657 12.6306 8.55657 12C8.55657 11.3636 8.70798 10.7823 9.01208 10.2592C9.32154 9.73741 9.73771 9.32123 10.2595 9.01178C10.7882 8.70194 11.3724 8.54688 12.0088 8.54682ZM12.0088 10.2262C11.6764 10.2262 11.3775 10.3069 11.1101 10.4662L11.1091 10.4653C10.9121 10.5853 10.7448 10.7367 10.6054 10.9179L10.475 11.1098C10.316 11.371 10.2359 11.6674 10.2359 12C10.2359 12.3263 10.3156 12.6225 10.475 12.8902C10.6353 13.1593 10.8465 13.3737 11.1091 13.5338C11.3766 13.6931 11.6764 13.7738 12.0088 13.7738C12.3352 13.7738 12.6322 13.6933 12.9 13.5338C13.1689 13.3735 13.3833 13.1592 13.5436 12.8902C13.703 12.6225 13.7827 12.3263 13.7827 12C13.7827 11.709 13.7212 11.4462 13.5993 11.2099L13.5436 11.1098C13.3833 10.8408 13.1689 10.6265 12.9 10.4662C12.6322 10.3067 12.3352 10.2262 12.0088 10.2262Z" fill="#222631"/>
</svg>
