<svg width="24" height="24" viewBox="0 0 24 24" fill="none" xmlns="http://www.w3.org/2000/svg">
<path d="M12.9189 2.25C13.1953 2.25001 13.4457 2.3087 13.6694 2.42558C13.7821 2.48446 13.8075 2.62817 13.7436 2.73805C13.4896 3.17453 13.2941 3.64908 13.1676 4.15113C13.1323 4.29107 12.9001 4.29945 12.8662 4.15918L12.8643 4.15137C12.8568 4.09599 12.8379 4.06309 12.8154 4.04395C12.7925 4.02453 12.756 4.00984 12.6963 4.00977H11.3311C11.2676 4.00981 11.2266 4.025 11.2002 4.0459C11.1747 4.06633 11.1542 4.09929 11.1445 4.1543L11.1436 4.15918L10.6934 6.06641C10.6454 6.26942 10.4882 6.42416 10.293 6.48438C10.1066 6.54171 9.92124 6.61023 9.7373 6.68848C9.57215 6.75669 9.41853 6.82641 9.28027 6.89648C9.10171 6.98681 8.88533 6.98869 8.70996 6.88281L7.04199 5.87305C6.9928 5.84608 6.95009 5.83782 6.91309 5.8418C6.87604 5.84581 6.83666 5.86359 6.79492 5.90039L5.8457 6.83203L5.80273 6.8916C5.7933 6.91101 5.78855 6.93092 5.78711 6.94922C5.78435 6.98613 5.79451 7.03021 5.82715 7.08301L6.86035 8.76465C6.96364 8.93289 6.9684 9.14225 6.88281 9.31738C6.81834 9.44916 6.75074 9.596 6.67969 9.75586C6.60206 9.93058 6.53591 10.112 6.48145 10.2998C6.42328 10.5001 6.26664 10.664 6.05859 10.7139L4.15918 11.1689L4.1582 11.1699C4.10127 11.1823 4.06602 11.204 4.04492 11.2295C4.02404 11.2549 4.00981 11.2926 4.00977 11.3486V12.6875C4.00988 12.7469 4.02464 12.7847 4.04492 12.8096C4.06511 12.8341 4.09848 12.8544 4.1543 12.8643L4.15918 12.8652L6.06641 13.3154C6.2696 13.3633 6.42509 13.5205 6.48535 13.7158C6.54119 13.8973 6.60585 14.0741 6.67969 14.2451L6.89746 14.707C6.98552 14.8832 6.9799 15.095 6.875 15.2646L5.83691 16.9434C5.80711 16.9962 5.79707 17.0391 5.7998 17.0732C5.80264 17.1065 5.81821 17.1403 5.85254 17.1748L6.80762 18.1201L6.81055 18.124L6.86719 18.1729C6.88504 18.1836 6.90226 18.1902 6.91797 18.1924C6.94918 18.1966 6.98815 18.188 7.03711 18.1562L7.03906 18.1553L8.71094 17.126C8.89104 17.0152 9.11503 17.0179 9.29688 17.1162C9.4408 17.1942 9.59291 17.2687 9.75293 17.3379L10.0137 17.4346C10.1011 17.4646 10.1897 17.4928 10.2783 17.5186C10.4767 17.5762 10.6372 17.7315 10.6865 17.9365L11.1436 19.8408L11.1445 19.8457C11.1542 19.9007 11.1747 19.9337 11.2002 19.9541C11.2266 19.975 11.2676 19.9902 11.3311 19.9902H12.6963C12.756 19.9902 12.7925 19.9755 12.8154 19.9561C12.8381 19.9368 12.8579 19.9047 12.8652 19.8486L12.8662 19.8398L13.3301 17.9395C13.3806 17.7325 13.5445 17.5768 13.7451 17.5205C13.9304 17.4686 14.1067 17.4077 14.2734 17.3379C14.4297 17.2688 14.5791 17.1952 14.7217 17.1172C14.9032 17.0179 15.1275 17.0145 15.3076 17.125L16.9707 18.1455L16.9727 18.1475C17.0256 18.1827 17.0678 18.1929 17.1006 18.1895C17.1328 18.186 17.1689 18.1679 17.208 18.124L17.2109 18.1211L18.1562 17.167L18.1602 17.1631L18.2002 17.1152C18.2084 17.1 18.2125 17.0847 18.2139 17.0693C18.2166 17.0362 18.2062 16.9915 18.1729 16.9346L17.1484 15.2725C17.0404 15.0971 17.0406 14.8798 17.1318 14.7002C17.2039 14.5585 17.2724 14.4071 17.3379 14.2471L17.3389 14.2451C17.4113 14.0773 17.4738 13.9057 17.5264 13.7305C17.5857 13.5329 17.7409 13.3725 17.9463 13.3232L19.8594 12.8652L19.8633 12.8643C19.9194 12.8544 19.9534 12.8342 19.9736 12.8096C19.9939 12.7847 20.0087 12.7468 20.0088 12.6875V11.3486C20.0087 11.2926 19.9945 11.2549 19.9736 11.2295C19.9525 11.204 19.9173 11.1823 19.8604 11.1699L19.8594 11.1689C19.7043 11.1318 19.7146 10.8666 19.8691 10.827C20.2937 10.718 20.6985 10.5595 21.0771 10.3581C21.2842 10.248 21.5525 10.2897 21.6439 10.5057C21.7267 10.7017 21.7685 10.9145 21.7686 11.1436V12.9004C21.7686 13.2312 21.6825 13.5288 21.5107 13.79L21.4316 13.8994C21.2129 14.1867 20.9187 14.374 20.5527 14.4609L19.1016 14.7988C19.0506 14.8107 19.0078 14.8469 18.9883 14.8955C18.9693 14.9431 18.9738 14.9976 19.001 15.041L19.7949 16.3047C19.9931 16.6268 20.072 16.9681 20.0283 17.3242C19.9953 17.6365 19.8686 17.9191 19.6514 18.1709L19.5518 18.2773L18.3037 19.5166C18.0317 19.7885 17.7141 19.9473 17.3525 19.9912C16.9956 20.0411 16.6535 19.9634 16.3311 19.7588L15.0557 18.9795C15.0132 18.9537 14.961 18.9477 14.9141 18.9639C14.86 18.9826 14.8187 19.0283 14.8057 19.084L14.4707 20.5342C14.384 20.9053 14.1994 21.2029 13.918 21.4219C13.6365 21.6408 13.3022 21.75 12.9189 21.75H11.1084C10.7252 21.75 10.3876 21.6413 10.1006 21.4229C9.81288 21.2038 9.62864 20.9061 9.54785 20.5342L9.21289 19.0908C9.19918 19.0316 9.15625 18.9831 9.09863 18.9639C9.04985 18.9477 8.99597 18.9546 8.95215 18.9814L7.68652 19.7578C7.3638 19.9626 7.01985 20.0421 6.65723 19.9922C6.30134 19.9483 5.98661 19.7883 5.71484 19.5166L4.4668 18.2773C4.18916 17.9997 4.02525 17.6809 3.98145 17.3242C3.93774 16.9676 4.01926 16.6268 4.22363 16.3047L5.02051 15.0352C5.04597 14.9943 5.05143 14.9437 5.03516 14.8984C5.01706 14.8482 4.97483 14.8099 4.92285 14.7979L3.4668 14.4609C3.10071 14.374 2.8027 14.1864 2.57812 13.8994C2.35991 13.6126 2.25 13.278 2.25 12.9004V11.1436C2.25005 10.766 2.35944 10.4345 2.57812 10.1533C2.79684 9.86632 3.09379 9.67678 3.46484 9.58398L4.89648 9.24023C4.95407 9.22638 5.00189 9.18445 5.02246 9.12891C5.04137 9.07737 5.03499 9.0192 5.00586 8.97266L4.21484 7.71191C4.01671 7.39585 3.93522 7.0588 3.97266 6.70312C4.01647 6.34638 4.17932 6.02674 4.45703 5.74902L5.70508 4.50098C5.97693 4.2353 6.29218 4.07529 6.64746 4.02539C7.00415 3.97533 7.34535 4.05148 7.66797 4.25L8.93066 5.02832C8.98107 5.05931 9.04351 5.06543 9.09863 5.04395C9.15634 5.02112 9.19888 4.97064 9.21289 4.91016L9.54785 3.46582L9.58301 3.33203C9.67632 3.02738 9.84922 2.77841 10.1006 2.58691L10.21 2.50781C10.472 2.33587 10.7726 2.25004 11.1084 2.25H12.9189Z" fill="#222631"/>
<path fill-rule="evenodd" clip-rule="evenodd" d="M12.0088 8.54688C12.6453 8.54688 13.2269 8.70161 13.75 9.01172C14.2715 9.32106 14.6877 9.73729 14.9971 10.2588C15.3073 10.7819 15.4619 11.3633 15.4619 12C15.4619 12.6308 15.307 13.2115 14.9971 13.7402C14.6877 14.2617 14.2715 14.6789 13.75 14.9883C13.2269 15.2984 12.6453 15.4531 12.0088 15.4531C11.3725 15.4531 10.7894 15.298 10.2607 14.9883C9.73897 14.6789 9.32116 14.263 9.01172 13.7412C8.70786 13.2125 8.55664 12.6306 8.55664 12C8.55664 11.3636 8.70761 10.7819 9.01172 10.2588C9.32116 9.73704 9.738 9.32114 10.2598 9.01172C10.7884 8.70197 11.3725 8.54695 12.0088 8.54688ZM12.0088 10.2266C11.6765 10.2266 11.3777 10.3066 11.1104 10.4658L11.1094 10.4648C10.9123 10.5849 10.7448 10.7368 10.6055 10.918L10.4746 11.1094C10.3156 11.3706 10.2363 11.6674 10.2363 12C10.2363 12.3263 10.3152 12.6229 10.4746 12.8906C10.6349 13.1596 10.8468 13.3741 11.1094 13.5342C11.3767 13.6934 11.6765 13.7734 12.0088 13.7734C12.3352 13.7734 12.6326 13.6937 12.9004 13.5342C13.1692 13.3739 13.3837 13.1595 13.5439 12.8906C13.7034 12.6229 13.7822 12.3263 13.7822 12C13.7822 11.709 13.7214 11.4462 13.5996 11.21L13.5439 11.1094C13.3837 10.8405 13.1692 10.6261 12.9004 10.4658C12.6326 10.3063 12.3352 10.2266 12.0088 10.2266Z" fill="#222631"/>
<path d="M18.5 2.2002C20.3225 2.2002 21.7998 3.67746 21.7998 5.5C21.7998 7.32252 20.3225 8.7998 18.5 8.7998C16.6775 8.7998 15.2002 7.32251 15.2002 5.5C15.2002 3.67746 16.6775 2.2002 18.5 2.2002Z" fill="#222631"/>
</svg>
