<svg width="24" height="24" viewBox="0 0 24 24" fill="none" xmlns="http://www.w3.org/2000/svg">
<path fill-rule="evenodd" clip-rule="evenodd" d="M12.8799 1.57617C13.17 1.57617 13.412 1.65957 13.6055 1.82715C13.8054 1.98835 13.9408 2.20808 14.0117 2.48535L14.4951 4.57422C14.669 4.6322 14.8337 4.6934 14.9883 4.75781C15.1494 4.81582 15.2982 4.88028 15.4336 4.95117L17.2715 3.81934C17.51 3.67759 17.7488 3.62636 17.9873 3.66504C18.2323 3.6973 18.4545 3.8039 18.6543 3.98438L19.9219 5.23242C20.128 5.43224 20.2381 5.66116 20.251 5.91895C20.2702 6.1703 20.2049 6.41818 20.0566 6.66309L18.9541 8.47266C19.0121 8.60788 19.0733 8.75271 19.1377 8.90723C19.2022 9.06192 19.2643 9.22637 19.3223 9.40039L21.3818 9.89355C21.6591 9.95804 21.8755 10.0911 22.0303 10.291C22.1912 10.4908 22.2724 10.7322 22.2725 11.0156V12.7471C22.2725 13.0372 22.1914 13.2825 22.0303 13.4824C21.8755 13.6823 21.6591 13.8144 21.3818 13.8789L19.3027 14.3721C19.2511 14.5268 19.1957 14.6822 19.1377 14.8369C19.0797 14.9851 19.0119 15.1331 18.9346 15.2812L20.0381 17.0615C20.1926 17.2999 20.2572 17.5546 20.2314 17.8252C20.2121 18.0895 20.1021 18.3216 19.9023 18.5215L18.6641 19.75C18.4642 19.9499 18.2355 20.0597 17.9775 20.0791C17.7196 20.1049 17.471 20.0438 17.2324 19.8955L15.4336 18.8027C15.2919 18.8671 15.1405 18.9284 14.9795 18.9863C14.8247 19.0508 14.6628 19.1119 14.4951 19.1699L14.0117 21.2305C13.9408 21.514 13.8053 21.733 13.6055 21.8877C13.412 22.0489 13.17 22.1299 12.8799 22.1299H11.1104C10.8266 22.1299 10.5847 22.0489 10.3848 21.8877C10.185 21.733 10.0495 21.514 9.97852 21.2305L9.49512 19.1699C9.32762 19.1119 9.16302 19.0507 9.00195 18.9863C8.84727 18.9283 8.69844 18.8672 8.55664 18.8027L6.75781 19.8955C6.51923 20.0438 6.27062 20.1049 6.0127 20.0791C5.7548 20.0597 5.52605 19.9499 5.32617 19.75L4.09766 18.5215C3.89785 18.3216 3.78458 18.0895 3.75879 17.8252C3.73306 17.5546 3.79761 17.2999 3.95215 17.0615L5.0459 15.2812C4.98149 15.1331 4.91694 14.985 4.85254 14.8369C4.78806 14.6822 4.73264 14.5268 4.6875 14.3721L2.61816 13.8789C2.33444 13.8144 2.1114 13.6823 1.9502 13.4824C1.79551 13.2826 1.71777 13.0372 1.71777 12.7471V11.0156C1.71785 10.7322 1.7957 10.4907 1.9502 10.291C2.1114 10.0911 2.33444 9.95804 2.61816 9.89355L4.66797 9.40039C4.71954 9.22637 4.77832 9.06192 4.84277 8.90723C4.90716 8.75271 4.96841 8.60788 5.02637 8.47266L3.93359 6.66309C3.78538 6.41816 3.72095 6.17031 3.74023 5.91895C3.75957 5.66115 3.87199 5.43224 4.07812 5.23242L5.32617 3.99414C5.52599 3.79432 5.74824 3.68112 5.99316 3.65527C6.2381 3.62305 6.48026 3.6776 6.71875 3.81934L8.54688 4.94141C8.68871 4.87049 8.84078 4.80275 9.00195 4.73828C9.163 4.67387 9.32763 4.61266 9.49512 4.55469L9.97852 2.48535C10.0494 2.20808 10.1849 1.98835 10.3848 1.82715C10.5846 1.65956 10.8267 1.57617 11.1104 1.57617H12.8799ZM12 8.47266C11.3746 8.47266 10.8039 8.62373 10.2881 8.92676C9.77868 9.22983 9.3724 9.63941 9.06934 10.1553C8.7663 10.6711 8.61427 11.2384 8.61426 11.8574C8.61426 12.4764 8.76634 13.0438 9.06934 13.5596C9.3724 14.0754 9.77868 14.485 10.2881 14.7881C10.8039 15.0911 11.3745 15.2432 12 15.2432C12.619 15.2432 13.183 15.0911 13.6924 14.7881C14.2082 14.485 14.6178 14.0754 14.9209 13.5596C15.2239 13.0438 15.376 12.4764 15.376 11.8574C15.376 11.2384 15.2239 10.6711 14.9209 10.1553C14.6178 9.63941 14.2082 9.22983 13.6924 8.92676C13.183 8.62378 12.6189 8.47266 12 8.47266Z" fill="#222631"/>
</svg>
