<svg width="24" height="24" viewBox="0 0 24 24" fill="none" xmlns="http://www.w3.org/2000/svg">
<path d="M11.1604 21.75C10.8912 21.75 10.6618 21.6735 10.4721 21.5206C10.2825 21.3738 10.154 21.1658 10.0867 20.8966L9.68925 19.2034C9.65105 19.0407 9.5318 18.9096 9.37524 18.851C9.30279 18.8239 9.23101 18.7961 9.15988 18.7676C9.09695 18.744 9.03514 18.7199 8.97446 18.6952C8.82514 18.6343 8.65532 18.6434 8.51752 18.7271L7.03094 19.6302C6.80459 19.7709 6.56906 19.8291 6.32435 19.8046C6.07965 19.7862 5.86247 19.6822 5.67282 19.4926L4.50741 18.3272C4.31776 18.1375 4.21071 17.9173 4.18624 17.6665C4.16176 17.4095 4.22294 17.1679 4.36976 16.9415L5.27375 15.4696C5.35707 15.3339 5.36889 15.1661 5.3054 15.0201C5.27799 14.957 5.25058 14.894 5.22318 14.8309C5.19937 14.7738 5.17695 14.7167 5.15592 14.6595C5.09541 14.4951 4.96195 14.3654 4.79153 14.3248L3.10341 13.9225C2.83424 13.8613 2.62318 13.7359 2.47024 13.5462C2.32341 13.3566 2.25 13.1241 2.25 12.8488V11.2062C2.25 10.9371 2.32341 10.7076 2.47024 10.518C2.62318 10.3284 2.83424 10.2029 3.10341 10.1418L4.77534 9.73956C4.94459 9.69884 5.07731 9.57024 5.13624 9.40645C5.16096 9.33775 5.18688 9.27086 5.214 9.20576C5.24006 9.14322 5.26557 9.08234 5.29052 9.02313C5.35151 8.87837 5.34018 8.7131 5.25894 8.57866L4.35141 7.07682C4.21071 6.84435 4.14953 6.60882 4.16788 6.37024C4.18624 6.12553 4.29329 5.90835 4.48906 5.71871L5.67282 4.54412C5.86247 4.35447 6.07353 4.24741 6.306 4.22294C6.53847 4.19235 6.76788 4.24435 6.99424 4.37894L8.49778 5.30175C8.64132 5.38985 8.81959 5.39626 8.97383 5.32862C9.03426 5.30212 9.09628 5.27615 9.15988 5.25071C9.2309 5.2223 9.30259 5.19455 9.37493 5.16746C9.53166 5.10877 9.65098 4.97751 9.68905 4.81454L10.0867 3.11259C10.154 2.84953 10.2825 2.64153 10.4721 2.48859C10.6618 2.32953 10.8912 2.25 11.1604 2.25H12.8396C13.1149 2.25 13.3444 2.32953 13.5279 2.48859C13.7175 2.64153 13.846 2.84953 13.9133 3.11259L14.3105 4.82855C14.3488 4.99389 14.4708 5.12615 14.6297 5.18582C14.7018 5.2129 14.7719 5.24065 14.8401 5.26906C14.8989 5.29022 14.9559 5.31229 15.011 5.33526C15.1698 5.40135 15.352 5.39733 15.4984 5.30717L17.0058 4.37894C17.2321 4.24435 17.4585 4.19541 17.6848 4.23212C17.9173 4.26271 18.1284 4.36365 18.318 4.53494L19.5201 5.71871C19.7159 5.90835 19.8199 6.12553 19.8321 6.37024C19.8505 6.60882 19.7893 6.84435 19.6486 7.07682L18.7334 8.57814C18.6512 8.71283 18.6395 8.87886 18.7008 9.02424C18.7256 9.0831 18.7509 9.14361 18.7768 9.20576C18.8055 9.27465 18.8336 9.34556 18.8609 9.41849C18.9201 9.57616 19.0507 9.6976 19.2145 9.73682L20.9058 10.1418C21.1688 10.2029 21.3738 10.3284 21.5206 10.518C21.6735 10.7076 21.75 10.9371 21.75 11.2062V12.8488C21.75 13.1241 21.6735 13.3566 21.5206 13.5462C21.3738 13.7359 21.1688 13.8613 20.9058 13.9225L19.1969 14.3278C19.0327 14.3668 18.901 14.4881 18.8442 14.647C18.8223 14.7083 18.7998 14.7696 18.7768 14.8309C18.7544 14.8883 18.7304 14.9457 18.7049 15.0031C18.635 15.1604 18.6397 15.3428 18.7304 15.4891L19.6302 16.9415C19.7771 17.1679 19.8382 17.4095 19.8138 17.6665C19.7954 17.9173 19.6914 18.1375 19.5018 18.3272L18.3272 19.4926C18.1375 19.6822 17.9204 19.7862 17.6756 19.8046C17.4309 19.8291 17.1954 19.7709 16.9691 19.6302L15.4825 18.7271C15.3447 18.6434 15.1749 18.6345 15.0251 18.6941C14.9621 18.7192 14.8974 18.7437 14.8309 18.7676C14.7634 18.7958 14.6946 18.8233 14.6244 18.8501C14.4683 18.9099 14.349 19.0407 14.3107 19.2034L13.9133 20.8966C13.846 21.1658 13.7175 21.3738 13.5279 21.5206C13.3444 21.6735 13.1149 21.75 12.8396 21.75H11.1604ZM12.0046 15.2164C12.5919 15.2164 13.1272 15.0726 13.6105 14.7851C14.0999 14.4975 14.4884 14.1091 14.7759 13.6196C15.0634 13.1302 15.2072 12.5919 15.2072 12.0046C15.2072 11.4173 15.0634 10.8789 14.7759 10.3895C14.4884 9.90012 14.0999 9.51165 13.6105 9.22412C13.1272 8.93659 12.5919 8.79282 12.0046 8.79282C11.4112 8.79282 10.8698 8.93659 10.3804 9.22412C9.89706 9.51165 9.51165 9.90012 9.22412 10.3895C8.93659 10.8789 8.79282 11.4173 8.79282 12.0046C8.79282 12.5919 8.93659 13.1302 9.22412 13.6196C9.51165 14.1091 9.89706 14.4975 10.3804 14.7851C10.8698 15.0726 11.4112 15.2164 12.0046 15.2164Z" fill="#222631"/>
</svg>
