<svg width="24" height="24" viewBox="0 0 24 24" fill="none" xmlns="http://www.w3.org/2000/svg">
<path fill-rule="evenodd" clip-rule="evenodd" d="M11.9951 1.78125C13.4064 1.78125 14.7287 2.04565 15.9619 2.57324C17.2017 3.10081 18.2901 3.83216 19.2266 4.76855C20.163 5.70502 20.8953 6.79339 21.4229 8.0332C21.957 9.26638 22.2236 10.5888 22.2236 12C22.2236 13.4111 21.9569 14.7368 21.4229 15.9766C20.8953 17.2098 20.163 18.2918 19.2266 19.2217C18.2901 20.1582 17.2018 20.8904 15.9619 21.418C14.7287 21.9521 13.4064 22.2188 11.9951 22.2188C10.5838 22.2187 9.26155 21.9521 8.02832 21.418C6.79506 20.8904 5.70992 20.1582 4.77344 19.2217C3.83702 18.2918 3.10155 17.2098 2.56738 15.9766C2.03992 14.7368 1.77637 13.4111 1.77637 12C1.7764 10.5888 2.03982 9.26638 2.56738 8.0332C3.10157 6.79338 3.83697 5.70502 4.77344 4.76855C5.70988 3.83213 6.79514 3.10082 8.02832 2.57324C9.26157 2.04565 10.5838 1.78125 11.9951 1.78125ZM7.97266 4.36328C7.20547 4.7711 6.51153 5.2817 5.8916 5.89648C5.10021 6.68787 4.47971 7.60449 4.03125 8.64648C3.58942 9.68841 3.36917 10.8064 3.36914 12C3.36914 13.1935 3.5895 14.3116 4.03125 15.3535C4.47968 16.3955 5.10027 17.3122 5.8916 18.1035C6.68959 18.8883 7.60936 19.5056 8.65137 19.9541C9.69336 20.4091 10.808 20.6367 11.9951 20.6367C13.1887 20.6367 14.3067 20.4091 15.3486 19.9541C16.3906 19.5056 17.3072 18.8883 18.0986 18.1035C18.89 17.3121 19.5105 16.3955 19.959 15.3535C20.1867 14.8244 20.3547 14.2753 20.4668 13.707C20.2315 13.5328 20.0315 13.3174 19.8691 13.0586C19.6252 12.6696 19.4344 12.2669 19.2959 11.8516C19.1574 11.4296 19.0384 11.0733 18.9395 10.7832C18.8406 10.4867 18.7319 10.338 18.6133 10.3379C18.5408 10.3379 18.4817 10.3716 18.4355 10.4375C18.396 10.4969 18.3423 10.5591 18.2764 10.625C18.217 10.6842 18.1251 10.7138 18 10.7139C17.8484 10.7139 17.6734 10.6452 17.4756 10.5068C17.2843 10.3617 17.0863 10.1964 16.8818 10.0117C16.6842 9.82064 16.4963 9.65599 16.3184 9.51758C16.1469 9.37249 16.0047 9.2998 15.8926 9.2998C15.774 9.29987 15.6652 9.35898 15.5664 9.47754C15.4676 9.59616 15.418 9.72809 15.418 9.87305C15.418 9.99835 15.5202 10.1374 15.7246 10.2891C15.929 10.4341 16.1631 10.5923 16.4268 10.7637C16.6904 10.9351 16.9245 11.1165 17.1289 11.3076C17.3334 11.4989 17.4355 11.6969 17.4355 11.9014C17.4355 12.1849 17.3502 12.4557 17.1787 12.7129C17.0073 12.9633 16.8322 13.187 16.6543 13.3848C16.4828 13.5826 16.3975 13.7385 16.3975 13.8506C16.3975 14.0945 16.4133 14.4046 16.4463 14.7803C16.4858 15.1561 16.3804 15.5482 16.1299 15.957C16.031 16.1219 15.8666 16.3926 15.6357 16.7686C15.405 17.1378 15.1214 17.5268 14.7852 17.9355C14.4554 18.3444 14.0825 18.6942 13.667 18.9844C13.2581 19.2746 12.8293 19.4199 12.3809 19.4199C11.8599 19.4199 11.4647 19.284 11.1943 19.0137C10.924 18.7433 10.7354 18.4008 10.6299 17.9854C10.531 17.5699 10.4751 17.1378 10.4619 16.6895C10.4553 16.2345 10.4522 15.8255 10.4521 15.4629C10.4521 15.0012 10.29 14.622 9.9668 14.3252C9.64366 14.0219 9.23163 13.8701 8.73047 13.8701C7.89967 13.8701 7.2536 13.6456 6.79199 13.1973C6.33035 12.7422 6.09961 12.109 6.09961 11.2979C6.09962 10.678 6.28088 10.1111 6.64355 9.59668C7.01287 9.08227 7.50386 8.66934 8.11719 8.35938C8.73049 8.04285 9.40374 7.88477 10.1357 7.88477C10.4654 7.8848 10.7954 7.92797 11.125 8.01367C11.4545 8.09934 11.751 8.18166 12.0146 8.26074C12.2783 8.33984 12.4797 8.37985 12.6182 8.37988C12.7501 8.37988 12.8523 8.31354 12.9248 8.18164C12.9973 8.04326 13.0341 7.87537 13.0342 7.67773C13.0342 7.54584 12.9678 7.38998 12.8359 7.21191C12.7107 7.03398 12.5493 6.88207 12.3516 6.75684C12.1538 6.62501 11.9492 6.55964 11.7383 6.55957C11.6791 6.55957 11.6326 6.57564 11.5996 6.6084C11.5667 6.6413 11.5435 6.6911 11.5303 6.75684C11.5171 6.90188 11.4675 7.02096 11.3818 7.11328C11.3027 7.19902 11.1868 7.24219 11.0352 7.24219C10.7913 7.24213 10.5835 7.18944 10.4121 7.08398C10.2407 6.97851 10.0857 6.87306 9.94727 6.76758C9.80887 6.65555 9.67062 6.59872 9.53223 6.59863C9.39373 6.59863 9.27153 6.66181 9.16602 6.78711C9.06718 6.90571 8.96161 7.04723 8.84961 7.21191C8.74409 7.37019 8.60823 7.50922 8.44336 7.62793C8.27858 7.74645 8.05792 7.80562 7.78125 7.80566C7.51086 7.80566 7.29597 7.73298 7.1377 7.58789C6.98628 7.44289 6.91022 7.24859 6.91016 7.00488C6.91016 6.80061 6.96301 6.62231 7.06836 6.4707C7.17388 6.31242 7.29608 6.15023 7.43457 5.98535C7.57295 5.814 7.69532 5.61661 7.80078 5.39258C7.9063 5.16835 7.95898 4.88712 7.95898 4.55078C7.959 4.48782 7.96449 4.42544 7.97266 4.36328ZM14.8438 5.0459C14.4351 5.04594 14.1155 5.11229 13.8848 5.24414C13.6606 5.37604 13.5479 5.56045 13.5479 5.79785C13.5479 5.96251 13.6007 6.09449 13.7061 6.19336C13.8182 6.29228 13.954 6.3418 14.1123 6.3418C14.277 6.34177 14.4089 6.31223 14.5078 6.25293C14.6133 6.19361 14.7484 6.1641 14.9131 6.16406C15.0119 6.16406 15.1143 6.20004 15.2197 6.27246C15.3252 6.33841 15.4674 6.37109 15.6455 6.37109C15.7641 6.37108 15.8633 6.3256 15.9424 6.2334C16.0215 6.1345 16.0605 6.0154 16.0605 5.87695C16.0605 5.64616 15.9424 5.45124 15.7051 5.29297C15.4743 5.12809 15.1867 5.0459 14.8438 5.0459Z" fill="#222631"/>
</svg>
