<svg width="24" height="24" viewBox="0 0 24 24" fill="none" xmlns="http://www.w3.org/2000/svg">
<path d="M7.49301 0.486572C8.4229 0.486572 9.27695 0.707503 10.0552 1.14937C10.8334 1.59123 11.4599 2.18807 11.9347 2.9399C12.4162 3.69172 12.6799 4.53588 12.7261 5.47236C12.7327 5.53172 12.736 5.59107 12.736 5.65043C12.7426 5.70978 12.7426 5.76254 12.736 5.80871C12.7228 6.01315 12.6404 6.18132 12.4887 6.31322C12.337 6.44512 12.1557 6.51107 11.9446 6.51107C11.7468 6.51107 11.5786 6.45171 11.4401 6.333C11.3016 6.2077 11.2225 6.02634 11.2027 5.78892C11.2027 5.74276 11.2027 5.70648 11.2027 5.6801C11.2027 5.64713 11.2027 5.61745 11.2027 5.59107C11.1697 4.92498 10.9817 4.32484 10.6388 3.79065C10.3025 3.25646 9.8606 2.83108 9.31322 2.51452C8.76584 2.19796 8.1591 2.03969 7.49301 2.03969C6.80714 2.03969 6.18062 2.20786 5.61345 2.5442C5.04628 2.88054 4.59453 3.329 4.25818 3.88957C3.92184 4.45014 3.75367 5.07666 3.75367 5.76914C3.75367 6.2044 3.82621 6.62648 3.9713 7.03537C4.12299 7.43766 4.32413 7.79709 4.57474 8.11364C4.72643 8.31149 4.78908 8.50934 4.7627 8.70719C4.73632 8.89845 4.64729 9.05672 4.4956 9.18203C4.35051 9.30733 4.17904 9.36998 3.9812 9.36998C3.86249 9.36998 3.74378 9.34361 3.62507 9.29084C3.51295 9.23149 3.40743 9.13586 3.30851 9.00396C2.96557 8.5621 2.69518 8.06088 2.49733 7.50031C2.30608 6.93974 2.21045 6.36268 2.21045 5.76914C2.21045 5.0371 2.34565 4.35452 2.61604 3.7214C2.89303 3.08169 3.27224 2.52112 3.75367 2.03969C4.2417 1.55166 4.80557 1.17245 5.44528 0.902055C6.08499 0.625066 6.76757 0.486572 7.49301 0.486572ZM16.9403 22.982C15.2388 23.6085 13.6263 23.681 12.1029 23.1996C10.5795 22.7248 9.16813 21.7092 7.86893 20.1527L4.51539 16.1067C4.40327 15.9682 4.29446 15.8133 4.18894 15.6418C4.09001 15.4637 4.01417 15.2956 3.96141 15.1373C3.75697 14.5833 3.78005 14.0854 4.03066 13.6435C4.28127 13.1951 4.66048 12.8818 5.16829 12.7037C5.51123 12.5784 5.85087 12.5554 6.18721 12.6345C6.52355 12.7136 6.84011 12.8983 7.13689 13.1885L8.10634 14.2272C8.13932 14.2667 8.17229 14.2799 8.20527 14.2667C8.24484 14.247 8.25803 14.2107 8.24484 14.1579L5.55409 6.77816C5.32327 6.14505 5.32987 5.56469 5.57388 5.0371C5.82449 4.5029 6.25646 4.12369 6.86979 3.89946C7.46334 3.68183 8.02061 3.70162 8.54161 3.95882C9.06921 4.20943 9.45172 4.65129 9.68914 5.28441L10.6982 8.08397C10.8762 7.96526 11.051 7.87293 11.2225 7.80698C11.6379 7.65529 12.0336 7.63551 12.4096 7.74762C12.7921 7.85314 13.1185 8.07078 13.3889 8.40053C13.6197 8.22246 13.8637 8.09056 14.1209 8.00483C14.5232 7.85314 14.9057 7.82347 15.2685 7.9158C15.6312 8.00813 15.9379 8.20597 16.1885 8.50934C17.092 8.19938 17.9098 8.26533 18.6418 8.70719C19.3804 9.14905 19.9509 9.92066 20.3532 11.022L21.1644 13.2478C21.7118 14.7581 21.8997 16.1562 21.7282 17.4422C21.5568 18.7282 21.0621 19.8461 20.2444 20.7958C19.4332 21.752 18.3318 22.4808 16.9403 22.982ZM16.4259 21.3794C17.5272 20.9771 18.3879 20.4067 19.0078 19.668C19.6343 18.9228 20.0004 18.0424 20.1059 17.0267C20.218 16.0045 20.0498 14.8735 19.6014 13.6336L18.8792 11.6452C18.6352 10.9923 18.3483 10.5241 18.0186 10.2405C17.6954 9.95694 17.3426 9.88439 16.9601 10.0229L17.3063 10.9627C17.3723 11.1539 17.3624 11.3386 17.2766 11.5166C17.1909 11.6881 17.059 11.8068 16.8809 11.8728C16.6963 11.9387 16.5116 11.9354 16.327 11.8629C16.1423 11.7903 16.017 11.6551 15.951 11.4573L15.4169 9.99321C15.3377 9.78217 15.2157 9.63378 15.0508 9.54805C14.886 9.46231 14.7013 9.45572 14.4969 9.52826C14.3188 9.60081 14.1638 9.69643 14.0319 9.81514L14.6452 11.5265C14.7178 11.7112 14.7079 11.8893 14.6156 12.0607C14.5298 12.2322 14.3979 12.3542 14.2199 12.4267C14.0418 12.4861 13.8604 12.4795 13.6758 12.407C13.4977 12.3278 13.3757 12.1926 13.3098 12.0014L12.4986 9.81514C12.426 9.59751 12.3073 9.44912 12.1425 9.36998C11.9776 9.28425 11.7962 9.28095 11.5984 9.36009C11.506 9.37988 11.4203 9.41945 11.3412 9.4788C11.262 9.53156 11.1895 9.58432 11.1235 9.63708L12.0139 12.0607C12.0798 12.2454 12.0699 12.4267 11.9842 12.6048C11.8984 12.7829 11.7633 12.9016 11.5786 12.9609C11.3939 13.0335 11.2093 13.0335 11.0246 12.9609C10.8465 12.8818 10.7245 12.7466 10.6586 12.5554L8.1657 5.72957C8.10634 5.54491 8.00082 5.4196 7.84914 5.35365C7.70405 5.28111 7.54577 5.27451 7.3743 5.33387C7.20283 5.39982 7.08083 5.50863 7.00828 5.66032C6.94233 5.812 6.94233 5.97358 7.00828 6.14505L10.5399 15.8495C10.6322 16.1067 10.6322 16.3376 10.5399 16.542C10.4476 16.7464 10.2926 16.8882 10.0749 16.9674C9.89688 17.0333 9.71222 17.0498 9.52096 17.0168C9.3363 16.9773 9.14505 16.8586 8.9472 16.6607L6.5928 14.2865C6.36198 14.0425 6.12456 13.9667 5.88054 14.059C5.70908 14.1184 5.59366 14.2173 5.53431 14.3558C5.47495 14.4943 5.47166 14.6361 5.52442 14.7811C5.57058 14.9065 5.63983 15.0219 5.73216 15.1274L9.10548 19.114C10.2464 20.466 11.4203 21.3003 12.6272 21.6168C13.8407 21.94 15.1069 21.8608 16.4259 21.3794Z" fill="#222631"/>
</svg>
