<svg width="24" height="24" viewBox="0 0 24 24" fill="none" xmlns="http://www.w3.org/2000/svg">
<path d="M12.0093 0.954224C13.4198 0.954224 14.7074 1.18208 15.8716 1.63782C17.0297 2.08751 18.0315 2.73168 18.8755 3.56946C19.7131 4.40102 20.3601 5.39585 20.8159 6.55383C21.2656 7.71194 21.4897 8.99668 21.4897 10.4073V11.8302C21.6868 11.9472 21.8444 12.1226 21.9614 12.3566C22.0723 12.5845 22.1274 12.8497 22.1274 13.1515L22.1187 16.922C22.1186 17.3468 21.9824 17.6851 21.7114 17.9376C21.4343 18.184 21.0712 18.3077 20.6216 18.3077C20.4484 18.3077 20.2798 18.2785 20.1147 18.2238C20.0578 18.4017 19.9629 18.5592 19.8267 18.6954C19.5926 18.9295 19.2971 19.0469 18.9399 19.047C18.5765 19.047 18.2775 18.9295 18.0435 18.6954C17.8095 18.4614 17.6919 18.1659 17.6919 17.8087V12.2277C17.6919 11.8705 17.8095 11.575 18.0435 11.3409C18.2775 11.1069 18.5765 10.9894 18.9399 10.9894C19.2605 10.9894 19.5311 11.0841 19.7524 11.2726V10.4161C19.7524 8.88239 19.4295 7.54232 18.7827 6.39661C18.1297 5.24476 17.224 4.35137 16.0659 3.71692C14.9017 3.0825 13.5492 2.76575 12.0093 2.76575C10.4632 2.76578 9.11068 3.08246 7.95264 3.71692C6.7886 4.35133 5.88358 5.24492 5.23682 6.39661C4.58389 7.54232 4.25737 8.88239 4.25732 10.4161V11.2726C4.47868 11.0841 4.74929 10.9894 5.06982 10.9894C5.43327 10.9894 5.73222 11.1069 5.96631 11.3409C6.20028 11.575 6.31787 11.8705 6.31787 12.2277V17.8087C6.31785 18.1659 6.20033 18.4614 5.96631 18.6954C5.73222 18.9295 5.43327 19.047 5.06982 19.047C4.71267 19.0469 4.41713 18.9295 4.18311 18.6954C4.17951 18.6918 4.17688 18.6873 4.17334 18.6837V18.9913C4.17334 19.3856 4.22945 19.6383 4.34033 19.7491C4.44509 19.8661 4.66676 19.9551 5.00537 20.0167L10.0093 20.8947C10.0548 20.8486 10.1058 20.8058 10.1616 20.7657C10.4019 20.5933 10.6733 20.5319 10.9751 20.5812L12.7583 20.9044C13.06 20.9599 13.2942 21.1076 13.4604 21.3478C13.6266 21.5879 13.6855 21.8559 13.6362 22.1515C13.5869 22.441 13.4419 22.6724 13.2017 22.8448C12.9554 23.0172 12.6873 23.0786 12.3979 23.0294L10.5962 22.6964C10.3005 22.6471 10.0692 22.4995 9.90283 22.2531C9.85049 22.1801 9.80918 22.1045 9.77783 22.0265L4.79248 21.1447C4.26288 21.0522 3.84095 20.8484 3.52686 20.5343C3.20664 20.2263 3.04639 19.7057 3.04639 18.9728V18.2794C2.75076 18.2311 2.50141 18.1181 2.29834 17.9376C2.02125 17.6851 1.88242 17.3468 1.88232 16.922L1.87256 13.1515C1.87257 12.8497 1.93131 12.5845 2.04834 12.3566C2.16532 12.1227 2.31945 11.9472 2.51025 11.8302V10.4073C2.51025 8.99668 2.7416 7.71194 3.20361 6.55383C3.65946 5.39581 4.30631 4.40103 5.14404 3.56946C5.98182 2.73168 6.98271 2.08751 8.14697 1.63782C9.30501 1.182 10.5926 0.95425 12.0093 0.954224Z" fill="#222631"/>
</svg>
