<svg width="24" height="24" viewBox="0 0 24 24" fill="none" xmlns="http://www.w3.org/2000/svg">
<path d="M19.775 22.625L17.5 20.35C16.6833 20.8833 15.8125 21.2917 14.8875 21.575C13.9625 21.8583 13 22 12 22C10.6167 22 9.31667 21.7375 8.1 21.2125C6.88333 20.6875 5.825 19.975 4.925 19.075C4.025 18.175 3.3125 17.1167 2.7875 15.9C2.2625 14.6833 2 13.3833 2 12C2 11 2.14167 10.0375 2.425 9.1125C2.70833 8.1875 3.11667 7.31667 3.65 6.5L1.375 4.225L2.8 2.8L21.2 21.2L19.775 22.625ZM12 20C12.7167 20 13.4125 19.9083 14.0875 19.725C14.7625 19.5417 15.4167 19.2667 16.05 18.9L5.1 7.95C4.73333 8.58333 4.45833 9.2375 4.275 9.9125C4.09167 10.5875 4 11.2833 4 12C4 14.2167 4.77917 16.1042 6.3375 17.6625C7.89583 19.2208 9.78333 20 12 20ZM20.35 17.5L18.9 16.05C19.2667 15.4167 19.5417 14.7625 19.725 14.0875C19.9083 13.4125 20 12.7167 20 12C20 9.78333 19.2208 7.89583 17.6625 6.3375C16.1042 4.77917 14.2167 4 12 4C11.2833 4 10.5875 4.09167 9.9125 4.275C9.2375 4.45833 8.58333 4.73333 7.95 5.1L6.5 3.65C7.31667 3.11667 8.1875 2.70833 9.1125 2.425C10.0375 2.14167 11 2 12 2C13.3833 2 14.6833 2.2625 15.9 2.7875C17.1167 3.3125 18.175 4.025 19.075 4.925C19.975 5.825 20.6875 6.88333 21.2125 8.1C21.7375 9.31667 22 10.6167 22 12C22 13 21.8583 13.9625 21.575 14.8875C21.2917 15.8125 20.8833 16.6833 20.35 17.5Z" fill="#222631"/>
</svg>
