<svg width="24" height="24" viewBox="0 0 24 24" fill="none" xmlns="http://www.w3.org/2000/svg">
<path fill-rule="evenodd" clip-rule="evenodd" d="M1.29311 1.29301C1.68363 0.902497 2.31665 0.902489 2.70717 1.29301L22.7072 21.293C23.0976 21.6835 23.0977 22.3166 22.7072 22.7071C22.3167 23.0976 21.6836 23.0975 21.2931 22.7071L17.3136 18.7276C16.0435 19.3716 14.6655 19.7822 13.2453 19.9336C11.5697 20.1122 9.87471 19.9285 8.27651 19.3946C6.67838 18.8606 5.21328 17.9887 3.98159 16.8389C2.74995 15.689 1.77925 14.2873 1.13686 12.7295C1.13236 12.7186 1.12828 12.7064 1.12416 12.6954C0.957708 12.2465 0.957563 11.7526 1.12416 11.3038L1.13686 11.2705C1.94391 9.31341 3.26315 7.61972 4.9435 6.35746L1.29311 2.70707C0.902585 2.31655 0.902585 1.68353 1.29311 1.29301ZM6.37319 7.78715C4.87918 8.84294 3.70768 10.3014 3.00014 11.9991C3.53322 13.2787 4.33243 14.4308 5.34584 15.377C6.36791 16.3312 7.58412 17.054 8.9103 17.4971C10.2365 17.9402 11.643 18.0925 13.0333 17.9444C13.9911 17.8423 14.9244 17.5949 15.8068 17.2207L14.0304 15.4444C13.4096 15.8102 12.6969 16.0064 11.965 16C10.9164 15.9908 9.91354 15.5696 9.17202 14.8282C8.43051 14.0866 8.00934 13.0838 8.00014 12.0352C7.99378 11.303 8.18868 10.5895 8.55483 9.96879L6.37319 7.78715ZM10.0685 11.4825C10.0221 11.6555 9.99856 11.8354 10.0001 12.0176C10.0047 12.5419 10.2153 13.0433 10.5861 13.4141C10.9568 13.7848 11.4583 13.9954 11.9826 14C12.1643 14.0016 12.3431 13.9759 12.5158 13.9297L10.0685 11.4825Z" fill="#222631"/>
<path d="M10.6144 4.08305C13.1603 3.77967 15.736 4.31779 17.9474 5.61527C20.0205 6.83172 21.6673 8.65316 22.6701 10.8291L22.8624 11.2696L22.8751 11.3028C23.0417 11.7516 23.0417 12.2455 22.8751 12.6944C22.8711 12.7054 22.8669 12.7167 22.8624 12.7276C22.4608 13.7015 21.9291 14.6169 21.2833 15.4493C20.9449 15.8855 20.3173 15.9651 19.881 15.627C19.4451 15.2884 19.365 14.6599 19.7033 14.2237C20.2317 13.5425 20.6666 12.7937 20.9982 11.9981C20.1852 10.0463 18.7599 8.41035 16.9357 7.33988C15.1009 6.26338 12.9631 5.81666 10.8507 6.0684C10.3025 6.13342 9.80473 5.74161 9.7394 5.1934C9.67463 4.64551 10.0665 4.14856 10.6144 4.08305Z" fill="#222631"/>
</svg>
