<svg width="24" height="24" viewBox="0 0 24 24" fill="none" xmlns="http://www.w3.org/2000/svg">
<path fill-rule="evenodd" clip-rule="evenodd" d="M19.417 3.90625C20.359 3.90625 21.0701 4.14639 21.5498 4.62598C22.0295 5.09994 22.2695 5.79981 22.2695 6.72461V17.2842C22.2695 18.209 22.0295 18.9089 21.5498 19.3828C21.0701 19.8566 20.359 20.0938 19.417 20.0938H4.57422C3.638 20.0938 2.92993 19.8566 2.4502 19.3828C1.97046 18.9089 1.73047 18.209 1.73047 17.2842V6.72461C1.73047 5.79981 1.97046 5.09994 2.4502 4.62598C2.92993 4.14638 3.638 3.90625 4.57422 3.90625H19.417ZM8.44922 12.5938C7.79626 12.5938 7.23264 12.7042 6.75879 12.9238C6.28505 13.1434 5.8921 13.4147 5.58008 13.7383C5.26811 14.0618 5.03399 14.3855 4.87793 14.709C4.72773 15.0267 4.65243 15.29 4.65234 15.498C4.65234 15.6367 4.69263 15.7583 4.77344 15.8623C4.86013 15.9606 4.98165 16.0098 5.1377 16.0098H11.7617C11.9235 16.0097 12.0451 15.9605 12.126 15.8623C12.2068 15.7583 12.2471 15.6366 12.2471 15.498C12.247 15.29 12.1687 15.0267 12.0127 14.709C11.8624 14.3855 11.6313 14.0618 11.3193 13.7383C11.0073 13.4147 10.6114 13.1434 10.1318 12.9238C9.65788 12.7042 9.09658 12.5938 8.44922 12.5938ZM14.1289 14.8398C13.9613 14.8398 13.8217 14.8941 13.7119 15.0039C13.6079 15.1137 13.5566 15.2503 13.5566 15.4121C13.5567 15.5621 13.6081 15.6921 13.7119 15.8018C13.8217 15.9058 13.9613 15.958 14.1289 15.958H18.6807C18.8365 15.9579 18.9694 15.9057 19.0791 15.8018C19.1888 15.6921 19.244 15.5622 19.2441 15.4121C19.2441 15.2503 19.1889 15.1137 19.0791 15.0039C18.9694 14.8943 18.8365 14.8399 18.6807 14.8398H14.1289ZM14.1289 11.4492C13.9613 11.4492 13.8217 11.5044 13.7119 11.6143C13.608 11.7183 13.5566 11.8459 13.5566 11.9961C13.5567 12.1577 13.6081 12.2936 13.7119 12.4033C13.8217 12.5131 13.9613 12.5684 14.1289 12.5684H18.6807C18.8365 12.5683 18.9694 12.513 19.0791 12.4033C19.1888 12.2936 19.2441 12.1578 19.2441 11.9961C19.2441 11.8458 19.1889 11.7183 19.0791 11.6143C18.9694 11.5045 18.8365 11.4493 18.6807 11.4492H14.1289ZM8.44922 7.90332C8.10267 7.9034 7.78491 7.99587 7.49609 8.18066C7.20712 8.36561 6.97613 8.61167 6.80273 8.91797C6.63511 9.22431 6.55078 9.5627 6.55078 9.93262C6.55086 10.5278 6.73566 11.0221 7.10547 11.415C7.48106 11.808 7.9292 12.0038 8.44922 12.0039C8.9752 12.0039 9.42403 11.8081 9.79395 11.415C10.1637 11.0221 10.3486 10.5277 10.3486 9.93262C10.3486 9.5627 10.2613 9.22431 10.0879 8.91797C9.92028 8.61167 9.69229 8.36561 9.40332 8.18066C9.12014 7.99577 8.80174 7.90332 8.44922 7.90332ZM14.1289 8.05078C13.9613 8.05078 13.8217 8.106 13.7119 8.21582C13.6081 8.31978 13.5567 8.45266 13.5566 8.61426C13.5566 8.77032 13.6079 8.90385 13.7119 9.01367C13.8217 9.11771 13.9613 9.16895 14.1289 9.16895H18.6807C18.8365 9.16885 18.9694 9.1175 19.0791 9.01367C19.1889 8.90385 19.2441 8.77032 19.2441 8.61426C19.2441 8.45256 19.1888 8.31981 19.0791 8.21582C18.9694 8.1061 18.8365 8.05088 18.6807 8.05078H14.1289Z" fill="#222631"/>
</svg>
