<svg width="24" height="24" viewBox="0 0 24 24" fill="none" xmlns="http://www.w3.org/2000/svg">
<path d="M2 11L7 2L12 11H2ZM7 21C5.9 21 4.95833 20.6083 4.175 19.825C3.39167 19.0417 3 18.1 3 17C3 15.8833 3.39167 14.9375 4.175 14.1625C4.95833 13.3875 5.9 13 7 13C8.1 13 9.04167 13.3917 9.825 14.175C10.6083 14.9583 11 15.9 11 17C11 18.1 10.6083 19.0417 9.825 19.825C9.04167 20.6083 8.1 21 7 21ZM7 19C7.55 19 8.02083 18.8042 8.4125 18.4125C8.80417 18.0208 9 17.55 9 17C9 16.45 8.80417 15.9792 8.4125 15.5875C8.02083 15.1958 7.55 15 7 15C6.45 15 5.97917 15.1958 5.5875 15.5875C5.19583 15.9792 5 16.45 5 17C5 17.55 5.19583 18.0208 5.5875 18.4125C5.97917 18.8042 6.45 19 7 19ZM5.4 9H8.6L7 6.125L5.4 9ZM13 21V13H21V21H13ZM15 19H19V15H15V19ZM17 11C16.05 10.2 15.2542 9.525 14.6125 8.975C13.9708 8.425 13.4583 7.94167 13.075 7.525C12.6917 7.10833 12.4167 6.71667 12.25 6.35C12.0833 5.98333 12 5.59167 12 5.175C12 4.425 12.2625 3.79167 12.7875 3.275C13.3125 2.75833 13.9667 2.5 14.75 2.5C15.2 2.5 15.6208 2.60417 16.0125 2.8125C16.4042 3.02083 16.7333 3.30833 17 3.675C17.2667 3.30833 17.5958 3.02083 17.9875 2.8125C18.3792 2.60417 18.8 2.5 19.25 2.5C20.0333 2.5 20.6875 2.75833 21.2125 3.275C21.7375 3.79167 22 4.425 22 5.175C22 5.59167 21.9167 5.98333 21.75 6.35C21.5833 6.71667 21.3083 7.10833 20.925 7.525C20.5417 7.94167 20.0292 8.425 19.3875 8.975C18.7458 9.525 17.95 10.2 17 11ZM17 8.375C18.2 7.375 19 6.66667 19.4 6.25C19.8 5.83333 20 5.49167 20 5.225C20 5.00833 19.9375 4.83333 19.8125 4.7C19.6875 4.56667 19.5167 4.5 19.3 4.5C19.1333 4.5 18.9708 4.54583 18.8125 4.6375C18.6542 4.72917 18.4583 4.89167 18.225 5.125L17 6.3L15.775 5.125C15.5417 4.89167 15.3458 4.72917 15.1875 4.6375C15.0292 4.54583 14.8667 4.5 14.7 4.5C14.4833 4.5 14.3125 4.56667 14.1875 4.7C14.0625 4.83333 14 5.00833 14 5.225C14 5.49167 14.2 5.83333 14.6 6.25C15 6.66667 15.8 7.375 17 8.375Z" fill="#222631"/>
</svg>
