<svg width="24" height="24" viewBox="0 0 24 24" fill="none" xmlns="http://www.w3.org/2000/svg">
<path fill-rule="evenodd" clip-rule="evenodd" d="M11.8196 3.27502C12.6849 3.20798 13.6964 3.68687 14.0579 4.51721C14.0768 4.56013 14.1142 4.58756 14.1526 4.59142C14.8334 4.65904 15.3735 4.76098 15.8938 4.94592C16.414 5.13089 16.9109 5.39715 17.5061 5.78869C17.7397 5.94233 18.0965 6.18728 18.4631 6.36389C18.6461 6.45197 18.8276 6.5207 18.9934 6.55334C19.16 6.58606 19.3027 6.58097 19.4143 6.53088L19.4153 6.5299C19.6268 6.43761 19.7781 6.25157 19.9504 6.04357C20.116 5.8438 20.3026 5.62243 20.5784 5.52502C20.9848 5.3817 21.3823 5.555 21.6213 5.8424C21.8598 6.12954 21.9569 6.54997 21.7444 6.9176C21.4197 7.47932 20.7654 8.09265 20.1252 8.36974C20.0592 8.39859 20.0302 8.47454 20.0549 8.53283C20.1459 8.74738 20.2438 9.00351 20.3196 9.1881L20.9485 10.6988L22.9026 15.3326L22.9036 15.3336C22.9308 15.3995 22.9918 15.5488 23.0461 15.6969C23.0732 15.7707 23.099 15.8458 23.1184 15.9108C23.1366 15.9719 23.153 16.0369 23.1536 16.0836L23.1438 16.4108C23.091 17.1792 22.823 17.9715 22.3977 18.6578C21.9117 19.442 21.2157 20.0959 20.3889 20.4166C19.312 20.8343 17.9294 20.828 16.886 20.4C15.2308 19.7206 14.2216 17.8826 14.1331 16.1715V16.1686C14.1324 16.1406 14.1381 16.1077 14.1448 16.0778C14.1519 16.0459 14.1624 16.0086 14.1751 15.9674C14.2006 15.8844 14.2367 15.7799 14.2805 15.6627C14.3683 15.4281 14.4872 15.1351 14.6106 14.8395C14.8558 14.252 15.1268 13.6368 15.2014 13.4596L17.4397 8.13537C17.459 8.08941 17.4414 8.03478 17.3977 8.00842C16.8619 7.68751 16.355 7.35033 15.8245 7.08068C15.2967 6.81248 14.755 6.61682 14.1614 6.58264C14.1284 6.58074 14.0935 6.59878 14.0725 6.63342C14.0007 6.75264 13.9221 6.86816 13.8381 6.97912C13.3992 7.55026 12.8809 7.78055 12.1965 7.87267L12.1858 7.87365C11.6562 7.89164 11.2267 7.79582 10.8626 7.58361C10.4993 7.37182 10.2092 7.04801 9.94751 6.62658C9.92625 6.59251 9.88908 6.57499 9.85376 6.57775C9.11593 6.63917 8.69868 6.80402 8.16431 7.1051L7.57447 7.45275C7.26287 7.63733 6.94962 7.82036 6.63599 8.00158C6.59074 8.02791 6.57064 8.08757 6.59302 8.14025C6.64148 8.25434 6.69548 8.38995 6.74634 8.51818C6.79738 8.64689 6.84513 8.76886 6.88306 8.859L7.74048 10.8922C8.40108 12.459 9.06497 14.0318 9.72095 15.6012C9.74364 15.6555 9.78376 15.7647 9.81861 15.8727C9.83608 15.9269 9.85315 15.9827 9.86548 16.0319C9.87714 16.0784 9.8875 16.128 9.88794 16.1666V16.1686C9.88022 16.809 9.66181 17.4977 9.42017 18.0631C8.55729 20.0815 6.63448 21.0118 4.50904 20.6578C4.13575 20.5956 3.87503 20.527 3.52076 20.3707C2.37858 19.8667 1.57118 18.858 1.16138 17.7067C0.997368 17.2482 0.823369 16.6608 0.849857 16.1363V16.1276L0.882083 15.9733C0.925715 15.805 1.00191 15.5995 1.08228 15.401C1.19031 15.1341 1.313 14.8621 1.38599 14.6901L2.01392 13.1988C2.64244 11.7048 3.30964 10.0233 3.97681 8.53478C4.00042 8.48207 3.97534 8.41174 3.91333 8.38244C3.48923 8.18314 2.92063 7.7873 2.54908 7.32971C2.36342 7.10094 2.22092 6.84879 2.17603 6.5924C2.13038 6.33098 2.18753 6.06977 2.39087 5.83557C2.5753 5.62278 2.83915 5.49497 3.12036 5.48107H3.20728C3.40362 5.4918 3.56612 5.57065 3.7063 5.67834C3.8631 5.79888 3.99772 5.96033 4.12232 6.10607C4.38331 6.41132 4.60168 6.64005 4.95044 6.57287C5.26374 6.51234 5.6192 6.33846 5.97681 6.12951C6.15466 6.02559 6.33044 5.91378 6.50025 5.80627C6.66932 5.69922 6.83331 5.59579 6.98365 5.50744C7.30179 5.31868 7.63196 5.15044 7.97193 5.00451L8.23072 4.90197C8.80917 4.68761 9.23285 4.6409 9.8606 4.60217C9.89592 4.59991 9.92977 4.5779 9.94849 4.54357C10.3432 3.81016 10.9662 3.36697 11.8167 3.27502H11.8196ZM2.93384 16.109L7.79029 16.1119C7.4586 15.3141 5.79821 11.326 5.38306 10.3639L2.93384 16.109ZM18.6184 10.3707C17.8845 12.2332 16.5414 15.4101 16.2444 16.111L21.0842 16.1051L18.6184 10.3707Z" fill="#222631"/>
</svg>
