<svg width="24" height="24" viewBox="0 0 24 24" fill="none" xmlns="http://www.w3.org/2000/svg">
<path d="M12.0046 0.599976C12.8309 0.599976 13.6052 0.756058 14.3275 1.06822C15.0559 1.37427 15.6955 1.80273 16.2464 2.35361C16.7972 2.89837 17.2257 3.53494 17.5318 4.26333C17.8439 4.98559 18 5.75988 18 6.5862C18 7.82874 17.6297 8.95499 16.8891 9.96493C16.1546 10.9688 15.0987 11.7614 13.7215 12.3429L15.9985 14.6291C16.127 14.7637 16.1913 14.9137 16.1913 15.0789C16.1974 15.2442 16.1362 15.3911 16.0077 15.5196L13.6664 17.8517L15.3466 19.5135C15.469 19.6421 15.5302 19.789 15.5302 19.9542C15.5363 20.1256 15.4751 20.2756 15.3466 20.4041L12.4453 23.3054C12.3229 23.4278 12.179 23.4829 12.0138 23.4707C11.8485 23.4584 11.7169 23.4033 11.619 23.3054L10.0306 21.7538C9.93267 21.6558 9.85922 21.5487 9.81025 21.4324C9.76741 21.3222 9.74598 21.1998 9.74598 21.0652V12.1593C8.98087 11.8471 8.31676 11.4125 7.75363 10.8555C7.19663 10.2985 6.76511 9.65277 6.45907 8.91826C6.15302 8.18375 6 7.4064 6 6.5862C6 5.75376 6.15302 4.97641 6.45907 4.25415C6.77123 3.52576 7.19969 2.88919 7.74445 2.34443C8.29533 1.79355 8.93191 1.36509 9.65417 1.05904C10.3826 0.752998 11.166 0.599976 12.0046 0.599976ZM12.0046 6.02614C12.4269 6.02614 12.7881 5.87618 13.088 5.57626C13.3879 5.27633 13.5379 4.9152 13.5379 4.49286C13.5379 4.0644 13.3879 3.70327 13.088 3.40946C12.7881 3.10954 12.4269 2.95958 12.0046 2.95958C11.57 2.95958 11.2058 3.10954 10.912 3.40946C10.6182 3.70327 10.4713 4.0644 10.4713 4.49286C10.4713 4.9152 10.6182 5.27633 10.912 5.57626C11.2119 5.87618 11.5761 6.02614 12.0046 6.02614Z" fill="#222631"/>
</svg>
