<svg width="24" height="24" viewBox="0 0 24 24" fill="none" xmlns="http://www.w3.org/2000/svg">
<path d="M11.3235 22.9396L9.88209 21.6839C9.7465 21.566 9.64923 21.4215 9.59027 21.2506C9.53721 21.0855 9.51069 20.9234 9.51069 20.7642V12.4606C8.79145 12.1363 8.16949 11.6971 7.6448 11.143C7.12012 10.5888 6.71334 9.958 6.42447 9.25055C6.14149 8.53721 6 7.78261 6 6.98674C6 6.15549 6.15328 5.3773 6.45984 4.65217C6.7664 3.92704 7.19381 3.29329 7.74208 2.75092C8.29624 2.20265 8.93589 1.77524 9.66102 1.46868C10.3861 1.15623 11.1673 1 12.0044 1C12.8298 1 13.605 1.15623 14.3301 1.46868C15.0612 1.77524 15.7008 2.20265 16.2491 2.75092C16.7973 3.29919 17.2248 3.93589 17.5313 4.66102C17.8438 5.38615 18 6.16139 18 6.98674C18 8.15991 17.6758 9.22697 17.0273 10.1879C16.3788 11.143 15.4562 11.9182 14.2594 12.5136L16.0192 14.2822C16.2078 14.4768 16.3021 14.7038 16.3021 14.9632C16.308 15.2225 16.2167 15.4466 16.028 15.6352L14.0914 17.563L15.4001 18.8629C15.5888 19.0516 15.6831 19.2756 15.6831 19.535C15.689 19.7944 15.5976 20.0214 15.409 20.2159L12.6765 22.9484C12.4819 23.1371 12.2579 23.2255 12.0044 23.2137C11.7568 23.2019 11.5298 23.1105 11.3235 22.9396ZM12.0044 21.3744L13.8261 19.5262L12.6323 18.35V16.7583L14.4451 14.972L12.7561 13.2653V11.364C13.4871 11.199 14.1267 10.9042 14.675 10.4797C15.2233 10.0494 15.6478 9.53353 15.9484 8.9322C16.255 8.33088 16.4083 7.68239 16.4083 6.98674C16.4083 6.17318 16.2108 5.43331 15.8158 4.76713C15.4267 4.10096 14.8961 3.57038 14.224 3.17539C13.5578 2.7804 12.818 2.5829 12.0044 2.5829C11.3913 2.5829 10.8165 2.69786 10.28 2.92778C9.74355 3.1577 9.27192 3.47605 8.86514 3.88283C8.46426 4.28371 8.14886 4.74945 7.91894 5.28003C7.68902 5.81061 7.57406 6.37951 7.57406 6.98674C7.57406 7.69418 7.72144 8.34856 8.01621 8.94989C8.31688 9.54532 8.7266 10.0523 9.24539 10.4709C9.77008 10.8836 10.3685 11.1636 11.0405 11.311V20.4193L12.0044 21.3744ZM12.0044 6.74797C11.6035 6.74797 11.2646 6.60943 10.9875 6.33235C10.7104 6.04937 10.5718 5.71039 10.5718 5.3154C10.5718 4.92041 10.7104 4.58438 10.9875 4.3073C11.2646 4.03021 11.6035 3.89167 12.0044 3.89167C12.3994 3.89167 12.7354 4.03021 13.0125 4.3073C13.2955 4.58438 13.437 4.92041 13.437 5.3154C13.437 5.71039 13.2955 6.04937 13.0125 6.33235C12.7354 6.60943 12.3994 6.74797 12.0044 6.74797Z" fill="#222631"/>
</svg>
