<svg width="24" height="24" viewBox="0 0 24 24" fill="none" xmlns="http://www.w3.org/2000/svg">
<path d="M14.3995 9.1791C14.6959 9.20399 15.0612 9.41527 15.7918 9.83705L17.5101 10.829C18.091 11.1644 18.3817 11.3324 18.6134 11.5454C19.0415 11.9392 19.3392 12.4542 19.4661 13.0219C19.5348 13.3291 19.5347 13.6649 19.5347 14.3357V17.2622C19.5347 17.9327 19.5348 18.2681 19.4661 18.5752C19.3393 19.1427 19.0421 19.658 18.6141 20.0517C18.3825 20.2647 18.0922 20.4327 17.5116 20.7681L14.9754 22.2325C14.3945 22.5681 14.104 22.7362 13.8036 22.8305C13.2483 23.0046 12.6527 23.0046 12.0974 22.8305C11.7969 22.7363 11.5061 22.5682 10.9249 22.2325L9.20085 21.237C8.47009 20.8148 8.1046 20.6036 7.93491 20.3592C7.61775 19.9025 7.61799 19.2964 7.93562 18.84C8.10555 18.5958 8.47179 18.3851 9.203 17.9636L10.9306 16.9674C11.5123 16.6322 11.8033 16.4648 12.0353 16.2517C12.4639 15.858 12.7617 15.3425 12.8888 14.7745C12.9576 14.4671 12.958 14.1313 12.958 13.4601V11.4734C12.958 10.6298 12.9577 10.2075 13.0843 9.93838C13.3211 9.43551 13.8456 9.13264 14.3995 9.1791Z" fill="#222631"/>
<path d="M10.1963 1.16953C10.7517 0.995411 11.3472 0.99541 11.9026 1.16953C12.203 1.26374 12.4934 1.43192 13.0743 1.76754L14.7984 2.76302C15.5291 3.18509 15.8946 3.3965 16.0644 3.64076C16.3816 4.09751 16.3813 4.7036 16.0637 5.16004C15.8937 5.40412 15.528 5.61504 14.797 6.03636L13.0686 7.03256C12.4873 7.36764 12.1966 7.53528 11.9647 7.74831C11.536 8.14207 11.2376 8.65743 11.1105 9.22548C11.0417 9.53287 11.042 9.8687 11.042 10.54V12.5266C11.042 13.3702 11.0423 13.7925 10.9157 14.0616C10.679 14.5645 10.1543 14.8673 9.60048 14.8209C9.30412 14.796 8.9387 14.5847 8.20822 14.163L6.48913 13.171C5.90836 12.8357 5.61828 12.6676 5.3866 12.4546C4.95845 12.0609 4.66076 11.5457 4.53384 10.9781C4.46517 10.6709 4.46533 10.3351 4.46533 9.66436V6.73784C4.46533 6.06733 4.46521 5.7319 4.53384 5.42479C4.6607 4.85729 4.95791 4.34203 5.38589 3.94833C5.61749 3.7353 5.9078 3.56727 6.48842 3.23187L9.02459 1.76754C9.60556 1.43193 9.89591 1.26375 10.1963 1.16953Z" fill="#222631"/>
</svg>
