<svg viewBox="0 0 16 16" fill="none" xmlns="http://www.w3.org/2000/svg">
  <path
    d="M12.6663 1.33337C13.1968 1.33337 13.7053 1.54424 14.0804 1.91931C14.4555 2.29438 14.6663 2.80294 14.6663 3.33337V4.00004C14.6663 4.36823 14.3679 4.66671 13.9997 4.66671C13.6315 4.66671 13.333 4.36823 13.333 4.00004V3.33337C13.333 3.15656 13.2627 2.98704 13.1377 2.86202C13.0127 2.737 12.8432 2.66671 12.6663 2.66671H3.33301C3.1562 2.66671 2.98668 2.737 2.86165 2.86202C2.73663 2.98704 2.66634 3.15656 2.66634 3.33337V12.6667C2.66634 12.8435 2.73663 13.013 2.86165 13.1381C2.98668 13.2631 3.1562 13.3334 3.33301 13.3334H12.6663C12.8432 13.3334 13.0127 13.2631 13.1377 13.1381C13.2627 13.013 13.333 12.8435 13.333 12.6667V12C13.333 11.6319 13.6315 11.3334 13.9997 11.3334C14.3679 11.3334 14.6663 11.6319 14.6663 12V12.6667C14.6663 13.1971 14.4555 13.7057 14.0804 14.0808C13.7053 14.4558 13.1968 14.6667 12.6663 14.6667H3.33301C2.80257 14.6667 2.29402 14.4558 1.91895 14.0808C1.54387 13.7057 1.33301 13.1971 1.33301 12.6667V3.33337C1.33301 2.80294 1.54387 2.29438 1.91895 1.91931C2.29402 1.54424 2.80257 1.33337 3.33301 1.33337H12.6663Z"
    fill="currentColor"
  />
  <path
    d="M10.195 4.86202C10.4553 4.60167 10.8773 4.60167 11.1377 4.86202L13.8044 7.52869C13.8362 7.56056 13.8647 7.59574 13.8896 7.6335C13.9061 7.65849 13.9205 7.68445 13.9333 7.71098C13.9478 7.7411 13.9605 7.77229 13.9704 7.80473C13.9745 7.81825 13.9775 7.83203 13.9808 7.84574C13.9926 7.89533 13.9997 7.94685 13.9997 8.00004C13.9997 8.0376 13.9952 8.0742 13.9893 8.11007C13.9845 8.13855 13.9788 8.16691 13.9704 8.1947C13.9605 8.22716 13.9478 8.25831 13.9333 8.28845C13.9287 8.29789 13.924 8.30719 13.9189 8.31645C13.9003 8.35083 13.8786 8.38305 13.8545 8.41345C13.8388 8.43325 13.8227 8.45309 13.8044 8.4714L11.1377 11.1381C10.8773 11.3984 10.4553 11.3984 10.195 11.1381C9.93464 10.8777 9.93464 10.4557 10.195 10.1954L11.7236 8.66671H5.99967C5.63148 8.66671 5.33301 8.36823 5.33301 8.00004C5.33301 7.63185 5.63148 7.33337 5.99967 7.33337H11.7236L10.195 5.80473C9.93464 5.54438 9.93464 5.12237 10.195 4.86202Z"
    fill="currentColor"
  />
</svg>
