<svg viewBox="0 0 15 14" fill="none" xmlns="http://www.w3.org/2000/svg">
<path fill-rule="evenodd" clip-rule="evenodd" d="M7.33342 0C7.7016 0 8.00008 0.298477 8.00008 0.666667V1.58984C9.45264 2.29675 11.0479 2.66665 12.6667 2.66667H13.3334C13.7016 2.66667 14.0001 2.96514 14.0001 3.33333C14.0001 3.70152 13.7016 4 13.3334 4H12.7123L14.6244 9.09896C14.7284 9.37617 14.6367 9.6889 14.3998 9.86654C13.7075 10.3857 12.8655 10.6667 12.0001 10.6667C11.1347 10.6666 10.2927 10.3858 9.60034 9.86654C9.36355 9.6889 9.27181 9.37614 9.37573 9.09896L11.3165 3.92253C10.1755 3.79323 9.05876 3.50104 8.00008 3.05404V12H10.6667C11.0349 12 11.3334 12.2985 11.3334 12.6667C11.3334 13.0349 11.0349 13.3333 10.6667 13.3333H4.00008C3.63194 13.3333 3.33341 13.0348 3.33341 12.6667C3.33341 12.2985 3.63194 12.0001 4.00008 12H6.66675V3.05404C5.60783 3.50112 4.49089 3.79395 3.34969 3.92318L5.2911 9.09896C5.39505 9.37617 5.30334 9.6889 5.06649 9.86654C4.37414 10.3857 3.53216 10.6667 2.66675 10.6667C1.80135 10.6666 0.959346 10.3858 0.267008 9.86654C0.0302156 9.6889 -0.0615261 9.37614 0.0423991 9.09896L1.95451 4H1.33341C0.965273 3.99994 0.666748 3.70149 0.666748 3.33333C0.666748 2.96518 0.965273 2.66672 1.33341 2.66667H2.00008C3.61893 2.66667 5.2142 2.29672 6.66675 1.58984V0.666667C6.66675 0.298512 6.96527 5.63445e-05 7.33342 0ZM1.48315 9.05404C1.84935 9.23558 2.25367 9.33332 2.66675 9.33333C3.07964 9.33333 3.48362 9.2354 3.84969 9.05404L2.66675 5.89909L1.48315 9.05404ZM10.8165 9.05404C11.1827 9.23558 11.587 9.33332 12.0001 9.33333C12.413 9.33333 12.817 9.2354 13.183 9.05404L12.0001 5.89909L10.8165 9.05404Z" fill="currentColor"/>
</svg>
