<svg width="24" height="24" viewBox="0 0 24 24" fill="none" xmlns="http://www.w3.org/2000/svg">
<path fill-rule="evenodd" clip-rule="evenodd" d="M19.9445 13.1616C20.4902 13.1616 21.0028 13.2643 21.4816 13.4702C21.9604 13.6761 22.3827 13.9621 22.7482 14.3276C23.1136 14.6931 23.3998 15.1182 23.6057 15.6021C23.8165 16.0806 23.922 16.5928 23.9221 17.1382C23.922 17.6785 23.8166 18.1889 23.6057 18.6675C23.3997 19.1513 23.111 19.5764 22.7404 19.9419C22.3749 20.3074 21.9499 20.5934 21.466 20.7993C20.9873 21.0104 20.4799 21.1157 19.9445 21.1157C19.3989 21.1157 18.8861 21.013 18.4074 20.8071C17.9289 20.6013 17.5072 20.3124 17.1418 19.9419C16.7763 19.5764 16.4876 19.154 16.2766 18.6753C16.0707 18.1966 15.968 17.6838 15.968 17.1382C15.968 16.5928 16.0708 16.0806 16.2766 15.6021C16.4876 15.1233 16.7763 14.701 17.1418 14.3354C17.5072 13.9649 17.9288 13.6761 18.4074 13.4702C18.8862 13.2643 19.3988 13.1616 19.9445 13.1616ZM21.7209 15.1382C21.5254 15.1382 21.3712 15.2208 21.258 15.3853L19.4348 17.9028L18.5392 16.9224C18.4878 16.8709 18.4283 16.8302 18.3615 16.7993C18.2946 16.7684 18.2149 16.7525 18.1223 16.7524C17.9729 16.7524 17.8437 16.8038 17.7355 16.9067C17.6276 17.0045 17.5734 17.1367 17.5734 17.3013C17.5735 17.3679 17.5869 17.4348 17.6125 17.5015C17.6434 17.5735 17.6824 17.6409 17.7287 17.7026L19.0256 19.1079C19.077 19.1696 19.1444 19.2157 19.2267 19.2466C19.309 19.2774 19.3888 19.2935 19.466 19.2935C19.6666 19.2934 19.8181 19.2233 19.9211 19.0845L22.1535 16.0112C22.1946 15.9547 22.223 15.8979 22.2385 15.8413C22.259 15.7849 22.2687 15.7332 22.2687 15.687C22.2687 15.5326 22.212 15.4032 22.0988 15.3003C21.9908 15.1925 21.8649 15.1382 21.7209 15.1382Z" fill="#222631"/>
<path d="M15.2199 14.6362C15.0396 14.9711 14.8972 15.3319 14.7941 15.7183C14.6963 16.0995 14.6476 16.4966 14.6476 16.9087C14.6477 17.1764 14.6706 17.4393 14.717 17.6968C14.7633 17.9542 14.828 18.2065 14.9103 18.4536H3.14178C2.85845 18.4536 2.60549 18.4227 2.38397 18.3608C2.16271 18.3042 1.97493 18.2245 1.8205 18.1216L7.716 12.2173L8.7746 13.1606C9.01672 13.3719 9.25903 13.5293 9.50116 13.6323C9.7431 13.7352 9.99548 13.7866 10.258 13.7866C10.5207 13.7866 10.7737 13.7353 11.0158 13.6323C11.2631 13.5293 11.5081 13.3719 11.7502 13.1606L12.8088 12.2173L15.2199 14.6362Z" fill="#222631"/>
<path d="M6.73456 11.3599L0.993347 17.0864C0.931528 16.937 0.882924 16.769 0.846863 16.5835C0.815972 16.3981 0.799988 16.1839 0.799988 15.9419V7.396C0.799988 7.13326 0.817637 6.90594 0.853699 6.71533C0.89489 6.51975 0.939199 6.37272 0.985535 6.2749L6.73456 11.3599Z" fill="#222631"/>
<path d="M19.5392 6.2749C19.5804 6.37269 19.6211 6.51984 19.6623 6.71533C19.7035 6.90594 19.7248 7.13326 19.7248 7.396V11.8315C18.983 11.8315 18.2843 11.9863 17.6301 12.2954C16.9811 12.5993 16.4247 13.0089 15.9611 13.5239L13.7902 11.3599L19.5392 6.2749Z" fill="#222631"/>
<path d="M17.1818 4.88428C17.8 4.88428 18.3103 5.01078 18.7121 5.26318L10.9689 12.1099C10.7372 12.3208 10.5 12.4263 10.258 12.4263C10.0212 12.4261 9.78389 12.3209 9.54706 12.1099L1.80487 5.26318C2.21172 5.01087 2.7214 4.88434 3.33417 4.88428H17.1818Z" fill="#222631"/>
</svg>
