<svg width="24" height="24" viewBox="0 0 24 24" fill="none" xmlns="http://www.w3.org/2000/svg">
<path d="M6 14H14V12H6V14ZM6 11H18V9H6V11ZM6 8H18V7.9C17.3833 7.76667 16.8208 7.5375 16.3125 7.2125C15.8042 6.8875 15.3667 6.48333 15 6H6V8ZM2 22V4C2 3.45 2.19583 2.97917 2.5875 2.5875C2.97917 2.19583 3.45 2 4 2H14.1C14.0333 2.33333 14 2.66667 14 3C14 3.33333 14.0333 3.66667 14.1 4H4V17.125L5.15 16H20V7.9C20.3833 7.81667 20.7417 7.70417 21.075 7.5625C21.4083 7.42083 21.7167 7.23333 22 7V16C22 16.55 21.8042 17.0208 21.4125 17.4125C21.0208 17.8042 20.55 18 20 18H6L2 22ZM19 6C18.1667 6 17.4583 5.70833 16.875 5.125C16.2917 4.54167 16 3.83333 16 3C16 2.16667 16.2917 1.45833 16.875 0.875C17.4583 0.291667 18.1667 0 19 0C19.8333 0 20.5417 0.291667 21.125 0.875C21.7083 1.45833 22 2.16667 22 3C22 3.83333 21.7083 4.54167 21.125 5.125C20.5417 5.70833 19.8333 6 19 6Z" fill="#222631"/>
</svg>
