<svg width="24" height="24" viewBox="0 0 24 24" fill="none" xmlns="http://www.w3.org/2000/svg">
<path fill-rule="evenodd" clip-rule="evenodd" d="M15.4625 8.5375C16.4375 9.5125 17.6167 10 19 10C20.3833 10 21.5625 9.5125 22.5375 8.5375C23.5125 7.5625 24 6.38333 24 5C24 3.61667 23.5125 2.4375 22.5375 1.4625C21.5625 0.4875 20.3833 0 19 0C17.6167 0 16.4375 0.4875 15.4625 1.4625C14.4875 2.4375 14 3.61667 14 5C14 6.38333 14.4875 7.5625 15.4625 8.5375ZM19.35 7.85C19.25 7.95 19.1333 8 19 8C18.8667 8 18.75 7.95 18.65 7.85C18.55 7.75 18.5 7.63333 18.5 7.5C18.5 7.36667 18.55 7.25 18.65 7.15C18.75 7.05 18.8667 7 19 7C19.1333 7 19.25 7.05 19.35 7.15C19.45 7.25 19.5 7.36667 19.5 7.5C19.5 7.63333 19.45 7.75 19.35 7.85ZM19.5 6H18.5V2H19.5V6ZM11.9999 2C12.2181 2 12.4276 2.01999 12.6287 2.05996C12.3463 2.66928 12.158 3.31853 12.0659 4.00178C12.0442 4.00059 12.0222 4 11.9999 4C11.7166 4 11.4791 4.09583 11.2874 4.2875C11.0957 4.47917 10.9999 4.71667 10.9999 5V8.15L8.9999 6.15V5C8.9999 4.16667 9.29157 3.45833 9.8749 2.875C10.4582 2.29167 11.1666 2 11.9999 2ZM12.9999 10.15V8.63133C13.2883 9.10038 13.6381 9.54157 14.0483 9.95171C14.3492 10.2526 14.6668 10.5211 14.9999 10.7566V11C14.9999 11.1833 14.9791 11.35 14.9374 11.5C14.8957 11.65 14.8499 11.8 14.7999 11.95L12.9999 10.15ZM16.9498 11.7083C17.5765 11.8957 18.2382 11.9935 18.9295 11.9997C18.8756 12.373 18.7907 12.7356 18.6749 13.0875C18.4582 13.7458 18.1499 14.3667 17.7499 14.95L16.2999 13.5C16.5332 13.1167 16.7082 12.7167 16.8249 12.3C16.8791 12.1064 16.9207 11.9092 16.9498 11.7083ZM10.9999 21V17.925C9.26657 17.6917 7.83324 16.9167 6.6999 15.6C5.56657 14.2833 4.9999 12.75 4.9999 11H6.9999C6.9999 12.3833 7.47907 13.5625 8.4374 14.5375C9.39574 15.5125 10.5832 16 11.9999 16C12.3744 16 12.7362 15.9618 13.0852 15.8853L1.3999 4.2L2.7999 2.8L14.9999 15L16.4249 16.425L21.1999 21.2L19.7999 22.6L14.6731 17.4732C14.1461 17.699 13.5884 17.8496 12.9999 17.925V21H10.9999Z" fill="#222631"/>
</svg>
