<svg width="24" height="24" viewBox="0 0 24 24" fill="none" xmlns="http://www.w3.org/2000/svg">
<path d="M5.40544 13.0226C5.2297 13.0226 5.06609 12.9771 4.9146 12.8862C4.7631 12.7893 4.63888 12.6651 4.54192 12.5136C4.44496 12.356 4.39648 12.1833 4.39648 11.9955C4.39648 11.8137 4.44496 11.644 4.54192 11.4864C4.63888 11.3289 4.7631 11.2047 4.9146 11.1138C5.06609 11.0229 5.2297 10.9774 5.40544 10.9774H18.5946C18.7703 10.9774 18.9339 11.0229 19.0854 11.1138C19.2429 11.2047 19.3672 11.3289 19.4581 11.4864C19.555 11.644 19.6035 11.8137 19.6035 11.9955C19.6035 12.1833 19.555 12.356 19.4581 12.5136C19.3672 12.6651 19.2429 12.7893 19.0854 12.8862C18.9339 12.9771 18.7703 13.0226 18.5946 13.0226H5.40544Z" fill="#222631"/>
</svg>
