<svg width="24" height="24" viewBox="0 0 24 24" fill="none" xmlns="http://www.w3.org/2000/svg">
<path d="M11.9951 22.2189C10.5838 22.2189 9.26146 21.9518 8.02821 21.4176C6.79495 20.89 5.71008 20.158 4.77359 19.2215C3.83711 18.2916 3.10177 17.21 2.56758 15.9768C2.03998 14.7369 1.77618 13.4113 1.77618 12C1.77618 10.5887 2.03998 9.26641 2.56758 8.03315C3.10177 6.7933 3.83711 5.70513 4.77359 4.76865C5.71008 3.83216 6.79495 3.10012 8.02821 2.57252C9.26146 2.04493 10.5838 1.78113 11.9951 1.78113C13.4064 1.78113 14.7287 2.04493 15.9619 2.57252C17.2018 3.10012 18.29 3.83216 19.2264 4.76865C20.1629 5.70513 20.895 6.7933 21.4226 8.03315C21.9568 9.26641 22.2239 10.5887 22.2239 12C22.2239 13.4113 21.9568 14.7369 21.4226 15.9768C20.895 17.21 20.1629 18.2916 19.2264 19.2215C18.29 20.158 17.2018 20.89 15.9619 21.4176C14.7287 21.9518 13.4064 22.2189 11.9951 22.2189ZM11.9951 20.2009C13.1294 20.2009 14.1912 19.9865 15.1804 19.5578C16.1697 19.1358 17.0402 18.5488 17.792 17.797C18.5505 17.0452 19.1407 16.1746 19.5628 15.1854C19.9849 14.1961 20.1959 13.1344 20.1959 12C20.1959 10.8657 19.9849 9.8039 19.5628 8.81465C19.1407 7.81881 18.5505 6.94828 17.792 6.20305C17.0402 5.45122 16.1697 4.86427 15.1804 4.44219C14.1912 4.01352 13.1294 3.79919 11.9951 3.79919C10.8673 3.79919 9.80555 4.01352 8.80971 4.44219C7.82047 4.86427 6.94993 5.45122 6.19811 6.20305C5.44628 6.94828 4.85603 7.81881 4.42736 8.81465C4.00528 9.8039 3.79424 10.8657 3.79424 12C3.79424 13.1344 4.00528 14.1961 4.42736 15.1854C4.85603 16.1746 5.44628 17.0452 6.19811 17.797C6.94993 18.5488 7.82047 19.1358 8.80971 19.5578C9.80555 19.9865 10.8673 20.2009 11.9951 20.2009ZM7.35552 13.474C6.94663 13.474 6.5971 13.3289 6.30692 13.0387C6.01674 12.7485 5.87165 12.399 5.87165 11.9901C5.87165 11.5812 6.01674 11.2317 6.30692 10.9415C6.5971 10.6514 6.94663 10.5063 7.35552 10.5063C7.76441 10.5063 8.11394 10.6514 8.40412 10.9415C8.70089 11.2317 8.84928 11.5812 8.84928 11.9901C8.84928 12.399 8.70419 12.7485 8.41401 13.0387C8.12383 13.3289 7.771 13.474 7.35552 13.474ZM11.9951 13.474C11.5928 13.474 11.2432 13.3289 10.9465 13.0387C10.6563 12.7485 10.5112 12.399 10.5112 11.9901C10.5112 11.5812 10.6563 11.2317 10.9465 10.9415C11.2432 10.6514 11.5928 10.5063 11.9951 10.5063C12.404 10.5063 12.7535 10.6514 13.0437 10.9415C13.3339 11.2317 13.4789 11.5812 13.4789 11.9901C13.4789 12.399 13.3339 12.7485 13.0437 13.0387C12.7535 13.3289 12.404 13.474 11.9951 13.474ZM16.6346 13.474C16.2257 13.474 15.8762 13.3289 15.586 13.0387C15.2959 12.7485 15.1508 12.399 15.1508 11.9901C15.1508 11.5812 15.2959 11.2317 15.586 10.9415C15.8762 10.6514 16.2257 10.5063 16.6346 10.5063C17.0501 10.5063 17.4029 10.6514 17.6931 10.9415C17.9833 11.2317 18.1284 11.5812 18.1284 11.9901C18.1284 12.399 17.9833 12.7485 17.6931 13.0387C17.4029 13.3289 17.0501 13.474 16.6346 13.474Z" fill="#222631"/>
</svg>
