<svg width="24" height="24" viewBox="0 0 24 24" fill="none" xmlns="http://www.w3.org/2000/svg">
<path d="M17.1143 1.80515C17.3978 1.7458 17.6454 1.80166 17.8564 1.97312C18.0674 2.14456 18.1728 2.3786 18.1729 2.67527V6.38523C18.1728 6.57628 18.1168 6.74098 18.0049 6.87937C17.8928 7.01126 17.741 7.09761 17.5498 7.13718L12.999 8.13621C12.8014 8.18234 12.6695 8.24467 12.6035 8.32371C12.5442 8.40284 12.5147 8.55143 12.5146 8.76902V17.8305C12.5146 18.5362 12.3956 19.1462 12.1582 19.6606C11.9274 20.175 11.624 20.5943 11.248 20.9175C10.8722 21.2405 10.4632 21.4809 10.0215 21.6391C9.58623 21.7974 9.16376 21.8764 8.75488 21.8764C7.89773 21.8764 7.19573 21.6256 6.64844 21.1245C6.10114 20.6233 5.82722 19.9741 5.82715 19.1762C5.82715 18.398 6.07472 17.7512 6.56934 17.2368C7.06396 16.7225 7.82268 16.3567 8.84473 16.1391L10.4268 15.813C10.829 15.7272 11.0112 15.4596 10.9717 15.0112L10.9512 4.06003C10.9513 3.45352 11.3075 3.07403 12.0195 2.92234L17.1143 1.80515Z" fill="#222631"/>
</svg>
