<svg width="24" height="24" viewBox="0 0 24 24" fill="none" xmlns="http://www.w3.org/2000/svg">
<path d="M11.9902 13.4937C13.276 13.4937 14.4333 13.6845 15.4619 14.0669C16.4907 14.4494 17.3683 14.9477 18.0938 15.561C18.8258 16.1744 19.3863 16.8307 19.7754 17.5298C20.1644 18.2287 20.3593 18.898 20.3594 19.5376C20.3594 19.9729 20.2003 20.3163 19.8838 20.5669C19.5673 20.8173 19.1319 20.9429 18.5781 20.9429H5.42188C4.8679 20.9429 4.43179 20.8175 4.11523 20.5669C3.79878 20.3163 3.64062 19.9728 3.64062 19.5376C3.64067 18.898 3.83238 18.2288 4.21484 17.5298C4.60395 16.8307 5.16127 16.1744 5.88672 15.561C6.61868 14.9478 7.4987 14.4494 8.52734 14.0669C9.55616 13.6844 10.7108 13.4937 11.9902 13.4937Z" fill="#222631"/>
<path d="M12 3.05713C12.7188 3.05713 13.3816 3.24477 13.9883 3.62061C14.595 3.99652 15.0797 4.51165 15.4424 5.16455C15.8116 5.81076 15.9961 6.5359 15.9961 7.34033C15.9961 8.16459 15.8116 8.90966 15.4424 9.57568C15.0797 10.2352 14.595 10.7598 13.9883 11.1489C13.3816 11.538 12.7188 11.7329 12 11.7329C11.2812 11.7329 10.6184 11.538 10.0117 11.1489C9.41158 10.7598 8.92694 10.2352 8.55762 9.57568C8.19499 8.91625 8.01367 8.17753 8.01367 7.35986C8.01373 6.55545 8.19497 5.83028 8.55762 5.18408C8.92694 4.53118 9.41475 4.01288 10.0215 3.63037C10.6282 3.24794 11.2878 3.05713 12 3.05713Z" fill="#222631"/>
</svg>
