<svg width="24" height="24" viewBox="0 0 24 24" fill="none" xmlns="http://www.w3.org/2000/svg">
<path d="M7.89844 15.9922C6.94141 15.0417 6.08529 14.0488 5.33008 13.0137C4.58138 11.9785 3.98893 10.9466 3.55273 9.91797C3.11654 8.88932 2.89844 7.91276 2.89844 6.98828C2.89844 6.3763 3.0026 5.80339 3.21094 5.26953C3.42578 4.73568 3.73503 4.27344 4.13867 3.88281C4.42513 3.60938 4.7474 3.36849 5.10547 3.16016C5.47005 2.94531 5.81836 2.83789 6.15039 2.83789C6.41081 2.83789 6.64193 2.93229 6.84375 3.12109C7.04557 3.3099 7.26367 3.56706 7.49805 3.89258L9.13867 6.17773C9.32096 6.43815 9.44792 6.67253 9.51953 6.88086C9.59115 7.08919 9.62695 7.29102 9.62695 7.48633C9.62695 7.64909 9.60417 7.80208 9.55859 7.94531C9.51302 8.08854 9.42839 8.26758 9.30469 8.48242L8.38672 10.0547C8.34766 10.1263 8.31185 10.1914 8.2793 10.25C8.25326 10.3086 8.24023 10.3672 8.24023 10.4258C8.24023 10.5039 8.25 10.5788 8.26953 10.6504C8.29557 10.722 8.32161 10.7839 8.34766 10.8359C8.73828 11.6172 9.41211 12.4863 10.3691 13.4434C10.8314 13.9056 11.3066 14.3288 11.7949 14.7129C12.2832 15.0905 12.7129 15.3639 13.084 15.5332C13.1751 15.5723 13.2565 15.6048 13.3281 15.6309C13.4062 15.6504 13.4909 15.6602 13.582 15.6602C13.6471 15.6602 13.7057 15.6536 13.7578 15.6406C13.8164 15.6211 13.8913 15.5853 13.9824 15.5332L15.5449 14.6738C15.7988 14.5371 16.0007 14.4492 16.1504 14.4102C16.3066 14.3646 16.4596 14.3418 16.6094 14.3418C16.7852 14.3418 16.9544 14.3743 17.1172 14.4395C17.2865 14.498 17.5208 14.6315 17.8203 14.8398L20.2031 16.5488C20.5221 16.7767 20.75 16.9883 20.8867 17.1836C21.0299 17.3789 21.1016 17.5807 21.1016 17.7891C21.1016 18.056 21.0299 18.3424 20.8867 18.6484C20.75 18.9544 20.5026 19.3092 20.1445 19.7129C19.7734 20.1296 19.3145 20.4583 18.7676 20.6992C18.2207 20.9401 17.6217 21.0605 16.9707 21.0605C16.0462 21.0605 15.0664 20.8392 14.0312 20.3965C12.9961 19.9538 11.9544 19.3516 10.9062 18.5898C9.85807 17.8216 8.85547 16.9557 7.89844 15.9922Z" fill="#222631"/>
</svg>
