<svg width="24" height="24" viewBox="0 0 24 24" fill="none" xmlns="http://www.w3.org/2000/svg">
<path d="M5.4657 2.84265C5.72611 2.84265 5.95723 2.93705 6.15906 3.12585C6.36088 3.31466 6.57898 3.57182 6.81335 3.89734L8.45398 6.1825C8.63627 6.44291 8.76322 6.67729 8.83484 6.88562C8.90645 7.09395 8.94226 7.29578 8.94226 7.49109C8.94226 7.65385 8.91947 7.80684 8.8739 7.95007C8.82833 8.0933 8.74369 8.27234 8.62 8.48718L7.70203 10.0594C7.66296 10.1311 7.62716 10.1962 7.5946 10.2548C7.56856 10.3134 7.55554 10.3719 7.55554 10.4305C7.55554 10.5087 7.56531 10.5835 7.58484 10.6552C7.61088 10.7268 7.63692 10.7886 7.66296 10.8407C8.05359 11.6219 8.72742 12.4911 9.68445 13.4481C10.1467 13.9104 10.6219 14.3335 11.1102 14.7177C11.5985 15.0953 12.0282 15.3687 12.3993 15.538C12.4904 15.577 12.5718 15.6096 12.6434 15.6356C12.7216 15.6552 12.8062 15.6649 12.8973 15.6649C12.9624 15.6649 13.021 15.6584 13.0731 15.6454C13.1317 15.6259 13.2066 15.59 13.2977 15.538L14.8602 14.6786C15.1141 14.5419 15.316 14.454 15.4657 14.4149C15.6219 14.3693 15.7749 14.3466 15.9247 14.3466C16.1005 14.3466 16.2697 14.3791 16.4325 14.4442C16.6018 14.5028 16.8361 14.6363 17.1356 14.8446L19.5184 16.5536C19.8374 16.7815 20.0653 16.993 20.202 17.1884C20.3453 17.3837 20.4169 17.5855 20.4169 17.7938C20.4169 18.0608 20.3453 18.3472 20.202 18.6532C20.0653 18.9592 19.8179 19.314 19.4598 19.7177C19.0887 20.1343 18.6298 20.4631 18.0829 20.704C17.536 20.9449 16.9371 21.0653 16.286 21.0653C15.3615 21.0653 14.3817 20.844 13.3466 20.4012C12.3114 19.9585 11.2697 19.3563 10.2216 18.5946C9.17338 17.8264 8.17078 16.9605 7.21375 15.9969C6.25671 15.0464 5.40059 14.0536 4.64539 13.0184C3.89669 11.9833 3.30424 10.9514 2.86804 9.92273C2.43184 8.89408 2.21375 7.91752 2.21375 6.99304C2.21375 6.38106 2.31791 5.80815 2.52625 5.27429C2.74109 4.74044 3.05033 4.2782 3.45398 3.88757C3.74044 3.61414 4.0627 3.37325 4.42078 3.16492C4.78536 2.95007 5.13367 2.84265 5.4657 2.84265Z" fill="#222631"/>
<path d="M19.9481 3.04773C20.2085 3.04773 20.4006 3.11283 20.5243 3.24304C20.6545 3.37325 20.7229 3.56531 20.7294 3.81921V9.47351C20.7294 9.67533 20.6545 9.8446 20.5048 9.98132C20.3615 10.118 20.1955 10.1831 20.0067 10.1766C19.8114 10.1636 19.6486 10.092 19.5184 9.96179C19.3947 9.83158 19.3296 9.66882 19.3231 9.47351L19.3329 8.01843L19.5165 5.15613L17.995 6.78796L13.786 10.9969C13.6363 11.1532 13.467 11.2248 13.2782 11.2118C13.0699 11.2183 12.8973 11.1565 12.7606 11.0262C12.6239 10.8895 12.5523 10.7268 12.5458 10.538C12.5458 10.3427 12.6272 10.1604 12.7899 9.99109L16.9891 5.7821L18.6219 4.27332L15.7587 4.43445L14.2743 4.42468C14.0855 4.43119 13.926 4.3726 13.7958 4.2489C13.6656 4.1252 13.5972 3.96895 13.5907 3.78015C13.5712 3.57833 13.6298 3.4058 13.7665 3.26257C13.9097 3.11934 14.079 3.04773 14.2743 3.04773H19.9481Z" fill="#222631"/>
</svg>
