<svg width="24" height="24" viewBox="0 0 24 24" fill="none" xmlns="http://www.w3.org/2000/svg">
<path d="M16.6387 21.4903C15.7077 21.4903 14.7214 21.3015 13.6797 20.9239C12.638 20.5463 11.5768 19.9962 10.4961 19.2735C9.41536 18.5508 8.35742 17.6687 7.32227 16.627C6.27409 15.5853 5.38867 14.5241 4.66602 13.4434C3.94336 12.3627 3.39323 11.3015 3.01562 10.2598C2.64453 9.21165 2.45898 8.22206 2.45898 7.29107C2.45898 6.73118 2.51107 6.22662 2.61523 5.7774C2.72591 5.32818 2.89518 4.91803 3.12305 4.54693C3.35091 4.17584 3.65039 3.82753 4.02148 3.50201C4.06055 3.46295 4.09961 3.42714 4.13867 3.39459C4.18424 3.35553 4.22656 3.31646 4.26562 3.2774C4.92318 2.69146 5.55469 2.40501 6.16016 2.41803C6.51172 2.42454 6.85026 2.53196 7.17578 2.74029C7.50781 2.94212 7.82357 3.26113 8.12305 3.69732L10.0566 6.47076C10.304 6.82232 10.4115 7.19342 10.3789 7.58404C10.3464 7.96816 10.2357 8.30995 10.0469 8.60943L9.16797 9.98639C9.01172 10.2273 8.99219 10.4519 9.10938 10.6602C9.27214 10.9402 9.51628 11.282 9.8418 11.6856C10.1738 12.0893 10.5254 12.4766 10.8965 12.8477C11.1439 13.0951 11.4141 13.349 11.707 13.6094C12 13.8633 12.2767 14.0945 12.5371 14.3028C12.7975 14.5046 12.9993 14.6511 13.1426 14.7422C13.2858 14.8269 13.4225 14.8725 13.5527 14.879C13.6829 14.879 13.8229 14.8464 13.9727 14.7813L15.4863 14.0391C15.9551 13.8113 16.3652 13.7071 16.7168 13.7266C17.0749 13.7396 17.4395 13.8731 17.8105 14.127L20.2617 15.8067C20.6979 16.1062 21.0169 16.4252 21.2188 16.7637C21.4271 17.0958 21.5312 17.4376 21.5312 17.7891C21.5312 18.0886 21.4596 18.3978 21.3164 18.7169C21.1797 19.0294 20.9648 19.3484 20.6719 19.6739C20.6328 19.7195 20.5938 19.7618 20.5547 19.8008C20.5221 19.8399 20.4863 19.8822 20.4473 19.9278C19.9525 20.4812 19.4056 20.8783 18.8066 21.1192C18.2142 21.3666 17.4915 21.4903 16.6387 21.4903ZM16.6484 20.0059C17.1888 19.9929 17.6868 19.892 18.1426 19.7032C18.5983 19.5144 18.9954 19.2279 19.334 18.8438C19.36 18.8113 19.3828 18.782 19.4023 18.7559C19.4284 18.7299 19.4544 18.7006 19.4805 18.668C19.7409 18.3685 19.8711 18.0723 19.8711 17.7794C19.8711 17.6296 19.8385 17.4929 19.7734 17.3692C19.7148 17.2455 19.6139 17.1381 19.4707 17.0469L17.1855 15.5137C17.0293 15.4161 16.873 15.3575 16.7168 15.3379C16.5671 15.3184 16.3978 15.351 16.209 15.4356L14.5684 16.2169C14.1126 16.4382 13.735 16.5326 13.4355 16.5001C13.1361 16.4675 12.8398 16.3438 12.5469 16.129C12.319 15.9727 12.0456 15.7644 11.7266 15.504C11.4076 15.2435 11.082 14.9669 10.75 14.6739C10.4245 14.3809 10.138 14.1107 9.89062 13.8633C9.51302 13.4922 9.12565 13.0626 8.72852 12.5743C8.33789 12.086 8.0026 11.6563 7.72266 11.2852C7.50781 10.9922 7.38737 10.7058 7.36133 10.4258C7.33529 10.1394 7.42969 9.82363 7.64453 9.47857L8.62109 7.91607C8.80339 7.61008 8.81641 7.34316 8.66016 7.11529L6.90234 4.47857C6.72656 4.21165 6.48242 4.07818 6.16992 4.07818C6.0332 4.07818 5.88672 4.11074 5.73047 4.17584C5.58073 4.24094 5.43099 4.3386 5.28125 4.46881C5.25521 4.49485 5.22591 4.52089 5.19336 4.54693C5.16732 4.56646 5.13802 4.58925 5.10547 4.61529C4.72135 4.95383 4.43164 5.35097 4.23633 5.8067C4.04753 6.25592 3.94987 6.74745 3.94336 7.28131C3.92383 8.11464 4.11263 9.01633 4.50977 9.98639C4.91341 10.9499 5.45703 11.92 6.14062 12.8965C6.82422 13.8666 7.59245 14.7748 8.44531 15.6212C9.28516 16.461 10.1803 17.2162 11.1309 17.8868C12.0879 18.5508 13.0384 19.0717 13.9824 19.4493C14.9329 19.8334 15.8216 20.0189 16.6484 20.0059Z" fill="#222631"/>
</svg>
