<svg width="24" height="24" viewBox="0 0 24 24" fill="none" xmlns="http://www.w3.org/2000/svg">
<path fill-rule="evenodd" clip-rule="evenodd" d="M5.4657 2.4223C5.8172 2.42881 6.15585 2.5363 6.48132 2.74456C6.80678 2.94635 7.12265 3.26552 7.42859 3.7016L9.35242 6.47503C9.59974 6.82649 9.70714 7.19782 9.67468 7.58832C9.64865 7.97232 9.54112 8.31429 9.35242 8.61371L8.47351 9.99066C8.31733 10.2314 8.2979 10.4562 8.41492 10.6645C8.57114 10.9444 8.8154 11.2863 9.14734 11.6899C9.47932 12.0935 9.82774 12.4809 10.1923 12.852C10.4396 13.0993 10.7099 13.3533 11.0028 13.6137C11.3022 13.8676 11.5823 14.0988 11.8427 14.3071C12.103 14.5088 12.3049 14.6554 12.4481 14.7465C12.5913 14.8312 12.7281 14.8767 12.8583 14.8832C12.9885 14.8832 13.1252 14.8507 13.2684 14.7856L14.7919 14.0434C15.2606 13.8221 15.6708 13.7179 16.0223 13.7309C16.3738 13.7439 16.7385 13.8775 17.1161 14.1313L19.5673 15.811C19.9968 16.1104 20.316 16.4296 20.5243 16.768C20.7326 17.0999 20.8367 17.442 20.8368 17.7934C20.8368 18.0928 20.7651 18.4022 20.6219 18.7211C20.4787 19.0336 20.2605 19.3527 19.9677 19.6782L19.7528 19.9321C19.2581 20.4854 18.7111 20.8826 18.1122 21.1235C17.5132 21.3709 16.7906 21.4946 15.9442 21.4946C15.0132 21.4946 14.0269 21.3058 12.9852 20.9282C11.9436 20.5506 10.8823 20.0004 9.80164 19.2778C8.72096 18.5551 7.65966 17.6729 6.61804 16.6313C5.57645 15.5897 4.69417 14.5284 3.97156 13.4477C3.24898 12.367 2.69874 11.3057 2.32117 10.2641C1.95015 9.21604 1.76453 8.22624 1.76453 7.29535C1.76455 6.73559 1.81663 6.2308 1.92078 5.78167C2.03146 5.33259 2.20078 4.92221 2.42859 4.55121C2.65643 4.18021 2.95602 3.83173 3.32703 3.50628C3.36603 3.46729 3.40521 3.43136 3.44421 3.39886C3.48972 3.35985 3.53216 3.32069 3.57117 3.28167C4.22214 2.69585 4.85378 2.40928 5.4657 2.4223ZM5.47546 4.08246C5.33878 4.08246 5.19221 4.11504 5.03601 4.18011C4.88633 4.24519 4.73647 4.34295 4.58679 4.47308L4.48914 4.55121C4.46315 4.57069 4.43699 4.5936 4.41101 4.61956C4.02698 4.95803 3.73718 5.35537 3.54187 5.81097C3.35311 6.26009 3.25545 6.75187 3.2489 7.28558C3.22937 8.11883 3.41826 9.02072 3.81531 9.99066C4.21241 10.9541 4.75289 11.9243 5.4364 12.9008C6.12646 13.8708 6.89481 14.7791 7.74109 15.6254C8.58739 16.4652 9.48594 17.2205 10.4364 17.891C11.3934 18.5551 12.344 19.0759 13.288 19.4535C14.2385 19.8377 15.1272 20.0232 15.954 20.0102C16.4943 19.9972 16.9924 19.8963 17.4481 19.7075C17.9038 19.5187 18.2978 19.2322 18.6298 18.8481L18.786 18.6723C19.0463 18.3729 19.1766 18.0765 19.1766 17.7836C19.1766 17.634 19.144 17.4971 19.079 17.3735C19.0204 17.2499 18.9194 17.1423 18.7762 17.0512L16.4911 15.518C16.3349 15.4204 16.1785 15.3617 16.0223 15.3422C15.8661 15.3227 15.6967 15.3553 15.5145 15.4399L13.8641 16.2211C13.4149 16.4425 13.0406 16.5369 12.7411 16.5043C12.4416 16.4718 12.1421 16.3481 11.8427 16.1332C11.6213 15.977 11.351 15.7686 11.0321 15.5082C10.7132 15.2479 10.3875 14.9711 10.0555 14.6782C9.7301 14.3853 9.44352 14.115 9.19617 13.8676C8.81862 13.4966 8.43113 13.0668 8.03406 12.5785C7.64351 12.0904 7.3081 11.6605 7.0282 11.2895C6.80695 10.9966 6.68314 10.71 6.6571 10.4301C6.63768 10.1437 6.73532 9.82775 6.95007 9.48285L7.91687 7.92035C8.10552 7.61447 8.1219 7.34736 7.9657 7.11957L6.20789 4.48285C6.03212 4.21609 5.78787 4.08246 5.47546 4.08246Z" fill="#222631"/>
<path d="M20.1239 2.53949C20.3842 2.53949 20.5764 2.60472 20.7001 2.7348C20.8302 2.86495 20.8986 3.05724 20.9052 3.31097V8.96527C20.9052 9.16701 20.8302 9.33639 20.6805 9.47308C20.5373 9.6098 20.3713 9.6749 20.1825 9.66839C19.9872 9.65537 19.8244 9.58375 19.6942 9.45355C19.5706 9.32337 19.5054 9.16049 19.4989 8.96527L19.5087 7.51019L19.6923 4.64789L18.1708 6.27972L13.9618 10.4887C13.8121 10.645 13.6428 10.7166 13.454 10.7035C13.2456 10.7101 13.0731 10.6482 12.9364 10.518C12.7998 10.3813 12.7281 10.2184 12.7216 10.0297C12.7217 9.83455 12.803 9.65201 12.9657 9.48285L17.1649 5.27386L18.7977 3.76507L15.9344 3.92621L14.4501 3.91644C14.2613 3.92295 14.1018 3.86436 13.9716 3.74066C13.8415 3.61699 13.773 3.46062 13.7665 3.27191C13.7471 3.07024 13.8056 2.89748 13.9423 2.75433C14.0855 2.61122 14.2548 2.53949 14.4501 2.53949H20.1239Z" fill="#222631"/>
</svg>
