<svg width="24" height="24" viewBox="0 0 24 24" fill="none" xmlns="http://www.w3.org/2000/svg">
<path fill-rule="evenodd" clip-rule="evenodd" d="M18.7275 11.6094C19.3896 11.6094 20.0334 11.7355 20.6582 11.9873C21.2829 12.2298 21.8427 12.5986 22.3369 13.0928C22.8262 13.5822 23.1921 14.1391 23.4346 14.7637C23.6864 15.3886 23.8103 16.0353 23.8057 16.7021C23.8056 17.3642 23.6795 18.0081 23.4277 18.6328C23.1853 19.2574 22.8216 19.8121 22.3369 20.2969C21.8427 20.7911 21.2851 21.162 20.665 21.4092C20.0449 21.6563 19.4012 21.7781 18.7344 21.7734C18.0722 21.7734 17.4286 21.6516 16.8037 21.4092C16.1835 21.162 15.6262 20.7912 15.1318 20.2969C14.6376 19.8026 14.2667 19.2452 14.0195 18.625C13.7771 18.0002 13.6562 17.3564 13.6562 16.6943C13.6516 16.0276 13.7724 15.3838 14.0195 14.7637C14.2667 14.1437 14.6377 13.5869 15.1318 13.0928C15.6262 12.5985 16.1835 12.2276 16.8037 11.9805C17.4239 11.7333 18.0654 11.6094 18.7275 11.6094ZM20.5391 14.2041C20.362 14.2041 20.2033 14.2744 20.0635 14.4141L18.7344 15.7432L17.4053 14.4141C17.2655 14.2743 17.1068 14.2042 16.9297 14.2041C16.7573 14.1994 16.5986 14.2697 16.4541 14.4141C16.3095 14.5586 16.2373 14.7203 16.2373 14.8975C16.2421 15.0698 16.3144 15.2255 16.4541 15.3652L17.7832 16.6943L16.4541 18.0234C16.3143 18.1632 16.2443 18.322 16.2441 18.499C16.2395 18.6716 16.3095 18.831 16.4541 18.9756C16.5986 19.1199 16.7595 19.1924 16.9365 19.1924C17.109 19.1877 17.2654 19.1154 17.4053 18.9756L18.7344 17.6465L20.0635 18.9756C20.2033 19.1152 20.3598 19.1877 20.5322 19.1924C20.7092 19.1923 20.8702 19.1199 21.0146 18.9756C21.1592 18.831 21.2293 18.6716 21.2246 18.499C21.2245 18.322 21.1544 18.1632 21.0146 18.0234L19.6855 16.6943L21.0146 15.3652C21.1542 15.2255 21.2267 15.0697 21.2314 14.8975C21.2314 14.7203 21.1592 14.5586 21.0146 14.4141C20.8702 14.2696 20.7115 14.1995 20.5391 14.2041Z" fill="#222631"/>
<path d="M20.1357 3.12305C21.1688 3.12313 21.9485 3.38611 22.4746 3.91211C23.0008 4.43196 23.2637 5.19953 23.2637 6.21387V11.2422C22.7063 10.7748 22.0753 10.3929 21.3906 10.1152V6.375C21.3906 5.91896 21.2733 5.57679 21.0391 5.34863C20.8045 5.11407 20.4677 4.99609 20.0303 4.99609H3.96875C3.52527 4.99618 3.18663 5.11421 2.95215 5.34863C2.72399 5.57679 2.60944 5.91875 2.60938 6.375V16.5361L5.22461 14.1924C5.42114 14.0085 5.61792 13.8754 5.81445 13.793C6.01724 13.7043 6.22938 13.6592 6.45117 13.6592C6.67306 13.6592 6.89187 13.7076 7.10742 13.8027C7.32923 13.8915 7.53889 14.0247 7.73535 14.2021L9.49414 15.79L12.8994 12.7383C12.1579 13.8519 11.7266 15.1898 11.7266 16.6279C11.7266 18.2251 12.2604 19.6969 13.1582 20.877H3.85547C2.82852 20.877 2.05158 20.6174 1.52539 20.0977C0.999202 19.5778 0.736328 18.8102 0.736328 17.7959V6.21387C0.736328 5.19953 0.999202 4.43196 1.52539 3.91211C2.05158 3.38606 2.82859 3.12305 3.85547 3.12305H20.1357Z" fill="#222631"/>
<path d="M8.10547 7.61133C8.52388 7.61133 8.90473 7.71657 9.24707 7.92578C9.5893 8.12863 9.86163 8.40433 10.0645 8.75293C10.2736 9.10151 10.3788 9.48161 10.3789 9.89355C10.3789 10.312 10.2737 10.6962 10.0645 11.0449C9.86161 11.3934 9.58927 11.6693 9.24707 11.8721C8.90474 12.0749 8.52388 12.1758 8.10547 12.1758C7.6872 12.1757 7.30365 12.0749 6.95508 11.8721C6.61284 11.6693 6.33711 11.3935 6.12793 11.0449C5.92506 10.6962 5.82324 10.312 5.82324 9.89355C5.8233 9.48165 5.92516 9.10149 6.12793 8.75293C6.33709 8.40433 6.61285 8.12864 6.95508 7.92578C7.30365 7.71664 7.6872 7.61139 8.10547 7.61133Z" fill="#222631"/>
</svg>
