<svg width="24" height="24" viewBox="0 0 24 24" fill="none" xmlns="http://www.w3.org/2000/svg">
<path d="M8.10547 7.61133C8.52388 7.61133 8.90473 7.71657 9.24707 7.92578C9.5893 8.12863 9.86163 8.40433 10.0645 8.75293C10.2736 9.10151 10.3788 9.48161 10.3789 9.89355C10.3789 10.312 10.2737 10.6962 10.0645 11.0449C9.86161 11.3934 9.58927 11.6693 9.24707 11.8721C8.90474 12.0749 8.52388 12.1758 8.10547 12.1758C7.6872 12.1757 7.30365 12.0749 6.95508 11.8721C6.61284 11.6693 6.33711 11.3935 6.12793 11.0449C5.92506 10.6962 5.82324 10.312 5.82324 9.89355C5.8233 9.48165 5.92516 9.10149 6.12793 8.75293C6.33709 8.40433 6.61285 8.12864 6.95508 7.92578C7.30365 7.71664 7.6872 7.61139 8.10547 7.61133Z" fill="#222631"/>
<path fill-rule="evenodd" clip-rule="evenodd" d="M20.1357 3.12305C21.1688 3.12313 21.9485 3.38611 22.4746 3.91211C23.0008 4.43196 23.2637 5.19953 23.2637 6.21387V17.7959C23.2637 18.8102 23.0008 19.5778 22.4746 20.0977C21.9485 20.6174 21.1688 20.8769 20.1357 20.877H3.85547C2.82852 20.877 2.05158 20.6174 1.52539 20.0977C0.999202 19.5778 0.736328 18.8102 0.736328 17.7959V6.21387C0.736328 5.19953 0.999202 4.43196 1.52539 3.91211C2.05158 3.38606 2.82859 3.12305 3.85547 3.12305H20.1357ZM3.96875 4.99609C3.52527 4.99618 3.18663 5.11421 2.95215 5.34863C2.72399 5.57679 2.60944 5.91875 2.60938 6.375V16.5361L5.22461 14.1924C5.42114 14.0085 5.61792 13.8754 5.81445 13.793C6.01724 13.7043 6.22938 13.6592 6.45117 13.6592C6.67306 13.6592 6.89187 13.7076 7.10742 13.8027C7.32923 13.8915 7.53889 14.0247 7.73535 14.2021L9.49414 15.79L13.7832 11.9482C14.0051 11.7581 14.2332 11.6146 14.4678 11.5195C14.7021 11.4246 14.9493 11.377 15.209 11.377C15.4626 11.377 15.7103 11.4279 15.9512 11.5293C16.1984 11.6244 16.4266 11.7703 16.6357 11.9668L21.3906 16.4238V6.375C21.3906 5.91896 21.2733 5.57679 21.0391 5.34863C20.8045 5.11407 20.4677 4.99609 20.0303 4.99609H3.96875Z" fill="#222631"/>
</svg>
