<svg width="24" height="24" viewBox="0 0 24 24" fill="none" xmlns="http://www.w3.org/2000/svg">
<path fill-rule="evenodd" clip-rule="evenodd" d="M19.8135 3.79102C20.8064 3.79105 21.5559 4.04418 22.0615 4.5498C22.5669 5.04934 22.8193 5.78624 22.8193 6.76074V17.8916C22.8193 18.8661 22.567 19.603 22.0615 20.1025C21.5559 20.6021 20.8064 20.8525 19.8135 20.8525H4.16895C3.18201 20.8525 2.43534 20.6021 1.92969 20.1025C1.42414 19.603 1.17095 18.8662 1.1709 17.8916V6.76074C1.17092 5.78616 1.42417 5.04935 1.92969 4.5498C2.43534 4.04415 3.18201 3.79102 4.16895 3.79102H19.8135ZM15.6006 11.8965C15.0645 11.8965 14.58 12.0888 14.1475 12.4727L9.8252 16.3193L8.08887 14.7568C7.68683 14.3913 7.25126 14.209 6.78223 14.209C6.57522 14.209 6.36814 14.2544 6.16113 14.3457C5.96016 14.431 5.75859 14.5617 5.55762 14.7383L2.97168 16.9961V17.7178C2.9717 18.1381 3.09055 18.4675 3.32812 18.7051C3.56569 18.9424 3.89163 19.0605 4.30566 19.0605H19.6943C20.0964 19.0605 20.4167 18.9454 20.6543 18.7139C20.8979 18.4763 21.0195 18.1504 21.0195 17.7363V16.1729L17.0264 12.4814C16.8193 12.2865 16.5906 12.1404 16.3408 12.043C16.0911 11.9455 15.8443 11.8965 15.6006 11.8965ZM8.29883 7.94922C7.87854 7.94925 7.49466 8.05266 7.14746 8.25977C6.80647 8.46684 6.53227 8.74374 6.3252 9.09082C6.11806 9.43198 6.01465 9.81034 6.01465 10.2246C6.01471 10.6448 6.11812 11.0288 6.3252 11.376C6.5323 11.717 6.8064 11.9912 7.14746 12.1982C7.49466 12.4053 7.87854 12.5088 8.29883 12.5088C8.70693 12.5088 9.08174 12.4053 9.42285 12.1982C9.77008 11.9911 10.0478 11.7171 10.2549 11.376C10.462 11.0288 10.5654 10.6448 10.5654 10.2246C10.5654 9.81034 10.462 9.43198 10.2549 9.09082C10.0478 8.74361 9.77007 8.46688 9.42285 8.25977C9.0817 8.05264 8.70699 7.94922 8.29883 7.94922Z" fill="#222631"/>
</svg>
