<svg width="24" height="24" viewBox="0 0 24 24" fill="none" xmlns="http://www.w3.org/2000/svg">
<path d="M7.63979 3.49989C8.03321 3.50127 8.41921 3.60656 8.75903 3.80482L19.4909 10.065C19.8295 10.2615 20.1115 10.5437 20.307 10.8828C20.5025 11.2219 20.6054 11.6063 20.6058 11.9977C20.6061 12.3892 20.5037 12.7739 20.3087 13.1134C20.1382 13.4104 19.9023 13.6637 19.6194 13.8543L19.4953 13.9321L8.75903 20.1949C8.41919 20.3932 8.03324 20.4985 7.63979 20.4999C7.24628 20.5012 6.85916 20.3988 6.51793 20.2028C6.17667 20.0068 5.89286 19.7239 5.69576 19.3833C5.49876 19.0427 5.39509 18.6557 5.3952 18.2623V5.73749C5.39509 5.34397 5.49871 4.95713 5.69576 4.61651C5.89286 4.27586 6.17667 3.993 6.51793 3.79696C6.85914 3.60099 7.24631 3.49856 7.63979 3.49989Z" fill="#222631"/>
</svg>
