<svg width="24" height="24" viewBox="0 0 24 24" fill="none" xmlns="http://www.w3.org/2000/svg">
<path d="M22.0049 15.2716C22.0048 16.1554 21.8368 16.9136 21.501 17.5441C21.1592 18.1743 20.679 18.6584 20.0605 18.9943C19.4417 19.3302 18.7128 19.4972 17.876 19.4972H17.3545V21.5929C17.3543 22.0167 17.2451 22.3563 17.0273 22.6095C16.8094 22.8626 16.5057 22.9902 16.1172 22.9904C15.8463 22.9904 15.5921 22.9216 15.3564 22.7863C15.1149 22.6507 14.828 22.4382 14.498 22.1496L11.4844 19.4972H8.09863V17.5343H11.6162C11.8988 17.5343 12.126 17.5702 12.2969 17.6408C12.4618 17.7057 12.6455 17.839 12.8457 18.0392L15.6396 20.7882V18.2951C15.6396 18.0182 15.7006 17.8231 15.8242 17.7111C15.9479 17.5932 16.1402 17.5344 16.3994 17.5343H17.6816C18.477 17.5343 19.07 17.3372 19.459 16.9425C19.8479 16.5477 20.0429 15.9605 20.043 15.1828V15.1124H22.0049V15.2716Z" fill="#222631"/>
<path d="M3.92383 15.1828C3.9239 15.9606 4.11886 16.5477 4.50781 16.9425C4.89684 17.3371 5.48401 17.5343 6.26758 17.5343H6.59863V19.4972H6.1875C5.29183 19.4972 4.53094 19.3301 3.90625 18.9943C3.27594 18.6585 2.79589 18.1742 2.46582 17.5441C2.12995 16.9136 1.96105 16.1554 1.96094 15.2716V15.1124H3.92383V15.1828Z" fill="#222631"/>
<path d="M20.3086 5.26284L12.248 13.3244L10.1953 14.1974C10.0687 14.2417 9.95142 14.2137 9.84375 14.1124C9.7361 14.0048 9.71061 13.8876 9.76758 13.7609L10.6709 11.755L18.7217 3.69448L20.3086 5.26284Z" fill="#222631"/>
<path d="M3.92383 13.6124H1.96094V10.0402H3.92383V13.6124Z" fill="#222631"/>
<path d="M22.0049 13.6124H20.043V9.43471L22.0049 7.5187V13.6124Z" fill="#222631"/>
<path d="M6.59863 6.0851H6.28516C5.48966 6.0851 4.89684 6.28222 4.50781 6.6769C4.11893 7.07182 3.92383 7.65586 3.92383 8.42788V8.54018H1.96094V8.34878C1.96094 7.46493 2.1262 6.70688 2.45605 6.07631C2.792 5.44568 3.27565 4.96209 3.90625 4.62612C4.53686 4.2843 5.30051 4.11347 6.19629 4.11342H6.59863V6.0851Z" fill="#222631"/>
<path d="M13.0947 6.0851H8.09863V4.11342H15.0654L13.0947 6.0851Z" fill="#222631"/>
<path d="M20.8135 1.96401C21.0729 1.93889 21.294 2.01287 21.4775 2.18374L21.7539 2.45913C21.9502 2.65552 22.0444 2.88398 22.0381 3.1437C22.0316 3.40327 21.9248 3.63443 21.7158 3.83706L21.0508 4.52163L19.4727 2.93471L20.1377 2.27846C20.3278 2.08843 20.5537 1.98302 20.8135 1.96401Z" fill="#222631"/>
</svg>
