<svg width="24" height="24" viewBox="0 0 24 24" fill="none" xmlns="http://www.w3.org/2000/svg">
<path d="M4.72363 15.9668C4.74342 17.0285 5.04056 17.8398 5.61426 18.4004C6.16164 18.9544 6.96653 19.2483 8.02832 19.2812V21.2295C7.20404 21.2097 6.46535 21.0779 5.8125 20.834C5.16619 20.5966 4.62472 20.2573 4.18945 19.8154C3.28597 18.9185 2.81496 17.6353 2.77539 15.9668H4.72363Z" fill="#222631"/>
<path d="M14.5273 21.2295H9.48242V19.2812H14.5273V21.2295Z" fill="#222631"/>
<path d="M21.2246 15.9668C21.1916 17.6353 20.7197 18.9185 19.8096 19.8154C18.9061 20.7253 17.6236 21.1965 15.9619 21.2295V19.2812C17.0303 19.2483 17.8415 18.9544 18.3955 18.4004C18.956 17.8398 19.249 17.0285 19.2754 15.9668H21.2246Z" fill="#222631"/>
<path d="M11.9902 7.42969C12.2671 7.42971 12.4916 7.51511 12.6631 7.68652C12.8411 7.85795 12.9296 8.08248 12.9297 8.35938V11.0703H15.6406C15.9175 11.0704 16.1421 11.1589 16.3135 11.3369C16.4849 11.5084 16.5703 11.7329 16.5703 12.0098C16.5703 12.2735 16.4849 12.4916 16.3135 12.6631C16.1421 12.8345 15.9175 12.9199 15.6406 12.9199H12.9297V15.6406C12.9296 15.9109 12.8411 16.1355 12.6631 16.3135C12.4916 16.4849 12.2671 16.5703 11.9902 16.5703C11.7265 16.5703 11.5084 16.4849 11.3369 16.3135C11.1655 16.1355 11.0801 15.9109 11.0801 15.6406V12.9199H8.36914C8.0923 12.9199 7.86452 12.8345 7.68652 12.6631C7.51508 12.4916 7.42969 12.2735 7.42969 12.0098C7.42971 11.7329 7.51511 11.5084 7.68652 11.3369C7.85793 11.1589 8.08571 11.0704 8.36914 11.0703H11.0801V8.35938C11.0801 8.08928 11.1657 7.86864 11.3369 7.69727C11.5084 7.5192 11.7264 7.42969 11.9902 7.42969Z" fill="#222631"/>
<path d="M4.72363 14.5225H2.77539V9.49707H4.72363V14.5225Z" fill="#222631"/>
<path d="M21.2246 14.5225H19.2861V9.49707H21.2246V14.5225Z" fill="#222631"/>
<path d="M8.02832 4.71875C6.96653 4.75172 6.16164 5.04563 5.61426 5.59961C5.04717 6.15355 4.75004 6.9713 4.72363 8.05273H2.77539C2.7886 7.21526 2.91397 6.4734 3.15137 5.82715C3.39538 5.17428 3.74101 4.62642 4.18945 4.18457C4.62472 3.7493 5.16619 3.41003 5.8125 3.16602C6.46534 2.92206 7.20405 2.79029 8.02832 2.77051V4.71875Z" fill="#222631"/>
<path d="M15.9619 2.77051C17.6236 2.80348 18.9061 3.27477 19.8096 4.18457C20.258 4.62643 20.6014 5.17425 20.8389 5.82715C21.0829 6.4734 21.2114 7.21526 21.2246 8.05273H19.2861C19.2531 6.97128 18.956 6.15355 18.3955 5.59961C17.8415 5.04563 17.0303 4.75173 15.9619 4.71875V2.77051Z" fill="#222631"/>
<path d="M14.5273 4.71875H9.48242V2.77051H14.5273V4.71875Z" fill="#222631"/>
</svg>
