<svg width="24" height="24" viewBox="0 0 24 24" fill="none" xmlns="http://www.w3.org/2000/svg">
<path d="M8.94798 3.30664C8.01975 3.30672 7.31901 3.54355 6.84599 4.01658C6.36709 4.48377 6.12781 5.17293 6.12781 6.08354V9.69403C6.12772 9.78818 6.09795 9.84989 6.03919 9.8795C5.9742 9.90313 5.89698 9.88595 5.80838 9.82695C5.65462 9.71459 5.49148 9.61375 5.31998 9.52505C5.14264 9.4364 4.9532 9.36495 4.75223 9.31176C4.55132 9.25862 4.33558 9.23243 4.10515 9.23242C3.5729 9.23242 3.09924 9.35368 2.68527 9.59614C2.26556 9.83859 1.93437 10.173 1.69197 10.5987C1.44962 11.0185 1.32825 11.4947 1.32825 12.0268C1.32828 12.5531 1.44954 13.0292 1.69197 13.455C1.93441 13.8807 2.26548 14.2151 2.68527 14.4575C3.09924 14.7 3.5729 14.8213 4.10515 14.8213C4.33563 14.8212 4.55128 14.794 4.75223 14.7409C4.95314 14.6877 5.14269 14.6172 5.31998 14.5286C5.49148 14.4399 5.65462 14.3414 5.80838 14.235C5.89695 14.1701 5.97422 14.1529 6.03919 14.1824C6.09809 14.2062 6.12781 14.2652 6.12781 14.3596V17.9083C6.12787 18.8247 6.36713 19.5164 6.84599 19.9835C7.31901 20.4565 8.01975 20.6934 8.94798 20.6934H19.8773C20.7938 20.6934 21.4887 20.4541 21.9618 19.9753C22.4349 19.5022 22.6717 18.804 22.6718 17.8815V14.1206C22.6718 13.8072 22.5676 13.5579 22.3606 13.3746C22.1538 13.1916 21.9117 13.0996 21.6341 13.0995C21.4746 13.0995 21.3146 13.1357 21.155 13.2066C20.9894 13.2776 20.8353 13.3841 20.6934 13.5261C20.5634 13.6561 20.4124 13.7946 20.2411 13.9423C20.0696 14.0842 19.8598 14.2089 19.6115 14.3153C19.3631 14.4159 19.064 14.4658 18.7151 14.4658C18.2717 14.4657 17.8668 14.3568 17.5002 14.1381C17.1336 13.9193 16.8435 13.6258 16.6306 13.2592C16.4119 12.8926 16.3019 12.4844 16.3019 12.0351C16.3079 11.5799 16.4211 11.1693 16.6398 10.8027C16.8527 10.4302 17.1418 10.1367 17.5085 9.92381C17.8692 9.71093 18.2716 9.60441 18.7151 9.60439C19.064 9.60439 19.3631 9.65532 19.6115 9.75585C19.8596 9.85633 20.0697 9.98011 20.2411 10.1278C20.4125 10.2697 20.5633 10.4058 20.6934 10.5359C20.8353 10.6837 20.9894 10.7936 21.155 10.8646C21.3146 10.9295 21.4746 10.9624 21.6341 10.9624C21.9119 10.9623 22.1537 10.8728 22.3606 10.6956C22.5675 10.5123 22.6717 10.2615 22.6718 9.94235V6.11858C22.6717 5.19021 22.4348 4.48967 21.9618 4.01658C21.4887 3.54348 20.7939 3.30665 19.8773 3.30664H8.94798Z" fill="#222631"/>
</svg>
