<svg width="24" height="24" viewBox="0 0 24 24" fill="none" xmlns="http://www.w3.org/2000/svg">
<path fill-rule="evenodd" clip-rule="evenodd" d="M20.6008 2.83813C21.5544 2.83813 22.2872 3.08759 22.7983 3.5862C23.3092 4.08479 23.5644 4.80452 23.5645 5.74547V9.86841C23.5645 10.2922 23.443 10.6286 23.2 10.8779C22.9507 11.121 22.6454 11.2424 22.284 11.2424C22.0845 11.2424 21.8908 11.2022 21.7038 11.1212C21.5109 11.0403 21.3243 10.9218 21.1437 10.7663C20.9256 10.5731 20.6941 10.4205 20.451 10.3083C20.208 10.1899 19.9494 10.1298 19.6753 10.1298C19.1705 10.1299 18.7372 10.3014 18.3757 10.6441C18.0142 10.9869 17.8338 11.4424 17.8338 12.0095C17.8338 12.5765 18.0145 13.0313 18.3757 13.374C18.7372 13.7105 19.1705 13.8787 19.6753 13.8788C19.9494 13.8788 20.2081 13.8229 20.451 13.7108C20.6941 13.5924 20.9256 13.4365 21.1437 13.2433C21.3243 13.0877 21.5109 12.9693 21.7038 12.8883C21.8908 12.8073 22.0845 12.7662 22.284 12.7662C22.6453 12.7662 22.9507 12.8911 23.2 13.1402C23.443 13.3895 23.5645 13.7236 23.5645 14.1411V18.245C23.5645 19.1859 23.3091 19.9057 22.7983 20.4043C22.2872 20.9091 21.5544 21.1619 20.6008 21.1619H9.07358C8.12009 21.1618 7.39049 20.9091 6.88569 20.4043C6.37491 19.9057 6.11949 19.1859 6.11949 18.245V15.1134C6.11949 15.0388 6.09475 14.9886 6.04507 14.9636C5.99521 14.9325 5.92292 14.9481 5.82943 15.0104C5.64882 15.1349 5.45907 15.2442 5.25979 15.3377C5.05425 15.4311 4.839 15.5058 4.61478 15.5619C4.38417 15.618 4.14369 15.6459 3.89439 15.6459C3.29619 15.6458 2.73232 15.4964 2.20266 15.1974C1.67288 14.892 1.24531 14.4677 0.921216 13.9255C0.597338 13.3835 0.435605 12.748 0.435547 12.0191C0.435547 11.2963 0.597287 10.6634 0.921216 10.1213C1.24531 9.57902 1.67288 9.15807 2.20266 8.8589C2.73235 8.55982 3.29616 8.41046 3.89439 8.41045C4.14369 8.41045 4.38417 8.43832 4.61478 8.49441C4.83898 8.54427 5.05426 8.61899 5.25979 8.71864C5.45907 8.81208 5.64882 8.92137 5.82943 9.04592C5.92292 9.10201 5.99521 9.1176 6.04507 9.09267C6.09483 9.0615 6.11949 9.00804 6.11949 8.93333V5.74547C6.11951 4.8046 6.37487 4.08478 6.88569 3.5862C7.39049 3.08762 8.12009 2.83817 9.07358 2.83813H20.6008ZM9.10221 4.5957C8.71578 4.5957 8.41625 4.70484 8.20434 4.92298C7.98629 5.13484 7.87711 5.43695 7.87706 5.82944V9.86841C7.87706 10.2922 7.75562 10.6319 7.51257 10.8875C7.26332 11.1429 6.95796 11.271 6.59658 11.271C6.3909 11.271 6.19388 11.2299 6.0069 11.1489C5.82009 11.0679 5.63598 10.9463 5.4554 10.7844C5.23122 10.5976 4.99788 10.4447 4.75504 10.3264C4.51197 10.208 4.2559 10.1489 3.9879 10.1489C3.48308 10.1489 3.0498 10.3204 2.68833 10.6632C2.32692 11.006 2.14636 11.4582 2.14636 12.0191C2.14644 12.5861 2.32693 13.0441 2.68833 13.3931C3.0498 13.7359 3.48308 13.9074 3.9879 13.9074C4.2559 13.9074 4.51197 13.8483 4.75504 13.7299C4.99791 13.6116 5.2312 13.4554 5.4554 13.2624C5.63607 13.1066 5.82 12.9875 6.0069 12.9065C6.19388 12.8254 6.3909 12.7853 6.59658 12.7853C6.95796 12.7853 7.26332 12.9134 7.51257 13.1689C7.75555 13.4244 7.87706 13.7642 7.87706 14.1879V18.161C7.87708 18.5598 7.98626 18.8651 8.20434 19.077C8.41625 19.2889 8.71578 19.3948 9.10221 19.3948H20.5732C20.9595 19.3947 21.2615 19.2889 21.4796 19.077C21.6977 18.8651 21.8069 18.5599 21.8069 18.161V15.2069C21.8069 15.0139 21.7666 14.9261 21.6857 14.9446C21.5984 14.9633 21.5106 15.001 21.4233 15.0571C21.2427 15.163 21.0562 15.26 20.8632 15.3472C20.6701 15.4282 20.4672 15.493 20.2554 15.5428C20.0435 15.5927 19.8219 15.6182 19.5913 15.6182C18.987 15.6182 18.423 15.4687 17.8996 15.1697C17.3698 14.8706 16.9422 14.4496 16.6181 13.9074C16.2878 13.3652 16.123 12.7325 16.1229 12.0095C16.1229 11.2804 16.2879 10.6444 16.6181 10.1022C16.9422 9.55994 17.3698 9.13899 17.8996 8.83982C18.423 8.54081 18.9869 8.39137 19.5913 8.39136C19.8219 8.39136 20.0435 8.41593 20.2554 8.46579C20.4673 8.50942 20.6701 8.57511 20.8632 8.66234C21.0563 8.74954 21.2427 8.84986 21.4233 8.96195C21.5106 9.01181 21.5984 9.04866 21.6857 9.07359C21.7667 9.09218 21.8069 9.00196 21.8069 8.80261V5.82944C21.8068 5.4369 21.6977 5.13485 21.4796 4.92298C21.2615 4.7049 20.9595 4.59573 20.5732 4.5957H9.10221Z" fill="#222631"/>
</svg>
