<svg width="24" height="24" viewBox="0 0 24 24" fill="none" xmlns="http://www.w3.org/2000/svg">
<path fill-rule="evenodd" clip-rule="evenodd" d="M14.2767 7.44757C14.9563 7.44757 15.5075 7.65567 15.9298 8.07136C16.3585 8.48042 16.5734 9.01515 16.5734 9.67486V19.3493C16.5733 20.0089 16.3586 20.5438 15.9298 20.9528C15.5075 21.3617 14.9561 21.5654 14.2767 21.5654H7.23064C6.55118 21.5654 5.99645 21.3617 5.56761 20.9528C5.14542 20.5438 4.93399 20.0089 4.9339 19.3493V9.67486C4.9339 9.01512 5.14544 8.48043 5.56761 8.07136C5.99649 7.65567 6.55102 7.44757 7.23064 7.44757H14.2767ZM7.43774 9.21849C7.2136 9.21857 7.03512 9.2817 6.90324 9.40699C6.77802 9.53229 6.71602 9.69744 6.71598 9.9018V19.1211C6.71598 19.3188 6.7781 19.4806 6.90324 19.606C7.03512 19.7247 7.2136 19.7845 7.43774 19.7845H14.0696C14.3002 19.7844 14.4821 19.7246 14.614 19.606C14.7457 19.4807 14.8112 19.3188 14.8112 19.1211V9.9018C14.8111 9.69748 14.7457 9.53229 14.614 9.40699C14.4821 9.28172 14.3002 9.21859 14.0696 9.21849H7.43774Z" fill="#222631"/>
<path d="M14.0045 0.539663C14.2984 0.321305 14.5736 0.257941 14.8298 0.348228C15.0939 0.438764 15.2269 0.684319 15.2269 1.08419V2.39588H15.5318C16.5126 2.39588 17.3732 2.60344 18.1126 3.0184C18.8519 3.42576 19.4291 4.00306 19.844 4.74982C20.2665 5.48921 20.4779 6.35364 20.4779 7.342V8.70048C20.4778 8.90399 20.4018 9.08147 20.251 9.23225C20.1077 9.3754 19.938 9.44637 19.7419 9.44637C19.5383 9.44636 19.361 9.37545 19.2102 9.23225C19.0669 9.08147 18.9947 8.90399 18.9946 8.70048V7.342C18.9946 6.63279 18.8478 6.01012 18.5536 5.47444C18.2669 4.93885 17.8631 4.52361 17.3426 4.2294C16.8296 3.92771 16.2258 3.77705 15.5318 3.77705H15.2269V5.04478C15.2268 5.4219 15.0939 5.65998 14.8298 5.75805C14.5735 5.84824 14.2985 5.77988 14.0045 5.55385L11.3216 3.58419C11.1031 3.41832 10.994 3.2409 10.994 3.05243C10.9942 2.864 11.1031 2.69031 11.3216 2.53201L14.0045 0.539663Z" fill="#222631"/>
</svg>
