<svg width="24" height="24" viewBox="0 0 24 24" fill="none" xmlns="http://www.w3.org/2000/svg">
<path d="M4.04601 20.3381C3.04306 20.3381 2.28465 20.0812 1.77079 19.5673C1.25693 19.0597 1 18.3105 1 17.32V6.01815C1 5.02139 1.25693 4.26917 1.77079 3.7615C2.28465 3.25383 3.04306 3 4.04601 3H19.9447C20.9538 3 21.7154 3.25383 22.2292 3.7615C22.7431 4.26917 23 5.02139 23 6.01815V17.32C23 18.3105 22.7431 19.0597 22.2292 19.5673C21.7154 20.0812 20.9538 20.3381 19.9447 20.3381H4.04601ZM4.15745 18.5087H19.8425C20.2697 18.5087 20.5979 18.3972 20.8269 18.1743C21.056 17.9515 21.1705 17.614 21.1705 17.1621V6.16674C21.1705 5.72098 21.056 5.38666 20.8269 5.16378C20.5979 4.9409 20.2697 4.82946 19.8425 4.82946H4.15745C3.72407 4.82946 3.39285 4.9409 3.16378 5.16378C2.9409 5.38666 2.82946 5.72098 2.82946 6.16674V17.1621C2.82946 17.614 2.9409 17.9515 3.16378 18.1743C3.39285 18.3972 3.72407 18.5087 4.15745 18.5087ZM13.8898 18.8058V4.51372H15.6264V18.8058H13.8898ZM17.4466 8.22837C17.2794 8.22837 17.134 8.16646 17.0101 8.04263C16.8925 7.91881 16.8337 7.78261 16.8337 7.63402C16.8337 7.47305 16.8925 7.33376 17.0101 7.21613C17.134 7.09849 17.2794 7.03968 17.4466 7.03968H19.3504C19.5113 7.03968 19.6506 7.09849 19.7683 7.21613C19.8921 7.33376 19.954 7.47305 19.954 7.63402C19.954 7.78261 19.8921 7.91881 19.7683 8.04263C19.6506 8.16646 19.5113 8.22837 19.3504 8.22837H17.4466ZM17.4466 10.7172C17.2794 10.7172 17.134 10.6584 17.0101 10.5407C16.8925 10.4169 16.8337 10.2745 16.8337 10.1136C16.8337 9.95877 16.8925 9.82257 17.0101 9.70494C17.134 9.58731 17.2794 9.52849 17.4466 9.52849H19.3504C19.5113 9.52849 19.6506 9.58731 19.7683 9.70494C19.8921 9.82257 19.954 9.95877 19.954 10.1136C19.954 10.2745 19.8921 10.4169 19.7683 10.5407C19.6506 10.6584 19.5113 10.7172 19.3504 10.7172H17.4466ZM17.4466 13.1967C17.2794 13.1967 17.134 13.1379 17.0101 13.0203C16.8925 12.9026 16.8337 12.7664 16.8337 12.6117C16.8337 12.4507 16.8925 12.3114 17.0101 12.1938C17.134 12.0761 17.2794 12.0173 17.4466 12.0173H19.3504C19.5113 12.0173 19.6506 12.0761 19.7683 12.1938C19.8921 12.3114 19.954 12.4507 19.954 12.6117C19.954 12.7664 19.8921 12.9026 19.7683 13.0203C19.6506 13.1379 19.5113 13.1967 19.3504 13.1967H17.4466Z" fill="#222631"/>
</svg>
