<svg width="24" height="24" viewBox="0 0 24 24" fill="none" xmlns="http://www.w3.org/2000/svg">
<path d="M12 7C12.1394 7 12.2751 7.02583 12.4072 7.07715C12.5467 7.12855 12.6867 7.2204 12.8262 7.35254L15.7139 10.1406C15.8018 10.2287 15.8715 10.3241 15.9229 10.4268C15.9742 10.5222 16 10.6399 16 10.7793C16 11.0364 15.9048 11.25 15.7139 11.4189C15.5303 11.5805 15.3243 11.6611 15.0967 11.6611C14.8322 11.6611 14.6041 11.5548 14.4131 11.3418L13.3223 10.1953L12.9629 9.70898L13.0469 10.8232V15.1318C13.0469 15.411 12.9439 15.6537 12.7383 15.8594C12.5326 16.0577 12.2865 16.1572 12 16.1572C11.7135 16.1572 11.4674 16.0577 11.2617 15.8594C11.0561 15.6537 10.9531 15.411 10.9531 15.1318V10.8232L11.0283 9.72656L10.6777 10.1953L9.59766 11.3418C9.39935 11.5547 9.16771 11.6611 8.90332 11.6611C8.66837 11.6611 8.45896 11.5805 8.27539 11.4189C8.09174 11.25 8 11.0364 8 10.7793C8.00004 10.6399 8.02576 10.5222 8.07715 10.4268C8.12851 10.3241 8.19815 10.2287 8.28613 10.1406L11.1846 7.35254C11.3241 7.22033 11.4606 7.12857 11.5928 7.07715C11.7322 7.02583 11.8679 7 12 7Z" fill="#222631"/>
<path fill-rule="evenodd" clip-rule="evenodd" d="M12 1C12.1775 1 12.362 1.01821 12.5537 1.05371C12.7524 1.0892 12.9407 1.13099 13.1182 1.18066C13.3454 1.25877 13.669 1.37237 14.0879 1.52148C14.5138 1.67055 14.9821 1.83791 15.4932 2.02246C16.0115 2.19998 16.5268 2.38081 17.0381 2.56543C17.5563 2.75 18.0281 2.92461 18.4541 3.08789C18.8801 3.2441 19.211 3.37129 19.4453 3.4707C19.9775 3.69779 20.3677 3.95714 20.6162 4.24805C20.8718 4.53912 21 5.00103 21 5.63281V13.6855C21 14.6581 20.8545 15.51 20.5635 16.2412C20.2795 16.9654 19.8141 17.6435 19.168 18.2754C18.5289 18.9002 17.6801 19.5428 16.6221 20.2031C15.5712 20.8635 14.2788 21.6133 12.7451 22.4512C12.6104 22.522 12.4756 22.5749 12.3408 22.6104C12.2059 22.653 12.0923 22.6748 12 22.6748C11.9077 22.6748 11.7941 22.653 11.6592 22.6104C11.5244 22.5749 11.3896 22.522 11.2549 22.4512C9.72137 21.6134 8.4251 20.8607 7.36719 20.1934C6.3163 19.533 5.46744 18.8895 4.82129 18.2646C4.18235 17.6399 3.71687 16.9654 3.42578 16.2412C3.14186 15.51 3.00003 14.6581 3 13.6855V5.63281C3.00004 5.00103 3.12457 4.53912 3.37305 4.24805C3.62863 3.95004 4.01887 3.6907 4.54395 3.4707C4.77826 3.37129 5.10912 3.24046 5.53516 3.07715C5.96111 2.91387 6.43295 2.73926 6.95117 2.55469C7.46951 2.36297 7.98485 2.17485 8.49609 1.99023C9.01412 1.80573 9.48264 1.64292 9.90137 1.50098C10.3274 1.35186 10.6583 1.24457 10.8926 1.18066C11.0629 1.13809 11.244 1.09896 11.4355 1.06348C11.6343 1.02089 11.8225 1 12 1ZM12 3.00195C11.9219 3.00195 11.8364 3.01288 11.7441 3.03418C11.659 3.05547 11.5561 3.08733 11.4355 3.12988C11.1515 3.24349 10.8107 3.37167 10.4131 3.51367C10.0226 3.65568 9.59995 3.80472 9.14551 3.96094C8.69108 4.11715 8.23301 4.27712 7.77148 4.44043C7.31718 4.6037 6.88074 4.76375 6.46191 4.91992C6.05008 5.06903 5.68743 5.20715 5.375 5.33496C5.22601 5.39174 5.12685 5.46635 5.07715 5.55859C5.02747 5.65085 5.00198 5.78918 5.00195 5.97363V13.291C5.00195 14.0721 5.10925 14.7365 5.32227 15.2832C5.53525 15.8296 5.88271 16.3372 6.36523 16.8057C6.85512 17.2671 7.50876 17.7608 8.3252 18.2861C9.14883 18.8116 10.1677 19.4442 11.3818 20.1826C11.5379 20.2749 11.6589 20.3385 11.7441 20.374C11.8364 20.4095 11.9219 20.4268 12 20.4268C12.071 20.4268 12.1528 20.4095 12.2451 20.374C12.3374 20.3385 12.4584 20.2749 12.6074 20.1826C13.8145 19.4584 14.826 18.8367 15.6426 18.3184C16.4591 17.7929 17.1126 17.2958 17.6025 16.8271C18.0995 16.3585 18.454 15.8504 18.667 15.3037C18.88 14.7499 18.9873 14.0791 18.9873 13.291V5.97363C18.9873 5.78918 18.9618 5.65085 18.9121 5.55859C18.8624 5.45928 18.7669 5.38465 18.625 5.33496C18.2984 5.22137 17.9257 5.08952 17.5068 4.94043C17.095 4.79132 16.6578 4.63597 16.1963 4.47266C15.7419 4.30935 15.2911 4.14573 14.8438 3.98242C14.3964 3.81911 13.9738 3.66643 13.5762 3.52441C13.1786 3.37532 12.8377 3.24348 12.5537 3.12988C12.4331 3.08732 12.3266 3.05547 12.2344 3.03418C12.1492 3.01288 12.071 3.00195 12 3.00195Z" fill="#222631"/>
</svg>
