<svg width="24" height="24" viewBox="0 0 24 24" fill="none" xmlns="http://www.w3.org/2000/svg">
<path d="M11.0059 10.3486H7.50586V11.3486H10.0039C10.5568 11.3486 11.0048 11.7977 11.0039 12.3506L11.002 14.002C11.0009 14.5533 10.5533 14.9998 10.002 15H6L6.00781 13.6182H9.50781V12.6182H7.00586C6.45455 12.6181 6.00717 12.1714 6.00586 11.6201L6.00195 10.002C6.00087 9.44904 6.44904 9.00018 7.00195 9H11L11.0059 10.3486Z" fill="#222631"/>
<path fill-rule="evenodd" clip-rule="evenodd" d="M17 9C17.2833 9 17.5212 9.09544 17.7129 9.28711C17.9046 9.47878 18 9.71667 18 10V14C18 14.2833 17.9046 14.5212 17.7129 14.7129C17.5212 14.9046 17.2833 15 17 15H13V9H17ZM14.5 10.5V13.5H16.5V10.5H14.5Z" fill="#222631"/>
<path fill-rule="evenodd" clip-rule="evenodd" d="M20 4C20.55 4 21.0204 4.19622 21.4121 4.58789C21.8038 4.97956 22 5.45 22 6V18C22 18.55 21.8038 19.0204 21.4121 19.4121C21.0204 19.8038 20.55 20 20 20H4C3.45 20 2.97956 19.8038 2.58789 19.4121C2.19622 19.0204 2 18.55 2 18V6C2 5.45 2.19622 4.97956 2.58789 4.58789C2.97956 4.19622 3.45 4 4 4H20ZM4 18H20V6H4V18Z" fill="#222631"/>
</svg>
