<svg width="24" height="24" viewBox="0 0 24 24" fill="none" xmlns="http://www.w3.org/2000/svg">
<path d="M17.5713 15.665C17.8625 15.665 18.1136 15.7728 18.3232 15.9883C18.5328 16.2037 18.6376 16.457 18.6377 16.748C18.6377 17.0392 18.5329 17.2903 18.3232 17.5C18.1136 17.7097 17.8625 17.8174 17.5713 17.8232C17.2802 17.829 17.0269 17.7242 16.8115 17.5088C16.6018 17.2933 16.4971 17.0393 16.4971 16.748C16.4972 16.457 16.602 16.2037 16.8115 15.9883C17.0269 15.7729 17.2802 15.6651 17.5713 15.665Z" fill="#222631"/>
<path d="M17.5713 10.9121C17.8625 10.9121 18.1136 11.0198 18.3232 11.2354C18.5329 11.445 18.6377 11.6991 18.6377 11.9961C18.6376 12.2871 18.5328 12.5375 18.3232 12.7471C18.1136 12.9568 17.8625 13.0645 17.5713 13.0703C17.2802 13.0761 17.0269 12.9712 16.8115 12.7559C16.602 12.5405 16.4972 12.2871 16.4971 11.9961C16.4971 11.7049 16.6018 11.4509 16.8115 11.2354C17.0269 11.02 17.2802 10.9122 17.5713 10.9121Z" fill="#222631"/>
<path d="M17.5713 6.15039C17.8625 6.15039 18.1136 6.25812 18.3232 6.47363C18.5329 6.68914 18.6377 6.94316 18.6377 7.23438C18.6376 7.52537 18.5327 7.77579 18.3232 7.98535C18.1136 8.19504 17.8625 8.30277 17.5713 8.30859C17.2802 8.31434 17.0269 8.20954 16.8115 7.99414C16.6019 7.77873 16.4972 7.52543 16.4971 7.23438C16.4971 6.94314 16.6018 6.68915 16.8115 6.47363C17.0269 6.25828 17.2802 6.15047 17.5713 6.15039Z" fill="#222631"/>
<path fill-rule="evenodd" clip-rule="evenodd" d="M19.3369 3.84375C20.286 3.84383 21.002 4.08605 21.4854 4.56934C21.9688 5.04696 22.2109 5.75165 22.2109 6.68359V17.3252C22.2109 18.2571 21.9688 18.9618 21.4854 19.4395C21.002 19.9169 20.286 20.1562 19.3369 20.1562H4.37891C3.43532 20.1562 2.72173 19.9171 2.23828 19.4395C1.75484 18.9618 1.5127 18.2571 1.5127 17.3252V6.68359C1.5127 5.75167 1.75485 5.04696 2.23828 4.56934C2.72173 4.08589 3.43531 3.84375 4.37891 3.84375H19.3369ZM3.23438 15.123V17.1768C3.23439 17.5961 3.33916 17.9134 3.54883 18.1289C3.76431 18.3386 4.07577 18.4433 4.4834 18.4434H19.2402C19.642 18.4434 19.9505 18.3385 20.166 18.1289C20.3815 17.9134 20.4902 17.5961 20.4902 17.1768V15.123H3.23438ZM3.23438 10.3535V13.6641H20.4902V10.3535H3.23438ZM4.4834 5.56543C4.07576 5.56546 3.76431 5.67319 3.54883 5.88867C3.33918 6.09836 3.23438 6.4127 3.23438 6.83203V8.89355H20.4902V6.83203C20.4902 6.41266 20.3815 6.09836 20.166 5.88867C19.9505 5.67324 19.6421 5.56543 19.2402 5.56543H4.4834Z" fill="#222631"/>
</svg>
