<svg viewBox="0 0 24 24" fill="none" xmlns="http://www.w3.org/2000/svg">
  <path
    d="M12 14C13.3261 14 14.5975 14.5272 15.5352 15.4648C16.4728 16.4025 17 17.6739 17 19V21C17 21.5523 16.5523 22 16 22C15.4477 22 15 21.5523 15 21V19C15 18.2043 14.6837 17.4415 14.1211 16.8789C13.5585 16.3163 12.7956 16 12 16H6C5.20435 16 4.44152 16.3163 3.87891 16.8789C3.3163 17.4415 3 18.2044 3 19V21C3 21.5523 2.55228 22 2 22C1.44772 22 1 21.5523 1 21V19C1 17.6739 1.52716 16.4025 2.46484 15.4648C3.40253 14.5272 4.67392 14 6 14H12Z"
    fill="currentColor"
  />
  <path
    d="M18.0322 14.8799C18.1703 14.3452 18.7153 14.024 19.25 14.1621C20.3226 14.4391 21.2734 15.0639 21.9521 15.9395C22.6308 16.815 22.9991 17.8913 23 18.999V21C22.9999 21.5522 22.5522 22 22 22C21.4478 22 21.0001 21.5522 21 21V19.001L20.9893 18.7529C20.9411 18.1768 20.7275 17.6248 20.3711 17.165C19.9639 16.6397 19.3936 16.2638 18.75 16.0977C18.2153 15.9595 17.8942 15.4146 18.0322 14.8799Z"
    fill="currentColor"
  />
  <path
    fill-rule="evenodd"
    clip-rule="evenodd"
    d="M9 2C11.7614 2 14 4.23858 14 7C14 9.76142 11.7614 12 9 12C6.23858 12 4 9.76142 4 7C4 4.23858 6.23858 2 9 2ZM9 4C7.34315 4 6 5.34315 6 7C6 8.65685 7.34315 10 9 10C10.6569 10 12 8.65685 12 7C12 5.34315 10.6569 4 9 4Z"
    fill="currentColor"
  />
  <path
    d="M15.0322 2.87695C15.1709 2.34239 15.7164 2.02157 16.251 2.16016C17.3231 2.43813 18.2724 3.06445 18.9502 3.94043C19.628 4.81641 19.9961 5.8924 19.9961 7C19.9961 8.10761 19.628 9.18359 18.9502 10.0596C18.2723 10.9356 17.3232 11.5619 16.251 11.8398C15.7164 11.9784 15.1709 11.6575 15.0322 11.123C14.8936 10.5885 15.2145 10.0429 15.749 9.9043C16.3923 9.73752 16.9624 9.36154 17.3691 8.83594C17.7758 8.31038 17.9961 7.66451 17.9961 7C17.9961 6.33551 17.7757 5.68962 17.3691 5.16406C16.9624 4.63846 16.3923 4.26248 15.749 4.0957C15.2145 3.95707 14.8936 3.41154 15.0322 2.87695Z"
    fill="currentColor"
  />
</svg>
