<svg width="24" height="24" viewBox="0 0 24 24" fill="none" xmlns="http://www.w3.org/2000/svg">
<path d="M12.0098 7.59863C12.467 7.59875 12.8316 7.76248 13.1035 8.08984C13.3818 8.4114 13.5215 8.8357 13.5215 9.36133V10.5205H10.4971V9.36133C10.4971 8.8357 10.6368 8.4114 10.915 8.08984C11.1933 7.76236 11.5585 7.59863 12.0098 7.59863Z" fill="#222631"/>
<path fill-rule="evenodd" clip-rule="evenodd" d="M12 2.71973C12.1546 2.71973 12.3155 2.73471 12.4824 2.76562C12.6492 2.79652 12.8068 2.83372 12.9551 2.87695C13.1529 2.94497 13.4314 3.04138 13.79 3.16504C14.1549 3.28872 14.557 3.43102 14.9961 3.5918L16.3135 4.07422C16.7586 4.22877 17.1636 4.37376 17.5283 4.50977C17.8932 4.64581 18.1778 4.75718 18.3818 4.84375C18.8332 5.02924 19.1674 5.24847 19.3838 5.50195C19.6002 5.75549 19.708 6.15504 19.708 6.69922V13.5996C19.708 14.4282 19.5878 15.1619 19.3467 15.7988C19.1055 16.4295 18.7121 17.02 18.168 17.5703C17.6238 18.1206 16.8971 18.674 15.9883 19.2305C15.0855 19.7932 13.9691 20.4181 12.6396 21.1045C12.5223 21.1662 12.4045 21.2097 12.2871 21.2344C12.176 21.2652 12.0803 21.2803 12 21.2803C11.9196 21.2803 11.8206 21.2653 11.7031 21.2344C11.592 21.2097 11.4777 21.1662 11.3604 21.1045C10.0556 20.381 8.94809 19.734 8.03906 19.165C7.13639 18.6024 6.40966 18.0552 5.85938 17.5234C5.30923 16.9856 4.91043 16.4046 4.66309 15.7803C4.41573 15.1557 4.29199 14.4282 4.29199 13.5996V6.69922C4.29199 6.15504 4.39978 5.75549 4.61621 5.50195C4.83263 5.24847 5.16684 5.02924 5.61816 4.84375C5.82221 4.76337 6.1069 4.65555 6.47168 4.51953C6.83653 4.3773 7.23868 4.22523 7.67773 4.06445C8.11671 3.9037 8.55614 3.74637 8.99512 3.5918C9.44009 3.43112 9.8417 3.28866 10.2002 3.16504C10.565 3.04136 10.847 2.94498 11.0449 2.87695C11.1994 2.83371 11.3569 2.79652 11.5176 2.76562C11.6845 2.73471 11.8454 2.71973 12 2.71973ZM12.0098 6.50391C11.2245 6.50391 10.5871 6.77621 10.0986 7.32031C9.61014 7.85827 9.36527 8.5725 9.36523 9.46289V10.5391C8.82763 10.5949 8.55868 10.9504 8.55859 11.6055V15.3535C8.5587 16.0706 8.8928 16.4287 9.56055 16.4287H14.458C15.1319 16.4287 15.4686 16.0706 15.4688 15.3535V11.6055C15.4687 10.9503 15.1972 10.5974 14.6533 10.5479V9.46289C14.6533 8.5725 14.4084 7.85827 13.9199 7.32031C13.4315 6.77633 12.7948 6.50402 12.0098 6.50391Z" fill="#222631"/>
</svg>
