<svg width="24" height="24" viewBox="0 0 24 24" fill="none" xmlns="http://www.w3.org/2000/svg">
<path d="M13.6224 1.21729C13.8004 1.21729 13.9521 1.27334 14.0774 1.38546C14.2027 1.49757 14.2786 1.64596 14.305 1.83062C14.4698 3.06387 14.6512 4.10588 14.849 4.95663C15.0535 5.80738 15.3206 6.50974 15.6503 7.06372C15.9801 7.6111 16.4121 8.04966 16.9462 8.37941C17.487 8.70257 18.1729 8.95977 19.0039 9.15102C19.8414 9.34228 20.8702 9.50385 22.0903 9.63575C22.2816 9.65554 22.4365 9.72808 22.5553 9.85339C22.674 9.97869 22.7333 10.1304 22.7333 10.3084C22.7333 10.4865 22.674 10.6415 22.5553 10.7734C22.4365 10.8987 22.2849 10.9712 22.1002 10.991C20.8801 11.1295 19.8513 11.2944 19.0138 11.4856C18.1828 11.6769 17.4969 11.9374 16.9561 12.2671C16.4219 12.5903 15.99 13.0256 15.6602 13.5729C15.3371 14.1203 15.0733 14.8194 14.8688 15.6701C14.6644 16.5209 14.4764 17.5629 14.305 18.7962C14.2786 18.9808 14.2027 19.1292 14.0774 19.2413C13.9521 19.36 13.8004 19.4194 13.6224 19.4194C13.4509 19.4194 13.3025 19.36 13.1772 19.2413C13.0585 19.1292 12.986 18.9808 12.9596 18.7962C12.7947 17.5629 12.6101 16.5209 12.4056 15.6701C12.2078 14.8194 11.944 14.1203 11.6142 13.5729C11.2845 13.019 10.8492 12.5771 10.3084 12.2474C9.76763 11.9176 9.07845 11.6604 8.24089 11.4757C7.40993 11.2845 6.38441 11.1229 5.16435 10.991C4.97969 10.9712 4.8247 10.8987 4.6994 10.7734C4.58069 10.6415 4.52134 10.4865 4.52134 10.3084C4.52134 10.137 4.58069 9.98858 4.6994 9.86328C4.8247 9.73138 4.97969 9.65554 5.16435 9.63575C6.37782 9.47088 7.40004 9.28952 8.231 9.09167C9.06197 8.89382 9.74455 8.63332 10.2787 8.31017C10.8129 7.98701 11.2449 7.55504 11.5746 7.01426C11.9044 6.47347 12.1715 5.7843 12.3759 4.94674C12.587 4.10258 12.7815 3.06387 12.9596 1.83062C12.986 1.64596 13.0585 1.49757 13.1772 1.38546C13.3025 1.27334 13.4509 1.21729 13.6224 1.21729ZM5.72821 13.8796C5.84692 13.8796 5.94585 13.9159 6.02499 13.9884C6.10413 14.061 6.15029 14.1533 6.16348 14.2654C6.26241 15.0238 6.36133 15.6174 6.46026 16.0461C6.56577 16.4681 6.72735 16.788 6.94498 17.0056C7.16921 17.2167 7.50556 17.3815 7.95401 17.5002C8.40247 17.619 9.0191 17.7542 9.8039 17.9058C9.90942 17.919 9.99845 17.9619 10.071 18.0344C10.1501 18.1136 10.1897 18.2125 10.1897 18.3312C10.1897 18.4499 10.1501 18.5455 10.071 18.6181C9.99845 18.6972 9.90612 18.7434 9.79401 18.7566C9.0158 18.8687 8.40247 18.9775 7.95401 19.083C7.51215 19.1886 7.17911 19.3534 6.95488 19.5777C6.73065 19.8019 6.56577 20.1316 6.46026 20.5669C6.36133 21.0022 6.26241 21.6056 6.16348 22.3772C6.1371 22.6476 5.99201 22.7828 5.72821 22.7828C5.60951 22.7828 5.51058 22.7432 5.43144 22.6641C5.3523 22.5916 5.30943 22.4926 5.30284 22.3673C5.2237 21.7606 5.14456 21.2627 5.06542 20.8736C4.99288 20.4911 4.88736 20.1844 4.74886 19.9536C4.61696 19.7293 4.42901 19.5513 4.18499 19.4194C3.94098 19.2875 3.61453 19.1721 3.20564 19.0731C2.79675 18.9808 2.27905 18.8753 1.65253 18.7566C1.39533 18.717 1.26672 18.5752 1.26672 18.3312C1.26672 18.0872 1.41181 17.9454 1.70199 17.9058C2.32192 17.8003 2.82973 17.7047 3.22543 17.619C3.62772 17.5398 3.95087 17.4343 4.19489 17.3024C4.4389 17.1639 4.62686 16.9759 4.75876 16.7385C4.89065 16.4945 4.99288 16.178 5.06542 15.7889C5.14456 15.3997 5.2237 14.9018 5.30284 14.2951C5.30943 14.1698 5.3523 14.0709 5.43144 13.9983C5.51058 13.9192 5.60951 13.8796 5.72821 13.8796Z" fill="#222631"/>
</svg>
