<svg width="24" height="24" viewBox="0 0 24 24" fill="none" xmlns="http://www.w3.org/2000/svg">
<path d="M5.39681 21.5464C5.17464 21.3813 5.03817 21.1592 4.98738 20.8799C4.94295 20.6069 4.98421 20.2832 5.11116 19.9087L7.07259 14.0911L2.07381 10.5015C1.75008 10.2729 1.52474 10.0349 1.39778 9.78735C1.27083 9.53345 1.25179 9.27319 1.34066 9.00659C1.42952 8.74634 1.59774 8.55273 1.84529 8.42578C2.09285 8.29883 2.41658 8.23535 2.81649 8.23535H8.9388L10.805 2.42725C10.9256 2.04639 11.0843 1.75757 11.2811 1.56079C11.4842 1.35767 11.7222 1.2561 11.9952 1.2561C12.2745 1.2561 12.5125 1.35767 12.7093 1.56079C12.9124 1.75757 13.0743 2.04639 13.1949 2.42725L15.0611 8.23535H21.1834C21.5833 8.23535 21.9071 8.29883 22.1546 8.42578C22.4022 8.55273 22.5704 8.74634 22.6593 9.00659C22.7481 9.27319 22.7291 9.53345 22.6021 9.78735C22.4752 10.0349 22.2498 10.2729 21.9261 10.5015L16.9273 14.0911L18.8888 19.9087C19.0157 20.2832 19.0538 20.6069 19.003 20.8799C18.9586 21.1592 18.8253 21.3813 18.6031 21.5464C18.3809 21.7241 18.1302 21.7876 17.8509 21.7368C17.5716 21.686 17.2733 21.5464 16.9559 21.3179L11.9952 17.6711L7.04402 21.3179C6.72664 21.5464 6.4283 21.686 6.149 21.7368C5.86971 21.7876 5.61898 21.7241 5.39681 21.5464Z" fill="#222631"/>
</svg>
