<svg width="24" height="24" viewBox="0 0 24 24" fill="none" xmlns="http://www.w3.org/2000/svg">
<path d="M5.38062 22.0569C5.1412 21.8741 4.99629 21.6316 4.94588 21.3291C4.89548 21.033 4.93643 20.6896 5.06874 20.299L6.98724 14.6002L2.09176 11.094C1.75154 10.8483 1.51212 10.5931 1.37351 10.3285C1.2412 10.0576 1.22545 9.7772 1.32625 9.48738C1.42076 9.20386 1.60032 8.99279 1.86494 8.85418C2.12957 8.71557 2.46979 8.64942 2.88562 8.65572L5.69249 8.66517L7.54483 10.5175L4.43554 10.4419C4.38514 10.4419 4.35994 10.4514 4.35994 10.4703C4.34734 10.4955 4.35994 10.5175 4.39774 10.5364L8.64112 13.4189C8.88684 13.5827 9.03175 13.7497 9.07585 13.9198C9.11996 14.0899 9.0916 14.3041 8.9908 14.5624L7.26131 19.3917C7.25501 19.4296 7.25816 19.4548 7.27076 19.4674C7.27706 19.48 7.29912 19.4737 7.33692 19.4485L11.3157 16.3581C11.4984 16.2069 11.678 16.1281 11.8544 16.1218C12.0371 16.1155 12.2166 16.1911 12.3931 16.3486L18.8196 21.7922C18.6998 21.956 18.6022 22.0632 18.5266 22.1136C18.2872 22.2585 18.0257 22.2994 17.7422 22.2364C17.465 22.1797 17.1688 22.038 16.8538 21.8111L11.9961 18.2482L7.1479 21.8111C6.81398 22.0569 6.4958 22.2049 6.19338 22.2553C5.89726 22.3057 5.62634 22.2396 5.38062 22.0569ZM17.1846 14.4774L15.8048 13.1165L19.604 10.5364C19.6418 10.5112 19.6575 10.4892 19.6512 10.4703C19.6449 10.4514 19.6197 10.4419 19.5756 10.4419L14.4533 10.5837C14.1698 10.5963 13.9524 10.5553 13.8012 10.4608C13.6563 10.36 13.5492 10.171 13.4799 9.89376L12.0434 4.97938C12.0371 4.93528 12.0213 4.91323 11.9961 4.91323C11.9772 4.91323 11.9646 4.93528 11.9583 4.97938L10.9849 8.29659L9.49168 6.81283L10.7203 2.95693C10.8463 2.56 11.0164 2.25757 11.2306 2.04966C11.4448 1.83544 11.7 1.72833 11.9961 1.72833C12.2986 1.72833 12.5569 1.83544 12.7711 2.04966C12.9853 2.25757 13.1554 2.56 13.2814 2.95693L15.1054 8.69352L21.1066 8.65572C21.5288 8.64942 21.8721 8.71557 22.1368 8.85418C22.4014 8.99279 22.5809 9.20386 22.6755 9.48738C22.7763 9.7772 22.7574 10.0576 22.6187 10.3285C22.4864 10.5931 22.2502 10.8483 21.9099 11.094L17.1846 14.4774ZM20.2088 21.4142L4.44499 5.69764C4.30008 5.55273 4.22763 5.37316 4.22763 5.15895C4.22763 4.93843 4.30008 4.75572 4.44499 4.61081C4.60251 4.45329 4.78522 4.37454 4.99314 4.37454C5.20735 4.37454 5.39322 4.45329 5.55073 4.61081L21.2956 20.3274C21.4532 20.4723 21.5288 20.6518 21.5225 20.8661C21.5225 21.0803 21.4469 21.263 21.2956 21.4142C21.1507 21.5591 20.9712 21.6316 20.757 21.6316C20.5427 21.6316 20.36 21.5591 20.2088 21.4142Z" fill="#222631"/>
</svg>
