<svg width="24" height="24" viewBox="0 0 24 24" fill="none" xmlns="http://www.w3.org/2000/svg">
<path d="M5.40979 21.4006C5.17037 21.2179 5.02546 20.9753 4.97506 20.6729C4.92465 20.3768 4.96561 20.0334 5.09792 19.6428L7.01642 13.944L2.12094 10.4378C1.78071 10.192 1.54129 9.93687 1.40268 9.67225C1.27037 9.40133 1.25462 9.12095 1.35543 8.83113C1.44994 8.54761 1.6295 8.33654 1.89412 8.19793C2.15874 8.05932 2.49897 7.99317 2.9148 7.99947L8.92546 8.03727L10.7495 2.30068C10.8755 1.90375 11.0456 1.60132 11.2598 1.39341C11.474 1.17919 11.7292 1.07208 12.0253 1.07208C12.3277 1.07208 12.586 1.17919 12.8003 1.39341C13.0145 1.60132 13.1846 1.90375 13.3106 2.30068L15.1346 8.03727L21.1358 7.99947C21.5579 7.99317 21.9013 8.05932 22.1659 8.19793C22.4306 8.33654 22.6101 8.54761 22.7046 8.83113C22.8054 9.12095 22.7865 9.40133 22.6479 9.67225C22.5156 9.93687 22.2793 10.192 21.9391 10.4378L17.0436 13.944L18.9621 19.6428C19.0944 20.0334 19.1354 20.3768 19.085 20.6729C19.0346 20.9753 18.8897 21.2179 18.6503 21.4006C18.4045 21.5833 18.1305 21.6495 17.8281 21.5991C17.5319 21.5487 17.2169 21.4006 16.883 21.1549L12.0253 17.592L7.17708 21.1549C6.84315 21.4006 6.52498 21.5487 6.22255 21.5991C5.92643 21.6495 5.65551 21.5833 5.40979 21.4006ZM7.29994 18.8111C7.30624 18.8237 7.32829 18.8174 7.36609 18.7922L11.4205 15.6451C11.641 15.475 11.8426 15.3899 12.0253 15.3899C12.2143 15.3899 12.4191 15.475 12.6396 15.6451L16.694 18.7922C16.7318 18.8174 16.7538 18.8237 16.7601 18.8111C16.7727 18.7985 16.7759 18.7733 16.7696 18.7355L15.0401 13.9062C14.9708 13.7298 14.933 13.5786 14.9267 13.4525C14.9267 13.3202 14.9613 13.2005 15.0306 13.0934C15.1062 12.9863 15.226 12.876 15.3898 12.7626L19.6331 9.88016C19.6709 9.85496 19.6867 9.83291 19.6804 9.81401C19.6741 9.79511 19.6489 9.78566 19.6048 9.78566L14.4825 9.92742C14.199 9.94002 13.9816 9.89907 13.8304 9.80456C13.6855 9.70375 13.5784 9.51474 13.5091 9.23751L12.0726 4.32313C12.0663 4.27903 12.0505 4.25698 12.0253 4.25698C12.0064 4.25698 11.9938 4.27903 11.9875 4.32313L10.551 9.23751C10.4817 9.51474 10.3714 9.70375 10.2202 9.80456C10.0753 9.89907 9.86424 9.94002 9.58701 9.92742L4.46472 9.78566C4.41431 9.78566 4.38911 9.79511 4.38911 9.81401C4.37651 9.83921 4.38911 9.86126 4.42692 9.88016L8.67029 12.7626C8.83411 12.8697 8.95066 12.98 9.01997 13.0934C9.09558 13.2005 9.13023 13.3202 9.12393 13.4525C9.12393 13.5786 9.08928 13.7298 9.01997 13.9062L7.29049 18.7355C7.28419 18.7733 7.28734 18.7985 7.29994 18.8111Z" fill="#222631"/>
</svg>
