<svg viewBox="0 0 40 40" fill="none" xmlns="http://www.w3.org/2000/svg">
  <g filter="url(#filter0_d_6654_11278)">
    <g clip-path="url(#clip0_6654_11278)">
      <rect x="8" y="4" width="24" height="32" rx="3.55556" fill="white" />
    <path
      fill-rule="evenodd"
      clip-rule="evenodd"
      d="M11.5566 14.7888C11.5566 14.2979 11.9546 13.8999 12.4455 13.8999H27.5002C27.9911 13.8999 28.3891 14.2979 28.3891 14.7888C28.3891 15.2797 27.9911 15.6777 27.5002 15.6777H12.4455C11.9546 15.6777 11.5566 15.2797 11.5566 14.7888ZM11.5566 17.4555C11.5566 16.9645 11.9546 16.5666 12.4455 16.5666H27.5002C27.9911 16.5666 28.3891 16.9645 28.3891 17.4555C28.3891 17.9464 27.9911 18.3443 27.5002 18.3443H12.4455C11.9546 18.3443 11.5566 17.9464 11.5566 17.4555ZM11.5566 20.1221C11.5566 19.6312 11.9546 19.2332 12.4455 19.2332H27.5002C27.9911 19.2332 28.3891 19.6312 28.3891 20.1221C28.3891 20.613 27.9911 21.011 27.5002 21.011H12.4455C11.9546 21.011 11.5566 20.613 11.5566 20.1221ZM11.5566 22.7888C11.5566 22.2979 11.9546 21.8999 12.4455 21.8999H19.5002C19.9911 21.8999 20.3891 22.2979 20.3891 22.7888C20.3891 23.2797 19.9911 23.6777 19.5002 23.6777H12.4455C11.9546 23.6777 11.5566 23.2797 11.5566 22.7888Z"
      fill="#6A6AF4"
    />
    <path
      fill-rule="evenodd"
      clip-rule="evenodd"
      d="M11.5566 14.7888C11.5566 14.2979 11.9546 13.8999 12.4455 13.8999H27.5002C27.9911 13.8999 28.3891 14.2979 28.3891 14.7888C28.3891 15.2797 27.9911 15.6777 27.5002 15.6777H12.4455C11.9546 15.6777 11.5566 15.2797 11.5566 14.7888ZM11.5566 17.4555C11.5566 16.9645 11.9546 16.5666 12.4455 16.5666H27.5002C27.9911 16.5666 28.3891 16.9645 28.3891 17.4555C28.3891 17.9464 27.9911 18.3443 27.5002 18.3443H12.4455C11.9546 18.3443 11.5566 17.9464 11.5566 17.4555ZM11.5566 20.1221C11.5566 19.6312 11.9546 19.2332 12.4455 19.2332H27.5002C27.9911 19.2332 28.3891 19.6312 28.3891 20.1221C28.3891 20.613 27.9911 21.011 27.5002 21.011H12.4455C11.9546 21.011 11.5566 20.613 11.5566 20.1221ZM11.5566 22.7888C11.5566 22.2979 11.9546 21.8999 12.4455 21.8999H19.5002C19.9911 21.8999 20.3891 22.2979 20.3891 22.7888C20.3891 23.2797 19.9911 23.6777 19.5002 23.6777H12.4455C11.9546 23.6777 11.5566 23.2797 11.5566 22.7888Z"
      fill="white"
      fill-opacity="0.65"
    />
    <path
      fill-rule="evenodd"
      clip-rule="evenodd"
      d="M11.5566 14.7888C11.5566 14.2979 11.9546 13.8999 12.4455 13.8999H27.5002C27.9911 13.8999 28.3891 14.2979 28.3891 14.7888C28.3891 15.2797 27.9911 15.6777 27.5002 15.6777H12.4455C11.9546 15.6777 11.5566 15.2797 11.5566 14.7888ZM11.5566 17.4555C11.5566 16.9645 11.9546 16.5666 12.4455 16.5666H27.5002C27.9911 16.5666 28.3891 16.9645 28.3891 17.4555C28.3891 17.9464 27.9911 18.3443 27.5002 18.3443H12.4455C11.9546 18.3443 11.5566 17.9464 11.5566 17.4555ZM11.5566 20.1221C11.5566 19.6312 11.9546 19.2332 12.4455 19.2332H27.5002C27.9911 19.2332 28.3891 19.6312 28.3891 20.1221C28.3891 20.613 27.9911 21.011 27.5002 21.011H12.4455C11.9546 21.011 11.5566 20.613 11.5566 20.1221ZM11.5566 22.7888C11.5566 22.2979 11.9546 21.8999 12.4455 21.8999H19.5002C19.9911 21.8999 20.3891 22.2979 20.3891 22.7888C20.3891 23.2797 19.9911 23.6777 19.5002 23.6777H12.4455C11.9546 23.6777 11.5566 23.2797 11.5566 22.7888Z"
      fill="#3677CC"
    />
    <path
      fill-rule="evenodd"
      clip-rule="evenodd"
      d="M11.5566 14.7888C11.5566 14.2979 11.9546 13.8999 12.4455 13.8999H27.5002C27.9911 13.8999 28.3891 14.2979 28.3891 14.7888C28.3891 15.2797 27.9911 15.6777 27.5002 15.6777H12.4455C11.9546 15.6777 11.5566 15.2797 11.5566 14.7888ZM11.5566 17.4555C11.5566 16.9645 11.9546 16.5666 12.4455 16.5666H27.5002C27.9911 16.5666 28.3891 16.9645 28.3891 17.4555C28.3891 17.9464 27.9911 18.3443 27.5002 18.3443H12.4455C11.9546 18.3443 11.5566 17.9464 11.5566 17.4555ZM11.5566 20.1221C11.5566 19.6312 11.9546 19.2332 12.4455 19.2332H27.5002C27.9911 19.2332 28.3891 19.6312 28.3891 20.1221C28.3891 20.613 27.9911 21.011 27.5002 21.011H12.4455C11.9546 21.011 11.5566 20.613 11.5566 20.1221ZM11.5566 22.7888C11.5566 22.2979 11.9546 21.8999 12.4455 21.8999H19.5002C19.9911 21.8999 20.3891 22.2979 20.3891 22.7888C20.3891 23.2797 19.9911 23.6777 19.5002 23.6777H12.4455C11.9546 23.6777 11.5566 23.2797 11.5566 22.7888Z"
      fill="#F6F8F9"
      fill-opacity="0.8"
    />
    <path
      fill-rule="evenodd"
      clip-rule="evenodd"
      d="M11.5566 14.7888C11.5566 14.2979 11.9546 13.8999 12.4455 13.8999H27.5002C27.9911 13.8999 28.3891 14.2979 28.3891 14.7888C28.3891 15.2797 27.9911 15.6777 27.5002 15.6777H12.4455C11.9546 15.6777 11.5566 15.2797 11.5566 14.7888ZM11.5566 17.4555C11.5566 16.9645 11.9546 16.5666 12.4455 16.5666H27.5002C27.9911 16.5666 28.3891 16.9645 28.3891 17.4555C28.3891 17.9464 27.9911 18.3443 27.5002 18.3443H12.4455C11.9546 18.3443 11.5566 17.9464 11.5566 17.4555ZM11.5566 20.1221C11.5566 19.6312 11.9546 19.2332 12.4455 19.2332H27.5002C27.9911 19.2332 28.3891 19.6312 28.3891 20.1221C28.3891 20.613 27.9911 21.011 27.5002 21.011H12.4455C11.9546 21.011 11.5566 20.613 11.5566 20.1221ZM11.5566 22.7888C11.5566 22.2979 11.9546 21.8999 12.4455 21.8999H19.5002C19.9911 21.8999 20.3891 22.2979 20.3891 22.7888C20.3891 23.2797 19.9911 23.6777 19.5002 23.6777H12.4455C11.9546 23.6777 11.5566 23.2797 11.5566 22.7888Z"
      fill="url(#paint1_linear_6654_11278)"
      fill-opacity="0.35"
    />
    <path d="M8.00048 4H32L32 11H8.00001L8.00048 4Z" fill="#3677CC" />
    <path
      d="M8.00048 4H32L32 11H8.00001L8.00048 4Z"
      fill="#F6F8F9"
      fill-opacity="0.975"
    />
    <path
      d="M8.00048 4H32L32 11H8.00001L8.00048 4Z"
      fill="url(#paint2_linear_6654_11278)"
      fill-opacity="0.4"
    />
    </g>
    <rect
      x="8.35"
      y="4.35"
      width="23.3"
      height="31.3"
      rx="3.20556"
      stroke="#3677CC"
      stroke-width="0.7"
    />
    <rect
      x="8.35"
      y="4.35"
      width="23.3"
      height="31.3"
      rx="3.20556"
      stroke="#F6F8F9"
      stroke-opacity="0.8"
      stroke-width="0.7"
    />
    <rect
      x="8.35"
      y="4.35"
      width="23.3"
      height="31.3"
      rx="3.20556"
      stroke="url(#paint0_linear_6654_11278)"
      stroke-opacity="0.2"
      stroke-width="0.7"
    />
  </g>
  <defs>
    <filter
      id="filter0_d_6654_11278"
      x="-3"
      y="-2"
      width="46"
      height="46"
      filterUnits="userSpaceOnUse"
      color-interpolation-filters="sRGB"
    >
      <feFlood flood-opacity="0" result="BackgroundImageFix" />
      <feColorMatrix
        in="SourceAlpha"
        type="matrix"
        values="0 0 0 0 0 0 0 0 0 0 0 0 0 0 0 0 0 0 127 0"
        result="hardAlpha"
      />
      <feOffset dy="1" />
      <feGaussianBlur stdDeviation="1.5" />
      <feComposite in2="hardAlpha" operator="out" />
      <feColorMatrix
        type="matrix"
        values="0 0 0 0 0.0941176 0 0 0 0 0.105882 0 0 0 0 0.141176 0 0 0 0.05 0"
      />
      <feBlend
        mode="normal"
        in2="BackgroundImageFix"
        result="effect1_dropShadow_6654_11278"
      />
      <feBlend
        mode="normal"
        in="SourceGraphic"
        in2="effect1_dropShadow_6654_11278"
        result="shape"
      />
    </filter>
    <linearGradient
      id="paint0_linear_6654_11278"
      x1="20"
      y1="20"
      x2="19.9997"
      y2="36.0276"
      gradientUnits="userSpaceOnUse"
    >
      <stop stop-color="white" stop-opacity="0" />
      <stop offset="1" stop-color="white" />
    </linearGradient>
    <linearGradient
      id="paint1_linear_6654_11278"
      x1="20"
      y1="17.5"
      x2="20"
      y2="30.5"
      gradientUnits="userSpaceOnUse"
    >
      <stop stop-color="white" stop-opacity="0" />
      <stop offset="1" stop-color="white" />
    </linearGradient>
    <linearGradient
      id="paint2_linear_6654_11278"
      x1="20.0007"
      y1="-3.73684"
      x2="20.0058"
      y2="11.3068"
      gradientUnits="userSpaceOnUse"
    >
      <stop stop-color="white" stop-opacity="0" />
      <stop offset="1" stop-color="white" />
    </linearGradient>
    <clipPath id="clip0_6654_11278">
      <rect x="8" y="4" width="24" height="32" rx="3.55556" fill="white" />
    </clipPath>
  </defs>
</svg>
