<svg width="24" height="24" viewBox="0 0 24 24" fill="none" xmlns="http://www.w3.org/2000/svg">
<path fill-rule="evenodd" clip-rule="evenodd" d="M19.6562 3.50635C20.6529 3.50638 21.4094 3.76446 21.9258 4.28076C22.4422 4.79717 22.7002 5.54793 22.7002 6.53271V17.4761C22.7002 18.4549 22.4422 19.2028 21.9258 19.7192C21.4094 20.2356 20.6529 20.4936 19.6562 20.4937H4.35254C3.35596 20.4936 2.59657 20.2355 2.07422 19.7192C1.55781 19.2028 1.2998 18.4549 1.2998 17.4761V6.53271C1.2998 5.54192 1.55781 4.79117 2.07422 4.28076C2.59657 3.76451 3.35601 3.50641 4.35254 3.50635H19.6562ZM10.0186 11.1987C9.8204 11.1987 9.649 11.2704 9.50488 11.4146C9.36679 11.5527 9.29785 11.7241 9.29785 11.9282C9.2979 12.1323 9.36682 12.3066 9.50488 12.4507C9.64298 12.5947 9.81443 12.6665 10.0186 12.6665H13.5137C13.7175 12.6664 13.8884 12.5945 14.0264 12.4507C14.1704 12.3066 14.2431 12.1323 14.2432 11.9282C14.2432 11.7241 14.1705 11.5527 14.0264 11.4146C13.8884 11.2706 13.7176 11.1988 13.5137 11.1987H10.0186ZM6.17188 7.07275C5.93188 6.92288 5.71546 6.87798 5.52344 6.93799C5.33144 6.99806 5.18127 7.11272 5.07324 7.28076C4.97141 7.4487 4.9359 7.6345 4.96582 7.83838C5.00185 8.04254 5.12758 8.20837 5.34375 8.33447L7.35254 9.5415L5.35254 10.7661C5.13055 10.8981 5.00192 11.0632 4.96582 11.2612C4.93581 11.4593 4.97123 11.6457 5.07324 11.8198C5.17531 11.9939 5.32254 12.1113 5.51465 12.1714C5.71277 12.2314 5.93173 12.1857 6.17188 12.0356L8.79297 10.3882C9.00307 10.2561 9.13914 10.0818 9.19922 9.86572C9.26526 9.64959 9.26147 9.43621 9.18945 9.22607C9.1234 9.0099 8.99113 8.8385 8.79297 8.7124L6.17188 7.07275Z" fill="#222631"/>
</svg>
