<svg width="24" height="24" viewBox="0 0 24 24" fill="none" xmlns="http://www.w3.org/2000/svg">
<path fill-rule="evenodd" clip-rule="evenodd" d="M10.48 3.31533C11.4515 1.69679 13.739 1.54257 14.9186 3.01635C15.4744 3.71116 15.654 4.63525 15.3984 5.4876L14.4273 8.723H18.8941C20.9405 8.72323 22.427 10.6688 21.8891 12.6431L19.8454 20.1363C19.4771 21.4869 18.2502 22.4245 16.8505 22.4246H6.73028C6.72367 22.4247 6.71705 22.4256 6.71041 22.4256C6.70378 22.4256 6.69716 22.4247 6.69055 22.4246H3.60568C2.71921 22.4244 2.00016 21.7055 2 20.8189V10.3287C2.00022 9.44222 2.71921 8.72323 3.60568 8.723H6.56824C6.9817 8.723 7.36522 8.5056 7.57807 8.15119L10.48 3.31533ZM6.42765 10.6496C6.15151 10.6496 5.92765 10.8735 5.92765 11.1496V19.998C5.92765 20.2741 6.15151 20.498 6.42765 20.498H7C7.27614 20.498 7.5 20.2741 7.5 19.998V11.1496C7.5 10.8735 7.27614 10.6496 7 10.6496H6.42765Z" fill="#222631"/>
</svg>
