<svg width="24" height="24" viewBox="0 0 24 24" fill="none" xmlns="http://www.w3.org/2000/svg">
<path fill-rule="evenodd" clip-rule="evenodd" d="M16.8504 3C18.2501 3.00011 19.477 3.8724 19.8453 5.12866L21.889 12.0991C22.4272 13.9358 20.9405 15.7465 18.894 15.7467H14.4283L15.3984 18.7554C15.6541 19.5485 15.4745 20.4078 14.9185 21.0543C13.7389 22.4257 11.4514 22.2821 10.4799 20.7761L7.57803 16.2777C7.36518 15.948 6.98163 15.7467 6.56822 15.7467H3.60567C2.71925 15.7465 2.00023 15.0777 2 14.253V4.49366C2.00023 3.66904 2.71922 3.00021 3.60567 3H16.8504ZM5.92764 13.4535C5.92764 13.7297 6.1515 13.9535 6.42764 13.9535H7.07803C7.35417 13.9535 7.57803 13.7297 7.57803 13.4535V5.29317C7.57803 5.01703 7.35417 4.79317 7.07803 4.79317H6.42764C6.1515 4.79317 5.92764 5.01703 5.92764 5.29317V13.4535Z" fill="#222631"/>
</svg>
