<svg width="24" height="24" viewBox="0 0 24 24" fill="none" xmlns="http://www.w3.org/2000/svg">
<path fill-rule="evenodd" clip-rule="evenodd" d="M16.8504 3C18.2501 3.00011 19.477 3.8724 19.8453 5.12866L21.889 12.0991C22.4272 13.9358 20.9405 15.7465 18.894 15.7467H14.4283L15.3984 18.7554C15.6541 19.5485 15.4745 20.4078 14.9185 21.0543C13.7389 22.4257 11.4514 22.2821 10.4799 20.7761L7.57803 16.2777C7.36518 15.948 6.98164 15.7467 6.56822 15.7467H3.60567C2.71925 15.7465 2.00023 15.0777 2 14.253V4.49366C2.00023 3.66904 2.71922 3.00021 3.60567 3H16.8504ZM7.6742 14.1432C8.31475 14.3704 8.86725 14.7922 9.23074 15.3558L12.1316 19.8543C12.4123 20.2894 13.0736 20.3302 13.4143 19.934L13.4697 19.8621C13.5862 19.6864 13.6168 19.4713 13.5523 19.2708L12.4588 15.877C12.1497 14.9185 12.9211 13.9535 13.9965 13.9535H18.894C19.6701 13.9533 20.2334 13.2672 20.0293 12.5707L17.9856 5.6003C17.8459 5.12383 17.3812 4.79329 16.8504 4.79317H7.6742V14.1432ZM3.92764 13.9535H5.74656V4.79317H3.92764V13.9535Z" fill="#222631"/>
</svg>
