<svg width="24" height="24" viewBox="0 0 24 24" fill="none" xmlns="http://www.w3.org/2000/svg">
<path fill-rule="evenodd" clip-rule="evenodd" d="M10.48 3.31533C11.4515 1.69679 13.739 1.54257 14.9186 3.01635C15.4744 3.71116 15.654 4.63525 15.3984 5.4876L14.4273 8.723H18.8941C20.9405 8.72323 22.427 10.6688 21.8891 12.6431L19.8454 20.1363C19.4771 21.4869 18.2502 22.4245 16.8505 22.4246H6.73028C6.72367 22.4247 6.71705 22.4256 6.71041 22.4256C6.70377 22.4256 6.69716 22.4247 6.69055 22.4246H3.60568C2.71921 22.4244 2.00016 21.7055 2 20.8189V10.3287C2.00022 9.44222 2.71921 8.72323 3.60568 8.723H6.56824C6.9817 8.723 7.36522 8.5056 7.57807 8.15119L10.48 3.31533ZM13.4143 4.22061C13.0737 3.79509 12.4124 3.83894 12.1317 4.30633L9.23079 9.14219C8.86738 9.74788 8.31458 10.2004 7.67424 10.4447V20.498H16.8505C17.3813 20.4979 17.846 20.1415 17.9857 19.6293L20.0294 12.1361C20.2331 11.3875 19.6701 10.6498 18.8941 10.6496H13.9966C12.9211 10.6496 12.1498 9.61217 12.4589 8.58188L13.5523 4.9346C13.6259 4.68866 13.5747 4.42117 13.4143 4.22061ZM3.92765 10.6496V20.498H5.74659V10.6496H3.92765Z" fill="#222631"/>
</svg>
