<svg width="24" height="24" viewBox="0 0 24 24" fill="none" xmlns="http://www.w3.org/2000/svg">
<path d="M9.27246 18.7681C9.08073 18.7681 8.92611 18.7155 8.80859 18.6104C8.69108 18.499 8.62923 18.3506 8.62305 18.165L8.34473 8.44238C8.33854 8.26302 8.39421 8.11768 8.51172 8.00635C8.62923 7.88883 8.78385 7.83008 8.97559 7.83008C9.16732 7.83008 9.32194 7.88574 9.43945 7.99707C9.55697 8.1084 9.61572 8.25374 9.61572 8.43311L9.90332 18.1558C9.90332 18.3413 9.84456 18.4897 9.72705 18.6011C9.61572 18.7124 9.46419 18.7681 9.27246 18.7681ZM12 18.7681C11.8083 18.7681 11.6506 18.7124 11.5269 18.6011C11.4093 18.4897 11.3506 18.3444 11.3506 18.165V8.44238C11.3506 8.26302 11.4093 8.11768 11.5269 8.00635C11.6506 7.88883 11.8083 7.83008 12 7.83008C12.1979 7.83008 12.3556 7.88883 12.4731 8.00635C12.5968 8.11768 12.6587 8.26302 12.6587 8.44238V18.165C12.6587 18.3444 12.5968 18.4897 12.4731 18.6011C12.3556 18.7124 12.1979 18.7681 12 18.7681ZM14.7368 18.7681C14.5389 18.7681 14.3812 18.7124 14.2637 18.6011C14.1523 18.4897 14.0998 18.3413 14.106 18.1558L14.3843 8.44238C14.3905 8.25684 14.4523 8.1084 14.5698 7.99707C14.6873 7.88574 14.8389 7.83008 15.0244 7.83008C15.2223 7.83008 15.377 7.88883 15.4883 8.00635C15.6058 8.11768 15.6615 8.26302 15.6553 8.44238L15.377 18.165C15.3708 18.3506 15.3089 18.499 15.1914 18.6104C15.0739 18.7155 14.9224 18.7681 14.7368 18.7681ZM7.78809 5.2417V3.23779C7.78809 2.52653 8.00146 1.97298 8.42822 1.57715C8.86117 1.17513 9.4611 0.974121 10.228 0.974121H13.7534C14.5203 0.974121 15.1203 1.17513 15.5532 1.57715C15.9862 1.97298 16.2026 2.52653 16.2026 3.23779V5.2417H14.4863V3.32129C14.4863 3.08626 14.409 2.89762 14.2544 2.75537C14.0998 2.60693 13.8926 2.53271 13.6328 2.53271H10.3486C10.0951 2.53271 9.89095 2.60693 9.73633 2.75537C9.58171 2.89762 9.50439 3.08626 9.50439 3.32129V5.2417H7.78809ZM3.67822 6.26221C3.44938 6.26221 3.25456 6.1818 3.09375 6.021C2.93294 5.86019 2.85254 5.66536 2.85254 5.43652C2.85254 5.21387 2.93294 5.02523 3.09375 4.87061C3.25456 4.7098 3.44938 4.62939 3.67822 4.62939H20.3311C20.5599 4.62939 20.7516 4.70671 20.9062 4.86133C21.0671 5.01595 21.1475 5.20768 21.1475 5.43652C21.1475 5.66536 21.0671 5.86019 20.9062 6.021C20.7516 6.1818 20.5599 6.26221 20.3311 6.26221H3.67822ZM7.7417 21.9131C7.02425 21.9131 6.44906 21.7121 6.01611 21.3101C5.58936 20.908 5.36051 20.3483 5.32959 19.6309L4.68018 6.08594H6.37793L7.01807 19.3433C7.03044 19.6154 7.12012 19.8381 7.28711 20.0112C7.4541 20.1844 7.66748 20.271 7.92725 20.271H16.0728C16.3325 20.271 16.5459 20.1844 16.7129 20.0112C16.8799 19.8442 16.9696 19.6216 16.9819 19.3433L17.5942 6.08594H19.3198L18.6797 19.6216C18.6488 20.339 18.4168 20.8988 17.9839 21.3008C17.5509 21.709 16.9788 21.9131 16.2676 21.9131H7.7417Z" fill="#222631"/>
</svg>
