<svg width="24" height="24" viewBox="0 0 24 24" fill="none" xmlns="http://www.w3.org/2000/svg">
<path d="M10.335 6.66602C10.5413 6.66613 10.7155 6.74035 10.8574 6.88867C10.9993 7.03057 11.0702 7.20479 11.0703 7.41113C11.0703 7.6241 10.9961 7.80235 10.8477 7.94434L9.87012 8.87305L9.15918 9.41309L10.1895 9.38672H13.0449C13.8064 9.38672 14.4844 9.53751 15.0781 9.84082C15.6719 10.1441 16.1361 10.5772 16.4717 11.1387C16.8137 11.7001 16.9854 12.3715 16.9854 13.1523C16.9853 13.9266 16.8137 14.5982 16.4717 15.166C16.1361 15.7337 15.6684 16.1727 15.0684 16.4824C14.4746 16.7922 13.8 16.9463 13.0449 16.9463H11.6895C11.4573 16.9462 11.2642 16.8819 11.1094 16.7529C10.9545 16.6174 10.877 16.4269 10.877 16.1816C10.877 15.943 10.9546 15.7589 11.1094 15.6299C11.2641 15.5011 11.4542 15.4366 11.6797 15.4365H13.0449C13.7419 15.4365 14.3135 15.2271 14.7588 14.8076C15.2105 14.3817 15.4365 13.8068 15.4365 13.084C15.4365 12.3678 15.2071 11.8159 14.749 11.4287C14.2973 11.0415 13.729 10.8477 13.0449 10.8477H10.1895L9.16309 10.8154L9.70508 11.2061L10.8574 12.2803C11.0059 12.4158 11.0801 12.5941 11.0801 12.8135C11.08 13.0198 11.0058 13.1974 10.8574 13.3457C10.7154 13.4877 10.5471 13.5586 10.3535 13.5586C10.1407 13.5585 9.9632 13.4876 9.82129 13.3457L7.23633 10.7031C7.06211 10.5353 6.97559 10.3382 6.97559 10.1123C6.97559 9.87998 7.06209 9.67951 7.23633 9.51172L9.81152 6.88867C9.9535 6.74024 10.1284 6.66602 10.335 6.66602Z" fill="#222631"/>
<path fill-rule="evenodd" clip-rule="evenodd" d="M12 2C13.3809 2.00006 14.6751 2.25818 15.8818 2.77441C17.095 3.2907 18.1598 4.00749 19.0762 4.92383C19.9925 5.8402 20.7093 6.90497 21.2256 8.11816C21.7483 9.32494 22.0088 10.619 22.0088 12C22.0088 13.381 21.7483 14.6784 21.2256 15.8916C20.7093 17.0983 19.9925 18.1565 19.0762 19.0664C18.1598 19.9827 17.095 20.6995 15.8818 21.2158C14.6751 21.7385 13.3809 21.9999 12 22C10.6189 22 9.32403 21.7386 8.11719 21.2158C6.91051 20.6995 5.84894 19.9827 4.93262 19.0664C4.01636 18.1565 3.29711 17.0983 2.77441 15.8916C2.25812 14.6783 2 13.3811 2 12C2 10.6189 2.25812 9.32501 2.77441 8.11816C3.29712 6.90501 4.01632 5.84018 4.93262 4.92383C5.84895 4.0075 6.9105 3.2907 8.11719 2.77441C9.32403 2.25812 10.6189 2 12 2ZM12 3.97461C10.8965 3.97461 9.85727 4.18506 8.88281 4.60449C7.91486 5.01749 7.06282 5.59154 6.32715 6.32715C5.59143 7.05642 5.01324 7.9083 4.59375 8.88281C4.18072 9.85086 3.97461 10.89 3.97461 12C3.97461 13.11 4.18072 14.1491 4.59375 15.1172C5.01324 16.0852 5.59143 16.9371 6.32715 17.6729C7.06282 18.4085 7.91486 18.9825 8.88281 19.3955C9.85727 19.8149 10.8965 20.0254 12 20.0254C13.1098 20.0253 14.1484 19.8149 15.1162 19.3955C16.0842 18.9825 16.9362 18.4084 17.6719 17.6729C18.414 16.9371 18.9922 16.0852 19.4053 15.1172C19.8183 14.1491 20.0244 13.11 20.0244 12C20.0244 10.89 19.8183 9.85087 19.4053 8.88281C18.9922 7.90831 18.414 7.05642 17.6719 6.32715C16.9362 5.59155 16.0842 5.01748 15.1162 4.60449C14.1484 4.18513 13.1098 3.97467 12 3.97461Z" fill="#222631"/>
</svg>
