<svg width="24" height="24" viewBox="0 0 24 24" fill="none" xmlns="http://www.w3.org/2000/svg">
<path d="M12 22C10.6189 22 9.32494 21.7386 8.1181 21.2159C6.91126 20.6996 5.84963 19.9832 4.9332 19.0668C4.01678 18.1504 3.29719 17.0887 2.77444 15.8819C2.25815 14.6751 2 13.3811 2 12C2 10.6189 2.25815 9.32494 2.77444 8.1181C3.29719 6.90481 4.01678 5.84318 4.9332 4.9332C5.84963 4.01678 6.91126 3.30042 8.1181 2.78412C9.32494 2.26137 10.6189 2 12 2C13.3811 2 14.6751 2.26137 15.8819 2.78412C17.0952 3.30042 18.1601 4.01678 19.0765 4.9332C19.9929 5.84318 20.7093 6.90481 21.2256 8.1181C21.7483 9.32494 22.0097 10.6189 22.0097 12C22.0097 13.3811 21.7483 14.6751 21.2256 15.8819C20.7093 17.0887 19.9929 18.1504 19.0765 19.0668C18.1601 19.9832 17.0952 20.6996 15.8819 21.2159C14.6751 21.7386 13.3811 22 12 22ZM6.78219 10.0349C6.78219 10.2672 6.87577 10.4769 7.06292 10.6641L9.74443 13.4134C9.89287 13.5618 10.08 13.636 10.3059 13.636C10.5124 13.636 10.6899 13.5618 10.8383 13.4134C10.9868 13.2585 11.061 13.0681 11.061 12.8422C11.061 12.7454 11.0416 12.6486 11.0029 12.5518C10.9642 12.455 10.9061 12.3711 10.8287 12.3001L9.63795 11.1868L9.08616 10.7899L10.1317 10.819H13.0939C13.8038 10.819 14.3943 11.019 14.8654 11.4192C15.343 11.8193 15.5818 12.3904 15.5818 13.1326C15.5818 13.8877 15.3462 14.4847 14.8751 14.9235C14.4105 15.3624 13.8167 15.5818 13.0939 15.5818H11.6805C11.4418 15.5818 11.2417 15.6496 11.0803 15.7851C10.919 15.9206 10.8383 16.111 10.8383 16.3562C10.8383 16.6079 10.919 16.8048 11.0803 16.9468C11.2417 17.0887 11.445 17.1597 11.6902 17.1597H13.0939C13.8877 17.1597 14.5944 16.9984 15.2139 16.6757C15.8335 16.353 16.3207 15.8948 16.6757 15.3011C17.0307 14.7073 17.2081 14.0071 17.2081 13.2004C17.2081 12.3872 17.0307 11.6902 16.6757 11.1094C16.3207 10.5286 15.8335 10.08 15.2139 9.76379C14.5944 9.44756 13.8877 9.28945 13.0939 9.28945H10.1317L9.07648 9.31849L9.80252 8.74734L10.819 7.78896C10.8964 7.71797 10.9545 7.6373 10.9932 7.54695C11.0319 7.45015 11.0513 7.35011 11.0513 7.24685C11.0513 7.02097 10.9771 6.83382 10.8287 6.68538C10.6802 6.53049 10.4995 6.45305 10.2865 6.45305C10.0671 6.45305 9.88641 6.53372 9.74443 6.69506L7.06292 9.4153C6.87577 9.60245 6.78219 9.80897 6.78219 10.0349Z" fill="#222631"/>
</svg>
