<svg width="24" height="24" viewBox="0 0 24 24" fill="none" xmlns="http://www.w3.org/2000/svg">
<path d="M12.0004 4.00061C14.3273 4.0007 16.6019 4.69176 18.5356 5.98596C20.3484 7.1993 21.7854 8.89154 22.6889 10.8707L22.8627 11.2711L22.8754 11.3043C23.042 11.7533 23.0421 12.247 22.8754 12.6959C22.8713 12.707 22.8672 12.7182 22.8627 12.7291C21.9755 14.8803 20.4694 16.72 18.5356 18.0143C16.6019 19.3085 14.3273 19.9995 12.0004 19.9996C9.67343 19.9996 7.39814 19.3086 5.4643 18.0143C3.53051 16.72 2.02435 14.8803 1.13715 12.7291C1.13265 12.7182 1.12857 12.707 1.12446 12.6959C0.957836 12.247 0.957891 11.7533 1.12446 11.3043L1.13715 11.2711C2.02433 9.11997 3.53056 7.28025 5.4643 5.98596C7.39814 4.69167 9.67343 4.00061 12.0004 4.00061ZM12.0004 6.00061C10.0695 6.00061 8.18128 6.57408 6.5766 7.64807C4.98216 8.71529 3.73836 10.2291 3.00043 11.9996C3.73835 13.7704 4.98192 15.2848 6.5766 16.3522C8.18128 17.4262 10.0695 17.9996 12.0004 17.9996C13.9312 17.9995 15.8187 17.4261 17.4233 16.3522C19.0179 15.2849 20.2605 13.7703 20.9985 11.9996C20.2605 10.2293 19.0176 8.71522 17.4233 7.64807C15.8187 6.57417 13.9312 6.0007 12.0004 6.00061Z" fill="#222631"/>
<path d="M14 12C14 10.8954 13.1045 9.99999 12 9.99999C10.8954 9.99999 9.99996 10.8954 9.99996 12C9.99996 13.1046 10.8954 14 12 14C13.1045 14 14 13.1046 14 12ZM16 12C16 14.2091 14.2091 16 12 16C9.79082 16 7.99996 14.2091 7.99996 12C7.99996 9.79085 9.79082 7.99999 12 7.99999C14.2091 7.99999 16 9.79085 16 12Z" fill="#222631"/>
</svg>
