<svg viewBox="0 0 24 24" fill="none" xmlns="http://www.w3.org/2000/svg">
  <path
    d="M21 14C21.5523 14 22 14.4477 22 15V19C22 19.7957 21.6837 20.5585 21.1211 21.1211C20.5585 21.6837 19.7957 22 19 22H5C4.20435 22 3.44151 21.6837 2.87891 21.1211C2.3163 20.5585 2 19.7957 2 19V15C2 14.4477 2.44772 14 3 14C3.55228 14 4 14.4477 4 15V19C4 19.2652 4.10543 19.5195 4.29297 19.707C4.48051 19.8946 4.73478 20 5 20H19C19.2652 20 19.5195 19.8946 19.707 19.707C19.8946 19.5195 20 19.2652 20 19V15C20 14.4477 20.4477 14 21 14Z"
    fill="currentColor"
  />
  <path
    d="M12.0205 2.00098C12.0381 2.00133 12.0557 2.00165 12.0732 2.00293C12.1225 2.0065 12.1707 2.01396 12.2178 2.02441C12.2269 2.02645 12.236 2.02895 12.2451 2.03125C12.3141 2.04866 12.3799 2.07357 12.4424 2.10449C12.4746 2.12042 12.5064 2.13761 12.5371 2.15723C12.5714 2.17913 12.6045 2.20271 12.6357 2.22852C12.6602 2.24873 12.6841 2.27007 12.707 2.29297L17.707 7.29297C18.0976 7.68349 18.0976 8.31651 17.707 8.70703C17.3165 9.09756 16.6835 9.09756 16.293 8.70703L13 5.41406V15C13 15.5523 12.5523 16 12 16C11.4477 16 11 15.5523 11 15V5.41406L7.70703 8.70703C7.31651 9.09756 6.68349 9.09756 6.29297 8.70703C5.90244 8.31651 5.90244 7.68349 6.29297 7.29297L11.293 2.29297C11.3548 2.23117 11.4248 2.17778 11.501 2.13379C11.5154 2.12546 11.5302 2.1179 11.5449 2.11035C11.6073 2.0784 11.6731 2.05257 11.7422 2.03418C11.7588 2.02976 11.7753 2.02503 11.792 2.02148C11.803 2.01916 11.8141 2.01758 11.8252 2.01562C11.8427 2.01252 11.8603 2.00998 11.8779 2.00781C11.8957 2.00565 11.9136 2.00415 11.9316 2.00293C11.9476 2.00184 11.9635 2.00131 11.9795 2.00098C11.9863 2.00084 11.9931 2 12 2C12.0069 2 12.0137 2.00084 12.0205 2.00098Z"
    fill="currentColor"
  />
</svg>
