<svg width="20" height="24" viewBox="0 0 20 24" fill="none" xmlns="http://www.w3.org/2000/svg">
<path d="M11.0659 23.5125C10.9159 23.5125 10.783 23.4614 10.667 23.3591C10.558 23.2568 10.4932 23.1239 10.4727 22.9602C10.3091 21.8557 10.1352 20.925 9.95114 20.1682C9.76705 19.4182 9.52841 18.8011 9.23523 18.317C8.94205 17.833 8.55341 17.4477 8.06932 17.1614C7.59205 16.8682 6.98182 16.633 6.23864 16.4557C5.50227 16.2784 4.58864 16.1182 3.49773 15.975C3.32045 15.9545 3.18068 15.8898 3.07841 15.7807C2.97614 15.6648 2.925 15.525 2.925 15.3614C2.925 15.2045 2.97614 15.0716 3.07841 14.9625C3.1875 14.8466 3.32727 14.7784 3.49773 14.758C4.58864 14.6352 5.50568 14.492 6.24886 14.3284C6.99204 14.158 7.60568 13.9261 8.08977 13.633C8.57386 13.333 8.9625 12.9375 9.25568 12.4466C9.55568 11.9557 9.79432 11.3318 9.97159 10.575C10.1557 9.81818 10.3227 8.88409 10.4727 7.77273C10.4932 7.60909 10.558 7.47614 10.667 7.37386C10.783 7.27159 10.9159 7.22045 11.0659 7.22045C11.2295 7.22045 11.3625 7.27159 11.4648 7.37386C11.5739 7.47614 11.6455 7.60909 11.6795 7.77273C11.8295 8.88409 11.9932 9.81818 12.1705 10.575C12.3545 11.3318 12.5932 11.9557 12.8864 12.4466C13.1864 12.9307 13.575 13.3227 14.0523 13.6227C14.5364 13.9159 15.15 14.1477 15.8932 14.3182C16.6364 14.4886 17.5534 14.6352 18.6443 14.758C18.8148 14.7784 18.9511 14.8466 19.0534 14.9625C19.1625 15.0784 19.217 15.2114 19.217 15.3614C19.217 15.525 19.1625 15.6648 19.0534 15.7807C18.9511 15.8966 18.8148 15.9614 18.6443 15.975C17.5534 16.0977 16.633 16.2443 15.883 16.4148C15.1398 16.5784 14.5261 16.8068 14.042 17.1C13.558 17.3932 13.1693 17.7852 12.8761 18.2761C12.583 18.767 12.3443 19.3943 12.1602 20.158C11.983 20.9216 11.8227 21.8557 11.6795 22.9602C11.6523 23.1239 11.5841 23.2568 11.475 23.3591C11.3659 23.4614 11.2295 23.5125 11.0659 23.5125ZM3.99886 12.1807C3.76705 12.1807 3.63409 12.0545 3.6 11.8023C3.51818 11.1273 3.43295 10.5989 3.34432 10.217C3.25568 9.82841 3.1125 9.53864 2.91477 9.34773C2.71705 9.15 2.41705 9 2.01477 8.89773C1.61932 8.79545 1.07727 8.68636 0.388636 8.57045C0.129545 8.53636 0 8.40682 0 8.18182C0 7.97045 0.1125 7.84432 0.3375 7.80341C1.03977 7.67386 1.59205 7.55795 1.99432 7.45568C2.39659 7.34659 2.69659 7.19659 2.89432 7.00568C3.09886 6.81477 3.24545 6.53182 3.33409 6.15682C3.42955 5.78182 3.51818 5.25682 3.6 4.58182C3.63409 4.32955 3.76705 4.20341 3.99886 4.20341C4.22386 4.20341 4.35341 4.32273 4.3875 4.56136C4.46932 5.25 4.55455 5.79205 4.64318 6.1875C4.73864 6.58295 4.88523 6.87955 5.08295 7.07727C5.28068 7.275 5.58068 7.42159 5.98295 7.51705C6.38523 7.60568 6.9375 7.70114 7.63977 7.80341C7.74204 7.81023 7.82386 7.85114 7.88523 7.92614C7.95341 7.99432 7.9875 8.07955 7.9875 8.18182C7.9875 8.4 7.875 8.52955 7.65 8.57045C6.94091 8.70682 6.38523 8.82955 5.98295 8.93864C5.5875 9.04091 5.29091 9.19091 5.09318 9.38864C4.89545 9.57955 4.74886 9.86591 4.65341 10.2477C4.55795 10.6227 4.46932 11.1477 4.3875 11.8227C4.36705 11.925 4.32273 12.0102 4.25455 12.0784C4.18636 12.1466 4.10114 12.1807 3.99886 12.1807ZM8.94886 5.03182C8.80568 5.03182 8.72386 4.95682 8.70341 4.80682C8.62841 4.39091 8.56023 4.06364 8.49886 3.825C8.44432 3.58636 8.35568 3.40568 8.23295 3.28295C8.11705 3.16023 7.93636 3.06477 7.69091 2.99659C7.45227 2.92159 7.11136 2.84659 6.66818 2.77159C6.51818 2.7375 6.44318 2.64886 6.44318 2.50568C6.44318 2.37614 6.51818 2.29432 6.66818 2.26023C7.11136 2.17841 7.45227 2.10341 7.69091 2.03523C7.93636 1.96023 8.11705 1.86136 8.23295 1.73864C8.35568 1.61591 8.44432 1.43864 8.49886 1.20682C8.56023 0.968182 8.62841 0.640909 8.70341 0.225C8.72386 0.075 8.80568 0 8.94886 0C9.09204 0 9.17727 0.075 9.20455 0.225C9.27273 0.640909 9.3375 0.968182 9.39886 1.20682C9.46023 1.44545 9.54886 1.62614 9.66477 1.74886C9.7875 1.87159 9.96818 1.97045 10.2068 2.04545C10.4523 2.11364 10.7966 2.18523 11.2398 2.26023C11.3898 2.2875 11.4648 2.36932 11.4648 2.50568C11.4648 2.64886 11.3898 2.7375 11.2398 2.77159C10.7966 2.84659 10.4523 2.92159 10.2068 2.99659C9.96818 3.06477 9.7875 3.16364 9.66477 3.29318C9.54886 3.41591 9.46023 3.59659 9.39886 3.83523C9.3375 4.06705 9.27273 4.39091 9.20455 4.80682C9.17727 4.95682 9.09204 5.03182 8.94886 5.03182Z" fill="#222631"/>
</svg>
