<svg width="24" height="24" viewBox="0 0 24 24" fill="none" xmlns="http://www.w3.org/2000/svg">
<path d="M22 17.5L18 13.5V15.175L16 13.175V6H8.82502L6.82502 4H16C16.55 4 17.0209 4.19584 17.4125 4.5875C17.8042 4.97917 18 5.45 18 6V10.5L22 6.5V17.5ZM20.55 23.35L0.650024 3.45L2.05002 2.05L21.95 21.95L20.55 23.35ZM4.00002 4L6.00002 6H4.00002V18H16V16L18 18C18 18.55 17.8042 19.0208 17.4125 19.4125C17.0209 19.8042 16.55 20 16 20H4.00002C3.45002 20 2.97919 19.8042 2.58752 19.4125C2.19586 19.0208 2.00002 18.55 2.00002 18V6C2.00002 5.45 2.19586 4.97917 2.58752 4.5875C2.97919 4.19584 3.45002 4 4.00002 4Z" fill="#222631"/>
</svg>
