<svg width="24" height="24" viewBox="0 0 24 24" fill="none" xmlns="http://www.w3.org/2000/svg">
<path d="M9 18H13C13.2833 18 13.5208 17.9042 13.7125 17.7125C13.9042 17.5208 14 17.2833 14 17V16L16 17.05V12.95L14 14V13C14 12.7167 13.9042 12.4792 13.7125 12.2875C13.5208 12.0958 13.2833 12 13 12H9C8.71667 12 8.47917 12.0958 8.2875 12.2875C8.09583 12.4792 8 12.7167 8 13V17C8 17.2833 8.09583 17.5208 8.2875 17.7125C8.47917 17.9042 8.71667 18 9 18ZM6 22C5.45 22 4.97917 21.8042 4.5875 21.4125C4.19583 21.0208 4 20.55 4 20V4C4 3.45 4.19583 2.97917 4.5875 2.5875C4.97917 2.19583 5.45 2 6 2H14L20 8V20C20 20.55 19.8042 21.0208 19.4125 21.4125C19.0208 21.8042 18.55 22 18 22H6ZM13 9V4H6V20H18V9H13Z" fill="#222631"/>
</svg>
