<svg width="24" height="24" viewBox="0 0 24 24" fill="none" xmlns="http://www.w3.org/2000/svg">
<path d="M10.0879 3.01067C10.3373 2.98014 10.5904 3.00518 10.8291 3.08391L10.9473 3.12785L11.0615 3.17961C11.2861 3.29262 11.4828 3.45427 11.6377 3.65227L11.7119 3.75481L11.7783 3.86223C11.9228 4.11714 11.9995 4.40569 12 4.70012V19.2968L11.9951 19.4228C11.9738 19.7158 11.8777 19.9994 11.7139 20.245C11.5266 20.5257 11.2599 20.7447 10.9482 20.8739C10.6364 21.0032 10.2929 21.0366 9.96191 20.9706C9.6309 20.9047 9.32634 20.7427 9.08789 20.5038L5.7041 17.1181C5.66679 17.0806 5.62214 17.0505 5.57324 17.0302C5.52435 17.0099 5.47186 16.9998 5.41895 16.9999H3C2.46957 16.9999 1.96101 16.7891 1.58594 16.414C1.21087 16.0389 1 15.5303 1 14.9999V8.99992C1.00001 8.4695 1.21087 7.96093 1.58594 7.58586C1.96101 7.2108 2.46957 6.99992 3 6.99992H5.41895C5.47187 7.00008 5.52435 6.9899 5.57324 6.96965C5.62214 6.94939 5.66679 6.9193 5.7041 6.88176L9.09082 3.49602C9.32922 3.25817 9.63258 3.09578 9.96289 3.0302L10.0879 3.01067ZM3 14.9999H5.41602C5.73258 14.9994 6.04639 15.0614 6.33887 15.1825C6.63129 15.3037 6.8967 15.4818 7.12012 15.706L10 18.5859V5.41399L7.12012 8.29387C6.89671 8.51808 6.6313 8.69614 6.33887 8.81731C6.04639 8.93846 5.73258 8.99949 5.41602 8.99895L3 8.99992V14.9999Z" fill="#222631"/>
<path d="M16 12C16 11.1345 15.7195 10.2919 15.2002 9.59956C14.869 9.15774 14.9586 8.53148 15.4004 8.20015C15.8422 7.86891 16.4685 7.95857 16.7998 8.40034C17.5787 9.43889 18 10.7018 18 12C18 13.2981 17.5787 14.561 16.7998 15.5996C16.4685 16.0413 15.8422 16.131 15.4004 15.7998C14.9586 15.4684 14.869 14.8422 15.2002 14.4003C15.7195 13.708 16 12.8654 16 12Z" fill="#222631"/>
<path d="M20.9997 12.0002C20.9997 10.9497 20.7933 9.90922 20.3913 8.93869C19.9893 7.96807 19.3998 7.08585 18.657 6.34298C18.2664 5.95246 18.2664 5.31945 18.657 4.92892C19.0475 4.5384 19.6805 4.5384 20.071 4.92892C20.9996 5.85751 21.7364 6.9598 22.239 8.17306C22.7415 9.38632 22.9997 10.687 22.9997 12.0002C22.9997 13.3132 22.7414 14.6133 22.239 15.8264C21.7364 17.0396 20.9996 18.1429 20.071 19.0715C19.6806 19.4617 19.0474 19.4617 18.657 19.0715C18.2664 18.681 18.2664 18.047 18.657 17.6565C19.3997 16.9137 19.9893 16.0322 20.3913 15.0617C20.7934 14.0912 20.9997 13.0507 20.9997 12.0002Z" fill="#222631"/>
</svg>
