<svg width="24" height="24" viewBox="0 0 24 24" fill="none" xmlns="http://www.w3.org/2000/svg">
<path d="M10.0879 3.01067C10.3373 2.98014 10.5904 3.00518 10.8291 3.08391L10.9473 3.12785L11.0615 3.17961C11.2861 3.29262 11.4828 3.45427 11.6377 3.65227L11.7119 3.75481L11.7783 3.86223C11.9228 4.11714 11.9995 4.40569 12 4.70012V19.2968L11.9951 19.4228C11.9738 19.7158 11.8777 19.9994 11.7139 20.245C11.5266 20.5257 11.2599 20.7447 10.9482 20.8739C10.6364 21.0032 10.2929 21.0366 9.96191 20.9706C9.6309 20.9047 9.32634 20.7427 9.08789 20.5038L5.7041 17.1181C5.66679 17.0806 5.62214 17.0505 5.57324 17.0302C5.52435 17.0099 5.47186 16.9998 5.41895 16.9999H3C2.46957 16.9999 1.96101 16.7891 1.58594 16.414C1.21087 16.0389 1 15.5303 1 14.9999V8.99992C1.00001 8.4695 1.21087 7.96093 1.58594 7.58586C1.96101 7.2108 2.46957 6.99992 3 6.99992H5.41895C5.47187 7.00008 5.52435 6.9899 5.57324 6.96965C5.62214 6.94939 5.66679 6.9193 5.7041 6.88176L9.09082 3.49602C9.32922 3.25817 9.63258 3.09578 9.96289 3.0302L10.0879 3.01067ZM21.293 8.29289C21.6835 7.90239 22.3165 7.90239 22.707 8.29289C23.0976 8.68341 23.0975 9.31643 22.707 9.70695L20.4141 11.9999L22.707 14.2929C23.0976 14.6834 23.0975 15.3164 22.707 15.707C22.3165 16.0975 21.6835 16.0975 21.293 15.707L19 13.414L16.707 15.707C16.3165 16.0975 15.6835 16.0975 15.293 15.707C14.9025 15.3164 14.9024 14.6834 15.293 14.2929L17.5859 11.9999L15.293 9.70695C14.9025 9.31643 14.9024 8.68341 15.293 8.29289C15.6835 7.90239 16.3165 7.90239 16.707 8.29289L19 10.5859L21.293 8.29289ZM3 14.9999H5.41602C5.73258 14.9994 6.04639 15.0614 6.33887 15.1825C6.63129 15.3037 6.8967 15.4818 7.12012 15.706L10 18.5859V5.41399L7.12012 8.29387C6.89671 8.51808 6.6313 8.69614 6.33887 8.81731C6.04639 8.93846 5.73258 8.99949 5.41602 8.99895L3 8.99992V14.9999Z" fill="#222631"/>
</svg>
