<svg width="24" height="24" viewBox="0 0 24 24" fill="none" xmlns="http://www.w3.org/2000/svg">
<path d="M4.63877 20.9744C4.08644 20.9744 3.60712 20.8538 3.20081 20.6126C2.7945 20.3713 2.48025 20.0475 2.25804 19.6412C2.04219 19.2349 1.93427 18.7842 1.93427 18.289C1.93427 17.8065 2.06124 17.3462 2.31518 16.9081L9.68592 4.06173C9.93351 3.61098 10.2668 3.27133 10.6858 3.04278C11.1048 2.81423 11.5429 2.69995 12 2.69995C12.4571 2.69995 12.892 2.81423 13.3046 3.04278C13.7173 3.26498 14.0538 3.60463 14.3141 4.06173L21.6848 16.9081C21.8118 17.124 21.907 17.3494 21.9705 17.5843C22.034 17.8192 22.0657 18.0541 22.0657 18.289C22.0657 18.7842 21.9546 19.2349 21.7324 19.6412C21.5102 20.0475 21.1959 20.3713 20.7896 20.6126C20.3897 20.8538 19.9135 20.9744 19.3612 20.9744H4.63877ZM12.0095 14.4512C12.5745 14.4512 12.8634 14.156 12.8761 13.5656L13.0285 8.78509C13.0412 8.49306 12.9491 8.25498 12.7523 8.07088C12.5555 7.88042 12.3047 7.78519 12 7.78519C11.6889 7.78519 11.4381 7.88042 11.2477 8.07088C11.0572 8.25498 10.9683 8.48988 10.981 8.77557L11.1144 13.5751C11.1334 14.1592 11.4318 14.4512 12.0095 14.4512ZM12.0095 17.7271C12.3269 17.7271 12.5999 17.6255 12.8285 17.4224C13.057 17.2192 13.1713 16.9589 13.1713 16.6415C13.1713 16.3304 13.057 16.0701 12.8285 15.8606C12.5999 15.6511 12.3269 15.5464 12.0095 15.5464C11.6857 15.5464 11.4096 15.6511 11.181 15.8606C10.9525 16.0701 10.8382 16.3304 10.8382 16.6415C10.8382 16.9589 10.9525 17.2192 11.181 17.4224C11.4159 17.6255 11.6921 17.7271 12.0095 17.7271Z" fill="#222631"/>
</svg>
