<svg width="24" height="24" viewBox="0 0 24 24" fill="none" xmlns="http://www.w3.org/2000/svg">
<path fill-rule="evenodd" clip-rule="evenodd" d="M12.0035 2.41406C12.4813 2.41412 12.9207 2.53552 13.3219 2.77734C13.729 3.01925 14.0565 3.34389 14.3043 3.75098C14.5521 4.15812 14.6764 4.60403 14.6764 5.08789C14.6763 5.57748 14.552 6.0227 14.3043 6.42383C14.0624 6.82507 13.7378 7.14674 13.3307 7.38867C13.183 7.47553 13.0295 7.5457 12.8707 7.60059V8.41602H16.0396C16.7593 8.41609 17.3615 8.60774 17.8453 8.99121C18.3289 9.36882 18.6567 9.90554 18.8277 10.6016L20.775 18.4883C21.0168 19.4675 20.9368 20.2287 20.5357 20.7715C20.1404 21.3143 19.4701 21.5859 18.526 21.5859H5.48007C4.53006 21.5859 3.85397 21.3143 3.45273 20.7715C3.05756 20.2287 2.98429 19.4676 3.23202 18.4883L5.1705 10.6016C5.34164 9.9054 5.66912 9.36881 6.15292 8.99121C6.63678 8.60767 7.2387 8.41602 7.95859 8.41602H11.1266V7.60156C10.9647 7.54656 10.8083 7.47593 10.6578 7.38867C10.2566 7.14675 9.93487 6.82505 9.69296 6.42383C9.45117 6.02273 9.33071 5.57743 9.33066 5.08789C9.33066 4.60403 9.45103 4.15812 9.69296 3.75098C9.93489 3.34384 10.2566 3.01927 10.6578 2.77734C11.0649 2.53543 11.5138 2.41406 12.0035 2.41406ZM8.0289 10.1504C7.38582 10.1504 6.98121 10.4837 6.81601 11.1504L4.92245 18.6035C4.81051 19.0103 4.82789 19.3199 4.97519 19.5322C5.12861 19.7447 5.37998 19.8506 5.72812 19.8506H18.2613C18.621 19.8505 18.8717 19.7446 19.0133 19.5322C19.1606 19.3199 19.1809 19.0104 19.0748 18.6035L17.19 11.1504C17.0189 10.4837 16.6115 10.1504 15.9684 10.1504H8.0289ZM12.0035 3.875C11.6731 3.875 11.387 3.99637 11.1451 4.23828C10.9091 4.48021 10.7906 4.76335 10.7906 5.08789C10.7907 5.41229 10.9092 5.69565 11.1451 5.9375C11.387 6.17329 11.6732 6.29102 12.0035 6.29102C12.3338 6.29094 12.6172 6.17345 12.8531 5.9375C13.0891 5.69565 13.2066 5.41229 13.2066 5.08789C13.2066 4.76351 13.086 4.48013 12.8443 4.23828C12.6084 3.99644 12.3279 3.87508 12.0035 3.875Z" fill="#222631"/>
</svg>
