<svg width="24" height="24" viewBox="0 0 24 24" fill="none" xmlns="http://www.w3.org/2000/svg">
<path d="M6 21C4.9 21 3.95833 20.6083 3.175 19.825C2.39167 19.0417 2 18.1 2 17C2 15.9 2.39167 14.9583 3.175 14.175C3.95833 13.3917 4.9 13 6 13C7.1 13 8.04167 13.3917 8.825 14.175C9.60833 14.9583 10 15.9 10 17C10 18.1 9.60833 19.0417 8.825 19.825C8.04167 20.6083 7.1 21 6 21ZM18 21C16.9 21 15.9583 20.6083 15.175 19.825C14.3917 19.0417 14 18.1 14 17C14 15.9 14.3917 14.9583 15.175 14.175C15.9583 13.3917 16.9 13 18 13C19.1 13 20.0417 13.3917 20.825 14.175C21.6083 14.9583 22 15.9 22 17C22 18.1 21.6083 19.0417 20.825 19.825C20.0417 20.6083 19.1 21 18 21ZM12 11C10.9 11 9.95833 10.6083 9.175 9.825C8.39167 9.04167 8 8.1 8 7C8 5.9 8.39167 4.95833 9.175 4.175C9.95833 3.39167 10.9 3 12 3C13.1 3 14.0417 3.39167 14.825 4.175C15.6083 4.95833 16 5.9 16 7C16 8.1 15.6083 9.04167 14.825 9.825C14.0417 10.6083 13.1 11 12 11Z" fill="#222631"/>
</svg>
