<svg width="24" height="24" viewBox="0 0 24 24" fill="none" xmlns="http://www.w3.org/2000/svg">
<path d="M4.78842 23.2081C3.72004 23.2081 2.91216 22.9377 2.36477 22.397C1.81739 21.8562 1.5437 21.0549 1.5437 19.9931V9.82367C1.5437 8.76188 1.81739 7.96059 2.36477 7.41981C2.91216 6.87902 3.72004 6.60863 4.78842 6.60863H19.2017C20.2701 6.60863 21.078 6.88232 21.6254 7.4297C22.1793 7.97049 22.4563 8.76848 22.4563 9.82367V19.9931C22.4563 21.0483 22.1793 21.8463 21.6254 22.3871C21.078 22.9345 20.2701 23.2081 19.2017 23.2081H4.78842ZM4.90713 21.2692H19.083C19.5381 21.2692 19.8876 21.1472 20.1316 20.9032C20.3822 20.6658 20.5075 20.3064 20.5075 19.8249V9.99184C20.5075 9.51041 20.3822 9.15098 20.1316 8.91356C19.8876 8.66955 19.5381 8.54754 19.083 8.54754H4.90713C4.44548 8.54754 4.09265 8.66955 3.84864 8.91356C3.61122 9.15098 3.49251 9.51041 3.49251 9.99184V19.8249C3.49251 20.3064 3.61122 20.6658 3.84864 20.9032C4.09265 21.1472 4.44548 21.2692 4.90713 21.2692ZM3.72004 4.99616C3.79258 4.52792 3.95416 4.16519 4.20477 3.90799C4.46197 3.65079 4.85437 3.52218 5.38197 3.52218H18.6181C19.1457 3.52218 19.5348 3.65079 19.7854 3.90799C20.0426 4.16519 20.2074 4.52792 20.28 4.99616H3.72004ZM5.7381 2.13724C5.76448 1.69538 5.90627 1.36233 6.16347 1.13811C6.42727 0.907282 6.79659 0.79187 7.27142 0.79187H16.7286C17.2034 0.79187 17.5695 0.907282 17.8267 1.13811C18.0839 1.36233 18.2323 1.69538 18.2718 2.13724H5.7381Z" fill="currentColor"/>
</svg>
