<svg width="24" height="24" viewBox="0 0 24 24" fill="none" xmlns="http://www.w3.org/2000/svg">
<path d="M12.032 11.8745C12.1434 11.8745 12.2462 11.8962 12.339 11.9395C12.4317 11.9828 12.5307 12.054 12.6358 12.153L15.1415 14.4452C15.2219 14.5195 15.2842 14.6005 15.3275 14.6871C15.3707 14.7736 15.3916 14.8727 15.3916 14.9839C15.3916 15.188 15.3204 15.3552 15.1782 15.4851C15.0421 15.6148 14.8749 15.6802 14.677 15.6802C14.5782 15.6801 14.479 15.6584 14.3802 15.6152C14.2874 15.5719 14.2073 15.5126 14.1392 15.4383L13.4613 14.7329L12.7393 13.9761L12.8209 15.42V18.3994C12.8208 18.6096 12.7407 18.7858 12.5799 18.928C12.4252 19.0765 12.2424 19.1506 12.032 19.1506C11.8157 19.1506 11.6305 19.0763 11.4759 18.928C11.3213 18.7858 11.2433 18.6096 11.2432 18.3994V15.42L11.3303 13.9688L10.6129 14.7329L9.91663 15.4383C9.85475 15.5126 9.77375 15.5719 9.67476 15.6152C9.57593 15.6583 9.47974 15.6802 9.38708 15.6802C9.1769 15.6801 9.00365 15.6149 8.86762 15.4851C8.73772 15.3552 8.67251 15.188 8.67247 14.9839C8.67247 14.8727 8.69433 14.7736 8.73752 14.6871C8.78083 14.6005 8.84604 14.5195 8.93266 14.4452L11.4384 12.153C11.5373 12.054 11.6333 11.9828 11.7261 11.9395C11.8187 11.8962 11.9208 11.8745 12.032 11.8745Z" fill="currentColor"/>
<path fill-rule="evenodd" clip-rule="evenodd" d="M11.5309 1.95331C11.9207 1.95331 12.2616 1.98191 12.5524 2.0376C12.8431 2.08711 13.1122 2.18302 13.3596 2.32527C13.607 2.46139 13.8611 2.6621 14.1209 2.92811L18.9839 7.87448C19.256 8.14658 19.4598 8.40975 19.5959 8.6633C19.7382 8.91078 19.8341 9.18651 19.8836 9.48968C19.9331 9.7866 19.9578 10.1515 19.9578 10.5845V19.0022C19.9578 19.9983 19.7047 20.7535 19.1974 21.267C18.69 21.7867 17.9379 22.0466 16.9418 22.0466H7.05819C6.06207 22.0466 5.30993 21.7897 4.80259 21.2761C4.29529 20.7626 4.04218 20.0045 4.04218 19.0022V4.99772C4.04219 4.00165 4.29527 3.24648 4.80259 2.73296C5.30993 2.21329 6.06211 1.95331 7.05819 1.95331H11.5309ZM7.21577 3.77281C6.76413 3.77282 6.42705 3.89043 6.20432 4.12554C5.98159 4.36064 5.86992 4.69175 5.86992 5.11866V18.8905C5.86992 19.3173 5.98163 19.6455 6.20432 19.8744C6.42706 20.1033 6.76114 20.218 7.20661 20.218H16.7934C17.245 20.218 17.5821 20.1033 17.8048 19.8744C18.0275 19.6455 18.1392 19.3173 18.1392 18.8905V10.8355H13.1369C12.4749 10.8355 11.9798 10.6715 11.6518 10.3435C11.3301 10.0156 11.169 9.52046 11.169 8.85844V3.77281H7.21577ZM12.7751 8.68254C12.7751 8.87416 12.8156 9.01282 12.896 9.0994C12.9826 9.18597 13.1212 9.22944 13.3128 9.22949H17.8882L12.7751 4.02292V8.68254Z" fill="currentColor"/>
</svg>
