<svg width="24" height="24" viewBox="0 0 24 24" fill="none" xmlns="http://www.w3.org/2000/svg">
<path d="M2.8544 19.4045C2.51806 19.4045 2.25096 19.3121 2.05312 19.1275C1.86186 18.9428 1.76624 18.6889 1.76624 18.3658C1.76624 18.1415 1.8091 17.9173 1.89484 17.6931L6.28708 5.85183C6.57726 5.03405 7.14772 4.62517 7.99847 4.62517C8.44693 4.62517 8.81295 4.72739 9.09653 4.93183C9.38012 5.12968 9.59775 5.43964 9.74944 5.86172L14.112 17.6436C14.2043 17.9008 14.2505 18.1349 14.2505 18.346C14.2505 18.6691 14.1483 18.9263 13.9438 19.1176C13.7394 19.3088 13.4624 19.4045 13.1129 19.4045C12.7831 19.4045 12.5259 19.3286 12.3413 19.1769C12.1566 19.0319 12.0115 18.7878 11.906 18.4449L10.798 15.3783H5.17913L4.08107 18.4449C3.96895 18.7878 3.82057 19.0319 3.63591 19.1769C3.45125 19.3286 3.19075 19.4045 2.8544 19.4045ZM5.743 13.5383H10.2638L8.02815 7.12795H7.9688L5.743 13.5383ZM15.6552 22.5206C15.1078 22.5206 14.8342 22.2898 14.8342 21.8281C14.8342 21.3665 15.1078 21.1357 15.6552 21.1357H17.7524V2.85442H15.6552C15.1078 2.85442 14.8342 2.6236 14.8342 2.16195C14.8342 1.7069 15.1078 1.47937 15.6552 1.47937H21.4027C21.9567 1.47937 22.2337 1.7069 22.2337 2.16195C22.2337 2.6236 21.9567 2.85442 21.4027 2.85442H19.3451V21.1357H21.4027C21.9567 21.1357 22.2337 21.3665 22.2337 21.8281C22.2337 22.2898 21.9567 22.5206 21.4027 22.5206H15.6552Z" fill="currentColor"/>
</svg>
