<svg width="24" height="24" viewBox="0 0 24 24" fill="none" xmlns="http://www.w3.org/2000/svg">
<path d="M4.3136 21.6055L17.2529 8.63648C17.5035 8.38587 17.6288 8.0858 17.6288 7.73626C17.6288 7.38673 17.5068 7.08666 17.2628 6.83605C17.0254 6.58544 16.7286 6.46014 16.3725 6.46014C16.0098 6.46014 15.7031 6.58544 15.4525 6.83605L2.51318 19.805C2.26257 20.0622 2.13726 20.3623 2.13726 20.7053C2.13726 21.0548 2.25927 21.3549 2.50328 21.6055C2.7407 21.8561 3.04078 21.9814 3.4035 21.9814C3.75963 21.988 4.06299 21.8627 4.3136 21.6055ZM12.9101 11.7526L12.3463 11.1986L15.9471 7.58788C16.0263 7.50874 16.1219 7.46917 16.234 7.46917C16.3395 7.46917 16.4318 7.50874 16.511 7.58788C16.5901 7.66702 16.6297 7.76264 16.6297 7.87476C16.6297 7.98028 16.5901 8.06931 16.511 8.14185L12.9101 11.7526ZM7.49897 9.71475C7.59789 9.71475 7.67703 9.68837 7.73639 9.63561C7.79574 9.58285 7.82872 9.51031 7.83531 9.41798C7.93424 8.82443 8.04635 8.3397 8.17165 7.96379C8.29036 7.58128 8.46183 7.27791 8.68606 7.05369C8.90369 6.82286 9.20047 6.6481 9.57638 6.52939C9.95229 6.40408 10.4436 6.29197 11.0504 6.19304C11.2548 6.16007 11.357 6.05455 11.357 5.87648C11.357 5.67864 11.2548 5.56652 11.0504 5.54014C10.437 5.45441 9.9457 5.34889 9.57638 5.22358C9.20047 5.09168 8.90369 4.91362 8.68606 4.68939C8.46843 4.46516 8.30026 4.16509 8.18155 3.78918C8.06284 3.40667 7.94742 2.91535 7.83531 2.31521C7.80234 2.11736 7.69022 2.01843 7.49897 2.01843C7.3275 2.01843 7.22198 2.12065 7.18241 2.3251C7.09008 2.91205 6.98126 3.39678 6.85596 3.77929C6.73066 4.1552 6.55919 4.45857 6.34155 4.68939C6.12392 4.91362 5.82715 5.09168 5.45123 5.22358C5.06873 5.34889 4.5708 5.45441 3.95747 5.54014C3.75962 5.56652 3.6607 5.67864 3.6607 5.87648C3.6607 6.06114 3.75962 6.16666 3.95747 6.19304C4.5774 6.28537 5.07532 6.39419 5.45123 6.51949C5.82715 6.6448 6.12392 6.81956 6.34155 7.04379C6.55259 7.26802 6.71747 7.57469 6.83617 7.96379C6.95488 8.3463 7.0703 8.83432 7.18241 9.42787C7.1956 9.51361 7.23517 9.58285 7.30112 9.63561C7.36047 9.68837 7.42642 9.71475 7.49897 9.71475ZM19.0138 17.8463C19.1786 17.8463 19.2743 17.7573 19.3007 17.5792C19.3732 17.111 19.4424 16.7417 19.5084 16.4713C19.5677 16.2009 19.6667 15.9965 19.8052 15.858C19.9371 15.7129 20.1448 15.6008 20.4284 15.5216C20.7054 15.4425 21.0978 15.3633 21.6056 15.2842C21.7771 15.2512 21.8628 15.1556 21.8628 14.9973C21.8628 14.8324 21.7738 14.7368 21.5957 14.7104C21.0945 14.6313 20.7054 14.5555 20.4284 14.4829C20.1448 14.4038 19.9371 14.2917 19.8052 14.1466C19.6667 14.0015 19.5677 13.7937 19.5084 13.5233C19.4424 13.2464 19.3732 12.877 19.3007 12.4154C19.2743 12.2373 19.1786 12.1483 19.0138 12.1483C18.8489 12.1483 18.7533 12.2373 18.7269 12.4154C18.6543 12.877 18.5851 13.2431 18.5191 13.5134C18.4532 13.7838 18.3543 13.9916 18.2224 14.1367C18.0905 14.2818 17.886 14.3939 17.609 14.473C17.3255 14.5522 16.9298 14.6313 16.422 14.7104C16.2505 14.7368 16.1647 14.8324 16.1647 14.9973C16.1647 15.1556 16.2505 15.2512 16.422 15.2842C16.9298 15.3633 17.3222 15.4425 17.5992 15.5216C17.8761 15.5942 18.0839 15.703 18.2224 15.8481C18.3543 15.9866 18.4532 16.1943 18.5191 16.4713C18.5851 16.7417 18.6543 17.111 18.7269 17.5792C18.7533 17.7573 18.8489 17.8463 19.0138 17.8463ZM15.6701 20.6954C15.7888 20.6954 15.868 20.6228 15.9075 20.4777C15.9801 20.115 16.046 19.8512 16.1054 19.6863C16.1582 19.5149 16.267 19.3962 16.4318 19.3302C16.5901 19.2643 16.877 19.1884 17.2925 19.1027C17.4244 19.0763 17.4903 19.0005 17.4903 18.8752C17.4903 18.7498 17.4211 18.6707 17.2826 18.6377C16.8737 18.5718 16.5868 18.5058 16.422 18.4399C16.2571 18.3673 16.1483 18.2486 16.0955 18.0838C16.0427 17.9123 15.9801 17.6419 15.9075 17.2726C15.868 17.1275 15.7888 17.0549 15.6701 17.0549C15.5382 17.0549 15.4591 17.1242 15.4327 17.2627C15.3668 17.6386 15.3074 17.909 15.2546 18.0739C15.2019 18.2387 15.0931 18.3542 14.9282 18.4201C14.7567 18.4861 14.4632 18.5586 14.0478 18.6377C13.9159 18.6641 13.8499 18.7433 13.8499 18.8752C13.8499 19.0005 13.9192 19.0763 14.0577 19.1027C14.4665 19.1884 14.7567 19.2643 14.9282 19.3302C15.0997 19.3962 15.2118 19.5149 15.2645 19.6863C15.3173 19.8512 15.3734 20.115 15.4327 20.4777C15.4591 20.6228 15.5382 20.6954 15.6701 20.6954Z" fill="currentColor"/>
</svg>
