<svg
  width="32"
  height="40"
  viewBox="0 0 32 40"
  fill="none"
  xmlns="http://www.w3.org/2000/svg"
>
  <g filter="url(#filter0_d_11326_8575)">
    <rect
      x="4.35"
      y="2.35"
      width="23.3"
      height="31.3"
      rx="3.20556"
      fill="white"
    />
    <rect
      x="4.35"
      y="2.35"
      width="23.3"
      height="31.3"
      rx="3.20556"
      stroke="currentColor"
      stroke-width="0.7"
    />
    <rect
      x="4.35"
      y="2.35"
      width="23.3"
      height="31.3"
      rx="3.20556"
      stroke="#F6F8F9"
      stroke-opacity="0.8"
      stroke-width="0.7"
    />
    <path
      fill-rule="evenodd"
      clip-rule="evenodd"
      d="M7.55664 7.7778C7.55664 7.28689 7.95461 6.88892 8.44553 6.88892H23.5002C23.9911 6.88892 24.3891 7.28689 24.3891 7.7778C24.3891 8.26872 23.9911 8.66669 23.5002 8.66669H8.44553C7.95461 8.66669 7.55664 8.26872 7.55664 7.7778ZM7.55664 10.4445C7.55664 9.95355 7.95461 9.55558 8.44553 9.55558H23.5002C23.9911 9.55558 24.3891 9.95355 24.3891 10.4445C24.3891 10.9354 23.9911 11.3334 23.5002 11.3334H8.44553C7.95461 11.3334 7.55664 10.9354 7.55664 10.4445ZM7.55664 13.1111C7.55664 12.6202 7.95461 12.2222 8.44553 12.2222H23.5002C23.9911 12.2222 24.3891 12.6202 24.3891 13.1111C24.3891 13.6021 23.9911 14 23.5002 14H8.44553C7.95461 14 7.55664 13.6021 7.55664 13.1111ZM7.55664 15.7778C7.55664 15.2869 7.95461 14.8889 8.44553 14.8889H15.5002C15.9911 14.8889 16.3891 15.2869 16.3891 15.7778C16.3891 16.2687 15.9911 16.6667 15.5002 16.6667H8.44553C7.95461 16.6667 7.55664 16.2687 7.55664 15.7778Z"
      fill="currentColor"
    />
    <path
      fill-rule="evenodd"
      clip-rule="evenodd"
      d="M7.55664 7.7778C7.55664 7.28689 7.95461 6.88892 8.44553 6.88892H23.5002C23.9911 6.88892 24.3891 7.28689 24.3891 7.7778C24.3891 8.26872 23.9911 8.66669 23.5002 8.66669H8.44553C7.95461 8.66669 7.55664 8.26872 7.55664 7.7778ZM7.55664 10.4445C7.55664 9.95355 7.95461 9.55558 8.44553 9.55558H23.5002C23.9911 9.55558 24.3891 9.95355 24.3891 10.4445C24.3891 10.9354 23.9911 11.3334 23.5002 11.3334H8.44553C7.95461 11.3334 7.55664 10.9354 7.55664 10.4445ZM7.55664 13.1111C7.55664 12.6202 7.95461 12.2222 8.44553 12.2222H23.5002C23.9911 12.2222 24.3891 12.6202 24.3891 13.1111C24.3891 13.6021 23.9911 14 23.5002 14H8.44553C7.95461 14 7.55664 13.6021 7.55664 13.1111ZM7.55664 15.7778C7.55664 15.2869 7.95461 14.8889 8.44553 14.8889H15.5002C15.9911 14.8889 16.3891 15.2869 16.3891 15.7778C16.3891 16.2687 15.9911 16.6667 15.5002 16.6667H8.44553C7.95461 16.6667 7.55664 16.2687 7.55664 15.7778Z"
      fill="white"
      fill-opacity="0.65"
    />
  </g>
  <defs>
    <filter
      id="filter0_d_11326_8575"
      x="-4"
      y="0"
      width="40"
      height="40"
      filterUnits="userSpaceOnUse"
      color-interpolation-filters="sRGB"
    >
      <feFlood flood-opacity="0" result="BackgroundImageFix" />
      <feColorMatrix
        in="SourceAlpha"
        type="matrix"
        values="0 0 0 0 0 0 0 0 0 0 0 0 0 0 0 0 0 0 127 0"
        result="hardAlpha"
      />
      <feOffset dy="2" />
      <feGaussianBlur stdDeviation="2" />
      <feComposite in2="hardAlpha" operator="out" />
      <feColorMatrix
        type="matrix"
        values="0 0 0 0 0.0941176 0 0 0 0 0.105882 0 0 0 0 0.141176 0 0 0 0.05 0"
      />
      <feBlend
        mode="normal"
        in2="BackgroundImageFix"
        result="effect1_dropShadow_11326_8575"
      />
      <feBlend
        mode="normal"
        in="SourceGraphic"
        in2="effect1_dropShadow_11326_8575"
        result="shape"
      />
    </filter>
  </defs>
</svg>
